%TF.GenerationSoftware,KiCad,Pcbnew,5.1.10-88a1d61d58~90~ubuntu20.04.1*%
%TF.CreationDate,2021-11-29T14:26:43+09:00*%
%TF.ProjectId,auto-headlight-control-system,6175746f-2d68-4656-9164-6c696768742d,rev?*%
%TF.SameCoordinates,Original*%
%TF.FileFunction,Soldermask,Bot*%
%TF.FilePolarity,Negative*%
%FSLAX46Y46*%
G04 Gerber Fmt 4.6, Leading zero omitted, Abs format (unit mm)*
G04 Created by KiCad (PCBNEW 5.1.10-88a1d61d58~90~ubuntu20.04.1) date 2021-11-29 14:26:43*
%MOMM*%
%LPD*%
G01*
G04 APERTURE LIST*
%ADD10R,1.700000X1.700000*%
%ADD11C,3.200000*%
%ADD12O,1.700000X1.700000*%
%ADD13C,1.600000*%
%ADD14O,1.600000X1.600000*%
G04 APERTURE END LIST*
D10*
%TO.C,D2*%
X138430000Y-64770000D03*
%TD*%
D11*
%TO.C, *%
X166370000Y-96520000D03*
%TD*%
D10*
%TO.C,U3*%
X151130000Y-39370000D03*
D12*
X151130000Y-41910000D03*
X151130000Y-44450000D03*
X151130000Y-46990000D03*
X151130000Y-49530000D03*
X151130000Y-52070000D03*
X151130000Y-54610000D03*
X151130000Y-57150000D03*
X151130000Y-59690000D03*
X151130000Y-62230000D03*
X151130000Y-64770000D03*
X151130000Y-67310000D03*
X151130000Y-69850000D03*
X151130000Y-72390000D03*
X151130000Y-74930000D03*
X151130000Y-77470000D03*
X151130000Y-80010000D03*
X151130000Y-82550000D03*
X151130000Y-85090000D03*
X151130000Y-87630000D03*
%TD*%
D10*
%TO.C,J4*%
X144780000Y-44450000D03*
%TD*%
D13*
%TO.C,R1*%
X138430000Y-71120000D03*
D14*
X138430000Y-78740000D03*
%TD*%
D12*
%TO.C,U4*%
X166370000Y-87630000D03*
X166370000Y-85090000D03*
X166370000Y-82550000D03*
X166370000Y-80010000D03*
X166370000Y-77470000D03*
X166370000Y-74930000D03*
X166370000Y-72390000D03*
X166370000Y-69850000D03*
X166370000Y-67310000D03*
X166370000Y-64770000D03*
X166370000Y-62230000D03*
X166370000Y-59690000D03*
X166370000Y-57150000D03*
X166370000Y-54610000D03*
X166370000Y-52070000D03*
X166370000Y-49530000D03*
X166370000Y-46990000D03*
X166370000Y-44450000D03*
X166370000Y-41910000D03*
D10*
X166370000Y-39370000D03*
%TD*%
%TO.C,J3*%
X144780000Y-52070000D03*
%TD*%
%TO.C,T2*%
X144780000Y-72390000D03*
D12*
X144780000Y-74930000D03*
X144780000Y-77470000D03*
X144780000Y-80010000D03*
%TD*%
D10*
%TO.C,M1*%
X144780000Y-96520000D03*
D12*
X144780000Y-93980000D03*
X144780000Y-91440000D03*
%TD*%
D10*
%TO.C,D1*%
X144780000Y-64770000D03*
%TD*%
D11*
%TO.C, *%
X138430000Y-38100000D03*
%TD*%
M02*
