M48
; DRILL file {KiCad 5.1.10-88a1d61d58~90~ubuntu20.04.1} date Mon Nov 29 14:26:46 2021
; FORMAT={-:-/ absolute / inch / decimal}
; #@! TF.CreationDate,2021-11-29T14:26:46+09:00
; #@! TF.GenerationSoftware,Kicad,Pcbnew,5.1.10-88a1d61d58~90~ubuntu20.04.1
FMAT,2
INCH
T1C0.0315
T2C0.0394
T3C0.1181
%
G90
G05
T1
X5.45Y-2.8
X5.45Y-3.1
T2
X5.45Y-2.55
X5.7Y-1.75
X5.7Y-2.05
X5.7Y-2.55
X5.7Y-2.85
X5.7Y-2.95
X5.7Y-3.05
X5.7Y-3.15
X5.7Y-3.6
X5.7Y-3.7
X5.7Y-3.8
X5.95Y-1.55
X5.95Y-1.65
X5.95Y-1.75
X5.95Y-1.85
X5.95Y-1.95
X5.95Y-2.05
X5.95Y-2.15
X5.95Y-2.25
X5.95Y-2.35
X5.95Y-2.45
X5.95Y-2.55
X5.95Y-2.65
X5.95Y-2.75
X5.95Y-2.85
X5.95Y-2.95
X5.95Y-3.05
X5.95Y-3.15
X5.95Y-3.25
X5.95Y-3.35
X5.95Y-3.45
X6.55Y-1.55
X6.55Y-1.65
X6.55Y-1.75
X6.55Y-1.85
X6.55Y-1.95
X6.55Y-2.05
X6.55Y-2.15
X6.55Y-2.25
X6.55Y-2.35
X6.55Y-2.45
X6.55Y-2.55
X6.55Y-2.65
X6.55Y-2.75
X6.55Y-2.85
X6.55Y-2.95
X6.55Y-3.05
X6.55Y-3.15
X6.55Y-3.25
X6.55Y-3.35
X6.55Y-3.45
T3
X5.45Y-1.5
X6.55Y-3.8
T0
M30
