%TF.GenerationSoftware,KiCad,Pcbnew,5.1.10-88a1d61d58~90~ubuntu20.04.1*%
%TF.CreationDate,2021-11-29T14:26:43+09:00*%
%TF.ProjectId,auto-headlight-control-system,6175746f-2d68-4656-9164-6c696768742d,rev?*%
%TF.SameCoordinates,Original*%
%TF.FileFunction,Legend,Top*%
%TF.FilePolarity,Positive*%
%FSLAX46Y46*%
G04 Gerber Fmt 4.6, Leading zero omitted, Abs format (unit mm)*
G04 Created by KiCad (PCBNEW 5.1.10-88a1d61d58~90~ubuntu20.04.1) date 2021-11-29 14:26:43*
%MOMM*%
%LPD*%
G01*
G04 APERTURE LIST*
%ADD10C,0.150000*%
%ADD11C,0.120000*%
G04 APERTURE END LIST*
D10*
X141875238Y-57761666D02*
X142351428Y-57761666D01*
X141780000Y-58047380D02*
X142113333Y-57047380D01*
X142446666Y-58047380D01*
X143208571Y-57999761D02*
X143113333Y-58047380D01*
X142922857Y-58047380D01*
X142827619Y-57999761D01*
X142780000Y-57952142D01*
X142732380Y-57856904D01*
X142732380Y-57571190D01*
X142780000Y-57475952D01*
X142827619Y-57428333D01*
X142922857Y-57380714D01*
X143113333Y-57380714D01*
X143208571Y-57428333D01*
X143494285Y-57380714D02*
X143875238Y-57380714D01*
X143637142Y-57047380D02*
X143637142Y-57904523D01*
X143684761Y-57999761D01*
X143780000Y-58047380D01*
X143875238Y-58047380D01*
X144637142Y-57380714D02*
X144637142Y-58047380D01*
X144208571Y-57380714D02*
X144208571Y-57904523D01*
X144256190Y-57999761D01*
X144351428Y-58047380D01*
X144494285Y-58047380D01*
X144589523Y-57999761D01*
X144637142Y-57952142D01*
X145541904Y-58047380D02*
X145541904Y-57523571D01*
X145494285Y-57428333D01*
X145399047Y-57380714D01*
X145208571Y-57380714D01*
X145113333Y-57428333D01*
X145541904Y-57999761D02*
X145446666Y-58047380D01*
X145208571Y-58047380D01*
X145113333Y-57999761D01*
X145065714Y-57904523D01*
X145065714Y-57809285D01*
X145113333Y-57714047D01*
X145208571Y-57666428D01*
X145446666Y-57666428D01*
X145541904Y-57618809D01*
X145875238Y-57380714D02*
X146256190Y-57380714D01*
X146018095Y-57047380D02*
X146018095Y-57904523D01*
X146065714Y-57999761D01*
X146160952Y-58047380D01*
X146256190Y-58047380D01*
X146732380Y-58047380D02*
X146637142Y-57999761D01*
X146589523Y-57952142D01*
X146541904Y-57856904D01*
X146541904Y-57571190D01*
X146589523Y-57475952D01*
X146637142Y-57428333D01*
X146732380Y-57380714D01*
X146875238Y-57380714D01*
X146970476Y-57428333D01*
X147018095Y-57475952D01*
X147065714Y-57571190D01*
X147065714Y-57856904D01*
X147018095Y-57952142D01*
X146970476Y-57999761D01*
X146875238Y-58047380D01*
X146732380Y-58047380D01*
X147494285Y-58047380D02*
X147494285Y-57380714D01*
X147494285Y-57571190D02*
X147541904Y-57475952D01*
X147589523Y-57428333D01*
X147684761Y-57380714D01*
X147780000Y-57380714D01*
X142637142Y-59697380D02*
X142637142Y-58697380D01*
X142732380Y-59316428D02*
X143018095Y-59697380D01*
X143018095Y-59030714D02*
X142637142Y-59411666D01*
X143446666Y-59697380D02*
X143446666Y-59030714D01*
X143446666Y-59125952D02*
X143494285Y-59078333D01*
X143589523Y-59030714D01*
X143732380Y-59030714D01*
X143827619Y-59078333D01*
X143875238Y-59173571D01*
X143875238Y-59697380D01*
X143875238Y-59173571D02*
X143922857Y-59078333D01*
X144018095Y-59030714D01*
X144160952Y-59030714D01*
X144256190Y-59078333D01*
X144303809Y-59173571D01*
X144303809Y-59697380D01*
X144780000Y-59697380D02*
X144780000Y-58697380D01*
X144875238Y-59316428D02*
X145160952Y-59697380D01*
X145160952Y-59030714D02*
X144780000Y-59411666D01*
X145589523Y-59697380D02*
X145589523Y-59030714D01*
X145589523Y-58697380D02*
X145541904Y-58745000D01*
X145589523Y-58792619D01*
X145637142Y-58745000D01*
X145589523Y-58697380D01*
X145589523Y-58792619D01*
X146065714Y-59697380D02*
X146065714Y-59030714D01*
X146065714Y-59125952D02*
X146113333Y-59078333D01*
X146208571Y-59030714D01*
X146351428Y-59030714D01*
X146446666Y-59078333D01*
X146494285Y-59173571D01*
X146494285Y-59697380D01*
X146494285Y-59173571D02*
X146541904Y-59078333D01*
X146637142Y-59030714D01*
X146780000Y-59030714D01*
X146875238Y-59078333D01*
X146922857Y-59173571D01*
X146922857Y-59697380D01*
D11*
%TO.C,D2*%
X137100000Y-63440000D02*
X138430000Y-63440000D01*
X137100000Y-64770000D02*
X137100000Y-63440000D01*
X137100000Y-66040000D02*
X139760000Y-66040000D01*
X139760000Y-66040000D02*
X139760000Y-66100000D01*
X137100000Y-66040000D02*
X137100000Y-66100000D01*
X137100000Y-66100000D02*
X139760000Y-66100000D01*
%TO.C, *%
X167621000Y-96520000D02*
G75*
G03*
X167621000Y-96520000I-1251000J0D01*
G01*
%TO.C,U3*%
X149800000Y-88960000D02*
X152460000Y-88960000D01*
X149800000Y-40640000D02*
X149800000Y-88960000D01*
X152460000Y-40640000D02*
X152460000Y-88960000D01*
X149800000Y-40640000D02*
X152460000Y-40640000D01*
X149800000Y-39370000D02*
X149800000Y-38040000D01*
X149800000Y-38040000D02*
X151130000Y-38040000D01*
%TO.C,J4*%
X144780000Y-43120000D02*
X146110000Y-43120000D01*
X146110000Y-43120000D02*
X146110000Y-44450000D01*
X146110000Y-45660000D02*
X146110000Y-45780000D01*
X143450000Y-45660000D02*
X143450000Y-45780000D01*
X143450000Y-45780000D02*
X146110000Y-45780000D01*
%TO.C,R1*%
X139470000Y-71660000D02*
X139800000Y-71660000D01*
X139800000Y-71660000D02*
X139800000Y-78200000D01*
X139800000Y-78200000D02*
X139470000Y-78200000D01*
X137390000Y-71660000D02*
X137060000Y-71660000D01*
X137060000Y-71660000D02*
X137060000Y-78200000D01*
X137060000Y-78200000D02*
X137390000Y-78200000D01*
%TO.C,U4*%
X165040000Y-38040000D02*
X166370000Y-38040000D01*
X165040000Y-39370000D02*
X165040000Y-38040000D01*
X165040000Y-40640000D02*
X167700000Y-40640000D01*
X167700000Y-40640000D02*
X167700000Y-88960000D01*
X165040000Y-40640000D02*
X165040000Y-88960000D01*
X165040000Y-88960000D02*
X167700000Y-88960000D01*
%TO.C,J3*%
X143450000Y-53400000D02*
X146110000Y-53400000D01*
X143450000Y-53280000D02*
X143450000Y-53400000D01*
X146110000Y-53280000D02*
X146110000Y-53400000D01*
X146110000Y-50740000D02*
X146110000Y-52070000D01*
X144780000Y-50740000D02*
X146110000Y-50740000D01*
%TO.C,T2*%
X143450000Y-81340000D02*
X146110000Y-81340000D01*
X143450000Y-73660000D02*
X143450000Y-81340000D01*
X146110000Y-73660000D02*
X146110000Y-81340000D01*
X143450000Y-73660000D02*
X146110000Y-73660000D01*
X143450000Y-72390000D02*
X143450000Y-71060000D01*
X143450000Y-71060000D02*
X144780000Y-71060000D01*
%TO.C,M1*%
X146110000Y-90110000D02*
X143450000Y-90110000D01*
X146110000Y-95250000D02*
X146110000Y-90110000D01*
X143450000Y-95250000D02*
X143450000Y-90110000D01*
X146110000Y-95250000D02*
X143450000Y-95250000D01*
X146110000Y-96520000D02*
X146110000Y-97850000D01*
X146110000Y-97850000D02*
X144780000Y-97850000D01*
%TO.C,D1*%
X143450000Y-66100000D02*
X146110000Y-66100000D01*
X143450000Y-66040000D02*
X143450000Y-66100000D01*
X146110000Y-66040000D02*
X146110000Y-66100000D01*
X143450000Y-66040000D02*
X146110000Y-66040000D01*
X143450000Y-64770000D02*
X143450000Y-63440000D01*
X143450000Y-63440000D02*
X144780000Y-63440000D01*
%TO.C, *%
X139681000Y-38100000D02*
G75*
G03*
X139681000Y-38100000I-1251000J0D01*
G01*
%TO.C,D2*%
D10*
X137691904Y-62892380D02*
X137691904Y-61892380D01*
X137930000Y-61892380D01*
X138072857Y-61940000D01*
X138168095Y-62035238D01*
X138215714Y-62130476D01*
X138263333Y-62320952D01*
X138263333Y-62463809D01*
X138215714Y-62654285D01*
X138168095Y-62749523D01*
X138072857Y-62844761D01*
X137930000Y-62892380D01*
X137691904Y-62892380D01*
X138644285Y-61987619D02*
X138691904Y-61940000D01*
X138787142Y-61892380D01*
X139025238Y-61892380D01*
X139120476Y-61940000D01*
X139168095Y-61987619D01*
X139215714Y-62082857D01*
X139215714Y-62178095D01*
X139168095Y-62320952D01*
X138596666Y-62892380D01*
X139215714Y-62892380D01*
%TO.C, *%
%TO.C,U3*%
X150368095Y-36492380D02*
X150368095Y-37301904D01*
X150415714Y-37397142D01*
X150463333Y-37444761D01*
X150558571Y-37492380D01*
X150749047Y-37492380D01*
X150844285Y-37444761D01*
X150891904Y-37397142D01*
X150939523Y-37301904D01*
X150939523Y-36492380D01*
X151320476Y-36492380D02*
X151939523Y-36492380D01*
X151606190Y-36873333D01*
X151749047Y-36873333D01*
X151844285Y-36920952D01*
X151891904Y-36968571D01*
X151939523Y-37063809D01*
X151939523Y-37301904D01*
X151891904Y-37397142D01*
X151844285Y-37444761D01*
X151749047Y-37492380D01*
X151463333Y-37492380D01*
X151368095Y-37444761D01*
X151320476Y-37397142D01*
%TO.C,J4*%
X144446666Y-41132380D02*
X144446666Y-41846666D01*
X144399047Y-41989523D01*
X144303809Y-42084761D01*
X144160952Y-42132380D01*
X144065714Y-42132380D01*
X145351428Y-41465714D02*
X145351428Y-42132380D01*
X145113333Y-41084761D02*
X144875238Y-41799047D01*
X145494285Y-41799047D01*
%TO.C,R1*%
X141252380Y-75096666D02*
X140776190Y-75430000D01*
X141252380Y-75668095D02*
X140252380Y-75668095D01*
X140252380Y-75287142D01*
X140300000Y-75191904D01*
X140347619Y-75144285D01*
X140442857Y-75096666D01*
X140585714Y-75096666D01*
X140680952Y-75144285D01*
X140728571Y-75191904D01*
X140776190Y-75287142D01*
X140776190Y-75668095D01*
X141252380Y-74144285D02*
X141252380Y-74715714D01*
X141252380Y-74430000D02*
X140252380Y-74430000D01*
X140395238Y-74525238D01*
X140490476Y-74620476D01*
X140538095Y-74715714D01*
%TO.C,U4*%
X165608095Y-36492380D02*
X165608095Y-37301904D01*
X165655714Y-37397142D01*
X165703333Y-37444761D01*
X165798571Y-37492380D01*
X165989047Y-37492380D01*
X166084285Y-37444761D01*
X166131904Y-37397142D01*
X166179523Y-37301904D01*
X166179523Y-36492380D01*
X167084285Y-36825714D02*
X167084285Y-37492380D01*
X166846190Y-36444761D02*
X166608095Y-37159047D01*
X167227142Y-37159047D01*
%TO.C,J3*%
X144446666Y-48752380D02*
X144446666Y-49466666D01*
X144399047Y-49609523D01*
X144303809Y-49704761D01*
X144160952Y-49752380D01*
X144065714Y-49752380D01*
X144827619Y-48752380D02*
X145446666Y-48752380D01*
X145113333Y-49133333D01*
X145256190Y-49133333D01*
X145351428Y-49180952D01*
X145399047Y-49228571D01*
X145446666Y-49323809D01*
X145446666Y-49561904D01*
X145399047Y-49657142D01*
X145351428Y-49704761D01*
X145256190Y-49752380D01*
X144970476Y-49752380D01*
X144875238Y-49704761D01*
X144827619Y-49657142D01*
%TO.C,T2*%
X144018095Y-69512380D02*
X144589523Y-69512380D01*
X144303809Y-70512380D02*
X144303809Y-69512380D01*
X144875238Y-69607619D02*
X144922857Y-69560000D01*
X145018095Y-69512380D01*
X145256190Y-69512380D01*
X145351428Y-69560000D01*
X145399047Y-69607619D01*
X145446666Y-69702857D01*
X145446666Y-69798095D01*
X145399047Y-69940952D01*
X144827619Y-70512380D01*
X145446666Y-70512380D01*
%TO.C,M1*%
X143970476Y-99302380D02*
X143970476Y-98302380D01*
X144303809Y-99016666D01*
X144637142Y-98302380D01*
X144637142Y-99302380D01*
X145637142Y-99302380D02*
X145065714Y-99302380D01*
X145351428Y-99302380D02*
X145351428Y-98302380D01*
X145256190Y-98445238D01*
X145160952Y-98540476D01*
X145065714Y-98588095D01*
%TO.C,D1*%
X144041904Y-62892380D02*
X144041904Y-61892380D01*
X144280000Y-61892380D01*
X144422857Y-61940000D01*
X144518095Y-62035238D01*
X144565714Y-62130476D01*
X144613333Y-62320952D01*
X144613333Y-62463809D01*
X144565714Y-62654285D01*
X144518095Y-62749523D01*
X144422857Y-62844761D01*
X144280000Y-62892380D01*
X144041904Y-62892380D01*
X145565714Y-62892380D02*
X144994285Y-62892380D01*
X145280000Y-62892380D02*
X145280000Y-61892380D01*
X145184761Y-62035238D01*
X145089523Y-62130476D01*
X144994285Y-62178095D01*
%TO.C, *%
%TD*%
M02*
