%TF.GenerationSoftware,KiCad,Pcbnew,5.1.10-88a1d61d58~90~ubuntu20.04.1*%
%TF.CreationDate,2021-11-29T14:26:43+09:00*%
%TF.ProjectId,auto-headlight-control-system,6175746f-2d68-4656-9164-6c696768742d,rev?*%
%TF.SameCoordinates,Original*%
%TF.FileFunction,Copper,L1,Top*%
%TF.FilePolarity,Positive*%
%FSLAX46Y46*%
G04 Gerber Fmt 4.6, Leading zero omitted, Abs format (unit mm)*
G04 Created by KiCad (PCBNEW 5.1.10-88a1d61d58~90~ubuntu20.04.1) date 2021-11-29 14:26:43*
%MOMM*%
%LPD*%
G01*
G04 APERTURE LIST*
%TA.AperFunction,ComponentPad*%
%ADD10R,1.700000X1.700000*%
%TD*%
%TA.AperFunction,ComponentPad*%
%ADD11C,3.200000*%
%TD*%
%TA.AperFunction,ComponentPad*%
%ADD12O,1.700000X1.700000*%
%TD*%
%TA.AperFunction,ComponentPad*%
%ADD13C,1.600000*%
%TD*%
%TA.AperFunction,ComponentPad*%
%ADD14O,1.600000X1.600000*%
%TD*%
%TA.AperFunction,Conductor*%
%ADD15C,0.750000*%
%TD*%
%TA.AperFunction,Conductor*%
%ADD16C,0.254000*%
%TD*%
%TA.AperFunction,Conductor*%
%ADD17C,0.100000*%
%TD*%
G04 APERTURE END LIST*
D10*
%TO.P,D2,1*%
%TO.N,Net-(D2-Pad1)*%
X138430000Y-64770000D03*
%TD*%
D11*
%TO.P, ,1*%
%TO.N,N/C*%
X166370000Y-96520000D03*
%TD*%
D10*
%TO.P,U3,1*%
%TO.N,Net-(U3-Pad1)*%
X151130000Y-39370000D03*
D12*
%TO.P,U3,2*%
%TO.N,Net-(U3-Pad2)*%
X151130000Y-41910000D03*
%TO.P,U3,3*%
%TO.N,Net-(U3-Pad3)*%
X151130000Y-44450000D03*
%TO.P,U3,4*%
%TO.N,Net-(U3-Pad4)*%
X151130000Y-46990000D03*
%TO.P,U3,5*%
%TO.N,Net-(U3-Pad5)*%
X151130000Y-49530000D03*
%TO.P,U3,6*%
%TO.N,Serial_Tx_2*%
X151130000Y-52070000D03*
%TO.P,U3,7*%
%TO.N,Net-(U3-Pad7)*%
X151130000Y-54610000D03*
%TO.P,U3,8*%
%TO.N,Net-(U3-Pad8)*%
X151130000Y-57150000D03*
%TO.P,U3,9*%
%TO.N,Net-(U3-Pad9)*%
X151130000Y-59690000D03*
%TO.P,U3,10*%
%TO.N,Net-(U3-Pad10)*%
X151130000Y-62230000D03*
%TO.P,U3,11*%
%TO.N,Net-(D1-Pad1)*%
X151130000Y-64770000D03*
%TO.P,U3,12*%
%TO.N,Net-(U3-Pad12)*%
X151130000Y-67310000D03*
%TO.P,U3,13*%
%TO.N,Net-(U3-Pad13)*%
X151130000Y-69850000D03*
%TO.P,U3,14*%
%TO.N,Net-(U3-Pad14)*%
X151130000Y-72390000D03*
%TO.P,U3,15*%
%TO.N,Net-(U3-Pad15)*%
X151130000Y-74930000D03*
%TO.P,U3,16*%
%TO.N,CAN_RX_2*%
X151130000Y-77470000D03*
%TO.P,U3,17*%
%TO.N,CAN_TX_2*%
X151130000Y-80010000D03*
%TO.P,U3,18*%
%TO.N,5V*%
X151130000Y-82550000D03*
%TO.P,U3,19*%
%TO.N,GND_2*%
X151130000Y-85090000D03*
%TO.P,U3,20*%
%TO.N,3V3_2*%
X151130000Y-87630000D03*
%TD*%
D10*
%TO.P,J4,1*%
%TO.N,GND_2*%
X144780000Y-44450000D03*
%TD*%
D13*
%TO.P,R1,1*%
%TO.N,Net-(D2-Pad1)*%
X138430000Y-71120000D03*
D14*
%TO.P,R1,2*%
%TO.N,GND_2*%
X138430000Y-78740000D03*
%TD*%
D12*
%TO.P,U4,20*%
%TO.N,Net-(U4-Pad20)*%
X166370000Y-87630000D03*
%TO.P,U4,19*%
%TO.N,Net-(U4-Pad19)*%
X166370000Y-85090000D03*
%TO.P,U4,18*%
%TO.N,Net-(U4-Pad18)*%
X166370000Y-82550000D03*
%TO.P,U4,17*%
%TO.N,Net-(U4-Pad17)*%
X166370000Y-80010000D03*
%TO.P,U4,16*%
%TO.N,Net-(U4-Pad16)*%
X166370000Y-77470000D03*
%TO.P,U4,15*%
%TO.N,Net-(U4-Pad15)*%
X166370000Y-74930000D03*
%TO.P,U4,14*%
%TO.N,Net-(U4-Pad14)*%
X166370000Y-72390000D03*
%TO.P,U4,13*%
%TO.N,Net-(U4-Pad13)*%
X166370000Y-69850000D03*
%TO.P,U4,12*%
%TO.N,Net-(U4-Pad12)*%
X166370000Y-67310000D03*
%TO.P,U4,11*%
%TO.N,Net-(U4-Pad11)*%
X166370000Y-64770000D03*
%TO.P,U4,10*%
%TO.N,PWM*%
X166370000Y-62230000D03*
%TO.P,U4,9*%
%TO.N,Net-(U4-Pad9)*%
X166370000Y-59690000D03*
%TO.P,U4,8*%
%TO.N,Net-(U4-Pad8)*%
X166370000Y-57150000D03*
%TO.P,U4,7*%
%TO.N,Net-(U4-Pad7)*%
X166370000Y-54610000D03*
%TO.P,U4,6*%
%TO.N,Net-(U4-Pad6)*%
X166370000Y-52070000D03*
%TO.P,U4,5*%
%TO.N,Net-(U4-Pad5)*%
X166370000Y-49530000D03*
%TO.P,U4,4*%
%TO.N,Net-(U4-Pad4)*%
X166370000Y-46990000D03*
%TO.P,U4,3*%
%TO.N,Net-(U4-Pad3)*%
X166370000Y-44450000D03*
%TO.P,U4,2*%
%TO.N,Net-(U4-Pad2)*%
X166370000Y-41910000D03*
D10*
%TO.P,U4,1*%
%TO.N,Net-(U4-Pad1)*%
X166370000Y-39370000D03*
%TD*%
%TO.P,J3,1*%
%TO.N,Serial_Tx_2*%
X144780000Y-52070000D03*
%TD*%
%TO.P,T2,1*%
%TO.N,3V3_2*%
X144780000Y-72390000D03*
D12*
%TO.P,T2,2*%
%TO.N,GND_2*%
X144780000Y-74930000D03*
%TO.P,T2,3*%
%TO.N,CAN_RX_2*%
X144780000Y-77470000D03*
%TO.P,T2,4*%
%TO.N,CAN_TX_2*%
X144780000Y-80010000D03*
%TD*%
D10*
%TO.P,M1,1*%
%TO.N,PWM*%
X144780000Y-96520000D03*
D12*
%TO.P,M1,2*%
%TO.N,5V*%
X144780000Y-93980000D03*
%TO.P,M1,3*%
%TO.N,GND_2*%
X144780000Y-91440000D03*
%TD*%
D10*
%TO.P,D1,1*%
%TO.N,Net-(D1-Pad1)*%
X144780000Y-64770000D03*
%TD*%
D11*
%TO.P, ,1*%
%TO.N,N/C*%
X138430000Y-38100000D03*
%TD*%
D15*
%TO.N,Net-(D1-Pad1)*%
X144780000Y-64770000D02*
X151130000Y-64770000D01*
%TO.N,Net-(D2-Pad1)*%
X138430000Y-64770000D02*
X138430000Y-71120000D01*
%TO.N,PWM*%
X158750000Y-91440000D02*
X158750000Y-64770000D01*
X144780000Y-96520000D02*
X153670000Y-96520000D01*
X153670000Y-96520000D02*
X158750000Y-91440000D01*
X158750000Y-64770000D02*
X161290000Y-62230000D01*
X161290000Y-62230000D02*
X166370000Y-62230000D01*
%TO.N,CAN_TX_2*%
X144780000Y-80010000D02*
X151130000Y-80010000D01*
%TO.N,CAN_RX_2*%
X144780000Y-77470000D02*
X151130000Y-77470000D01*
%TO.N,5V*%
X148590000Y-92710000D02*
X147320000Y-93980000D01*
X147320000Y-93980000D02*
X144780000Y-93980000D01*
X148590000Y-83820000D02*
X148590000Y-92710000D01*
X149860000Y-82550000D02*
X148590000Y-83820000D01*
X151130000Y-82550000D02*
X149860000Y-82550000D01*
%TO.N,Serial_Tx_2*%
X144780000Y-52070000D02*
X151130000Y-52070000D01*
%TD*%
D16*
%TO.N,GND_2*%
X168783000Y-98933000D02*
X136017000Y-98933000D01*
X136017000Y-91083110D01*
X143338524Y-91083110D01*
X143459845Y-91313000D01*
X144653000Y-91313000D01*
X144653000Y-90119186D01*
X144907000Y-90119186D01*
X144907000Y-91313000D01*
X146100155Y-91313000D01*
X146221476Y-91083110D01*
X146176825Y-90935901D01*
X146051641Y-90673080D01*
X145877588Y-90439731D01*
X145661355Y-90244822D01*
X145411252Y-90095843D01*
X145136891Y-89998519D01*
X144907000Y-90119186D01*
X144653000Y-90119186D01*
X144423109Y-89998519D01*
X144148748Y-90095843D01*
X143898645Y-90244822D01*
X143682412Y-90439731D01*
X143508359Y-90673080D01*
X143383175Y-90935901D01*
X143338524Y-91083110D01*
X136017000Y-91083110D01*
X136017000Y-79089040D01*
X137038091Y-79089040D01*
X137132930Y-79353881D01*
X137277615Y-79595131D01*
X137466586Y-79803519D01*
X137692580Y-79971037D01*
X137946913Y-80091246D01*
X138080961Y-80131904D01*
X138303000Y-80009915D01*
X138303000Y-78867000D01*
X138557000Y-78867000D01*
X138557000Y-80009915D01*
X138779039Y-80131904D01*
X138913087Y-80091246D01*
X139167420Y-79971037D01*
X139393414Y-79803519D01*
X139582385Y-79595131D01*
X139727070Y-79353881D01*
X139821909Y-79089040D01*
X139700624Y-78867000D01*
X138557000Y-78867000D01*
X138303000Y-78867000D01*
X137159376Y-78867000D01*
X137038091Y-79089040D01*
X136017000Y-79089040D01*
X136017000Y-78390960D01*
X137038091Y-78390960D01*
X137159376Y-78613000D01*
X138303000Y-78613000D01*
X138303000Y-77470085D01*
X138557000Y-77470085D01*
X138557000Y-78613000D01*
X139700624Y-78613000D01*
X139821909Y-78390960D01*
X139727070Y-78126119D01*
X139582385Y-77884869D01*
X139393414Y-77676481D01*
X139167420Y-77508963D01*
X138913087Y-77388754D01*
X138779039Y-77348096D01*
X138557000Y-77470085D01*
X138303000Y-77470085D01*
X138080961Y-77348096D01*
X137946913Y-77388754D01*
X137692580Y-77508963D01*
X137466586Y-77676481D01*
X137277615Y-77884869D01*
X137132930Y-78126119D01*
X137038091Y-78390960D01*
X136017000Y-78390960D01*
X136017000Y-63920000D01*
X136941928Y-63920000D01*
X136941928Y-65620000D01*
X136954188Y-65744482D01*
X136990498Y-65864180D01*
X137049463Y-65974494D01*
X137128815Y-66071185D01*
X137225506Y-66150537D01*
X137335820Y-66209502D01*
X137420000Y-66235038D01*
X137420001Y-70100603D01*
X137315363Y-70205241D01*
X137158320Y-70440273D01*
X137050147Y-70701426D01*
X136995000Y-70978665D01*
X136995000Y-71261335D01*
X137050147Y-71538574D01*
X137158320Y-71799727D01*
X137315363Y-72034759D01*
X137515241Y-72234637D01*
X137750273Y-72391680D01*
X138011426Y-72499853D01*
X138288665Y-72555000D01*
X138571335Y-72555000D01*
X138848574Y-72499853D01*
X139109727Y-72391680D01*
X139344759Y-72234637D01*
X139544637Y-72034759D01*
X139701680Y-71799727D01*
X139809262Y-71540000D01*
X143291928Y-71540000D01*
X143291928Y-73240000D01*
X143304188Y-73364482D01*
X143340498Y-73484180D01*
X143399463Y-73594494D01*
X143478815Y-73691185D01*
X143575506Y-73770537D01*
X143685820Y-73829502D01*
X143766466Y-73853966D01*
X143682412Y-73929731D01*
X143508359Y-74163080D01*
X143383175Y-74425901D01*
X143338524Y-74573110D01*
X143459845Y-74803000D01*
X144653000Y-74803000D01*
X144653000Y-74783000D01*
X144907000Y-74783000D01*
X144907000Y-74803000D01*
X146100155Y-74803000D01*
X146221476Y-74573110D01*
X146176825Y-74425901D01*
X146051641Y-74163080D01*
X145877588Y-73929731D01*
X145793534Y-73853966D01*
X145874180Y-73829502D01*
X145984494Y-73770537D01*
X146081185Y-73691185D01*
X146160537Y-73594494D01*
X146219502Y-73484180D01*
X146255812Y-73364482D01*
X146268072Y-73240000D01*
X146268072Y-71540000D01*
X146255812Y-71415518D01*
X146219502Y-71295820D01*
X146160537Y-71185506D01*
X146081185Y-71088815D01*
X145984494Y-71009463D01*
X145874180Y-70950498D01*
X145754482Y-70914188D01*
X145630000Y-70901928D01*
X143930000Y-70901928D01*
X143805518Y-70914188D01*
X143685820Y-70950498D01*
X143575506Y-71009463D01*
X143478815Y-71088815D01*
X143399463Y-71185506D01*
X143340498Y-71295820D01*
X143304188Y-71415518D01*
X143291928Y-71540000D01*
X139809262Y-71540000D01*
X139809853Y-71538574D01*
X139865000Y-71261335D01*
X139865000Y-70978665D01*
X139809853Y-70701426D01*
X139701680Y-70440273D01*
X139544637Y-70205241D01*
X139440000Y-70100604D01*
X139440000Y-66235038D01*
X139524180Y-66209502D01*
X139634494Y-66150537D01*
X139731185Y-66071185D01*
X139810537Y-65974494D01*
X139869502Y-65864180D01*
X139905812Y-65744482D01*
X139918072Y-65620000D01*
X139918072Y-63920000D01*
X139905812Y-63795518D01*
X139869502Y-63675820D01*
X139810537Y-63565506D01*
X139731185Y-63468815D01*
X139634494Y-63389463D01*
X139524180Y-63330498D01*
X139404482Y-63294188D01*
X139280000Y-63281928D01*
X137580000Y-63281928D01*
X137455518Y-63294188D01*
X137335820Y-63330498D01*
X137225506Y-63389463D01*
X137128815Y-63468815D01*
X137049463Y-63565506D01*
X136990498Y-63675820D01*
X136954188Y-63795518D01*
X136941928Y-63920000D01*
X136017000Y-63920000D01*
X136017000Y-51220000D01*
X143291928Y-51220000D01*
X143291928Y-52920000D01*
X143304188Y-53044482D01*
X143340498Y-53164180D01*
X143399463Y-53274494D01*
X143478815Y-53371185D01*
X143575506Y-53450537D01*
X143685820Y-53509502D01*
X143805518Y-53545812D01*
X143930000Y-53558072D01*
X145630000Y-53558072D01*
X145754482Y-53545812D01*
X145874180Y-53509502D01*
X145984494Y-53450537D01*
X146081185Y-53371185D01*
X146160537Y-53274494D01*
X146219502Y-53164180D01*
X146245038Y-53080000D01*
X150039893Y-53080000D01*
X150183368Y-53223475D01*
X150357760Y-53340000D01*
X150183368Y-53456525D01*
X149976525Y-53663368D01*
X149814010Y-53906589D01*
X149702068Y-54176842D01*
X149645000Y-54463740D01*
X149645000Y-54756260D01*
X149702068Y-55043158D01*
X149814010Y-55313411D01*
X149976525Y-55556632D01*
X150183368Y-55763475D01*
X150357760Y-55880000D01*
X150183368Y-55996525D01*
X149976525Y-56203368D01*
X149814010Y-56446589D01*
X149702068Y-56716842D01*
X149645000Y-57003740D01*
X149645000Y-57296260D01*
X149702068Y-57583158D01*
X149814010Y-57853411D01*
X149976525Y-58096632D01*
X150183368Y-58303475D01*
X150357760Y-58420000D01*
X150183368Y-58536525D01*
X149976525Y-58743368D01*
X149814010Y-58986589D01*
X149702068Y-59256842D01*
X149645000Y-59543740D01*
X149645000Y-59836260D01*
X149702068Y-60123158D01*
X149814010Y-60393411D01*
X149976525Y-60636632D01*
X150183368Y-60843475D01*
X150357760Y-60960000D01*
X150183368Y-61076525D01*
X149976525Y-61283368D01*
X149814010Y-61526589D01*
X149702068Y-61796842D01*
X149645000Y-62083740D01*
X149645000Y-62376260D01*
X149702068Y-62663158D01*
X149814010Y-62933411D01*
X149976525Y-63176632D01*
X150183368Y-63383475D01*
X150357760Y-63500000D01*
X150183368Y-63616525D01*
X150039893Y-63760000D01*
X146245038Y-63760000D01*
X146219502Y-63675820D01*
X146160537Y-63565506D01*
X146081185Y-63468815D01*
X145984494Y-63389463D01*
X145874180Y-63330498D01*
X145754482Y-63294188D01*
X145630000Y-63281928D01*
X143930000Y-63281928D01*
X143805518Y-63294188D01*
X143685820Y-63330498D01*
X143575506Y-63389463D01*
X143478815Y-63468815D01*
X143399463Y-63565506D01*
X143340498Y-63675820D01*
X143304188Y-63795518D01*
X143291928Y-63920000D01*
X143291928Y-65620000D01*
X143304188Y-65744482D01*
X143340498Y-65864180D01*
X143399463Y-65974494D01*
X143478815Y-66071185D01*
X143575506Y-66150537D01*
X143685820Y-66209502D01*
X143805518Y-66245812D01*
X143930000Y-66258072D01*
X145630000Y-66258072D01*
X145754482Y-66245812D01*
X145874180Y-66209502D01*
X145984494Y-66150537D01*
X146081185Y-66071185D01*
X146160537Y-65974494D01*
X146219502Y-65864180D01*
X146245038Y-65780000D01*
X150039893Y-65780000D01*
X150183368Y-65923475D01*
X150357760Y-66040000D01*
X150183368Y-66156525D01*
X149976525Y-66363368D01*
X149814010Y-66606589D01*
X149702068Y-66876842D01*
X149645000Y-67163740D01*
X149645000Y-67456260D01*
X149702068Y-67743158D01*
X149814010Y-68013411D01*
X149976525Y-68256632D01*
X150183368Y-68463475D01*
X150357760Y-68580000D01*
X150183368Y-68696525D01*
X149976525Y-68903368D01*
X149814010Y-69146589D01*
X149702068Y-69416842D01*
X149645000Y-69703740D01*
X149645000Y-69996260D01*
X149702068Y-70283158D01*
X149814010Y-70553411D01*
X149976525Y-70796632D01*
X150183368Y-71003475D01*
X150357760Y-71120000D01*
X150183368Y-71236525D01*
X149976525Y-71443368D01*
X149814010Y-71686589D01*
X149702068Y-71956842D01*
X149645000Y-72243740D01*
X149645000Y-72536260D01*
X149702068Y-72823158D01*
X149814010Y-73093411D01*
X149976525Y-73336632D01*
X150183368Y-73543475D01*
X150357760Y-73660000D01*
X150183368Y-73776525D01*
X149976525Y-73983368D01*
X149814010Y-74226589D01*
X149702068Y-74496842D01*
X149645000Y-74783740D01*
X149645000Y-75076260D01*
X149702068Y-75363158D01*
X149814010Y-75633411D01*
X149976525Y-75876632D01*
X150183368Y-76083475D01*
X150357760Y-76200000D01*
X150183368Y-76316525D01*
X150039893Y-76460000D01*
X145870107Y-76460000D01*
X145726632Y-76316525D01*
X145544466Y-76194805D01*
X145661355Y-76125178D01*
X145877588Y-75930269D01*
X146051641Y-75696920D01*
X146176825Y-75434099D01*
X146221476Y-75286890D01*
X146100155Y-75057000D01*
X144907000Y-75057000D01*
X144907000Y-75077000D01*
X144653000Y-75077000D01*
X144653000Y-75057000D01*
X143459845Y-75057000D01*
X143338524Y-75286890D01*
X143383175Y-75434099D01*
X143508359Y-75696920D01*
X143682412Y-75930269D01*
X143898645Y-76125178D01*
X144015534Y-76194805D01*
X143833368Y-76316525D01*
X143626525Y-76523368D01*
X143464010Y-76766589D01*
X143352068Y-77036842D01*
X143295000Y-77323740D01*
X143295000Y-77616260D01*
X143352068Y-77903158D01*
X143464010Y-78173411D01*
X143626525Y-78416632D01*
X143833368Y-78623475D01*
X144007760Y-78740000D01*
X143833368Y-78856525D01*
X143626525Y-79063368D01*
X143464010Y-79306589D01*
X143352068Y-79576842D01*
X143295000Y-79863740D01*
X143295000Y-80156260D01*
X143352068Y-80443158D01*
X143464010Y-80713411D01*
X143626525Y-80956632D01*
X143833368Y-81163475D01*
X144076589Y-81325990D01*
X144346842Y-81437932D01*
X144633740Y-81495000D01*
X144926260Y-81495000D01*
X145213158Y-81437932D01*
X145483411Y-81325990D01*
X145726632Y-81163475D01*
X145870107Y-81020000D01*
X150039893Y-81020000D01*
X150183368Y-81163475D01*
X150357760Y-81280000D01*
X150183368Y-81396525D01*
X150039893Y-81540000D01*
X149909604Y-81540000D01*
X149859999Y-81535114D01*
X149810394Y-81540000D01*
X149810392Y-81540000D01*
X149662006Y-81554615D01*
X149471620Y-81612368D01*
X149296160Y-81706153D01*
X149142367Y-81832367D01*
X149110739Y-81870906D01*
X147910906Y-83070739D01*
X147872367Y-83102367D01*
X147746153Y-83256160D01*
X147652369Y-83431620D01*
X147652368Y-83431621D01*
X147594615Y-83622006D01*
X147575114Y-83820000D01*
X147580000Y-83869608D01*
X147580001Y-92291644D01*
X146901645Y-92970000D01*
X145870107Y-92970000D01*
X145726632Y-92826525D01*
X145544466Y-92704805D01*
X145661355Y-92635178D01*
X145877588Y-92440269D01*
X146051641Y-92206920D01*
X146176825Y-91944099D01*
X146221476Y-91796890D01*
X146100155Y-91567000D01*
X144907000Y-91567000D01*
X144907000Y-91587000D01*
X144653000Y-91587000D01*
X144653000Y-91567000D01*
X143459845Y-91567000D01*
X143338524Y-91796890D01*
X143383175Y-91944099D01*
X143508359Y-92206920D01*
X143682412Y-92440269D01*
X143898645Y-92635178D01*
X144015534Y-92704805D01*
X143833368Y-92826525D01*
X143626525Y-93033368D01*
X143464010Y-93276589D01*
X143352068Y-93546842D01*
X143295000Y-93833740D01*
X143295000Y-94126260D01*
X143352068Y-94413158D01*
X143464010Y-94683411D01*
X143626525Y-94926632D01*
X143758380Y-95058487D01*
X143685820Y-95080498D01*
X143575506Y-95139463D01*
X143478815Y-95218815D01*
X143399463Y-95315506D01*
X143340498Y-95425820D01*
X143304188Y-95545518D01*
X143291928Y-95670000D01*
X143291928Y-97370000D01*
X143304188Y-97494482D01*
X143340498Y-97614180D01*
X143399463Y-97724494D01*
X143478815Y-97821185D01*
X143575506Y-97900537D01*
X143685820Y-97959502D01*
X143805518Y-97995812D01*
X143930000Y-98008072D01*
X145630000Y-98008072D01*
X145754482Y-97995812D01*
X145874180Y-97959502D01*
X145984494Y-97900537D01*
X146081185Y-97821185D01*
X146160537Y-97724494D01*
X146219502Y-97614180D01*
X146245038Y-97530000D01*
X153620392Y-97530000D01*
X153670000Y-97534886D01*
X153867994Y-97515385D01*
X153936902Y-97494482D01*
X154058380Y-97457632D01*
X154233840Y-97363847D01*
X154387633Y-97237633D01*
X154419261Y-97199094D01*
X155318483Y-96299872D01*
X164135000Y-96299872D01*
X164135000Y-96740128D01*
X164220890Y-97171925D01*
X164389369Y-97578669D01*
X164633962Y-97944729D01*
X164945271Y-98256038D01*
X165311331Y-98500631D01*
X165718075Y-98669110D01*
X166149872Y-98755000D01*
X166590128Y-98755000D01*
X167021925Y-98669110D01*
X167428669Y-98500631D01*
X167794729Y-98256038D01*
X168106038Y-97944729D01*
X168350631Y-97578669D01*
X168519110Y-97171925D01*
X168605000Y-96740128D01*
X168605000Y-96299872D01*
X168519110Y-95868075D01*
X168350631Y-95461331D01*
X168106038Y-95095271D01*
X167794729Y-94783962D01*
X167428669Y-94539369D01*
X167021925Y-94370890D01*
X166590128Y-94285000D01*
X166149872Y-94285000D01*
X165718075Y-94370890D01*
X165311331Y-94539369D01*
X164945271Y-94783962D01*
X164633962Y-95095271D01*
X164389369Y-95461331D01*
X164220890Y-95868075D01*
X164135000Y-96299872D01*
X155318483Y-96299872D01*
X159429100Y-92189256D01*
X159467633Y-92157633D01*
X159593847Y-92003840D01*
X159687632Y-91828380D01*
X159745385Y-91637994D01*
X159760000Y-91489608D01*
X159760000Y-91489607D01*
X159764886Y-91440000D01*
X159760000Y-91390392D01*
X159760000Y-65188355D01*
X161708356Y-63240000D01*
X165279893Y-63240000D01*
X165423368Y-63383475D01*
X165597760Y-63500000D01*
X165423368Y-63616525D01*
X165216525Y-63823368D01*
X165054010Y-64066589D01*
X164942068Y-64336842D01*
X164885000Y-64623740D01*
X164885000Y-64916260D01*
X164942068Y-65203158D01*
X165054010Y-65473411D01*
X165216525Y-65716632D01*
X165423368Y-65923475D01*
X165597760Y-66040000D01*
X165423368Y-66156525D01*
X165216525Y-66363368D01*
X165054010Y-66606589D01*
X164942068Y-66876842D01*
X164885000Y-67163740D01*
X164885000Y-67456260D01*
X164942068Y-67743158D01*
X165054010Y-68013411D01*
X165216525Y-68256632D01*
X165423368Y-68463475D01*
X165597760Y-68580000D01*
X165423368Y-68696525D01*
X165216525Y-68903368D01*
X165054010Y-69146589D01*
X164942068Y-69416842D01*
X164885000Y-69703740D01*
X164885000Y-69996260D01*
X164942068Y-70283158D01*
X165054010Y-70553411D01*
X165216525Y-70796632D01*
X165423368Y-71003475D01*
X165597760Y-71120000D01*
X165423368Y-71236525D01*
X165216525Y-71443368D01*
X165054010Y-71686589D01*
X164942068Y-71956842D01*
X164885000Y-72243740D01*
X164885000Y-72536260D01*
X164942068Y-72823158D01*
X165054010Y-73093411D01*
X165216525Y-73336632D01*
X165423368Y-73543475D01*
X165597760Y-73660000D01*
X165423368Y-73776525D01*
X165216525Y-73983368D01*
X165054010Y-74226589D01*
X164942068Y-74496842D01*
X164885000Y-74783740D01*
X164885000Y-75076260D01*
X164942068Y-75363158D01*
X165054010Y-75633411D01*
X165216525Y-75876632D01*
X165423368Y-76083475D01*
X165597760Y-76200000D01*
X165423368Y-76316525D01*
X165216525Y-76523368D01*
X165054010Y-76766589D01*
X164942068Y-77036842D01*
X164885000Y-77323740D01*
X164885000Y-77616260D01*
X164942068Y-77903158D01*
X165054010Y-78173411D01*
X165216525Y-78416632D01*
X165423368Y-78623475D01*
X165597760Y-78740000D01*
X165423368Y-78856525D01*
X165216525Y-79063368D01*
X165054010Y-79306589D01*
X164942068Y-79576842D01*
X164885000Y-79863740D01*
X164885000Y-80156260D01*
X164942068Y-80443158D01*
X165054010Y-80713411D01*
X165216525Y-80956632D01*
X165423368Y-81163475D01*
X165597760Y-81280000D01*
X165423368Y-81396525D01*
X165216525Y-81603368D01*
X165054010Y-81846589D01*
X164942068Y-82116842D01*
X164885000Y-82403740D01*
X164885000Y-82696260D01*
X164942068Y-82983158D01*
X165054010Y-83253411D01*
X165216525Y-83496632D01*
X165423368Y-83703475D01*
X165597760Y-83820000D01*
X165423368Y-83936525D01*
X165216525Y-84143368D01*
X165054010Y-84386589D01*
X164942068Y-84656842D01*
X164885000Y-84943740D01*
X164885000Y-85236260D01*
X164942068Y-85523158D01*
X165054010Y-85793411D01*
X165216525Y-86036632D01*
X165423368Y-86243475D01*
X165597760Y-86360000D01*
X165423368Y-86476525D01*
X165216525Y-86683368D01*
X165054010Y-86926589D01*
X164942068Y-87196842D01*
X164885000Y-87483740D01*
X164885000Y-87776260D01*
X164942068Y-88063158D01*
X165054010Y-88333411D01*
X165216525Y-88576632D01*
X165423368Y-88783475D01*
X165666589Y-88945990D01*
X165936842Y-89057932D01*
X166223740Y-89115000D01*
X166516260Y-89115000D01*
X166803158Y-89057932D01*
X167073411Y-88945990D01*
X167316632Y-88783475D01*
X167523475Y-88576632D01*
X167685990Y-88333411D01*
X167797932Y-88063158D01*
X167855000Y-87776260D01*
X167855000Y-87483740D01*
X167797932Y-87196842D01*
X167685990Y-86926589D01*
X167523475Y-86683368D01*
X167316632Y-86476525D01*
X167142240Y-86360000D01*
X167316632Y-86243475D01*
X167523475Y-86036632D01*
X167685990Y-85793411D01*
X167797932Y-85523158D01*
X167855000Y-85236260D01*
X167855000Y-84943740D01*
X167797932Y-84656842D01*
X167685990Y-84386589D01*
X167523475Y-84143368D01*
X167316632Y-83936525D01*
X167142240Y-83820000D01*
X167316632Y-83703475D01*
X167523475Y-83496632D01*
X167685990Y-83253411D01*
X167797932Y-82983158D01*
X167855000Y-82696260D01*
X167855000Y-82403740D01*
X167797932Y-82116842D01*
X167685990Y-81846589D01*
X167523475Y-81603368D01*
X167316632Y-81396525D01*
X167142240Y-81280000D01*
X167316632Y-81163475D01*
X167523475Y-80956632D01*
X167685990Y-80713411D01*
X167797932Y-80443158D01*
X167855000Y-80156260D01*
X167855000Y-79863740D01*
X167797932Y-79576842D01*
X167685990Y-79306589D01*
X167523475Y-79063368D01*
X167316632Y-78856525D01*
X167142240Y-78740000D01*
X167316632Y-78623475D01*
X167523475Y-78416632D01*
X167685990Y-78173411D01*
X167797932Y-77903158D01*
X167855000Y-77616260D01*
X167855000Y-77323740D01*
X167797932Y-77036842D01*
X167685990Y-76766589D01*
X167523475Y-76523368D01*
X167316632Y-76316525D01*
X167142240Y-76200000D01*
X167316632Y-76083475D01*
X167523475Y-75876632D01*
X167685990Y-75633411D01*
X167797932Y-75363158D01*
X167855000Y-75076260D01*
X167855000Y-74783740D01*
X167797932Y-74496842D01*
X167685990Y-74226589D01*
X167523475Y-73983368D01*
X167316632Y-73776525D01*
X167142240Y-73660000D01*
X167316632Y-73543475D01*
X167523475Y-73336632D01*
X167685990Y-73093411D01*
X167797932Y-72823158D01*
X167855000Y-72536260D01*
X167855000Y-72243740D01*
X167797932Y-71956842D01*
X167685990Y-71686589D01*
X167523475Y-71443368D01*
X167316632Y-71236525D01*
X167142240Y-71120000D01*
X167316632Y-71003475D01*
X167523475Y-70796632D01*
X167685990Y-70553411D01*
X167797932Y-70283158D01*
X167855000Y-69996260D01*
X167855000Y-69703740D01*
X167797932Y-69416842D01*
X167685990Y-69146589D01*
X167523475Y-68903368D01*
X167316632Y-68696525D01*
X167142240Y-68580000D01*
X167316632Y-68463475D01*
X167523475Y-68256632D01*
X167685990Y-68013411D01*
X167797932Y-67743158D01*
X167855000Y-67456260D01*
X167855000Y-67163740D01*
X167797932Y-66876842D01*
X167685990Y-66606589D01*
X167523475Y-66363368D01*
X167316632Y-66156525D01*
X167142240Y-66040000D01*
X167316632Y-65923475D01*
X167523475Y-65716632D01*
X167685990Y-65473411D01*
X167797932Y-65203158D01*
X167855000Y-64916260D01*
X167855000Y-64623740D01*
X167797932Y-64336842D01*
X167685990Y-64066589D01*
X167523475Y-63823368D01*
X167316632Y-63616525D01*
X167142240Y-63500000D01*
X167316632Y-63383475D01*
X167523475Y-63176632D01*
X167685990Y-62933411D01*
X167797932Y-62663158D01*
X167855000Y-62376260D01*
X167855000Y-62083740D01*
X167797932Y-61796842D01*
X167685990Y-61526589D01*
X167523475Y-61283368D01*
X167316632Y-61076525D01*
X167142240Y-60960000D01*
X167316632Y-60843475D01*
X167523475Y-60636632D01*
X167685990Y-60393411D01*
X167797932Y-60123158D01*
X167855000Y-59836260D01*
X167855000Y-59543740D01*
X167797932Y-59256842D01*
X167685990Y-58986589D01*
X167523475Y-58743368D01*
X167316632Y-58536525D01*
X167142240Y-58420000D01*
X167316632Y-58303475D01*
X167523475Y-58096632D01*
X167685990Y-57853411D01*
X167797932Y-57583158D01*
X167855000Y-57296260D01*
X167855000Y-57003740D01*
X167797932Y-56716842D01*
X167685990Y-56446589D01*
X167523475Y-56203368D01*
X167316632Y-55996525D01*
X167142240Y-55880000D01*
X167316632Y-55763475D01*
X167523475Y-55556632D01*
X167685990Y-55313411D01*
X167797932Y-55043158D01*
X167855000Y-54756260D01*
X167855000Y-54463740D01*
X167797932Y-54176842D01*
X167685990Y-53906589D01*
X167523475Y-53663368D01*
X167316632Y-53456525D01*
X167142240Y-53340000D01*
X167316632Y-53223475D01*
X167523475Y-53016632D01*
X167685990Y-52773411D01*
X167797932Y-52503158D01*
X167855000Y-52216260D01*
X167855000Y-51923740D01*
X167797932Y-51636842D01*
X167685990Y-51366589D01*
X167523475Y-51123368D01*
X167316632Y-50916525D01*
X167142240Y-50800000D01*
X167316632Y-50683475D01*
X167523475Y-50476632D01*
X167685990Y-50233411D01*
X167797932Y-49963158D01*
X167855000Y-49676260D01*
X167855000Y-49383740D01*
X167797932Y-49096842D01*
X167685990Y-48826589D01*
X167523475Y-48583368D01*
X167316632Y-48376525D01*
X167142240Y-48260000D01*
X167316632Y-48143475D01*
X167523475Y-47936632D01*
X167685990Y-47693411D01*
X167797932Y-47423158D01*
X167855000Y-47136260D01*
X167855000Y-46843740D01*
X167797932Y-46556842D01*
X167685990Y-46286589D01*
X167523475Y-46043368D01*
X167316632Y-45836525D01*
X167142240Y-45720000D01*
X167316632Y-45603475D01*
X167523475Y-45396632D01*
X167685990Y-45153411D01*
X167797932Y-44883158D01*
X167855000Y-44596260D01*
X167855000Y-44303740D01*
X167797932Y-44016842D01*
X167685990Y-43746589D01*
X167523475Y-43503368D01*
X167316632Y-43296525D01*
X167142240Y-43180000D01*
X167316632Y-43063475D01*
X167523475Y-42856632D01*
X167685990Y-42613411D01*
X167797932Y-42343158D01*
X167855000Y-42056260D01*
X167855000Y-41763740D01*
X167797932Y-41476842D01*
X167685990Y-41206589D01*
X167523475Y-40963368D01*
X167391620Y-40831513D01*
X167464180Y-40809502D01*
X167574494Y-40750537D01*
X167671185Y-40671185D01*
X167750537Y-40574494D01*
X167809502Y-40464180D01*
X167845812Y-40344482D01*
X167858072Y-40220000D01*
X167858072Y-38520000D01*
X167845812Y-38395518D01*
X167809502Y-38275820D01*
X167750537Y-38165506D01*
X167671185Y-38068815D01*
X167574494Y-37989463D01*
X167464180Y-37930498D01*
X167344482Y-37894188D01*
X167220000Y-37881928D01*
X165520000Y-37881928D01*
X165395518Y-37894188D01*
X165275820Y-37930498D01*
X165165506Y-37989463D01*
X165068815Y-38068815D01*
X164989463Y-38165506D01*
X164930498Y-38275820D01*
X164894188Y-38395518D01*
X164881928Y-38520000D01*
X164881928Y-40220000D01*
X164894188Y-40344482D01*
X164930498Y-40464180D01*
X164989463Y-40574494D01*
X165068815Y-40671185D01*
X165165506Y-40750537D01*
X165275820Y-40809502D01*
X165348380Y-40831513D01*
X165216525Y-40963368D01*
X165054010Y-41206589D01*
X164942068Y-41476842D01*
X164885000Y-41763740D01*
X164885000Y-42056260D01*
X164942068Y-42343158D01*
X165054010Y-42613411D01*
X165216525Y-42856632D01*
X165423368Y-43063475D01*
X165597760Y-43180000D01*
X165423368Y-43296525D01*
X165216525Y-43503368D01*
X165054010Y-43746589D01*
X164942068Y-44016842D01*
X164885000Y-44303740D01*
X164885000Y-44596260D01*
X164942068Y-44883158D01*
X165054010Y-45153411D01*
X165216525Y-45396632D01*
X165423368Y-45603475D01*
X165597760Y-45720000D01*
X165423368Y-45836525D01*
X165216525Y-46043368D01*
X165054010Y-46286589D01*
X164942068Y-46556842D01*
X164885000Y-46843740D01*
X164885000Y-47136260D01*
X164942068Y-47423158D01*
X165054010Y-47693411D01*
X165216525Y-47936632D01*
X165423368Y-48143475D01*
X165597760Y-48260000D01*
X165423368Y-48376525D01*
X165216525Y-48583368D01*
X165054010Y-48826589D01*
X164942068Y-49096842D01*
X164885000Y-49383740D01*
X164885000Y-49676260D01*
X164942068Y-49963158D01*
X165054010Y-50233411D01*
X165216525Y-50476632D01*
X165423368Y-50683475D01*
X165597760Y-50800000D01*
X165423368Y-50916525D01*
X165216525Y-51123368D01*
X165054010Y-51366589D01*
X164942068Y-51636842D01*
X164885000Y-51923740D01*
X164885000Y-52216260D01*
X164942068Y-52503158D01*
X165054010Y-52773411D01*
X165216525Y-53016632D01*
X165423368Y-53223475D01*
X165597760Y-53340000D01*
X165423368Y-53456525D01*
X165216525Y-53663368D01*
X165054010Y-53906589D01*
X164942068Y-54176842D01*
X164885000Y-54463740D01*
X164885000Y-54756260D01*
X164942068Y-55043158D01*
X165054010Y-55313411D01*
X165216525Y-55556632D01*
X165423368Y-55763475D01*
X165597760Y-55880000D01*
X165423368Y-55996525D01*
X165216525Y-56203368D01*
X165054010Y-56446589D01*
X164942068Y-56716842D01*
X164885000Y-57003740D01*
X164885000Y-57296260D01*
X164942068Y-57583158D01*
X165054010Y-57853411D01*
X165216525Y-58096632D01*
X165423368Y-58303475D01*
X165597760Y-58420000D01*
X165423368Y-58536525D01*
X165216525Y-58743368D01*
X165054010Y-58986589D01*
X164942068Y-59256842D01*
X164885000Y-59543740D01*
X164885000Y-59836260D01*
X164942068Y-60123158D01*
X165054010Y-60393411D01*
X165216525Y-60636632D01*
X165423368Y-60843475D01*
X165597760Y-60960000D01*
X165423368Y-61076525D01*
X165279893Y-61220000D01*
X161339604Y-61220000D01*
X161289999Y-61215114D01*
X161240394Y-61220000D01*
X161240392Y-61220000D01*
X161092006Y-61234615D01*
X160901620Y-61292368D01*
X160726160Y-61386153D01*
X160572367Y-61512367D01*
X160540744Y-61550900D01*
X158070901Y-64020744D01*
X158032368Y-64052367D01*
X158000745Y-64090900D01*
X158000744Y-64090901D01*
X157906154Y-64206160D01*
X157812368Y-64381621D01*
X157754615Y-64572006D01*
X157735114Y-64770000D01*
X157740001Y-64819618D01*
X157740000Y-91021644D01*
X153251645Y-95510000D01*
X146245038Y-95510000D01*
X146219502Y-95425820D01*
X146160537Y-95315506D01*
X146081185Y-95218815D01*
X145984494Y-95139463D01*
X145874180Y-95080498D01*
X145801620Y-95058487D01*
X145870107Y-94990000D01*
X147270392Y-94990000D01*
X147320000Y-94994886D01*
X147517994Y-94975385D01*
X147708380Y-94917632D01*
X147883840Y-94823847D01*
X148037633Y-94697633D01*
X148069261Y-94659094D01*
X149269094Y-93459261D01*
X149307633Y-93427633D01*
X149433847Y-93273840D01*
X149527632Y-93098380D01*
X149585385Y-92907994D01*
X149600000Y-92759608D01*
X149600000Y-92759606D01*
X149604886Y-92710001D01*
X149600000Y-92660396D01*
X149600000Y-87483740D01*
X149645000Y-87483740D01*
X149645000Y-87776260D01*
X149702068Y-88063158D01*
X149814010Y-88333411D01*
X149976525Y-88576632D01*
X150183368Y-88783475D01*
X150426589Y-88945990D01*
X150696842Y-89057932D01*
X150983740Y-89115000D01*
X151276260Y-89115000D01*
X151563158Y-89057932D01*
X151833411Y-88945990D01*
X152076632Y-88783475D01*
X152283475Y-88576632D01*
X152445990Y-88333411D01*
X152557932Y-88063158D01*
X152615000Y-87776260D01*
X152615000Y-87483740D01*
X152557932Y-87196842D01*
X152445990Y-86926589D01*
X152283475Y-86683368D01*
X152076632Y-86476525D01*
X151894466Y-86354805D01*
X152011355Y-86285178D01*
X152227588Y-86090269D01*
X152401641Y-85856920D01*
X152526825Y-85594099D01*
X152571476Y-85446890D01*
X152450155Y-85217000D01*
X151257000Y-85217000D01*
X151257000Y-85237000D01*
X151003000Y-85237000D01*
X151003000Y-85217000D01*
X149809845Y-85217000D01*
X149688524Y-85446890D01*
X149733175Y-85594099D01*
X149858359Y-85856920D01*
X150032412Y-86090269D01*
X150248645Y-86285178D01*
X150365534Y-86354805D01*
X150183368Y-86476525D01*
X149976525Y-86683368D01*
X149814010Y-86926589D01*
X149702068Y-87196842D01*
X149645000Y-87483740D01*
X149600000Y-87483740D01*
X149600000Y-84238355D01*
X150159124Y-83679231D01*
X150183368Y-83703475D01*
X150365534Y-83825195D01*
X150248645Y-83894822D01*
X150032412Y-84089731D01*
X149858359Y-84323080D01*
X149733175Y-84585901D01*
X149688524Y-84733110D01*
X149809845Y-84963000D01*
X151003000Y-84963000D01*
X151003000Y-84943000D01*
X151257000Y-84943000D01*
X151257000Y-84963000D01*
X152450155Y-84963000D01*
X152571476Y-84733110D01*
X152526825Y-84585901D01*
X152401641Y-84323080D01*
X152227588Y-84089731D01*
X152011355Y-83894822D01*
X151894466Y-83825195D01*
X152076632Y-83703475D01*
X152283475Y-83496632D01*
X152445990Y-83253411D01*
X152557932Y-82983158D01*
X152615000Y-82696260D01*
X152615000Y-82403740D01*
X152557932Y-82116842D01*
X152445990Y-81846589D01*
X152283475Y-81603368D01*
X152076632Y-81396525D01*
X151902240Y-81280000D01*
X152076632Y-81163475D01*
X152283475Y-80956632D01*
X152445990Y-80713411D01*
X152557932Y-80443158D01*
X152615000Y-80156260D01*
X152615000Y-79863740D01*
X152557932Y-79576842D01*
X152445990Y-79306589D01*
X152283475Y-79063368D01*
X152076632Y-78856525D01*
X151902240Y-78740000D01*
X152076632Y-78623475D01*
X152283475Y-78416632D01*
X152445990Y-78173411D01*
X152557932Y-77903158D01*
X152615000Y-77616260D01*
X152615000Y-77323740D01*
X152557932Y-77036842D01*
X152445990Y-76766589D01*
X152283475Y-76523368D01*
X152076632Y-76316525D01*
X151902240Y-76200000D01*
X152076632Y-76083475D01*
X152283475Y-75876632D01*
X152445990Y-75633411D01*
X152557932Y-75363158D01*
X152615000Y-75076260D01*
X152615000Y-74783740D01*
X152557932Y-74496842D01*
X152445990Y-74226589D01*
X152283475Y-73983368D01*
X152076632Y-73776525D01*
X151902240Y-73660000D01*
X152076632Y-73543475D01*
X152283475Y-73336632D01*
X152445990Y-73093411D01*
X152557932Y-72823158D01*
X152615000Y-72536260D01*
X152615000Y-72243740D01*
X152557932Y-71956842D01*
X152445990Y-71686589D01*
X152283475Y-71443368D01*
X152076632Y-71236525D01*
X151902240Y-71120000D01*
X152076632Y-71003475D01*
X152283475Y-70796632D01*
X152445990Y-70553411D01*
X152557932Y-70283158D01*
X152615000Y-69996260D01*
X152615000Y-69703740D01*
X152557932Y-69416842D01*
X152445990Y-69146589D01*
X152283475Y-68903368D01*
X152076632Y-68696525D01*
X151902240Y-68580000D01*
X152076632Y-68463475D01*
X152283475Y-68256632D01*
X152445990Y-68013411D01*
X152557932Y-67743158D01*
X152615000Y-67456260D01*
X152615000Y-67163740D01*
X152557932Y-66876842D01*
X152445990Y-66606589D01*
X152283475Y-66363368D01*
X152076632Y-66156525D01*
X151902240Y-66040000D01*
X152076632Y-65923475D01*
X152283475Y-65716632D01*
X152445990Y-65473411D01*
X152557932Y-65203158D01*
X152615000Y-64916260D01*
X152615000Y-64623740D01*
X152557932Y-64336842D01*
X152445990Y-64066589D01*
X152283475Y-63823368D01*
X152076632Y-63616525D01*
X151902240Y-63500000D01*
X152076632Y-63383475D01*
X152283475Y-63176632D01*
X152445990Y-62933411D01*
X152557932Y-62663158D01*
X152615000Y-62376260D01*
X152615000Y-62083740D01*
X152557932Y-61796842D01*
X152445990Y-61526589D01*
X152283475Y-61283368D01*
X152076632Y-61076525D01*
X151902240Y-60960000D01*
X152076632Y-60843475D01*
X152283475Y-60636632D01*
X152445990Y-60393411D01*
X152557932Y-60123158D01*
X152615000Y-59836260D01*
X152615000Y-59543740D01*
X152557932Y-59256842D01*
X152445990Y-58986589D01*
X152283475Y-58743368D01*
X152076632Y-58536525D01*
X151902240Y-58420000D01*
X152076632Y-58303475D01*
X152283475Y-58096632D01*
X152445990Y-57853411D01*
X152557932Y-57583158D01*
X152615000Y-57296260D01*
X152615000Y-57003740D01*
X152557932Y-56716842D01*
X152445990Y-56446589D01*
X152283475Y-56203368D01*
X152076632Y-55996525D01*
X151902240Y-55880000D01*
X152076632Y-55763475D01*
X152283475Y-55556632D01*
X152445990Y-55313411D01*
X152557932Y-55043158D01*
X152615000Y-54756260D01*
X152615000Y-54463740D01*
X152557932Y-54176842D01*
X152445990Y-53906589D01*
X152283475Y-53663368D01*
X152076632Y-53456525D01*
X151902240Y-53340000D01*
X152076632Y-53223475D01*
X152283475Y-53016632D01*
X152445990Y-52773411D01*
X152557932Y-52503158D01*
X152615000Y-52216260D01*
X152615000Y-51923740D01*
X152557932Y-51636842D01*
X152445990Y-51366589D01*
X152283475Y-51123368D01*
X152076632Y-50916525D01*
X151902240Y-50800000D01*
X152076632Y-50683475D01*
X152283475Y-50476632D01*
X152445990Y-50233411D01*
X152557932Y-49963158D01*
X152615000Y-49676260D01*
X152615000Y-49383740D01*
X152557932Y-49096842D01*
X152445990Y-48826589D01*
X152283475Y-48583368D01*
X152076632Y-48376525D01*
X151902240Y-48260000D01*
X152076632Y-48143475D01*
X152283475Y-47936632D01*
X152445990Y-47693411D01*
X152557932Y-47423158D01*
X152615000Y-47136260D01*
X152615000Y-46843740D01*
X152557932Y-46556842D01*
X152445990Y-46286589D01*
X152283475Y-46043368D01*
X152076632Y-45836525D01*
X151902240Y-45720000D01*
X152076632Y-45603475D01*
X152283475Y-45396632D01*
X152445990Y-45153411D01*
X152557932Y-44883158D01*
X152615000Y-44596260D01*
X152615000Y-44303740D01*
X152557932Y-44016842D01*
X152445990Y-43746589D01*
X152283475Y-43503368D01*
X152076632Y-43296525D01*
X151902240Y-43180000D01*
X152076632Y-43063475D01*
X152283475Y-42856632D01*
X152445990Y-42613411D01*
X152557932Y-42343158D01*
X152615000Y-42056260D01*
X152615000Y-41763740D01*
X152557932Y-41476842D01*
X152445990Y-41206589D01*
X152283475Y-40963368D01*
X152151620Y-40831513D01*
X152224180Y-40809502D01*
X152334494Y-40750537D01*
X152431185Y-40671185D01*
X152510537Y-40574494D01*
X152569502Y-40464180D01*
X152605812Y-40344482D01*
X152618072Y-40220000D01*
X152618072Y-38520000D01*
X152605812Y-38395518D01*
X152569502Y-38275820D01*
X152510537Y-38165506D01*
X152431185Y-38068815D01*
X152334494Y-37989463D01*
X152224180Y-37930498D01*
X152104482Y-37894188D01*
X151980000Y-37881928D01*
X150280000Y-37881928D01*
X150155518Y-37894188D01*
X150035820Y-37930498D01*
X149925506Y-37989463D01*
X149828815Y-38068815D01*
X149749463Y-38165506D01*
X149690498Y-38275820D01*
X149654188Y-38395518D01*
X149641928Y-38520000D01*
X149641928Y-40220000D01*
X149654188Y-40344482D01*
X149690498Y-40464180D01*
X149749463Y-40574494D01*
X149828815Y-40671185D01*
X149925506Y-40750537D01*
X150035820Y-40809502D01*
X150108380Y-40831513D01*
X149976525Y-40963368D01*
X149814010Y-41206589D01*
X149702068Y-41476842D01*
X149645000Y-41763740D01*
X149645000Y-42056260D01*
X149702068Y-42343158D01*
X149814010Y-42613411D01*
X149976525Y-42856632D01*
X150183368Y-43063475D01*
X150357760Y-43180000D01*
X150183368Y-43296525D01*
X149976525Y-43503368D01*
X149814010Y-43746589D01*
X149702068Y-44016842D01*
X149645000Y-44303740D01*
X149645000Y-44596260D01*
X149702068Y-44883158D01*
X149814010Y-45153411D01*
X149976525Y-45396632D01*
X150183368Y-45603475D01*
X150357760Y-45720000D01*
X150183368Y-45836525D01*
X149976525Y-46043368D01*
X149814010Y-46286589D01*
X149702068Y-46556842D01*
X149645000Y-46843740D01*
X149645000Y-47136260D01*
X149702068Y-47423158D01*
X149814010Y-47693411D01*
X149976525Y-47936632D01*
X150183368Y-48143475D01*
X150357760Y-48260000D01*
X150183368Y-48376525D01*
X149976525Y-48583368D01*
X149814010Y-48826589D01*
X149702068Y-49096842D01*
X149645000Y-49383740D01*
X149645000Y-49676260D01*
X149702068Y-49963158D01*
X149814010Y-50233411D01*
X149976525Y-50476632D01*
X150183368Y-50683475D01*
X150357760Y-50800000D01*
X150183368Y-50916525D01*
X150039893Y-51060000D01*
X146245038Y-51060000D01*
X146219502Y-50975820D01*
X146160537Y-50865506D01*
X146081185Y-50768815D01*
X145984494Y-50689463D01*
X145874180Y-50630498D01*
X145754482Y-50594188D01*
X145630000Y-50581928D01*
X143930000Y-50581928D01*
X143805518Y-50594188D01*
X143685820Y-50630498D01*
X143575506Y-50689463D01*
X143478815Y-50768815D01*
X143399463Y-50865506D01*
X143340498Y-50975820D01*
X143304188Y-51095518D01*
X143291928Y-51220000D01*
X136017000Y-51220000D01*
X136017000Y-45300000D01*
X143291928Y-45300000D01*
X143304188Y-45424482D01*
X143340498Y-45544180D01*
X143399463Y-45654494D01*
X143478815Y-45751185D01*
X143575506Y-45830537D01*
X143685820Y-45889502D01*
X143805518Y-45925812D01*
X143930000Y-45938072D01*
X144494250Y-45935000D01*
X144653000Y-45776250D01*
X144653000Y-44577000D01*
X144907000Y-44577000D01*
X144907000Y-45776250D01*
X145065750Y-45935000D01*
X145630000Y-45938072D01*
X145754482Y-45925812D01*
X145874180Y-45889502D01*
X145984494Y-45830537D01*
X146081185Y-45751185D01*
X146160537Y-45654494D01*
X146219502Y-45544180D01*
X146255812Y-45424482D01*
X146268072Y-45300000D01*
X146265000Y-44735750D01*
X146106250Y-44577000D01*
X144907000Y-44577000D01*
X144653000Y-44577000D01*
X143453750Y-44577000D01*
X143295000Y-44735750D01*
X143291928Y-45300000D01*
X136017000Y-45300000D01*
X136017000Y-43600000D01*
X143291928Y-43600000D01*
X143295000Y-44164250D01*
X143453750Y-44323000D01*
X144653000Y-44323000D01*
X144653000Y-43123750D01*
X144907000Y-43123750D01*
X144907000Y-44323000D01*
X146106250Y-44323000D01*
X146265000Y-44164250D01*
X146268072Y-43600000D01*
X146255812Y-43475518D01*
X146219502Y-43355820D01*
X146160537Y-43245506D01*
X146081185Y-43148815D01*
X145984494Y-43069463D01*
X145874180Y-43010498D01*
X145754482Y-42974188D01*
X145630000Y-42961928D01*
X145065750Y-42965000D01*
X144907000Y-43123750D01*
X144653000Y-43123750D01*
X144494250Y-42965000D01*
X143930000Y-42961928D01*
X143805518Y-42974188D01*
X143685820Y-43010498D01*
X143575506Y-43069463D01*
X143478815Y-43148815D01*
X143399463Y-43245506D01*
X143340498Y-43355820D01*
X143304188Y-43475518D01*
X143291928Y-43600000D01*
X136017000Y-43600000D01*
X136017000Y-37879872D01*
X136195000Y-37879872D01*
X136195000Y-38320128D01*
X136280890Y-38751925D01*
X136449369Y-39158669D01*
X136693962Y-39524729D01*
X137005271Y-39836038D01*
X137371331Y-40080631D01*
X137778075Y-40249110D01*
X138209872Y-40335000D01*
X138650128Y-40335000D01*
X139081925Y-40249110D01*
X139488669Y-40080631D01*
X139854729Y-39836038D01*
X140166038Y-39524729D01*
X140410631Y-39158669D01*
X140579110Y-38751925D01*
X140665000Y-38320128D01*
X140665000Y-37879872D01*
X140579110Y-37448075D01*
X140410631Y-37041331D01*
X140166038Y-36675271D01*
X139854729Y-36363962D01*
X139488669Y-36119369D01*
X139081925Y-35950890D01*
X138650128Y-35865000D01*
X138209872Y-35865000D01*
X137778075Y-35950890D01*
X137371331Y-36119369D01*
X137005271Y-36363962D01*
X136693962Y-36675271D01*
X136449369Y-37041331D01*
X136280890Y-37448075D01*
X136195000Y-37879872D01*
X136017000Y-37879872D01*
X136017000Y-35687000D01*
X168783000Y-35687000D01*
X168783000Y-98933000D01*
%TA.AperFunction,Conductor*%
D17*
G36*
X168783000Y-98933000D02*
G01*
X136017000Y-98933000D01*
X136017000Y-91083110D01*
X143338524Y-91083110D01*
X143459845Y-91313000D01*
X144653000Y-91313000D01*
X144653000Y-90119186D01*
X144907000Y-90119186D01*
X144907000Y-91313000D01*
X146100155Y-91313000D01*
X146221476Y-91083110D01*
X146176825Y-90935901D01*
X146051641Y-90673080D01*
X145877588Y-90439731D01*
X145661355Y-90244822D01*
X145411252Y-90095843D01*
X145136891Y-89998519D01*
X144907000Y-90119186D01*
X144653000Y-90119186D01*
X144423109Y-89998519D01*
X144148748Y-90095843D01*
X143898645Y-90244822D01*
X143682412Y-90439731D01*
X143508359Y-90673080D01*
X143383175Y-90935901D01*
X143338524Y-91083110D01*
X136017000Y-91083110D01*
X136017000Y-79089040D01*
X137038091Y-79089040D01*
X137132930Y-79353881D01*
X137277615Y-79595131D01*
X137466586Y-79803519D01*
X137692580Y-79971037D01*
X137946913Y-80091246D01*
X138080961Y-80131904D01*
X138303000Y-80009915D01*
X138303000Y-78867000D01*
X138557000Y-78867000D01*
X138557000Y-80009915D01*
X138779039Y-80131904D01*
X138913087Y-80091246D01*
X139167420Y-79971037D01*
X139393414Y-79803519D01*
X139582385Y-79595131D01*
X139727070Y-79353881D01*
X139821909Y-79089040D01*
X139700624Y-78867000D01*
X138557000Y-78867000D01*
X138303000Y-78867000D01*
X137159376Y-78867000D01*
X137038091Y-79089040D01*
X136017000Y-79089040D01*
X136017000Y-78390960D01*
X137038091Y-78390960D01*
X137159376Y-78613000D01*
X138303000Y-78613000D01*
X138303000Y-77470085D01*
X138557000Y-77470085D01*
X138557000Y-78613000D01*
X139700624Y-78613000D01*
X139821909Y-78390960D01*
X139727070Y-78126119D01*
X139582385Y-77884869D01*
X139393414Y-77676481D01*
X139167420Y-77508963D01*
X138913087Y-77388754D01*
X138779039Y-77348096D01*
X138557000Y-77470085D01*
X138303000Y-77470085D01*
X138080961Y-77348096D01*
X137946913Y-77388754D01*
X137692580Y-77508963D01*
X137466586Y-77676481D01*
X137277615Y-77884869D01*
X137132930Y-78126119D01*
X137038091Y-78390960D01*
X136017000Y-78390960D01*
X136017000Y-63920000D01*
X136941928Y-63920000D01*
X136941928Y-65620000D01*
X136954188Y-65744482D01*
X136990498Y-65864180D01*
X137049463Y-65974494D01*
X137128815Y-66071185D01*
X137225506Y-66150537D01*
X137335820Y-66209502D01*
X137420000Y-66235038D01*
X137420001Y-70100603D01*
X137315363Y-70205241D01*
X137158320Y-70440273D01*
X137050147Y-70701426D01*
X136995000Y-70978665D01*
X136995000Y-71261335D01*
X137050147Y-71538574D01*
X137158320Y-71799727D01*
X137315363Y-72034759D01*
X137515241Y-72234637D01*
X137750273Y-72391680D01*
X138011426Y-72499853D01*
X138288665Y-72555000D01*
X138571335Y-72555000D01*
X138848574Y-72499853D01*
X139109727Y-72391680D01*
X139344759Y-72234637D01*
X139544637Y-72034759D01*
X139701680Y-71799727D01*
X139809262Y-71540000D01*
X143291928Y-71540000D01*
X143291928Y-73240000D01*
X143304188Y-73364482D01*
X143340498Y-73484180D01*
X143399463Y-73594494D01*
X143478815Y-73691185D01*
X143575506Y-73770537D01*
X143685820Y-73829502D01*
X143766466Y-73853966D01*
X143682412Y-73929731D01*
X143508359Y-74163080D01*
X143383175Y-74425901D01*
X143338524Y-74573110D01*
X143459845Y-74803000D01*
X144653000Y-74803000D01*
X144653000Y-74783000D01*
X144907000Y-74783000D01*
X144907000Y-74803000D01*
X146100155Y-74803000D01*
X146221476Y-74573110D01*
X146176825Y-74425901D01*
X146051641Y-74163080D01*
X145877588Y-73929731D01*
X145793534Y-73853966D01*
X145874180Y-73829502D01*
X145984494Y-73770537D01*
X146081185Y-73691185D01*
X146160537Y-73594494D01*
X146219502Y-73484180D01*
X146255812Y-73364482D01*
X146268072Y-73240000D01*
X146268072Y-71540000D01*
X146255812Y-71415518D01*
X146219502Y-71295820D01*
X146160537Y-71185506D01*
X146081185Y-71088815D01*
X145984494Y-71009463D01*
X145874180Y-70950498D01*
X145754482Y-70914188D01*
X145630000Y-70901928D01*
X143930000Y-70901928D01*
X143805518Y-70914188D01*
X143685820Y-70950498D01*
X143575506Y-71009463D01*
X143478815Y-71088815D01*
X143399463Y-71185506D01*
X143340498Y-71295820D01*
X143304188Y-71415518D01*
X143291928Y-71540000D01*
X139809262Y-71540000D01*
X139809853Y-71538574D01*
X139865000Y-71261335D01*
X139865000Y-70978665D01*
X139809853Y-70701426D01*
X139701680Y-70440273D01*
X139544637Y-70205241D01*
X139440000Y-70100604D01*
X139440000Y-66235038D01*
X139524180Y-66209502D01*
X139634494Y-66150537D01*
X139731185Y-66071185D01*
X139810537Y-65974494D01*
X139869502Y-65864180D01*
X139905812Y-65744482D01*
X139918072Y-65620000D01*
X139918072Y-63920000D01*
X139905812Y-63795518D01*
X139869502Y-63675820D01*
X139810537Y-63565506D01*
X139731185Y-63468815D01*
X139634494Y-63389463D01*
X139524180Y-63330498D01*
X139404482Y-63294188D01*
X139280000Y-63281928D01*
X137580000Y-63281928D01*
X137455518Y-63294188D01*
X137335820Y-63330498D01*
X137225506Y-63389463D01*
X137128815Y-63468815D01*
X137049463Y-63565506D01*
X136990498Y-63675820D01*
X136954188Y-63795518D01*
X136941928Y-63920000D01*
X136017000Y-63920000D01*
X136017000Y-51220000D01*
X143291928Y-51220000D01*
X143291928Y-52920000D01*
X143304188Y-53044482D01*
X143340498Y-53164180D01*
X143399463Y-53274494D01*
X143478815Y-53371185D01*
X143575506Y-53450537D01*
X143685820Y-53509502D01*
X143805518Y-53545812D01*
X143930000Y-53558072D01*
X145630000Y-53558072D01*
X145754482Y-53545812D01*
X145874180Y-53509502D01*
X145984494Y-53450537D01*
X146081185Y-53371185D01*
X146160537Y-53274494D01*
X146219502Y-53164180D01*
X146245038Y-53080000D01*
X150039893Y-53080000D01*
X150183368Y-53223475D01*
X150357760Y-53340000D01*
X150183368Y-53456525D01*
X149976525Y-53663368D01*
X149814010Y-53906589D01*
X149702068Y-54176842D01*
X149645000Y-54463740D01*
X149645000Y-54756260D01*
X149702068Y-55043158D01*
X149814010Y-55313411D01*
X149976525Y-55556632D01*
X150183368Y-55763475D01*
X150357760Y-55880000D01*
X150183368Y-55996525D01*
X149976525Y-56203368D01*
X149814010Y-56446589D01*
X149702068Y-56716842D01*
X149645000Y-57003740D01*
X149645000Y-57296260D01*
X149702068Y-57583158D01*
X149814010Y-57853411D01*
X149976525Y-58096632D01*
X150183368Y-58303475D01*
X150357760Y-58420000D01*
X150183368Y-58536525D01*
X149976525Y-58743368D01*
X149814010Y-58986589D01*
X149702068Y-59256842D01*
X149645000Y-59543740D01*
X149645000Y-59836260D01*
X149702068Y-60123158D01*
X149814010Y-60393411D01*
X149976525Y-60636632D01*
X150183368Y-60843475D01*
X150357760Y-60960000D01*
X150183368Y-61076525D01*
X149976525Y-61283368D01*
X149814010Y-61526589D01*
X149702068Y-61796842D01*
X149645000Y-62083740D01*
X149645000Y-62376260D01*
X149702068Y-62663158D01*
X149814010Y-62933411D01*
X149976525Y-63176632D01*
X150183368Y-63383475D01*
X150357760Y-63500000D01*
X150183368Y-63616525D01*
X150039893Y-63760000D01*
X146245038Y-63760000D01*
X146219502Y-63675820D01*
X146160537Y-63565506D01*
X146081185Y-63468815D01*
X145984494Y-63389463D01*
X145874180Y-63330498D01*
X145754482Y-63294188D01*
X145630000Y-63281928D01*
X143930000Y-63281928D01*
X143805518Y-63294188D01*
X143685820Y-63330498D01*
X143575506Y-63389463D01*
X143478815Y-63468815D01*
X143399463Y-63565506D01*
X143340498Y-63675820D01*
X143304188Y-63795518D01*
X143291928Y-63920000D01*
X143291928Y-65620000D01*
X143304188Y-65744482D01*
X143340498Y-65864180D01*
X143399463Y-65974494D01*
X143478815Y-66071185D01*
X143575506Y-66150537D01*
X143685820Y-66209502D01*
X143805518Y-66245812D01*
X143930000Y-66258072D01*
X145630000Y-66258072D01*
X145754482Y-66245812D01*
X145874180Y-66209502D01*
X145984494Y-66150537D01*
X146081185Y-66071185D01*
X146160537Y-65974494D01*
X146219502Y-65864180D01*
X146245038Y-65780000D01*
X150039893Y-65780000D01*
X150183368Y-65923475D01*
X150357760Y-66040000D01*
X150183368Y-66156525D01*
X149976525Y-66363368D01*
X149814010Y-66606589D01*
X149702068Y-66876842D01*
X149645000Y-67163740D01*
X149645000Y-67456260D01*
X149702068Y-67743158D01*
X149814010Y-68013411D01*
X149976525Y-68256632D01*
X150183368Y-68463475D01*
X150357760Y-68580000D01*
X150183368Y-68696525D01*
X149976525Y-68903368D01*
X149814010Y-69146589D01*
X149702068Y-69416842D01*
X149645000Y-69703740D01*
X149645000Y-69996260D01*
X149702068Y-70283158D01*
X149814010Y-70553411D01*
X149976525Y-70796632D01*
X150183368Y-71003475D01*
X150357760Y-71120000D01*
X150183368Y-71236525D01*
X149976525Y-71443368D01*
X149814010Y-71686589D01*
X149702068Y-71956842D01*
X149645000Y-72243740D01*
X149645000Y-72536260D01*
X149702068Y-72823158D01*
X149814010Y-73093411D01*
X149976525Y-73336632D01*
X150183368Y-73543475D01*
X150357760Y-73660000D01*
X150183368Y-73776525D01*
X149976525Y-73983368D01*
X149814010Y-74226589D01*
X149702068Y-74496842D01*
X149645000Y-74783740D01*
X149645000Y-75076260D01*
X149702068Y-75363158D01*
X149814010Y-75633411D01*
X149976525Y-75876632D01*
X150183368Y-76083475D01*
X150357760Y-76200000D01*
X150183368Y-76316525D01*
X150039893Y-76460000D01*
X145870107Y-76460000D01*
X145726632Y-76316525D01*
X145544466Y-76194805D01*
X145661355Y-76125178D01*
X145877588Y-75930269D01*
X146051641Y-75696920D01*
X146176825Y-75434099D01*
X146221476Y-75286890D01*
X146100155Y-75057000D01*
X144907000Y-75057000D01*
X144907000Y-75077000D01*
X144653000Y-75077000D01*
X144653000Y-75057000D01*
X143459845Y-75057000D01*
X143338524Y-75286890D01*
X143383175Y-75434099D01*
X143508359Y-75696920D01*
X143682412Y-75930269D01*
X143898645Y-76125178D01*
X144015534Y-76194805D01*
X143833368Y-76316525D01*
X143626525Y-76523368D01*
X143464010Y-76766589D01*
X143352068Y-77036842D01*
X143295000Y-77323740D01*
X143295000Y-77616260D01*
X143352068Y-77903158D01*
X143464010Y-78173411D01*
X143626525Y-78416632D01*
X143833368Y-78623475D01*
X144007760Y-78740000D01*
X143833368Y-78856525D01*
X143626525Y-79063368D01*
X143464010Y-79306589D01*
X143352068Y-79576842D01*
X143295000Y-79863740D01*
X143295000Y-80156260D01*
X143352068Y-80443158D01*
X143464010Y-80713411D01*
X143626525Y-80956632D01*
X143833368Y-81163475D01*
X144076589Y-81325990D01*
X144346842Y-81437932D01*
X144633740Y-81495000D01*
X144926260Y-81495000D01*
X145213158Y-81437932D01*
X145483411Y-81325990D01*
X145726632Y-81163475D01*
X145870107Y-81020000D01*
X150039893Y-81020000D01*
X150183368Y-81163475D01*
X150357760Y-81280000D01*
X150183368Y-81396525D01*
X150039893Y-81540000D01*
X149909604Y-81540000D01*
X149859999Y-81535114D01*
X149810394Y-81540000D01*
X149810392Y-81540000D01*
X149662006Y-81554615D01*
X149471620Y-81612368D01*
X149296160Y-81706153D01*
X149142367Y-81832367D01*
X149110739Y-81870906D01*
X147910906Y-83070739D01*
X147872367Y-83102367D01*
X147746153Y-83256160D01*
X147652369Y-83431620D01*
X147652368Y-83431621D01*
X147594615Y-83622006D01*
X147575114Y-83820000D01*
X147580000Y-83869608D01*
X147580001Y-92291644D01*
X146901645Y-92970000D01*
X145870107Y-92970000D01*
X145726632Y-92826525D01*
X145544466Y-92704805D01*
X145661355Y-92635178D01*
X145877588Y-92440269D01*
X146051641Y-92206920D01*
X146176825Y-91944099D01*
X146221476Y-91796890D01*
X146100155Y-91567000D01*
X144907000Y-91567000D01*
X144907000Y-91587000D01*
X144653000Y-91587000D01*
X144653000Y-91567000D01*
X143459845Y-91567000D01*
X143338524Y-91796890D01*
X143383175Y-91944099D01*
X143508359Y-92206920D01*
X143682412Y-92440269D01*
X143898645Y-92635178D01*
X144015534Y-92704805D01*
X143833368Y-92826525D01*
X143626525Y-93033368D01*
X143464010Y-93276589D01*
X143352068Y-93546842D01*
X143295000Y-93833740D01*
X143295000Y-94126260D01*
X143352068Y-94413158D01*
X143464010Y-94683411D01*
X143626525Y-94926632D01*
X143758380Y-95058487D01*
X143685820Y-95080498D01*
X143575506Y-95139463D01*
X143478815Y-95218815D01*
X143399463Y-95315506D01*
X143340498Y-95425820D01*
X143304188Y-95545518D01*
X143291928Y-95670000D01*
X143291928Y-97370000D01*
X143304188Y-97494482D01*
X143340498Y-97614180D01*
X143399463Y-97724494D01*
X143478815Y-97821185D01*
X143575506Y-97900537D01*
X143685820Y-97959502D01*
X143805518Y-97995812D01*
X143930000Y-98008072D01*
X145630000Y-98008072D01*
X145754482Y-97995812D01*
X145874180Y-97959502D01*
X145984494Y-97900537D01*
X146081185Y-97821185D01*
X146160537Y-97724494D01*
X146219502Y-97614180D01*
X146245038Y-97530000D01*
X153620392Y-97530000D01*
X153670000Y-97534886D01*
X153867994Y-97515385D01*
X153936902Y-97494482D01*
X154058380Y-97457632D01*
X154233840Y-97363847D01*
X154387633Y-97237633D01*
X154419261Y-97199094D01*
X155318483Y-96299872D01*
X164135000Y-96299872D01*
X164135000Y-96740128D01*
X164220890Y-97171925D01*
X164389369Y-97578669D01*
X164633962Y-97944729D01*
X164945271Y-98256038D01*
X165311331Y-98500631D01*
X165718075Y-98669110D01*
X166149872Y-98755000D01*
X166590128Y-98755000D01*
X167021925Y-98669110D01*
X167428669Y-98500631D01*
X167794729Y-98256038D01*
X168106038Y-97944729D01*
X168350631Y-97578669D01*
X168519110Y-97171925D01*
X168605000Y-96740128D01*
X168605000Y-96299872D01*
X168519110Y-95868075D01*
X168350631Y-95461331D01*
X168106038Y-95095271D01*
X167794729Y-94783962D01*
X167428669Y-94539369D01*
X167021925Y-94370890D01*
X166590128Y-94285000D01*
X166149872Y-94285000D01*
X165718075Y-94370890D01*
X165311331Y-94539369D01*
X164945271Y-94783962D01*
X164633962Y-95095271D01*
X164389369Y-95461331D01*
X164220890Y-95868075D01*
X164135000Y-96299872D01*
X155318483Y-96299872D01*
X159429100Y-92189256D01*
X159467633Y-92157633D01*
X159593847Y-92003840D01*
X159687632Y-91828380D01*
X159745385Y-91637994D01*
X159760000Y-91489608D01*
X159760000Y-91489607D01*
X159764886Y-91440000D01*
X159760000Y-91390392D01*
X159760000Y-65188355D01*
X161708356Y-63240000D01*
X165279893Y-63240000D01*
X165423368Y-63383475D01*
X165597760Y-63500000D01*
X165423368Y-63616525D01*
X165216525Y-63823368D01*
X165054010Y-64066589D01*
X164942068Y-64336842D01*
X164885000Y-64623740D01*
X164885000Y-64916260D01*
X164942068Y-65203158D01*
X165054010Y-65473411D01*
X165216525Y-65716632D01*
X165423368Y-65923475D01*
X165597760Y-66040000D01*
X165423368Y-66156525D01*
X165216525Y-66363368D01*
X165054010Y-66606589D01*
X164942068Y-66876842D01*
X164885000Y-67163740D01*
X164885000Y-67456260D01*
X164942068Y-67743158D01*
X165054010Y-68013411D01*
X165216525Y-68256632D01*
X165423368Y-68463475D01*
X165597760Y-68580000D01*
X165423368Y-68696525D01*
X165216525Y-68903368D01*
X165054010Y-69146589D01*
X164942068Y-69416842D01*
X164885000Y-69703740D01*
X164885000Y-69996260D01*
X164942068Y-70283158D01*
X165054010Y-70553411D01*
X165216525Y-70796632D01*
X165423368Y-71003475D01*
X165597760Y-71120000D01*
X165423368Y-71236525D01*
X165216525Y-71443368D01*
X165054010Y-71686589D01*
X164942068Y-71956842D01*
X164885000Y-72243740D01*
X164885000Y-72536260D01*
X164942068Y-72823158D01*
X165054010Y-73093411D01*
X165216525Y-73336632D01*
X165423368Y-73543475D01*
X165597760Y-73660000D01*
X165423368Y-73776525D01*
X165216525Y-73983368D01*
X165054010Y-74226589D01*
X164942068Y-74496842D01*
X164885000Y-74783740D01*
X164885000Y-75076260D01*
X164942068Y-75363158D01*
X165054010Y-75633411D01*
X165216525Y-75876632D01*
X165423368Y-76083475D01*
X165597760Y-76200000D01*
X165423368Y-76316525D01*
X165216525Y-76523368D01*
X165054010Y-76766589D01*
X164942068Y-77036842D01*
X164885000Y-77323740D01*
X164885000Y-77616260D01*
X164942068Y-77903158D01*
X165054010Y-78173411D01*
X165216525Y-78416632D01*
X165423368Y-78623475D01*
X165597760Y-78740000D01*
X165423368Y-78856525D01*
X165216525Y-79063368D01*
X165054010Y-79306589D01*
X164942068Y-79576842D01*
X164885000Y-79863740D01*
X164885000Y-80156260D01*
X164942068Y-80443158D01*
X165054010Y-80713411D01*
X165216525Y-80956632D01*
X165423368Y-81163475D01*
X165597760Y-81280000D01*
X165423368Y-81396525D01*
X165216525Y-81603368D01*
X165054010Y-81846589D01*
X164942068Y-82116842D01*
X164885000Y-82403740D01*
X164885000Y-82696260D01*
X164942068Y-82983158D01*
X165054010Y-83253411D01*
X165216525Y-83496632D01*
X165423368Y-83703475D01*
X165597760Y-83820000D01*
X165423368Y-83936525D01*
X165216525Y-84143368D01*
X165054010Y-84386589D01*
X164942068Y-84656842D01*
X164885000Y-84943740D01*
X164885000Y-85236260D01*
X164942068Y-85523158D01*
X165054010Y-85793411D01*
X165216525Y-86036632D01*
X165423368Y-86243475D01*
X165597760Y-86360000D01*
X165423368Y-86476525D01*
X165216525Y-86683368D01*
X165054010Y-86926589D01*
X164942068Y-87196842D01*
X164885000Y-87483740D01*
X164885000Y-87776260D01*
X164942068Y-88063158D01*
X165054010Y-88333411D01*
X165216525Y-88576632D01*
X165423368Y-88783475D01*
X165666589Y-88945990D01*
X165936842Y-89057932D01*
X166223740Y-89115000D01*
X166516260Y-89115000D01*
X166803158Y-89057932D01*
X167073411Y-88945990D01*
X167316632Y-88783475D01*
X167523475Y-88576632D01*
X167685990Y-88333411D01*
X167797932Y-88063158D01*
X167855000Y-87776260D01*
X167855000Y-87483740D01*
X167797932Y-87196842D01*
X167685990Y-86926589D01*
X167523475Y-86683368D01*
X167316632Y-86476525D01*
X167142240Y-86360000D01*
X167316632Y-86243475D01*
X167523475Y-86036632D01*
X167685990Y-85793411D01*
X167797932Y-85523158D01*
X167855000Y-85236260D01*
X167855000Y-84943740D01*
X167797932Y-84656842D01*
X167685990Y-84386589D01*
X167523475Y-84143368D01*
X167316632Y-83936525D01*
X167142240Y-83820000D01*
X167316632Y-83703475D01*
X167523475Y-83496632D01*
X167685990Y-83253411D01*
X167797932Y-82983158D01*
X167855000Y-82696260D01*
X167855000Y-82403740D01*
X167797932Y-82116842D01*
X167685990Y-81846589D01*
X167523475Y-81603368D01*
X167316632Y-81396525D01*
X167142240Y-81280000D01*
X167316632Y-81163475D01*
X167523475Y-80956632D01*
X167685990Y-80713411D01*
X167797932Y-80443158D01*
X167855000Y-80156260D01*
X167855000Y-79863740D01*
X167797932Y-79576842D01*
X167685990Y-79306589D01*
X167523475Y-79063368D01*
X167316632Y-78856525D01*
X167142240Y-78740000D01*
X167316632Y-78623475D01*
X167523475Y-78416632D01*
X167685990Y-78173411D01*
X167797932Y-77903158D01*
X167855000Y-77616260D01*
X167855000Y-77323740D01*
X167797932Y-77036842D01*
X167685990Y-76766589D01*
X167523475Y-76523368D01*
X167316632Y-76316525D01*
X167142240Y-76200000D01*
X167316632Y-76083475D01*
X167523475Y-75876632D01*
X167685990Y-75633411D01*
X167797932Y-75363158D01*
X167855000Y-75076260D01*
X167855000Y-74783740D01*
X167797932Y-74496842D01*
X167685990Y-74226589D01*
X167523475Y-73983368D01*
X167316632Y-73776525D01*
X167142240Y-73660000D01*
X167316632Y-73543475D01*
X167523475Y-73336632D01*
X167685990Y-73093411D01*
X167797932Y-72823158D01*
X167855000Y-72536260D01*
X167855000Y-72243740D01*
X167797932Y-71956842D01*
X167685990Y-71686589D01*
X167523475Y-71443368D01*
X167316632Y-71236525D01*
X167142240Y-71120000D01*
X167316632Y-71003475D01*
X167523475Y-70796632D01*
X167685990Y-70553411D01*
X167797932Y-70283158D01*
X167855000Y-69996260D01*
X167855000Y-69703740D01*
X167797932Y-69416842D01*
X167685990Y-69146589D01*
X167523475Y-68903368D01*
X167316632Y-68696525D01*
X167142240Y-68580000D01*
X167316632Y-68463475D01*
X167523475Y-68256632D01*
X167685990Y-68013411D01*
X167797932Y-67743158D01*
X167855000Y-67456260D01*
X167855000Y-67163740D01*
X167797932Y-66876842D01*
X167685990Y-66606589D01*
X167523475Y-66363368D01*
X167316632Y-66156525D01*
X167142240Y-66040000D01*
X167316632Y-65923475D01*
X167523475Y-65716632D01*
X167685990Y-65473411D01*
X167797932Y-65203158D01*
X167855000Y-64916260D01*
X167855000Y-64623740D01*
X167797932Y-64336842D01*
X167685990Y-64066589D01*
X167523475Y-63823368D01*
X167316632Y-63616525D01*
X167142240Y-63500000D01*
X167316632Y-63383475D01*
X167523475Y-63176632D01*
X167685990Y-62933411D01*
X167797932Y-62663158D01*
X167855000Y-62376260D01*
X167855000Y-62083740D01*
X167797932Y-61796842D01*
X167685990Y-61526589D01*
X167523475Y-61283368D01*
X167316632Y-61076525D01*
X167142240Y-60960000D01*
X167316632Y-60843475D01*
X167523475Y-60636632D01*
X167685990Y-60393411D01*
X167797932Y-60123158D01*
X167855000Y-59836260D01*
X167855000Y-59543740D01*
X167797932Y-59256842D01*
X167685990Y-58986589D01*
X167523475Y-58743368D01*
X167316632Y-58536525D01*
X167142240Y-58420000D01*
X167316632Y-58303475D01*
X167523475Y-58096632D01*
X167685990Y-57853411D01*
X167797932Y-57583158D01*
X167855000Y-57296260D01*
X167855000Y-57003740D01*
X167797932Y-56716842D01*
X167685990Y-56446589D01*
X167523475Y-56203368D01*
X167316632Y-55996525D01*
X167142240Y-55880000D01*
X167316632Y-55763475D01*
X167523475Y-55556632D01*
X167685990Y-55313411D01*
X167797932Y-55043158D01*
X167855000Y-54756260D01*
X167855000Y-54463740D01*
X167797932Y-54176842D01*
X167685990Y-53906589D01*
X167523475Y-53663368D01*
X167316632Y-53456525D01*
X167142240Y-53340000D01*
X167316632Y-53223475D01*
X167523475Y-53016632D01*
X167685990Y-52773411D01*
X167797932Y-52503158D01*
X167855000Y-52216260D01*
X167855000Y-51923740D01*
X167797932Y-51636842D01*
X167685990Y-51366589D01*
X167523475Y-51123368D01*
X167316632Y-50916525D01*
X167142240Y-50800000D01*
X167316632Y-50683475D01*
X167523475Y-50476632D01*
X167685990Y-50233411D01*
X167797932Y-49963158D01*
X167855000Y-49676260D01*
X167855000Y-49383740D01*
X167797932Y-49096842D01*
X167685990Y-48826589D01*
X167523475Y-48583368D01*
X167316632Y-48376525D01*
X167142240Y-48260000D01*
X167316632Y-48143475D01*
X167523475Y-47936632D01*
X167685990Y-47693411D01*
X167797932Y-47423158D01*
X167855000Y-47136260D01*
X167855000Y-46843740D01*
X167797932Y-46556842D01*
X167685990Y-46286589D01*
X167523475Y-46043368D01*
X167316632Y-45836525D01*
X167142240Y-45720000D01*
X167316632Y-45603475D01*
X167523475Y-45396632D01*
X167685990Y-45153411D01*
X167797932Y-44883158D01*
X167855000Y-44596260D01*
X167855000Y-44303740D01*
X167797932Y-44016842D01*
X167685990Y-43746589D01*
X167523475Y-43503368D01*
X167316632Y-43296525D01*
X167142240Y-43180000D01*
X167316632Y-43063475D01*
X167523475Y-42856632D01*
X167685990Y-42613411D01*
X167797932Y-42343158D01*
X167855000Y-42056260D01*
X167855000Y-41763740D01*
X167797932Y-41476842D01*
X167685990Y-41206589D01*
X167523475Y-40963368D01*
X167391620Y-40831513D01*
X167464180Y-40809502D01*
X167574494Y-40750537D01*
X167671185Y-40671185D01*
X167750537Y-40574494D01*
X167809502Y-40464180D01*
X167845812Y-40344482D01*
X167858072Y-40220000D01*
X167858072Y-38520000D01*
X167845812Y-38395518D01*
X167809502Y-38275820D01*
X167750537Y-38165506D01*
X167671185Y-38068815D01*
X167574494Y-37989463D01*
X167464180Y-37930498D01*
X167344482Y-37894188D01*
X167220000Y-37881928D01*
X165520000Y-37881928D01*
X165395518Y-37894188D01*
X165275820Y-37930498D01*
X165165506Y-37989463D01*
X165068815Y-38068815D01*
X164989463Y-38165506D01*
X164930498Y-38275820D01*
X164894188Y-38395518D01*
X164881928Y-38520000D01*
X164881928Y-40220000D01*
X164894188Y-40344482D01*
X164930498Y-40464180D01*
X164989463Y-40574494D01*
X165068815Y-40671185D01*
X165165506Y-40750537D01*
X165275820Y-40809502D01*
X165348380Y-40831513D01*
X165216525Y-40963368D01*
X165054010Y-41206589D01*
X164942068Y-41476842D01*
X164885000Y-41763740D01*
X164885000Y-42056260D01*
X164942068Y-42343158D01*
X165054010Y-42613411D01*
X165216525Y-42856632D01*
X165423368Y-43063475D01*
X165597760Y-43180000D01*
X165423368Y-43296525D01*
X165216525Y-43503368D01*
X165054010Y-43746589D01*
X164942068Y-44016842D01*
X164885000Y-44303740D01*
X164885000Y-44596260D01*
X164942068Y-44883158D01*
X165054010Y-45153411D01*
X165216525Y-45396632D01*
X165423368Y-45603475D01*
X165597760Y-45720000D01*
X165423368Y-45836525D01*
X165216525Y-46043368D01*
X165054010Y-46286589D01*
X164942068Y-46556842D01*
X164885000Y-46843740D01*
X164885000Y-47136260D01*
X164942068Y-47423158D01*
X165054010Y-47693411D01*
X165216525Y-47936632D01*
X165423368Y-48143475D01*
X165597760Y-48260000D01*
X165423368Y-48376525D01*
X165216525Y-48583368D01*
X165054010Y-48826589D01*
X164942068Y-49096842D01*
X164885000Y-49383740D01*
X164885000Y-49676260D01*
X164942068Y-49963158D01*
X165054010Y-50233411D01*
X165216525Y-50476632D01*
X165423368Y-50683475D01*
X165597760Y-50800000D01*
X165423368Y-50916525D01*
X165216525Y-51123368D01*
X165054010Y-51366589D01*
X164942068Y-51636842D01*
X164885000Y-51923740D01*
X164885000Y-52216260D01*
X164942068Y-52503158D01*
X165054010Y-52773411D01*
X165216525Y-53016632D01*
X165423368Y-53223475D01*
X165597760Y-53340000D01*
X165423368Y-53456525D01*
X165216525Y-53663368D01*
X165054010Y-53906589D01*
X164942068Y-54176842D01*
X164885000Y-54463740D01*
X164885000Y-54756260D01*
X164942068Y-55043158D01*
X165054010Y-55313411D01*
X165216525Y-55556632D01*
X165423368Y-55763475D01*
X165597760Y-55880000D01*
X165423368Y-55996525D01*
X165216525Y-56203368D01*
X165054010Y-56446589D01*
X164942068Y-56716842D01*
X164885000Y-57003740D01*
X164885000Y-57296260D01*
X164942068Y-57583158D01*
X165054010Y-57853411D01*
X165216525Y-58096632D01*
X165423368Y-58303475D01*
X165597760Y-58420000D01*
X165423368Y-58536525D01*
X165216525Y-58743368D01*
X165054010Y-58986589D01*
X164942068Y-59256842D01*
X164885000Y-59543740D01*
X164885000Y-59836260D01*
X164942068Y-60123158D01*
X165054010Y-60393411D01*
X165216525Y-60636632D01*
X165423368Y-60843475D01*
X165597760Y-60960000D01*
X165423368Y-61076525D01*
X165279893Y-61220000D01*
X161339604Y-61220000D01*
X161289999Y-61215114D01*
X161240394Y-61220000D01*
X161240392Y-61220000D01*
X161092006Y-61234615D01*
X160901620Y-61292368D01*
X160726160Y-61386153D01*
X160572367Y-61512367D01*
X160540744Y-61550900D01*
X158070901Y-64020744D01*
X158032368Y-64052367D01*
X158000745Y-64090900D01*
X158000744Y-64090901D01*
X157906154Y-64206160D01*
X157812368Y-64381621D01*
X157754615Y-64572006D01*
X157735114Y-64770000D01*
X157740001Y-64819618D01*
X157740000Y-91021644D01*
X153251645Y-95510000D01*
X146245038Y-95510000D01*
X146219502Y-95425820D01*
X146160537Y-95315506D01*
X146081185Y-95218815D01*
X145984494Y-95139463D01*
X145874180Y-95080498D01*
X145801620Y-95058487D01*
X145870107Y-94990000D01*
X147270392Y-94990000D01*
X147320000Y-94994886D01*
X147517994Y-94975385D01*
X147708380Y-94917632D01*
X147883840Y-94823847D01*
X148037633Y-94697633D01*
X148069261Y-94659094D01*
X149269094Y-93459261D01*
X149307633Y-93427633D01*
X149433847Y-93273840D01*
X149527632Y-93098380D01*
X149585385Y-92907994D01*
X149600000Y-92759608D01*
X149600000Y-92759606D01*
X149604886Y-92710001D01*
X149600000Y-92660396D01*
X149600000Y-87483740D01*
X149645000Y-87483740D01*
X149645000Y-87776260D01*
X149702068Y-88063158D01*
X149814010Y-88333411D01*
X149976525Y-88576632D01*
X150183368Y-88783475D01*
X150426589Y-88945990D01*
X150696842Y-89057932D01*
X150983740Y-89115000D01*
X151276260Y-89115000D01*
X151563158Y-89057932D01*
X151833411Y-88945990D01*
X152076632Y-88783475D01*
X152283475Y-88576632D01*
X152445990Y-88333411D01*
X152557932Y-88063158D01*
X152615000Y-87776260D01*
X152615000Y-87483740D01*
X152557932Y-87196842D01*
X152445990Y-86926589D01*
X152283475Y-86683368D01*
X152076632Y-86476525D01*
X151894466Y-86354805D01*
X152011355Y-86285178D01*
X152227588Y-86090269D01*
X152401641Y-85856920D01*
X152526825Y-85594099D01*
X152571476Y-85446890D01*
X152450155Y-85217000D01*
X151257000Y-85217000D01*
X151257000Y-85237000D01*
X151003000Y-85237000D01*
X151003000Y-85217000D01*
X149809845Y-85217000D01*
X149688524Y-85446890D01*
X149733175Y-85594099D01*
X149858359Y-85856920D01*
X150032412Y-86090269D01*
X150248645Y-86285178D01*
X150365534Y-86354805D01*
X150183368Y-86476525D01*
X149976525Y-86683368D01*
X149814010Y-86926589D01*
X149702068Y-87196842D01*
X149645000Y-87483740D01*
X149600000Y-87483740D01*
X149600000Y-84238355D01*
X150159124Y-83679231D01*
X150183368Y-83703475D01*
X150365534Y-83825195D01*
X150248645Y-83894822D01*
X150032412Y-84089731D01*
X149858359Y-84323080D01*
X149733175Y-84585901D01*
X149688524Y-84733110D01*
X149809845Y-84963000D01*
X151003000Y-84963000D01*
X151003000Y-84943000D01*
X151257000Y-84943000D01*
X151257000Y-84963000D01*
X152450155Y-84963000D01*
X152571476Y-84733110D01*
X152526825Y-84585901D01*
X152401641Y-84323080D01*
X152227588Y-84089731D01*
X152011355Y-83894822D01*
X151894466Y-83825195D01*
X152076632Y-83703475D01*
X152283475Y-83496632D01*
X152445990Y-83253411D01*
X152557932Y-82983158D01*
X152615000Y-82696260D01*
X152615000Y-82403740D01*
X152557932Y-82116842D01*
X152445990Y-81846589D01*
X152283475Y-81603368D01*
X152076632Y-81396525D01*
X151902240Y-81280000D01*
X152076632Y-81163475D01*
X152283475Y-80956632D01*
X152445990Y-80713411D01*
X152557932Y-80443158D01*
X152615000Y-80156260D01*
X152615000Y-79863740D01*
X152557932Y-79576842D01*
X152445990Y-79306589D01*
X152283475Y-79063368D01*
X152076632Y-78856525D01*
X151902240Y-78740000D01*
X152076632Y-78623475D01*
X152283475Y-78416632D01*
X152445990Y-78173411D01*
X152557932Y-77903158D01*
X152615000Y-77616260D01*
X152615000Y-77323740D01*
X152557932Y-77036842D01*
X152445990Y-76766589D01*
X152283475Y-76523368D01*
X152076632Y-76316525D01*
X151902240Y-76200000D01*
X152076632Y-76083475D01*
X152283475Y-75876632D01*
X152445990Y-75633411D01*
X152557932Y-75363158D01*
X152615000Y-75076260D01*
X152615000Y-74783740D01*
X152557932Y-74496842D01*
X152445990Y-74226589D01*
X152283475Y-73983368D01*
X152076632Y-73776525D01*
X151902240Y-73660000D01*
X152076632Y-73543475D01*
X152283475Y-73336632D01*
X152445990Y-73093411D01*
X152557932Y-72823158D01*
X152615000Y-72536260D01*
X152615000Y-72243740D01*
X152557932Y-71956842D01*
X152445990Y-71686589D01*
X152283475Y-71443368D01*
X152076632Y-71236525D01*
X151902240Y-71120000D01*
X152076632Y-71003475D01*
X152283475Y-70796632D01*
X152445990Y-70553411D01*
X152557932Y-70283158D01*
X152615000Y-69996260D01*
X152615000Y-69703740D01*
X152557932Y-69416842D01*
X152445990Y-69146589D01*
X152283475Y-68903368D01*
X152076632Y-68696525D01*
X151902240Y-68580000D01*
X152076632Y-68463475D01*
X152283475Y-68256632D01*
X152445990Y-68013411D01*
X152557932Y-67743158D01*
X152615000Y-67456260D01*
X152615000Y-67163740D01*
X152557932Y-66876842D01*
X152445990Y-66606589D01*
X152283475Y-66363368D01*
X152076632Y-66156525D01*
X151902240Y-66040000D01*
X152076632Y-65923475D01*
X152283475Y-65716632D01*
X152445990Y-65473411D01*
X152557932Y-65203158D01*
X152615000Y-64916260D01*
X152615000Y-64623740D01*
X152557932Y-64336842D01*
X152445990Y-64066589D01*
X152283475Y-63823368D01*
X152076632Y-63616525D01*
X151902240Y-63500000D01*
X152076632Y-63383475D01*
X152283475Y-63176632D01*
X152445990Y-62933411D01*
X152557932Y-62663158D01*
X152615000Y-62376260D01*
X152615000Y-62083740D01*
X152557932Y-61796842D01*
X152445990Y-61526589D01*
X152283475Y-61283368D01*
X152076632Y-61076525D01*
X151902240Y-60960000D01*
X152076632Y-60843475D01*
X152283475Y-60636632D01*
X152445990Y-60393411D01*
X152557932Y-60123158D01*
X152615000Y-59836260D01*
X152615000Y-59543740D01*
X152557932Y-59256842D01*
X152445990Y-58986589D01*
X152283475Y-58743368D01*
X152076632Y-58536525D01*
X151902240Y-58420000D01*
X152076632Y-58303475D01*
X152283475Y-58096632D01*
X152445990Y-57853411D01*
X152557932Y-57583158D01*
X152615000Y-57296260D01*
X152615000Y-57003740D01*
X152557932Y-56716842D01*
X152445990Y-56446589D01*
X152283475Y-56203368D01*
X152076632Y-55996525D01*
X151902240Y-55880000D01*
X152076632Y-55763475D01*
X152283475Y-55556632D01*
X152445990Y-55313411D01*
X152557932Y-55043158D01*
X152615000Y-54756260D01*
X152615000Y-54463740D01*
X152557932Y-54176842D01*
X152445990Y-53906589D01*
X152283475Y-53663368D01*
X152076632Y-53456525D01*
X151902240Y-53340000D01*
X152076632Y-53223475D01*
X152283475Y-53016632D01*
X152445990Y-52773411D01*
X152557932Y-52503158D01*
X152615000Y-52216260D01*
X152615000Y-51923740D01*
X152557932Y-51636842D01*
X152445990Y-51366589D01*
X152283475Y-51123368D01*
X152076632Y-50916525D01*
X151902240Y-50800000D01*
X152076632Y-50683475D01*
X152283475Y-50476632D01*
X152445990Y-50233411D01*
X152557932Y-49963158D01*
X152615000Y-49676260D01*
X152615000Y-49383740D01*
X152557932Y-49096842D01*
X152445990Y-48826589D01*
X152283475Y-48583368D01*
X152076632Y-48376525D01*
X151902240Y-48260000D01*
X152076632Y-48143475D01*
X152283475Y-47936632D01*
X152445990Y-47693411D01*
X152557932Y-47423158D01*
X152615000Y-47136260D01*
X152615000Y-46843740D01*
X152557932Y-46556842D01*
X152445990Y-46286589D01*
X152283475Y-46043368D01*
X152076632Y-45836525D01*
X151902240Y-45720000D01*
X152076632Y-45603475D01*
X152283475Y-45396632D01*
X152445990Y-45153411D01*
X152557932Y-44883158D01*
X152615000Y-44596260D01*
X152615000Y-44303740D01*
X152557932Y-44016842D01*
X152445990Y-43746589D01*
X152283475Y-43503368D01*
X152076632Y-43296525D01*
X151902240Y-43180000D01*
X152076632Y-43063475D01*
X152283475Y-42856632D01*
X152445990Y-42613411D01*
X152557932Y-42343158D01*
X152615000Y-42056260D01*
X152615000Y-41763740D01*
X152557932Y-41476842D01*
X152445990Y-41206589D01*
X152283475Y-40963368D01*
X152151620Y-40831513D01*
X152224180Y-40809502D01*
X152334494Y-40750537D01*
X152431185Y-40671185D01*
X152510537Y-40574494D01*
X152569502Y-40464180D01*
X152605812Y-40344482D01*
X152618072Y-40220000D01*
X152618072Y-38520000D01*
X152605812Y-38395518D01*
X152569502Y-38275820D01*
X152510537Y-38165506D01*
X152431185Y-38068815D01*
X152334494Y-37989463D01*
X152224180Y-37930498D01*
X152104482Y-37894188D01*
X151980000Y-37881928D01*
X150280000Y-37881928D01*
X150155518Y-37894188D01*
X150035820Y-37930498D01*
X149925506Y-37989463D01*
X149828815Y-38068815D01*
X149749463Y-38165506D01*
X149690498Y-38275820D01*
X149654188Y-38395518D01*
X149641928Y-38520000D01*
X149641928Y-40220000D01*
X149654188Y-40344482D01*
X149690498Y-40464180D01*
X149749463Y-40574494D01*
X149828815Y-40671185D01*
X149925506Y-40750537D01*
X150035820Y-40809502D01*
X150108380Y-40831513D01*
X149976525Y-40963368D01*
X149814010Y-41206589D01*
X149702068Y-41476842D01*
X149645000Y-41763740D01*
X149645000Y-42056260D01*
X149702068Y-42343158D01*
X149814010Y-42613411D01*
X149976525Y-42856632D01*
X150183368Y-43063475D01*
X150357760Y-43180000D01*
X150183368Y-43296525D01*
X149976525Y-43503368D01*
X149814010Y-43746589D01*
X149702068Y-44016842D01*
X149645000Y-44303740D01*
X149645000Y-44596260D01*
X149702068Y-44883158D01*
X149814010Y-45153411D01*
X149976525Y-45396632D01*
X150183368Y-45603475D01*
X150357760Y-45720000D01*
X150183368Y-45836525D01*
X149976525Y-46043368D01*
X149814010Y-46286589D01*
X149702068Y-46556842D01*
X149645000Y-46843740D01*
X149645000Y-47136260D01*
X149702068Y-47423158D01*
X149814010Y-47693411D01*
X149976525Y-47936632D01*
X150183368Y-48143475D01*
X150357760Y-48260000D01*
X150183368Y-48376525D01*
X149976525Y-48583368D01*
X149814010Y-48826589D01*
X149702068Y-49096842D01*
X149645000Y-49383740D01*
X149645000Y-49676260D01*
X149702068Y-49963158D01*
X149814010Y-50233411D01*
X149976525Y-50476632D01*
X150183368Y-50683475D01*
X150357760Y-50800000D01*
X150183368Y-50916525D01*
X150039893Y-51060000D01*
X146245038Y-51060000D01*
X146219502Y-50975820D01*
X146160537Y-50865506D01*
X146081185Y-50768815D01*
X145984494Y-50689463D01*
X145874180Y-50630498D01*
X145754482Y-50594188D01*
X145630000Y-50581928D01*
X143930000Y-50581928D01*
X143805518Y-50594188D01*
X143685820Y-50630498D01*
X143575506Y-50689463D01*
X143478815Y-50768815D01*
X143399463Y-50865506D01*
X143340498Y-50975820D01*
X143304188Y-51095518D01*
X143291928Y-51220000D01*
X136017000Y-51220000D01*
X136017000Y-45300000D01*
X143291928Y-45300000D01*
X143304188Y-45424482D01*
X143340498Y-45544180D01*
X143399463Y-45654494D01*
X143478815Y-45751185D01*
X143575506Y-45830537D01*
X143685820Y-45889502D01*
X143805518Y-45925812D01*
X143930000Y-45938072D01*
X144494250Y-45935000D01*
X144653000Y-45776250D01*
X144653000Y-44577000D01*
X144907000Y-44577000D01*
X144907000Y-45776250D01*
X145065750Y-45935000D01*
X145630000Y-45938072D01*
X145754482Y-45925812D01*
X145874180Y-45889502D01*
X145984494Y-45830537D01*
X146081185Y-45751185D01*
X146160537Y-45654494D01*
X146219502Y-45544180D01*
X146255812Y-45424482D01*
X146268072Y-45300000D01*
X146265000Y-44735750D01*
X146106250Y-44577000D01*
X144907000Y-44577000D01*
X144653000Y-44577000D01*
X143453750Y-44577000D01*
X143295000Y-44735750D01*
X143291928Y-45300000D01*
X136017000Y-45300000D01*
X136017000Y-43600000D01*
X143291928Y-43600000D01*
X143295000Y-44164250D01*
X143453750Y-44323000D01*
X144653000Y-44323000D01*
X144653000Y-43123750D01*
X144907000Y-43123750D01*
X144907000Y-44323000D01*
X146106250Y-44323000D01*
X146265000Y-44164250D01*
X146268072Y-43600000D01*
X146255812Y-43475518D01*
X146219502Y-43355820D01*
X146160537Y-43245506D01*
X146081185Y-43148815D01*
X145984494Y-43069463D01*
X145874180Y-43010498D01*
X145754482Y-42974188D01*
X145630000Y-42961928D01*
X145065750Y-42965000D01*
X144907000Y-43123750D01*
X144653000Y-43123750D01*
X144494250Y-42965000D01*
X143930000Y-42961928D01*
X143805518Y-42974188D01*
X143685820Y-43010498D01*
X143575506Y-43069463D01*
X143478815Y-43148815D01*
X143399463Y-43245506D01*
X143340498Y-43355820D01*
X143304188Y-43475518D01*
X143291928Y-43600000D01*
X136017000Y-43600000D01*
X136017000Y-37879872D01*
X136195000Y-37879872D01*
X136195000Y-38320128D01*
X136280890Y-38751925D01*
X136449369Y-39158669D01*
X136693962Y-39524729D01*
X137005271Y-39836038D01*
X137371331Y-40080631D01*
X137778075Y-40249110D01*
X138209872Y-40335000D01*
X138650128Y-40335000D01*
X139081925Y-40249110D01*
X139488669Y-40080631D01*
X139854729Y-39836038D01*
X140166038Y-39524729D01*
X140410631Y-39158669D01*
X140579110Y-38751925D01*
X140665000Y-38320128D01*
X140665000Y-37879872D01*
X140579110Y-37448075D01*
X140410631Y-37041331D01*
X140166038Y-36675271D01*
X139854729Y-36363962D01*
X139488669Y-36119369D01*
X139081925Y-35950890D01*
X138650128Y-35865000D01*
X138209872Y-35865000D01*
X137778075Y-35950890D01*
X137371331Y-36119369D01*
X137005271Y-36363962D01*
X136693962Y-36675271D01*
X136449369Y-37041331D01*
X136280890Y-37448075D01*
X136195000Y-37879872D01*
X136017000Y-37879872D01*
X136017000Y-35687000D01*
X168783000Y-35687000D01*
X168783000Y-98933000D01*
G37*
%TD.AperFunction*%
%TD*%
M02*
