%TF.GenerationSoftware,KiCad,Pcbnew,5.1.10-88a1d61d58~90~ubuntu20.04.1*%
%TF.CreationDate,2021-11-30T21:16:31+09:00*%
%TF.ProjectId,auto-headlight-control-system,6175746f-2d68-4656-9164-6c696768742d,rev?*%
%TF.SameCoordinates,Original*%
%TF.FileFunction,Legend,Top*%
%TF.FilePolarity,Positive*%
%FSLAX46Y46*%
G04 Gerber Fmt 4.6, Leading zero omitted, Abs format (unit mm)*
G04 Created by KiCad (PCBNEW 5.1.10-88a1d61d58~90~ubuntu20.04.1) date 2021-11-30 21:16:31*
%MOMM*%
%LPD*%
G01*
G04 APERTURE LIST*
%ADD10C,0.150000*%
%ADD11C,0.120000*%
G04 APERTURE END LIST*
D10*
X54816666Y-60539761D02*
X54959523Y-60587380D01*
X55197619Y-60587380D01*
X55292857Y-60539761D01*
X55340476Y-60492142D01*
X55388095Y-60396904D01*
X55388095Y-60301666D01*
X55340476Y-60206428D01*
X55292857Y-60158809D01*
X55197619Y-60111190D01*
X55007142Y-60063571D01*
X54911904Y-60015952D01*
X54864285Y-59968333D01*
X54816666Y-59873095D01*
X54816666Y-59777857D01*
X54864285Y-59682619D01*
X54911904Y-59635000D01*
X55007142Y-59587380D01*
X55245238Y-59587380D01*
X55388095Y-59635000D01*
X56197619Y-60539761D02*
X56102380Y-60587380D01*
X55911904Y-60587380D01*
X55816666Y-60539761D01*
X55769047Y-60444523D01*
X55769047Y-60063571D01*
X55816666Y-59968333D01*
X55911904Y-59920714D01*
X56102380Y-59920714D01*
X56197619Y-59968333D01*
X56245238Y-60063571D01*
X56245238Y-60158809D01*
X55769047Y-60254047D01*
X56673809Y-59920714D02*
X56673809Y-60587380D01*
X56673809Y-60015952D02*
X56721428Y-59968333D01*
X56816666Y-59920714D01*
X56959523Y-59920714D01*
X57054761Y-59968333D01*
X57102380Y-60063571D01*
X57102380Y-60587380D01*
X57530952Y-60539761D02*
X57626190Y-60587380D01*
X57816666Y-60587380D01*
X57911904Y-60539761D01*
X57959523Y-60444523D01*
X57959523Y-60396904D01*
X57911904Y-60301666D01*
X57816666Y-60254047D01*
X57673809Y-60254047D01*
X57578571Y-60206428D01*
X57530952Y-60111190D01*
X57530952Y-60063571D01*
X57578571Y-59968333D01*
X57673809Y-59920714D01*
X57816666Y-59920714D01*
X57911904Y-59968333D01*
X58530952Y-60587380D02*
X58435714Y-60539761D01*
X58388095Y-60492142D01*
X58340476Y-60396904D01*
X58340476Y-60111190D01*
X58388095Y-60015952D01*
X58435714Y-59968333D01*
X58530952Y-59920714D01*
X58673809Y-59920714D01*
X58769047Y-59968333D01*
X58816666Y-60015952D01*
X58864285Y-60111190D01*
X58864285Y-60396904D01*
X58816666Y-60492142D01*
X58769047Y-60539761D01*
X58673809Y-60587380D01*
X58530952Y-60587380D01*
X59292857Y-60587380D02*
X59292857Y-59920714D01*
X59292857Y-60111190D02*
X59340476Y-60015952D01*
X59388095Y-59968333D01*
X59483333Y-59920714D01*
X59578571Y-59920714D01*
X55007142Y-62237380D02*
X55007142Y-61237380D01*
X55102380Y-61856428D02*
X55388095Y-62237380D01*
X55388095Y-61570714D02*
X55007142Y-61951666D01*
X55816666Y-62237380D02*
X55816666Y-61570714D01*
X55816666Y-61665952D02*
X55864285Y-61618333D01*
X55959523Y-61570714D01*
X56102380Y-61570714D01*
X56197619Y-61618333D01*
X56245238Y-61713571D01*
X56245238Y-62237380D01*
X56245238Y-61713571D02*
X56292857Y-61618333D01*
X56388095Y-61570714D01*
X56530952Y-61570714D01*
X56626190Y-61618333D01*
X56673809Y-61713571D01*
X56673809Y-62237380D01*
X57150000Y-62237380D02*
X57150000Y-61237380D01*
X57245238Y-61856428D02*
X57530952Y-62237380D01*
X57530952Y-61570714D02*
X57150000Y-61951666D01*
X57959523Y-62237380D02*
X57959523Y-61570714D01*
X57959523Y-61237380D02*
X57911904Y-61285000D01*
X57959523Y-61332619D01*
X58007142Y-61285000D01*
X57959523Y-61237380D01*
X57959523Y-61332619D01*
X58435714Y-62237380D02*
X58435714Y-61570714D01*
X58435714Y-61665952D02*
X58483333Y-61618333D01*
X58578571Y-61570714D01*
X58721428Y-61570714D01*
X58816666Y-61618333D01*
X58864285Y-61713571D01*
X58864285Y-62237380D01*
X58864285Y-61713571D02*
X58911904Y-61618333D01*
X59007142Y-61570714D01*
X59150000Y-61570714D01*
X59245238Y-61618333D01*
X59292857Y-61713571D01*
X59292857Y-62237380D01*
X94885238Y-59031666D02*
X95361428Y-59031666D01*
X94790000Y-59317380D02*
X95123333Y-58317380D01*
X95456666Y-59317380D01*
X96218571Y-59269761D02*
X96123333Y-59317380D01*
X95932857Y-59317380D01*
X95837619Y-59269761D01*
X95790000Y-59222142D01*
X95742380Y-59126904D01*
X95742380Y-58841190D01*
X95790000Y-58745952D01*
X95837619Y-58698333D01*
X95932857Y-58650714D01*
X96123333Y-58650714D01*
X96218571Y-58698333D01*
X96504285Y-58650714D02*
X96885238Y-58650714D01*
X96647142Y-58317380D02*
X96647142Y-59174523D01*
X96694761Y-59269761D01*
X96790000Y-59317380D01*
X96885238Y-59317380D01*
X97647142Y-58650714D02*
X97647142Y-59317380D01*
X97218571Y-58650714D02*
X97218571Y-59174523D01*
X97266190Y-59269761D01*
X97361428Y-59317380D01*
X97504285Y-59317380D01*
X97599523Y-59269761D01*
X97647142Y-59222142D01*
X98551904Y-59317380D02*
X98551904Y-58793571D01*
X98504285Y-58698333D01*
X98409047Y-58650714D01*
X98218571Y-58650714D01*
X98123333Y-58698333D01*
X98551904Y-59269761D02*
X98456666Y-59317380D01*
X98218571Y-59317380D01*
X98123333Y-59269761D01*
X98075714Y-59174523D01*
X98075714Y-59079285D01*
X98123333Y-58984047D01*
X98218571Y-58936428D01*
X98456666Y-58936428D01*
X98551904Y-58888809D01*
X98885238Y-58650714D02*
X99266190Y-58650714D01*
X99028095Y-58317380D02*
X99028095Y-59174523D01*
X99075714Y-59269761D01*
X99170952Y-59317380D01*
X99266190Y-59317380D01*
X99742380Y-59317380D02*
X99647142Y-59269761D01*
X99599523Y-59222142D01*
X99551904Y-59126904D01*
X99551904Y-58841190D01*
X99599523Y-58745952D01*
X99647142Y-58698333D01*
X99742380Y-58650714D01*
X99885238Y-58650714D01*
X99980476Y-58698333D01*
X100028095Y-58745952D01*
X100075714Y-58841190D01*
X100075714Y-59126904D01*
X100028095Y-59222142D01*
X99980476Y-59269761D01*
X99885238Y-59317380D01*
X99742380Y-59317380D01*
X100504285Y-59317380D02*
X100504285Y-58650714D01*
X100504285Y-58841190D02*
X100551904Y-58745952D01*
X100599523Y-58698333D01*
X100694761Y-58650714D01*
X100790000Y-58650714D01*
X95647142Y-60967380D02*
X95647142Y-59967380D01*
X95742380Y-60586428D02*
X96028095Y-60967380D01*
X96028095Y-60300714D02*
X95647142Y-60681666D01*
X96456666Y-60967380D02*
X96456666Y-60300714D01*
X96456666Y-60395952D02*
X96504285Y-60348333D01*
X96599523Y-60300714D01*
X96742380Y-60300714D01*
X96837619Y-60348333D01*
X96885238Y-60443571D01*
X96885238Y-60967380D01*
X96885238Y-60443571D02*
X96932857Y-60348333D01*
X97028095Y-60300714D01*
X97170952Y-60300714D01*
X97266190Y-60348333D01*
X97313809Y-60443571D01*
X97313809Y-60967380D01*
X97790000Y-60967380D02*
X97790000Y-59967380D01*
X97885238Y-60586428D02*
X98170952Y-60967380D01*
X98170952Y-60300714D02*
X97790000Y-60681666D01*
X98599523Y-60967380D02*
X98599523Y-60300714D01*
X98599523Y-59967380D02*
X98551904Y-60015000D01*
X98599523Y-60062619D01*
X98647142Y-60015000D01*
X98599523Y-59967380D01*
X98599523Y-60062619D01*
X99075714Y-60967380D02*
X99075714Y-60300714D01*
X99075714Y-60395952D02*
X99123333Y-60348333D01*
X99218571Y-60300714D01*
X99361428Y-60300714D01*
X99456666Y-60348333D01*
X99504285Y-60443571D01*
X99504285Y-60967380D01*
X99504285Y-60443571D02*
X99551904Y-60348333D01*
X99647142Y-60300714D01*
X99790000Y-60300714D01*
X99885238Y-60348333D01*
X99932857Y-60443571D01*
X99932857Y-60967380D01*
D11*
%TO.C,U2*%
X77410000Y-88960000D02*
X80070000Y-88960000D01*
X77410000Y-40640000D02*
X77410000Y-88960000D01*
X80070000Y-40640000D02*
X80070000Y-88960000D01*
X77410000Y-40640000D02*
X80070000Y-40640000D01*
X77410000Y-39370000D02*
X77410000Y-38040000D01*
X77410000Y-38040000D02*
X78740000Y-38040000D01*
%TO.C, *%
X54591000Y-38100000D02*
G75*
G03*
X54591000Y-38100000I-1251000J0D01*
G01*
X81261000Y-105410000D02*
G75*
G03*
X81261000Y-105410000I-1251000J0D01*
G01*
%TO.C,J2*%
X57150000Y-43120000D02*
X58480000Y-43120000D01*
X58480000Y-43120000D02*
X58480000Y-44450000D01*
X58480000Y-45660000D02*
X58480000Y-45780000D01*
X55820000Y-45660000D02*
X55820000Y-45780000D01*
X55820000Y-45780000D02*
X58480000Y-45780000D01*
%TO.C,T1*%
X55820000Y-81340000D02*
X58480000Y-81340000D01*
X55820000Y-73660000D02*
X55820000Y-81340000D01*
X58480000Y-73660000D02*
X58480000Y-81340000D01*
X55820000Y-73660000D02*
X58480000Y-73660000D01*
X55820000Y-72390000D02*
X55820000Y-71060000D01*
X55820000Y-71060000D02*
X57150000Y-71060000D01*
%TO.C,S2*%
X76260000Y-101540000D02*
X76260000Y-102870000D01*
X74930000Y-101540000D02*
X76260000Y-101540000D01*
X73660000Y-101540000D02*
X73660000Y-104200000D01*
X73660000Y-104200000D02*
X65980000Y-104200000D01*
X73660000Y-101540000D02*
X65980000Y-101540000D01*
X65980000Y-101540000D02*
X65980000Y-104200000D01*
%TO.C,U1*%
X62170000Y-38040000D02*
X63500000Y-38040000D01*
X62170000Y-39370000D02*
X62170000Y-38040000D01*
X62170000Y-40640000D02*
X64830000Y-40640000D01*
X64830000Y-40640000D02*
X64830000Y-88960000D01*
X62170000Y-40640000D02*
X62170000Y-88960000D01*
X62170000Y-88960000D02*
X64830000Y-88960000D01*
%TO.C,S1*%
X57210000Y-106740000D02*
X55880000Y-106740000D01*
X57210000Y-105410000D02*
X57210000Y-106740000D01*
X57210000Y-104140000D02*
X54550000Y-104140000D01*
X54550000Y-104140000D02*
X54550000Y-91380000D01*
X57210000Y-104140000D02*
X57210000Y-91380000D01*
X57210000Y-91380000D02*
X54550000Y-91380000D01*
%TO.C,J1*%
X55820000Y-53400000D02*
X58480000Y-53400000D01*
X55820000Y-53280000D02*
X55820000Y-53400000D01*
X58480000Y-53280000D02*
X58480000Y-53400000D01*
X58480000Y-50740000D02*
X58480000Y-52070000D01*
X57150000Y-50740000D02*
X58480000Y-50740000D01*
%TO.C,D2*%
X90110000Y-67370000D02*
X92770000Y-67370000D01*
X90110000Y-67310000D02*
X90110000Y-67370000D01*
X92770000Y-67310000D02*
X92770000Y-67370000D01*
X90110000Y-67310000D02*
X92770000Y-67310000D01*
X90110000Y-66040000D02*
X90110000Y-64710000D01*
X90110000Y-64710000D02*
X91440000Y-64710000D01*
%TO.C, *%
X120631000Y-97790000D02*
G75*
G03*
X120631000Y-97790000I-1251000J0D01*
G01*
%TO.C,U3*%
X102810000Y-39310000D02*
X104140000Y-39310000D01*
X102810000Y-40640000D02*
X102810000Y-39310000D01*
X102810000Y-41910000D02*
X105470000Y-41910000D01*
X105470000Y-41910000D02*
X105470000Y-90230000D01*
X102810000Y-41910000D02*
X102810000Y-90230000D01*
X102810000Y-90230000D02*
X105470000Y-90230000D01*
%TO.C,J4*%
X96460000Y-47050000D02*
X99120000Y-47050000D01*
X96460000Y-46930000D02*
X96460000Y-47050000D01*
X99120000Y-46930000D02*
X99120000Y-47050000D01*
X99120000Y-44390000D02*
X99120000Y-45720000D01*
X97790000Y-44390000D02*
X99120000Y-44390000D01*
%TO.C,R1*%
X90070000Y-79470000D02*
X90400000Y-79470000D01*
X90070000Y-72930000D02*
X90070000Y-79470000D01*
X90400000Y-72930000D02*
X90070000Y-72930000D01*
X92810000Y-79470000D02*
X92480000Y-79470000D01*
X92810000Y-72930000D02*
X92810000Y-79470000D01*
X92480000Y-72930000D02*
X92810000Y-72930000D01*
%TO.C,U4*%
X118050000Y-90230000D02*
X120710000Y-90230000D01*
X118050000Y-41910000D02*
X118050000Y-90230000D01*
X120710000Y-41910000D02*
X120710000Y-90230000D01*
X118050000Y-41910000D02*
X120710000Y-41910000D01*
X118050000Y-40640000D02*
X118050000Y-39310000D01*
X118050000Y-39310000D02*
X119380000Y-39310000D01*
%TO.C,J3*%
X97790000Y-52010000D02*
X99120000Y-52010000D01*
X99120000Y-52010000D02*
X99120000Y-53340000D01*
X99120000Y-54550000D02*
X99120000Y-54670000D01*
X96460000Y-54550000D02*
X96460000Y-54670000D01*
X96460000Y-54670000D02*
X99120000Y-54670000D01*
%TO.C,T2*%
X96460000Y-72330000D02*
X97790000Y-72330000D01*
X96460000Y-73660000D02*
X96460000Y-72330000D01*
X96460000Y-74930000D02*
X99120000Y-74930000D01*
X99120000Y-74930000D02*
X99120000Y-82610000D01*
X96460000Y-74930000D02*
X96460000Y-82610000D01*
X96460000Y-82610000D02*
X99120000Y-82610000D01*
%TO.C,M1*%
X99120000Y-99120000D02*
X97790000Y-99120000D01*
X99120000Y-97790000D02*
X99120000Y-99120000D01*
X99120000Y-96520000D02*
X96460000Y-96520000D01*
X96460000Y-96520000D02*
X96460000Y-91380000D01*
X99120000Y-96520000D02*
X99120000Y-91380000D01*
X99120000Y-91380000D02*
X96460000Y-91380000D01*
%TO.C,D1*%
X96460000Y-64710000D02*
X97790000Y-64710000D01*
X96460000Y-66040000D02*
X96460000Y-64710000D01*
X96460000Y-67310000D02*
X99120000Y-67310000D01*
X99120000Y-67310000D02*
X99120000Y-67370000D01*
X96460000Y-67310000D02*
X96460000Y-67370000D01*
X96460000Y-67370000D02*
X99120000Y-67370000D01*
%TO.C, *%
X92691000Y-39370000D02*
G75*
G03*
X92691000Y-39370000I-1251000J0D01*
G01*
%TO.C,U2*%
D10*
X77978095Y-36492380D02*
X77978095Y-37301904D01*
X78025714Y-37397142D01*
X78073333Y-37444761D01*
X78168571Y-37492380D01*
X78359047Y-37492380D01*
X78454285Y-37444761D01*
X78501904Y-37397142D01*
X78549523Y-37301904D01*
X78549523Y-36492380D01*
X78978095Y-36587619D02*
X79025714Y-36540000D01*
X79120952Y-36492380D01*
X79359047Y-36492380D01*
X79454285Y-36540000D01*
X79501904Y-36587619D01*
X79549523Y-36682857D01*
X79549523Y-36778095D01*
X79501904Y-36920952D01*
X78930476Y-37492380D01*
X79549523Y-37492380D01*
%TO.C, *%
%TO.C,J2*%
X56816666Y-41132380D02*
X56816666Y-41846666D01*
X56769047Y-41989523D01*
X56673809Y-42084761D01*
X56530952Y-42132380D01*
X56435714Y-42132380D01*
X57245238Y-41227619D02*
X57292857Y-41180000D01*
X57388095Y-41132380D01*
X57626190Y-41132380D01*
X57721428Y-41180000D01*
X57769047Y-41227619D01*
X57816666Y-41322857D01*
X57816666Y-41418095D01*
X57769047Y-41560952D01*
X57197619Y-42132380D01*
X57816666Y-42132380D01*
%TO.C,T1*%
X56388095Y-69512380D02*
X56959523Y-69512380D01*
X56673809Y-70512380D02*
X56673809Y-69512380D01*
X57816666Y-70512380D02*
X57245238Y-70512380D01*
X57530952Y-70512380D02*
X57530952Y-69512380D01*
X57435714Y-69655238D01*
X57340476Y-69750476D01*
X57245238Y-69798095D01*
%TO.C,S2*%
X77664761Y-103631904D02*
X77712380Y-103489047D01*
X77712380Y-103250952D01*
X77664761Y-103155714D01*
X77617142Y-103108095D01*
X77521904Y-103060476D01*
X77426666Y-103060476D01*
X77331428Y-103108095D01*
X77283809Y-103155714D01*
X77236190Y-103250952D01*
X77188571Y-103441428D01*
X77140952Y-103536666D01*
X77093333Y-103584285D01*
X76998095Y-103631904D01*
X76902857Y-103631904D01*
X76807619Y-103584285D01*
X76760000Y-103536666D01*
X76712380Y-103441428D01*
X76712380Y-103203333D01*
X76760000Y-103060476D01*
X76807619Y-102679523D02*
X76760000Y-102631904D01*
X76712380Y-102536666D01*
X76712380Y-102298571D01*
X76760000Y-102203333D01*
X76807619Y-102155714D01*
X76902857Y-102108095D01*
X76998095Y-102108095D01*
X77140952Y-102155714D01*
X77712380Y-102727142D01*
X77712380Y-102108095D01*
%TO.C,U1*%
X62738095Y-36492380D02*
X62738095Y-37301904D01*
X62785714Y-37397142D01*
X62833333Y-37444761D01*
X62928571Y-37492380D01*
X63119047Y-37492380D01*
X63214285Y-37444761D01*
X63261904Y-37397142D01*
X63309523Y-37301904D01*
X63309523Y-36492380D01*
X64309523Y-37492380D02*
X63738095Y-37492380D01*
X64023809Y-37492380D02*
X64023809Y-36492380D01*
X63928571Y-36635238D01*
X63833333Y-36730476D01*
X63738095Y-36778095D01*
%TO.C,S1*%
X55118095Y-108144761D02*
X55260952Y-108192380D01*
X55499047Y-108192380D01*
X55594285Y-108144761D01*
X55641904Y-108097142D01*
X55689523Y-108001904D01*
X55689523Y-107906666D01*
X55641904Y-107811428D01*
X55594285Y-107763809D01*
X55499047Y-107716190D01*
X55308571Y-107668571D01*
X55213333Y-107620952D01*
X55165714Y-107573333D01*
X55118095Y-107478095D01*
X55118095Y-107382857D01*
X55165714Y-107287619D01*
X55213333Y-107240000D01*
X55308571Y-107192380D01*
X55546666Y-107192380D01*
X55689523Y-107240000D01*
X56641904Y-108192380D02*
X56070476Y-108192380D01*
X56356190Y-108192380D02*
X56356190Y-107192380D01*
X56260952Y-107335238D01*
X56165714Y-107430476D01*
X56070476Y-107478095D01*
%TO.C,J1*%
X56816666Y-48752380D02*
X56816666Y-49466666D01*
X56769047Y-49609523D01*
X56673809Y-49704761D01*
X56530952Y-49752380D01*
X56435714Y-49752380D01*
X57816666Y-49752380D02*
X57245238Y-49752380D01*
X57530952Y-49752380D02*
X57530952Y-48752380D01*
X57435714Y-48895238D01*
X57340476Y-48990476D01*
X57245238Y-49038095D01*
%TO.C,D2*%
X90701904Y-64162380D02*
X90701904Y-63162380D01*
X90940000Y-63162380D01*
X91082857Y-63210000D01*
X91178095Y-63305238D01*
X91225714Y-63400476D01*
X91273333Y-63590952D01*
X91273333Y-63733809D01*
X91225714Y-63924285D01*
X91178095Y-64019523D01*
X91082857Y-64114761D01*
X90940000Y-64162380D01*
X90701904Y-64162380D01*
X91654285Y-63257619D02*
X91701904Y-63210000D01*
X91797142Y-63162380D01*
X92035238Y-63162380D01*
X92130476Y-63210000D01*
X92178095Y-63257619D01*
X92225714Y-63352857D01*
X92225714Y-63448095D01*
X92178095Y-63590952D01*
X91606666Y-64162380D01*
X92225714Y-64162380D01*
%TO.C, *%
%TO.C,U3*%
X103378095Y-37762380D02*
X103378095Y-38571904D01*
X103425714Y-38667142D01*
X103473333Y-38714761D01*
X103568571Y-38762380D01*
X103759047Y-38762380D01*
X103854285Y-38714761D01*
X103901904Y-38667142D01*
X103949523Y-38571904D01*
X103949523Y-37762380D01*
X104330476Y-37762380D02*
X104949523Y-37762380D01*
X104616190Y-38143333D01*
X104759047Y-38143333D01*
X104854285Y-38190952D01*
X104901904Y-38238571D01*
X104949523Y-38333809D01*
X104949523Y-38571904D01*
X104901904Y-38667142D01*
X104854285Y-38714761D01*
X104759047Y-38762380D01*
X104473333Y-38762380D01*
X104378095Y-38714761D01*
X104330476Y-38667142D01*
%TO.C,J4*%
X97456666Y-42402380D02*
X97456666Y-43116666D01*
X97409047Y-43259523D01*
X97313809Y-43354761D01*
X97170952Y-43402380D01*
X97075714Y-43402380D01*
X98361428Y-42735714D02*
X98361428Y-43402380D01*
X98123333Y-42354761D02*
X97885238Y-43069047D01*
X98504285Y-43069047D01*
%TO.C,R1*%
X94262380Y-76366666D02*
X93786190Y-76700000D01*
X94262380Y-76938095D02*
X93262380Y-76938095D01*
X93262380Y-76557142D01*
X93310000Y-76461904D01*
X93357619Y-76414285D01*
X93452857Y-76366666D01*
X93595714Y-76366666D01*
X93690952Y-76414285D01*
X93738571Y-76461904D01*
X93786190Y-76557142D01*
X93786190Y-76938095D01*
X94262380Y-75414285D02*
X94262380Y-75985714D01*
X94262380Y-75700000D02*
X93262380Y-75700000D01*
X93405238Y-75795238D01*
X93500476Y-75890476D01*
X93548095Y-75985714D01*
%TO.C,U4*%
X118618095Y-37762380D02*
X118618095Y-38571904D01*
X118665714Y-38667142D01*
X118713333Y-38714761D01*
X118808571Y-38762380D01*
X118999047Y-38762380D01*
X119094285Y-38714761D01*
X119141904Y-38667142D01*
X119189523Y-38571904D01*
X119189523Y-37762380D01*
X120094285Y-38095714D02*
X120094285Y-38762380D01*
X119856190Y-37714761D02*
X119618095Y-38429047D01*
X120237142Y-38429047D01*
%TO.C,J3*%
X97456666Y-50022380D02*
X97456666Y-50736666D01*
X97409047Y-50879523D01*
X97313809Y-50974761D01*
X97170952Y-51022380D01*
X97075714Y-51022380D01*
X97837619Y-50022380D02*
X98456666Y-50022380D01*
X98123333Y-50403333D01*
X98266190Y-50403333D01*
X98361428Y-50450952D01*
X98409047Y-50498571D01*
X98456666Y-50593809D01*
X98456666Y-50831904D01*
X98409047Y-50927142D01*
X98361428Y-50974761D01*
X98266190Y-51022380D01*
X97980476Y-51022380D01*
X97885238Y-50974761D01*
X97837619Y-50927142D01*
%TO.C,T2*%
X97028095Y-70782380D02*
X97599523Y-70782380D01*
X97313809Y-71782380D02*
X97313809Y-70782380D01*
X97885238Y-70877619D02*
X97932857Y-70830000D01*
X98028095Y-70782380D01*
X98266190Y-70782380D01*
X98361428Y-70830000D01*
X98409047Y-70877619D01*
X98456666Y-70972857D01*
X98456666Y-71068095D01*
X98409047Y-71210952D01*
X97837619Y-71782380D01*
X98456666Y-71782380D01*
%TO.C,M1*%
X96980476Y-100572380D02*
X96980476Y-99572380D01*
X97313809Y-100286666D01*
X97647142Y-99572380D01*
X97647142Y-100572380D01*
X98647142Y-100572380D02*
X98075714Y-100572380D01*
X98361428Y-100572380D02*
X98361428Y-99572380D01*
X98266190Y-99715238D01*
X98170952Y-99810476D01*
X98075714Y-99858095D01*
%TO.C,D1*%
X97051904Y-64162380D02*
X97051904Y-63162380D01*
X97290000Y-63162380D01*
X97432857Y-63210000D01*
X97528095Y-63305238D01*
X97575714Y-63400476D01*
X97623333Y-63590952D01*
X97623333Y-63733809D01*
X97575714Y-63924285D01*
X97528095Y-64019523D01*
X97432857Y-64114761D01*
X97290000Y-64162380D01*
X97051904Y-64162380D01*
X98575714Y-64162380D02*
X98004285Y-64162380D01*
X98290000Y-64162380D02*
X98290000Y-63162380D01*
X98194761Y-63305238D01*
X98099523Y-63400476D01*
X98004285Y-63448095D01*
%TO.C, *%
%TD*%
M02*
