%TF.GenerationSoftware,KiCad,Pcbnew,5.1.10-88a1d61d58~90~ubuntu20.04.1*%
%TF.CreationDate,2021-11-30T21:16:31+09:00*%
%TF.ProjectId,auto-headlight-control-system,6175746f-2d68-4656-9164-6c696768742d,rev?*%
%TF.SameCoordinates,Original*%
%TF.FileFunction,Copper,L2,Bot*%
%TF.FilePolarity,Positive*%
%FSLAX46Y46*%
G04 Gerber Fmt 4.6, Leading zero omitted, Abs format (unit mm)*
G04 Created by KiCad (PCBNEW 5.1.10-88a1d61d58~90~ubuntu20.04.1) date 2021-11-30 21:16:31*
%MOMM*%
%LPD*%
G01*
G04 APERTURE LIST*
%TA.AperFunction,ComponentPad*%
%ADD10O,1.700000X1.700000*%
%TD*%
%TA.AperFunction,ComponentPad*%
%ADD11R,1.700000X1.700000*%
%TD*%
%TA.AperFunction,ComponentPad*%
%ADD12C,3.200000*%
%TD*%
%TA.AperFunction,ComponentPad*%
%ADD13C,1.600000*%
%TD*%
%TA.AperFunction,ComponentPad*%
%ADD14O,1.600000X1.600000*%
%TD*%
%TA.AperFunction,Conductor*%
%ADD15C,0.750000*%
%TD*%
%TA.AperFunction,Conductor*%
%ADD16C,0.254000*%
%TD*%
%TA.AperFunction,Conductor*%
%ADD17C,0.100000*%
%TD*%
G04 APERTURE END LIST*
D10*
%TO.P,U2,20*%
%TO.N,Net-(U2-Pad20)*%
X78740000Y-87630000D03*
%TO.P,U2,19*%
%TO.N,Net-(U2-Pad19)*%
X78740000Y-85090000D03*
%TO.P,U2,18*%
%TO.N,Net-(U2-Pad18)*%
X78740000Y-82550000D03*
%TO.P,U2,17*%
%TO.N,Net-(U2-Pad17)*%
X78740000Y-80010000D03*
%TO.P,U2,16*%
%TO.N,Net-(U2-Pad16)*%
X78740000Y-77470000D03*
%TO.P,U2,15*%
%TO.N,Net-(U2-Pad15)*%
X78740000Y-74930000D03*
%TO.P,U2,14*%
%TO.N,Net-(U2-Pad14)*%
X78740000Y-72390000D03*
%TO.P,U2,13*%
%TO.N,Net-(U2-Pad13)*%
X78740000Y-69850000D03*
%TO.P,U2,12*%
%TO.N,Net-(U2-Pad12)*%
X78740000Y-67310000D03*
%TO.P,U2,11*%
%TO.N,Net-(U2-Pad11)*%
X78740000Y-64770000D03*
%TO.P,U2,10*%
%TO.N,Net-(U2-Pad10)*%
X78740000Y-62230000D03*
%TO.P,U2,9*%
%TO.N,Net-(U2-Pad9)*%
X78740000Y-59690000D03*
%TO.P,U2,8*%
%TO.N,Net-(U2-Pad8)*%
X78740000Y-57150000D03*
%TO.P,U2,7*%
%TO.N,Net-(U2-Pad7)*%
X78740000Y-54610000D03*
%TO.P,U2,6*%
%TO.N,Net-(U2-Pad6)*%
X78740000Y-52070000D03*
%TO.P,U2,5*%
%TO.N,Net-(U2-Pad5)*%
X78740000Y-49530000D03*
%TO.P,U2,4*%
%TO.N,Net-(U2-Pad4)*%
X78740000Y-46990000D03*
%TO.P,U2,3*%
%TO.N,Net-(U2-Pad3)*%
X78740000Y-44450000D03*
%TO.P,U2,2*%
%TO.N,Net-(U2-Pad2)*%
X78740000Y-41910000D03*
D11*
%TO.P,U2,1*%
%TO.N,Net-(U2-Pad1)*%
X78740000Y-39370000D03*
%TD*%
D12*
%TO.P, ,1*%
%TO.N,N/C*%
X53340000Y-38100000D03*
%TD*%
%TO.P, ,1*%
%TO.N,N/C*%
X80010000Y-105410000D03*
%TD*%
D11*
%TO.P,J2,1*%
%TO.N,GND_1*%
X57150000Y-44450000D03*
%TD*%
D10*
%TO.P,T1,4*%
%TO.N,CAN_TX_1*%
X57150000Y-80010000D03*
%TO.P,T1,3*%
%TO.N,CAN_RX_1*%
X57150000Y-77470000D03*
%TO.P,T1,2*%
%TO.N,GND_1*%
X57150000Y-74930000D03*
D11*
%TO.P,T1,1*%
%TO.N,3V3_1*%
X57150000Y-72390000D03*
%TD*%
%TO.P,S2,1*%
%TO.N,GND_1*%
X74930000Y-102870000D03*
D10*
%TO.P,S2,2*%
%TO.N,3V3_1*%
X72390000Y-102870000D03*
%TO.P,S2,3*%
%TO.N,SCL*%
X69850000Y-102870000D03*
%TO.P,S2,4*%
%TO.N,SDA*%
X67310000Y-102870000D03*
%TD*%
D11*
%TO.P,U1,1*%
%TO.N,Net-(U1-Pad1)*%
X63500000Y-39370000D03*
D10*
%TO.P,U1,2*%
%TO.N,Net-(U1-Pad2)*%
X63500000Y-41910000D03*
%TO.P,U1,3*%
%TO.N,Net-(U1-Pad3)*%
X63500000Y-44450000D03*
%TO.P,U1,4*%
%TO.N,Net-(U1-Pad4)*%
X63500000Y-46990000D03*
%TO.P,U1,5*%
%TO.N,Net-(U1-Pad5)*%
X63500000Y-49530000D03*
%TO.P,U1,6*%
%TO.N,Serial_Tx_1*%
X63500000Y-52070000D03*
%TO.P,U1,7*%
%TO.N,Net-(U1-Pad7)*%
X63500000Y-54610000D03*
%TO.P,U1,8*%
%TO.N,Net-(U1-Pad8)*%
X63500000Y-57150000D03*
%TO.P,U1,9*%
%TO.N,Net-(U1-Pad9)*%
X63500000Y-59690000D03*
%TO.P,U1,10*%
%TO.N,Net-(U1-Pad10)*%
X63500000Y-62230000D03*
%TO.P,U1,11*%
%TO.N,Net-(U1-Pad11)*%
X63500000Y-64770000D03*
%TO.P,U1,12*%
%TO.N,Net-(U1-Pad12)*%
X63500000Y-67310000D03*
%TO.P,U1,13*%
%TO.N,Net-(U1-Pad13)*%
X63500000Y-69850000D03*
%TO.P,U1,14*%
%TO.N,SCL*%
X63500000Y-72390000D03*
%TO.P,U1,15*%
%TO.N,SDA*%
X63500000Y-74930000D03*
%TO.P,U1,16*%
%TO.N,CAN_RX_1*%
X63500000Y-77470000D03*
%TO.P,U1,17*%
%TO.N,CAN_TX_1*%
X63500000Y-80010000D03*
%TO.P,U1,18*%
%TO.N,Net-(U1-Pad18)*%
X63500000Y-82550000D03*
%TO.P,U1,19*%
%TO.N,GND_1*%
X63500000Y-85090000D03*
%TO.P,U1,20*%
%TO.N,3V3_1*%
X63500000Y-87630000D03*
%TD*%
D11*
%TO.P,S1,1*%
%TO.N,SCL*%
X55880000Y-105410000D03*
D10*
%TO.P,S1,2*%
%TO.N,SDA*%
X55880000Y-102870000D03*
%TO.P,S1,3*%
%TO.N,Net-(S1-Pad3)*%
X55880000Y-100330000D03*
%TO.P,S1,4*%
%TO.N,Net-(S1-Pad4)*%
X55880000Y-97790000D03*
%TO.P,S1,5*%
%TO.N,GND_1*%
X55880000Y-95250000D03*
%TO.P,S1,6*%
%TO.N,3V3_1*%
X55880000Y-92710000D03*
%TD*%
D11*
%TO.P,J1,1*%
%TO.N,Serial_Tx_1*%
X57150000Y-52070000D03*
%TD*%
%TO.P,D2,1*%
%TO.N,Net-(D2-Pad1)*%
X91440000Y-66040000D03*
%TD*%
D12*
%TO.P, ,1*%
%TO.N,N/C*%
X119380000Y-97790000D03*
%TD*%
D11*
%TO.P,U3,1*%
%TO.N,Net-(U3-Pad1)*%
X104140000Y-40640000D03*
D10*
%TO.P,U3,2*%
%TO.N,Net-(U3-Pad2)*%
X104140000Y-43180000D03*
%TO.P,U3,3*%
%TO.N,Net-(U3-Pad3)*%
X104140000Y-45720000D03*
%TO.P,U3,4*%
%TO.N,Net-(U3-Pad4)*%
X104140000Y-48260000D03*
%TO.P,U3,5*%
%TO.N,Net-(U3-Pad5)*%
X104140000Y-50800000D03*
%TO.P,U3,6*%
%TO.N,Serial_Tx_2*%
X104140000Y-53340000D03*
%TO.P,U3,7*%
%TO.N,Net-(U3-Pad7)*%
X104140000Y-55880000D03*
%TO.P,U3,8*%
%TO.N,Net-(U3-Pad8)*%
X104140000Y-58420000D03*
%TO.P,U3,9*%
%TO.N,Net-(U3-Pad9)*%
X104140000Y-60960000D03*
%TO.P,U3,10*%
%TO.N,Net-(U3-Pad10)*%
X104140000Y-63500000D03*
%TO.P,U3,11*%
%TO.N,Net-(D1-Pad1)*%
X104140000Y-66040000D03*
%TO.P,U3,12*%
%TO.N,Net-(U3-Pad12)*%
X104140000Y-68580000D03*
%TO.P,U3,13*%
%TO.N,Net-(U3-Pad13)*%
X104140000Y-71120000D03*
%TO.P,U3,14*%
%TO.N,Net-(U3-Pad14)*%
X104140000Y-73660000D03*
%TO.P,U3,15*%
%TO.N,Net-(U3-Pad15)*%
X104140000Y-76200000D03*
%TO.P,U3,16*%
%TO.N,CAN_RX_2*%
X104140000Y-78740000D03*
%TO.P,U3,17*%
%TO.N,CAN_TX_2*%
X104140000Y-81280000D03*
%TO.P,U3,18*%
%TO.N,5V*%
X104140000Y-83820000D03*
%TO.P,U3,19*%
%TO.N,GND_2*%
X104140000Y-86360000D03*
%TO.P,U3,20*%
%TO.N,3V3_2*%
X104140000Y-88900000D03*
%TD*%
D11*
%TO.P,J4,1*%
%TO.N,GND_2*%
X97790000Y-45720000D03*
%TD*%
D13*
%TO.P,R1,1*%
%TO.N,Net-(D2-Pad1)*%
X91440000Y-72390000D03*
D14*
%TO.P,R1,2*%
%TO.N,GND_2*%
X91440000Y-80010000D03*
%TD*%
D10*
%TO.P,U4,20*%
%TO.N,Net-(U4-Pad20)*%
X119380000Y-88900000D03*
%TO.P,U4,19*%
%TO.N,Net-(U4-Pad19)*%
X119380000Y-86360000D03*
%TO.P,U4,18*%
%TO.N,Net-(U4-Pad18)*%
X119380000Y-83820000D03*
%TO.P,U4,17*%
%TO.N,Net-(U4-Pad17)*%
X119380000Y-81280000D03*
%TO.P,U4,16*%
%TO.N,Net-(U4-Pad16)*%
X119380000Y-78740000D03*
%TO.P,U4,15*%
%TO.N,Net-(U4-Pad15)*%
X119380000Y-76200000D03*
%TO.P,U4,14*%
%TO.N,Net-(U4-Pad14)*%
X119380000Y-73660000D03*
%TO.P,U4,13*%
%TO.N,Net-(U4-Pad13)*%
X119380000Y-71120000D03*
%TO.P,U4,12*%
%TO.N,Net-(U4-Pad12)*%
X119380000Y-68580000D03*
%TO.P,U4,11*%
%TO.N,Net-(U4-Pad11)*%
X119380000Y-66040000D03*
%TO.P,U4,10*%
%TO.N,PWM*%
X119380000Y-63500000D03*
%TO.P,U4,9*%
%TO.N,Net-(U4-Pad9)*%
X119380000Y-60960000D03*
%TO.P,U4,8*%
%TO.N,Net-(U4-Pad8)*%
X119380000Y-58420000D03*
%TO.P,U4,7*%
%TO.N,Net-(U4-Pad7)*%
X119380000Y-55880000D03*
%TO.P,U4,6*%
%TO.N,Net-(U4-Pad6)*%
X119380000Y-53340000D03*
%TO.P,U4,5*%
%TO.N,Net-(U4-Pad5)*%
X119380000Y-50800000D03*
%TO.P,U4,4*%
%TO.N,Net-(U4-Pad4)*%
X119380000Y-48260000D03*
%TO.P,U4,3*%
%TO.N,Net-(U4-Pad3)*%
X119380000Y-45720000D03*
%TO.P,U4,2*%
%TO.N,Net-(U4-Pad2)*%
X119380000Y-43180000D03*
D11*
%TO.P,U4,1*%
%TO.N,Net-(U4-Pad1)*%
X119380000Y-40640000D03*
%TD*%
%TO.P,J3,1*%
%TO.N,Serial_Tx_2*%
X97790000Y-53340000D03*
%TD*%
%TO.P,T2,1*%
%TO.N,3V3_2*%
X97790000Y-73660000D03*
D10*
%TO.P,T2,2*%
%TO.N,GND_2*%
X97790000Y-76200000D03*
%TO.P,T2,3*%
%TO.N,CAN_RX_2*%
X97790000Y-78740000D03*
%TO.P,T2,4*%
%TO.N,CAN_TX_2*%
X97790000Y-81280000D03*
%TD*%
D11*
%TO.P,M1,1*%
%TO.N,PWM*%
X97790000Y-97790000D03*
D10*
%TO.P,M1,2*%
%TO.N,5V*%
X97790000Y-95250000D03*
%TO.P,M1,3*%
%TO.N,GND_2*%
X97790000Y-92710000D03*
%TD*%
D11*
%TO.P,D1,1*%
%TO.N,Net-(D1-Pad1)*%
X97790000Y-66040000D03*
%TD*%
D12*
%TO.P, ,1*%
%TO.N,N/C*%
X91440000Y-39370000D03*
%TD*%
D15*
%TO.N,3V3_1*%
X57150000Y-72390000D02*
X58420000Y-72390000D01*
X63500000Y-87630000D02*
X68580000Y-87630000D01*
X60960000Y-92710000D02*
X63500000Y-90170000D01*
X63500000Y-90170000D02*
X63500000Y-87630000D01*
X55880000Y-92710000D02*
X60960000Y-92710000D01*
X72390000Y-91440000D02*
X68580000Y-87630000D01*
X72390000Y-102870000D02*
X72390000Y-91440000D01*
X59690000Y-86360000D02*
X60960000Y-87630000D01*
X60960000Y-87630000D02*
X63500000Y-87630000D01*
X59690000Y-73660000D02*
X59690000Y-86360000D01*
X58420000Y-72390000D02*
X59690000Y-73660000D01*
%TO.N,3V3_2*%
X100330000Y-87630000D02*
X101600000Y-88900000D01*
X101600000Y-88900000D02*
X104140000Y-88900000D01*
X100330000Y-74930000D02*
X100330000Y-87630000D01*
X99060000Y-73660000D02*
X100330000Y-74930000D01*
X97790000Y-73660000D02*
X99060000Y-73660000D01*
%TD*%
D16*
%TO.N,GND_2*%
X121793000Y-100203000D02*
X89027000Y-100203000D01*
X89027000Y-96940000D01*
X96301928Y-96940000D01*
X96301928Y-98640000D01*
X96314188Y-98764482D01*
X96350498Y-98884180D01*
X96409463Y-98994494D01*
X96488815Y-99091185D01*
X96585506Y-99170537D01*
X96695820Y-99229502D01*
X96815518Y-99265812D01*
X96940000Y-99278072D01*
X98640000Y-99278072D01*
X98764482Y-99265812D01*
X98884180Y-99229502D01*
X98994494Y-99170537D01*
X99091185Y-99091185D01*
X99170537Y-98994494D01*
X99229502Y-98884180D01*
X99265812Y-98764482D01*
X99278072Y-98640000D01*
X99278072Y-97569872D01*
X117145000Y-97569872D01*
X117145000Y-98010128D01*
X117230890Y-98441925D01*
X117399369Y-98848669D01*
X117643962Y-99214729D01*
X117955271Y-99526038D01*
X118321331Y-99770631D01*
X118728075Y-99939110D01*
X119159872Y-100025000D01*
X119600128Y-100025000D01*
X120031925Y-99939110D01*
X120438669Y-99770631D01*
X120804729Y-99526038D01*
X121116038Y-99214729D01*
X121360631Y-98848669D01*
X121529110Y-98441925D01*
X121615000Y-98010128D01*
X121615000Y-97569872D01*
X121529110Y-97138075D01*
X121360631Y-96731331D01*
X121116038Y-96365271D01*
X120804729Y-96053962D01*
X120438669Y-95809369D01*
X120031925Y-95640890D01*
X119600128Y-95555000D01*
X119159872Y-95555000D01*
X118728075Y-95640890D01*
X118321331Y-95809369D01*
X117955271Y-96053962D01*
X117643962Y-96365271D01*
X117399369Y-96731331D01*
X117230890Y-97138075D01*
X117145000Y-97569872D01*
X99278072Y-97569872D01*
X99278072Y-96940000D01*
X99265812Y-96815518D01*
X99229502Y-96695820D01*
X99170537Y-96585506D01*
X99091185Y-96488815D01*
X98994494Y-96409463D01*
X98884180Y-96350498D01*
X98811620Y-96328487D01*
X98943475Y-96196632D01*
X99105990Y-95953411D01*
X99217932Y-95683158D01*
X99275000Y-95396260D01*
X99275000Y-95103740D01*
X99217932Y-94816842D01*
X99105990Y-94546589D01*
X98943475Y-94303368D01*
X98736632Y-94096525D01*
X98554466Y-93974805D01*
X98671355Y-93905178D01*
X98887588Y-93710269D01*
X99061641Y-93476920D01*
X99186825Y-93214099D01*
X99231476Y-93066890D01*
X99110155Y-92837000D01*
X97917000Y-92837000D01*
X97917000Y-92857000D01*
X97663000Y-92857000D01*
X97663000Y-92837000D01*
X96469845Y-92837000D01*
X96348524Y-93066890D01*
X96393175Y-93214099D01*
X96518359Y-93476920D01*
X96692412Y-93710269D01*
X96908645Y-93905178D01*
X97025534Y-93974805D01*
X96843368Y-94096525D01*
X96636525Y-94303368D01*
X96474010Y-94546589D01*
X96362068Y-94816842D01*
X96305000Y-95103740D01*
X96305000Y-95396260D01*
X96362068Y-95683158D01*
X96474010Y-95953411D01*
X96636525Y-96196632D01*
X96768380Y-96328487D01*
X96695820Y-96350498D01*
X96585506Y-96409463D01*
X96488815Y-96488815D01*
X96409463Y-96585506D01*
X96350498Y-96695820D01*
X96314188Y-96815518D01*
X96301928Y-96940000D01*
X89027000Y-96940000D01*
X89027000Y-92353110D01*
X96348524Y-92353110D01*
X96469845Y-92583000D01*
X97663000Y-92583000D01*
X97663000Y-91389186D01*
X97917000Y-91389186D01*
X97917000Y-92583000D01*
X99110155Y-92583000D01*
X99231476Y-92353110D01*
X99186825Y-92205901D01*
X99061641Y-91943080D01*
X98887588Y-91709731D01*
X98671355Y-91514822D01*
X98421252Y-91365843D01*
X98146891Y-91268519D01*
X97917000Y-91389186D01*
X97663000Y-91389186D01*
X97433109Y-91268519D01*
X97158748Y-91365843D01*
X96908645Y-91514822D01*
X96692412Y-91709731D01*
X96518359Y-91943080D01*
X96393175Y-92205901D01*
X96348524Y-92353110D01*
X89027000Y-92353110D01*
X89027000Y-80359040D01*
X90048091Y-80359040D01*
X90142930Y-80623881D01*
X90287615Y-80865131D01*
X90476586Y-81073519D01*
X90702580Y-81241037D01*
X90956913Y-81361246D01*
X91090961Y-81401904D01*
X91313000Y-81279915D01*
X91313000Y-80137000D01*
X91567000Y-80137000D01*
X91567000Y-81279915D01*
X91789039Y-81401904D01*
X91923087Y-81361246D01*
X92177420Y-81241037D01*
X92403414Y-81073519D01*
X92592385Y-80865131D01*
X92737070Y-80623881D01*
X92831909Y-80359040D01*
X92710624Y-80137000D01*
X91567000Y-80137000D01*
X91313000Y-80137000D01*
X90169376Y-80137000D01*
X90048091Y-80359040D01*
X89027000Y-80359040D01*
X89027000Y-79660960D01*
X90048091Y-79660960D01*
X90169376Y-79883000D01*
X91313000Y-79883000D01*
X91313000Y-78740085D01*
X91567000Y-78740085D01*
X91567000Y-79883000D01*
X92710624Y-79883000D01*
X92831909Y-79660960D01*
X92737070Y-79396119D01*
X92592385Y-79154869D01*
X92403414Y-78946481D01*
X92177420Y-78778963D01*
X91923087Y-78658754D01*
X91789039Y-78618096D01*
X91567000Y-78740085D01*
X91313000Y-78740085D01*
X91090961Y-78618096D01*
X90956913Y-78658754D01*
X90702580Y-78778963D01*
X90476586Y-78946481D01*
X90287615Y-79154869D01*
X90142930Y-79396119D01*
X90048091Y-79660960D01*
X89027000Y-79660960D01*
X89027000Y-78593740D01*
X96305000Y-78593740D01*
X96305000Y-78886260D01*
X96362068Y-79173158D01*
X96474010Y-79443411D01*
X96636525Y-79686632D01*
X96843368Y-79893475D01*
X97017760Y-80010000D01*
X96843368Y-80126525D01*
X96636525Y-80333368D01*
X96474010Y-80576589D01*
X96362068Y-80846842D01*
X96305000Y-81133740D01*
X96305000Y-81426260D01*
X96362068Y-81713158D01*
X96474010Y-81983411D01*
X96636525Y-82226632D01*
X96843368Y-82433475D01*
X97086589Y-82595990D01*
X97356842Y-82707932D01*
X97643740Y-82765000D01*
X97936260Y-82765000D01*
X98223158Y-82707932D01*
X98493411Y-82595990D01*
X98736632Y-82433475D01*
X98943475Y-82226632D01*
X99105990Y-81983411D01*
X99217932Y-81713158D01*
X99275000Y-81426260D01*
X99275000Y-81133740D01*
X99217932Y-80846842D01*
X99105990Y-80576589D01*
X98943475Y-80333368D01*
X98736632Y-80126525D01*
X98562240Y-80010000D01*
X98736632Y-79893475D01*
X98943475Y-79686632D01*
X99105990Y-79443411D01*
X99217932Y-79173158D01*
X99275000Y-78886260D01*
X99275000Y-78593740D01*
X99217932Y-78306842D01*
X99105990Y-78036589D01*
X98943475Y-77793368D01*
X98736632Y-77586525D01*
X98554466Y-77464805D01*
X98671355Y-77395178D01*
X98887588Y-77200269D01*
X99061641Y-76966920D01*
X99186825Y-76704099D01*
X99231476Y-76556890D01*
X99110155Y-76327000D01*
X97917000Y-76327000D01*
X97917000Y-76347000D01*
X97663000Y-76347000D01*
X97663000Y-76327000D01*
X96469845Y-76327000D01*
X96348524Y-76556890D01*
X96393175Y-76704099D01*
X96518359Y-76966920D01*
X96692412Y-77200269D01*
X96908645Y-77395178D01*
X97025534Y-77464805D01*
X96843368Y-77586525D01*
X96636525Y-77793368D01*
X96474010Y-78036589D01*
X96362068Y-78306842D01*
X96305000Y-78593740D01*
X89027000Y-78593740D01*
X89027000Y-72248665D01*
X90005000Y-72248665D01*
X90005000Y-72531335D01*
X90060147Y-72808574D01*
X90168320Y-73069727D01*
X90325363Y-73304759D01*
X90525241Y-73504637D01*
X90760273Y-73661680D01*
X91021426Y-73769853D01*
X91298665Y-73825000D01*
X91581335Y-73825000D01*
X91858574Y-73769853D01*
X92119727Y-73661680D01*
X92354759Y-73504637D01*
X92554637Y-73304759D01*
X92711680Y-73069727D01*
X92819262Y-72810000D01*
X96301928Y-72810000D01*
X96301928Y-74510000D01*
X96314188Y-74634482D01*
X96350498Y-74754180D01*
X96409463Y-74864494D01*
X96488815Y-74961185D01*
X96585506Y-75040537D01*
X96695820Y-75099502D01*
X96776466Y-75123966D01*
X96692412Y-75199731D01*
X96518359Y-75433080D01*
X96393175Y-75695901D01*
X96348524Y-75843110D01*
X96469845Y-76073000D01*
X97663000Y-76073000D01*
X97663000Y-76053000D01*
X97917000Y-76053000D01*
X97917000Y-76073000D01*
X99110155Y-76073000D01*
X99231476Y-75843110D01*
X99186825Y-75695901D01*
X99061641Y-75433080D01*
X98887588Y-75199731D01*
X98803534Y-75123966D01*
X98884180Y-75099502D01*
X98994494Y-75040537D01*
X99004209Y-75032564D01*
X99320000Y-75348355D01*
X99320001Y-87580382D01*
X99315114Y-87630000D01*
X99334615Y-87827994D01*
X99392368Y-88018379D01*
X99392369Y-88018380D01*
X99486154Y-88193840D01*
X99612368Y-88347633D01*
X99650901Y-88379256D01*
X100850739Y-89579094D01*
X100882367Y-89617633D01*
X101036160Y-89743847D01*
X101211620Y-89837632D01*
X101402006Y-89895385D01*
X101550392Y-89910000D01*
X101550394Y-89910000D01*
X101599999Y-89914886D01*
X101649604Y-89910000D01*
X103049893Y-89910000D01*
X103193368Y-90053475D01*
X103436589Y-90215990D01*
X103706842Y-90327932D01*
X103993740Y-90385000D01*
X104286260Y-90385000D01*
X104573158Y-90327932D01*
X104843411Y-90215990D01*
X105086632Y-90053475D01*
X105293475Y-89846632D01*
X105455990Y-89603411D01*
X105567932Y-89333158D01*
X105625000Y-89046260D01*
X105625000Y-88753740D01*
X105567932Y-88466842D01*
X105455990Y-88196589D01*
X105293475Y-87953368D01*
X105086632Y-87746525D01*
X104904466Y-87624805D01*
X105021355Y-87555178D01*
X105237588Y-87360269D01*
X105411641Y-87126920D01*
X105536825Y-86864099D01*
X105581476Y-86716890D01*
X105460155Y-86487000D01*
X104267000Y-86487000D01*
X104267000Y-86507000D01*
X104013000Y-86507000D01*
X104013000Y-86487000D01*
X102819845Y-86487000D01*
X102698524Y-86716890D01*
X102743175Y-86864099D01*
X102868359Y-87126920D01*
X103042412Y-87360269D01*
X103258645Y-87555178D01*
X103375534Y-87624805D01*
X103193368Y-87746525D01*
X103049893Y-87890000D01*
X102018355Y-87890000D01*
X101340000Y-87211645D01*
X101340000Y-74979604D01*
X101344886Y-74929999D01*
X101333409Y-74813475D01*
X101325385Y-74732006D01*
X101267632Y-74541620D01*
X101173847Y-74366160D01*
X101047633Y-74212367D01*
X101009094Y-74180739D01*
X99809261Y-72980906D01*
X99777633Y-72942367D01*
X99623840Y-72816153D01*
X99448380Y-72722368D01*
X99259621Y-72665108D01*
X99229502Y-72565820D01*
X99170537Y-72455506D01*
X99091185Y-72358815D01*
X98994494Y-72279463D01*
X98884180Y-72220498D01*
X98764482Y-72184188D01*
X98640000Y-72171928D01*
X96940000Y-72171928D01*
X96815518Y-72184188D01*
X96695820Y-72220498D01*
X96585506Y-72279463D01*
X96488815Y-72358815D01*
X96409463Y-72455506D01*
X96350498Y-72565820D01*
X96314188Y-72685518D01*
X96301928Y-72810000D01*
X92819262Y-72810000D01*
X92819853Y-72808574D01*
X92875000Y-72531335D01*
X92875000Y-72248665D01*
X92819853Y-71971426D01*
X92711680Y-71710273D01*
X92554637Y-71475241D01*
X92354759Y-71275363D01*
X92119727Y-71118320D01*
X91858574Y-71010147D01*
X91581335Y-70955000D01*
X91298665Y-70955000D01*
X91021426Y-71010147D01*
X90760273Y-71118320D01*
X90525241Y-71275363D01*
X90325363Y-71475241D01*
X90168320Y-71710273D01*
X90060147Y-71971426D01*
X90005000Y-72248665D01*
X89027000Y-72248665D01*
X89027000Y-65190000D01*
X89951928Y-65190000D01*
X89951928Y-66890000D01*
X89964188Y-67014482D01*
X90000498Y-67134180D01*
X90059463Y-67244494D01*
X90138815Y-67341185D01*
X90235506Y-67420537D01*
X90345820Y-67479502D01*
X90465518Y-67515812D01*
X90590000Y-67528072D01*
X92290000Y-67528072D01*
X92414482Y-67515812D01*
X92534180Y-67479502D01*
X92644494Y-67420537D01*
X92741185Y-67341185D01*
X92820537Y-67244494D01*
X92879502Y-67134180D01*
X92915812Y-67014482D01*
X92928072Y-66890000D01*
X92928072Y-65190000D01*
X96301928Y-65190000D01*
X96301928Y-66890000D01*
X96314188Y-67014482D01*
X96350498Y-67134180D01*
X96409463Y-67244494D01*
X96488815Y-67341185D01*
X96585506Y-67420537D01*
X96695820Y-67479502D01*
X96815518Y-67515812D01*
X96940000Y-67528072D01*
X98640000Y-67528072D01*
X98764482Y-67515812D01*
X98884180Y-67479502D01*
X98994494Y-67420537D01*
X99091185Y-67341185D01*
X99170537Y-67244494D01*
X99229502Y-67134180D01*
X99265812Y-67014482D01*
X99278072Y-66890000D01*
X99278072Y-65190000D01*
X99265812Y-65065518D01*
X99229502Y-64945820D01*
X99170537Y-64835506D01*
X99091185Y-64738815D01*
X98994494Y-64659463D01*
X98884180Y-64600498D01*
X98764482Y-64564188D01*
X98640000Y-64551928D01*
X96940000Y-64551928D01*
X96815518Y-64564188D01*
X96695820Y-64600498D01*
X96585506Y-64659463D01*
X96488815Y-64738815D01*
X96409463Y-64835506D01*
X96350498Y-64945820D01*
X96314188Y-65065518D01*
X96301928Y-65190000D01*
X92928072Y-65190000D01*
X92915812Y-65065518D01*
X92879502Y-64945820D01*
X92820537Y-64835506D01*
X92741185Y-64738815D01*
X92644494Y-64659463D01*
X92534180Y-64600498D01*
X92414482Y-64564188D01*
X92290000Y-64551928D01*
X90590000Y-64551928D01*
X90465518Y-64564188D01*
X90345820Y-64600498D01*
X90235506Y-64659463D01*
X90138815Y-64738815D01*
X90059463Y-64835506D01*
X90000498Y-64945820D01*
X89964188Y-65065518D01*
X89951928Y-65190000D01*
X89027000Y-65190000D01*
X89027000Y-52490000D01*
X96301928Y-52490000D01*
X96301928Y-54190000D01*
X96314188Y-54314482D01*
X96350498Y-54434180D01*
X96409463Y-54544494D01*
X96488815Y-54641185D01*
X96585506Y-54720537D01*
X96695820Y-54779502D01*
X96815518Y-54815812D01*
X96940000Y-54828072D01*
X98640000Y-54828072D01*
X98764482Y-54815812D01*
X98884180Y-54779502D01*
X98994494Y-54720537D01*
X99091185Y-54641185D01*
X99170537Y-54544494D01*
X99229502Y-54434180D01*
X99265812Y-54314482D01*
X99278072Y-54190000D01*
X99278072Y-52490000D01*
X99265812Y-52365518D01*
X99229502Y-52245820D01*
X99170537Y-52135506D01*
X99091185Y-52038815D01*
X98994494Y-51959463D01*
X98884180Y-51900498D01*
X98764482Y-51864188D01*
X98640000Y-51851928D01*
X96940000Y-51851928D01*
X96815518Y-51864188D01*
X96695820Y-51900498D01*
X96585506Y-51959463D01*
X96488815Y-52038815D01*
X96409463Y-52135506D01*
X96350498Y-52245820D01*
X96314188Y-52365518D01*
X96301928Y-52490000D01*
X89027000Y-52490000D01*
X89027000Y-46570000D01*
X96301928Y-46570000D01*
X96314188Y-46694482D01*
X96350498Y-46814180D01*
X96409463Y-46924494D01*
X96488815Y-47021185D01*
X96585506Y-47100537D01*
X96695820Y-47159502D01*
X96815518Y-47195812D01*
X96940000Y-47208072D01*
X97504250Y-47205000D01*
X97663000Y-47046250D01*
X97663000Y-45847000D01*
X97917000Y-45847000D01*
X97917000Y-47046250D01*
X98075750Y-47205000D01*
X98640000Y-47208072D01*
X98764482Y-47195812D01*
X98884180Y-47159502D01*
X98994494Y-47100537D01*
X99091185Y-47021185D01*
X99170537Y-46924494D01*
X99229502Y-46814180D01*
X99265812Y-46694482D01*
X99278072Y-46570000D01*
X99275000Y-46005750D01*
X99116250Y-45847000D01*
X97917000Y-45847000D01*
X97663000Y-45847000D01*
X96463750Y-45847000D01*
X96305000Y-46005750D01*
X96301928Y-46570000D01*
X89027000Y-46570000D01*
X89027000Y-44870000D01*
X96301928Y-44870000D01*
X96305000Y-45434250D01*
X96463750Y-45593000D01*
X97663000Y-45593000D01*
X97663000Y-44393750D01*
X97917000Y-44393750D01*
X97917000Y-45593000D01*
X99116250Y-45593000D01*
X99275000Y-45434250D01*
X99278072Y-44870000D01*
X99265812Y-44745518D01*
X99229502Y-44625820D01*
X99170537Y-44515506D01*
X99091185Y-44418815D01*
X98994494Y-44339463D01*
X98884180Y-44280498D01*
X98764482Y-44244188D01*
X98640000Y-44231928D01*
X98075750Y-44235000D01*
X97917000Y-44393750D01*
X97663000Y-44393750D01*
X97504250Y-44235000D01*
X96940000Y-44231928D01*
X96815518Y-44244188D01*
X96695820Y-44280498D01*
X96585506Y-44339463D01*
X96488815Y-44418815D01*
X96409463Y-44515506D01*
X96350498Y-44625820D01*
X96314188Y-44745518D01*
X96301928Y-44870000D01*
X89027000Y-44870000D01*
X89027000Y-39149872D01*
X89205000Y-39149872D01*
X89205000Y-39590128D01*
X89290890Y-40021925D01*
X89459369Y-40428669D01*
X89703962Y-40794729D01*
X90015271Y-41106038D01*
X90381331Y-41350631D01*
X90788075Y-41519110D01*
X91219872Y-41605000D01*
X91660128Y-41605000D01*
X92091925Y-41519110D01*
X92498669Y-41350631D01*
X92864729Y-41106038D01*
X93176038Y-40794729D01*
X93420631Y-40428669D01*
X93589110Y-40021925D01*
X93635242Y-39790000D01*
X102651928Y-39790000D01*
X102651928Y-41490000D01*
X102664188Y-41614482D01*
X102700498Y-41734180D01*
X102759463Y-41844494D01*
X102838815Y-41941185D01*
X102935506Y-42020537D01*
X103045820Y-42079502D01*
X103118380Y-42101513D01*
X102986525Y-42233368D01*
X102824010Y-42476589D01*
X102712068Y-42746842D01*
X102655000Y-43033740D01*
X102655000Y-43326260D01*
X102712068Y-43613158D01*
X102824010Y-43883411D01*
X102986525Y-44126632D01*
X103193368Y-44333475D01*
X103367760Y-44450000D01*
X103193368Y-44566525D01*
X102986525Y-44773368D01*
X102824010Y-45016589D01*
X102712068Y-45286842D01*
X102655000Y-45573740D01*
X102655000Y-45866260D01*
X102712068Y-46153158D01*
X102824010Y-46423411D01*
X102986525Y-46666632D01*
X103193368Y-46873475D01*
X103367760Y-46990000D01*
X103193368Y-47106525D01*
X102986525Y-47313368D01*
X102824010Y-47556589D01*
X102712068Y-47826842D01*
X102655000Y-48113740D01*
X102655000Y-48406260D01*
X102712068Y-48693158D01*
X102824010Y-48963411D01*
X102986525Y-49206632D01*
X103193368Y-49413475D01*
X103367760Y-49530000D01*
X103193368Y-49646525D01*
X102986525Y-49853368D01*
X102824010Y-50096589D01*
X102712068Y-50366842D01*
X102655000Y-50653740D01*
X102655000Y-50946260D01*
X102712068Y-51233158D01*
X102824010Y-51503411D01*
X102986525Y-51746632D01*
X103193368Y-51953475D01*
X103367760Y-52070000D01*
X103193368Y-52186525D01*
X102986525Y-52393368D01*
X102824010Y-52636589D01*
X102712068Y-52906842D01*
X102655000Y-53193740D01*
X102655000Y-53486260D01*
X102712068Y-53773158D01*
X102824010Y-54043411D01*
X102986525Y-54286632D01*
X103193368Y-54493475D01*
X103367760Y-54610000D01*
X103193368Y-54726525D01*
X102986525Y-54933368D01*
X102824010Y-55176589D01*
X102712068Y-55446842D01*
X102655000Y-55733740D01*
X102655000Y-56026260D01*
X102712068Y-56313158D01*
X102824010Y-56583411D01*
X102986525Y-56826632D01*
X103193368Y-57033475D01*
X103367760Y-57150000D01*
X103193368Y-57266525D01*
X102986525Y-57473368D01*
X102824010Y-57716589D01*
X102712068Y-57986842D01*
X102655000Y-58273740D01*
X102655000Y-58566260D01*
X102712068Y-58853158D01*
X102824010Y-59123411D01*
X102986525Y-59366632D01*
X103193368Y-59573475D01*
X103367760Y-59690000D01*
X103193368Y-59806525D01*
X102986525Y-60013368D01*
X102824010Y-60256589D01*
X102712068Y-60526842D01*
X102655000Y-60813740D01*
X102655000Y-61106260D01*
X102712068Y-61393158D01*
X102824010Y-61663411D01*
X102986525Y-61906632D01*
X103193368Y-62113475D01*
X103367760Y-62230000D01*
X103193368Y-62346525D01*
X102986525Y-62553368D01*
X102824010Y-62796589D01*
X102712068Y-63066842D01*
X102655000Y-63353740D01*
X102655000Y-63646260D01*
X102712068Y-63933158D01*
X102824010Y-64203411D01*
X102986525Y-64446632D01*
X103193368Y-64653475D01*
X103367760Y-64770000D01*
X103193368Y-64886525D01*
X102986525Y-65093368D01*
X102824010Y-65336589D01*
X102712068Y-65606842D01*
X102655000Y-65893740D01*
X102655000Y-66186260D01*
X102712068Y-66473158D01*
X102824010Y-66743411D01*
X102986525Y-66986632D01*
X103193368Y-67193475D01*
X103367760Y-67310000D01*
X103193368Y-67426525D01*
X102986525Y-67633368D01*
X102824010Y-67876589D01*
X102712068Y-68146842D01*
X102655000Y-68433740D01*
X102655000Y-68726260D01*
X102712068Y-69013158D01*
X102824010Y-69283411D01*
X102986525Y-69526632D01*
X103193368Y-69733475D01*
X103367760Y-69850000D01*
X103193368Y-69966525D01*
X102986525Y-70173368D01*
X102824010Y-70416589D01*
X102712068Y-70686842D01*
X102655000Y-70973740D01*
X102655000Y-71266260D01*
X102712068Y-71553158D01*
X102824010Y-71823411D01*
X102986525Y-72066632D01*
X103193368Y-72273475D01*
X103367760Y-72390000D01*
X103193368Y-72506525D01*
X102986525Y-72713368D01*
X102824010Y-72956589D01*
X102712068Y-73226842D01*
X102655000Y-73513740D01*
X102655000Y-73806260D01*
X102712068Y-74093158D01*
X102824010Y-74363411D01*
X102986525Y-74606632D01*
X103193368Y-74813475D01*
X103367760Y-74930000D01*
X103193368Y-75046525D01*
X102986525Y-75253368D01*
X102824010Y-75496589D01*
X102712068Y-75766842D01*
X102655000Y-76053740D01*
X102655000Y-76346260D01*
X102712068Y-76633158D01*
X102824010Y-76903411D01*
X102986525Y-77146632D01*
X103193368Y-77353475D01*
X103367760Y-77470000D01*
X103193368Y-77586525D01*
X102986525Y-77793368D01*
X102824010Y-78036589D01*
X102712068Y-78306842D01*
X102655000Y-78593740D01*
X102655000Y-78886260D01*
X102712068Y-79173158D01*
X102824010Y-79443411D01*
X102986525Y-79686632D01*
X103193368Y-79893475D01*
X103367760Y-80010000D01*
X103193368Y-80126525D01*
X102986525Y-80333368D01*
X102824010Y-80576589D01*
X102712068Y-80846842D01*
X102655000Y-81133740D01*
X102655000Y-81426260D01*
X102712068Y-81713158D01*
X102824010Y-81983411D01*
X102986525Y-82226632D01*
X103193368Y-82433475D01*
X103367760Y-82550000D01*
X103193368Y-82666525D01*
X102986525Y-82873368D01*
X102824010Y-83116589D01*
X102712068Y-83386842D01*
X102655000Y-83673740D01*
X102655000Y-83966260D01*
X102712068Y-84253158D01*
X102824010Y-84523411D01*
X102986525Y-84766632D01*
X103193368Y-84973475D01*
X103375534Y-85095195D01*
X103258645Y-85164822D01*
X103042412Y-85359731D01*
X102868359Y-85593080D01*
X102743175Y-85855901D01*
X102698524Y-86003110D01*
X102819845Y-86233000D01*
X104013000Y-86233000D01*
X104013000Y-86213000D01*
X104267000Y-86213000D01*
X104267000Y-86233000D01*
X105460155Y-86233000D01*
X105581476Y-86003110D01*
X105536825Y-85855901D01*
X105411641Y-85593080D01*
X105237588Y-85359731D01*
X105021355Y-85164822D01*
X104904466Y-85095195D01*
X105086632Y-84973475D01*
X105293475Y-84766632D01*
X105455990Y-84523411D01*
X105567932Y-84253158D01*
X105625000Y-83966260D01*
X105625000Y-83673740D01*
X105567932Y-83386842D01*
X105455990Y-83116589D01*
X105293475Y-82873368D01*
X105086632Y-82666525D01*
X104912240Y-82550000D01*
X105086632Y-82433475D01*
X105293475Y-82226632D01*
X105455990Y-81983411D01*
X105567932Y-81713158D01*
X105625000Y-81426260D01*
X105625000Y-81133740D01*
X105567932Y-80846842D01*
X105455990Y-80576589D01*
X105293475Y-80333368D01*
X105086632Y-80126525D01*
X104912240Y-80010000D01*
X105086632Y-79893475D01*
X105293475Y-79686632D01*
X105455990Y-79443411D01*
X105567932Y-79173158D01*
X105625000Y-78886260D01*
X105625000Y-78593740D01*
X105567932Y-78306842D01*
X105455990Y-78036589D01*
X105293475Y-77793368D01*
X105086632Y-77586525D01*
X104912240Y-77470000D01*
X105086632Y-77353475D01*
X105293475Y-77146632D01*
X105455990Y-76903411D01*
X105567932Y-76633158D01*
X105625000Y-76346260D01*
X105625000Y-76053740D01*
X105567932Y-75766842D01*
X105455990Y-75496589D01*
X105293475Y-75253368D01*
X105086632Y-75046525D01*
X104912240Y-74930000D01*
X105086632Y-74813475D01*
X105293475Y-74606632D01*
X105455990Y-74363411D01*
X105567932Y-74093158D01*
X105625000Y-73806260D01*
X105625000Y-73513740D01*
X105567932Y-73226842D01*
X105455990Y-72956589D01*
X105293475Y-72713368D01*
X105086632Y-72506525D01*
X104912240Y-72390000D01*
X105086632Y-72273475D01*
X105293475Y-72066632D01*
X105455990Y-71823411D01*
X105567932Y-71553158D01*
X105625000Y-71266260D01*
X105625000Y-70973740D01*
X105567932Y-70686842D01*
X105455990Y-70416589D01*
X105293475Y-70173368D01*
X105086632Y-69966525D01*
X104912240Y-69850000D01*
X105086632Y-69733475D01*
X105293475Y-69526632D01*
X105455990Y-69283411D01*
X105567932Y-69013158D01*
X105625000Y-68726260D01*
X105625000Y-68433740D01*
X105567932Y-68146842D01*
X105455990Y-67876589D01*
X105293475Y-67633368D01*
X105086632Y-67426525D01*
X104912240Y-67310000D01*
X105086632Y-67193475D01*
X105293475Y-66986632D01*
X105455990Y-66743411D01*
X105567932Y-66473158D01*
X105625000Y-66186260D01*
X105625000Y-65893740D01*
X105567932Y-65606842D01*
X105455990Y-65336589D01*
X105293475Y-65093368D01*
X105086632Y-64886525D01*
X104912240Y-64770000D01*
X105086632Y-64653475D01*
X105293475Y-64446632D01*
X105455990Y-64203411D01*
X105567932Y-63933158D01*
X105625000Y-63646260D01*
X105625000Y-63353740D01*
X105567932Y-63066842D01*
X105455990Y-62796589D01*
X105293475Y-62553368D01*
X105086632Y-62346525D01*
X104912240Y-62230000D01*
X105086632Y-62113475D01*
X105293475Y-61906632D01*
X105455990Y-61663411D01*
X105567932Y-61393158D01*
X105625000Y-61106260D01*
X105625000Y-60813740D01*
X105567932Y-60526842D01*
X105455990Y-60256589D01*
X105293475Y-60013368D01*
X105086632Y-59806525D01*
X104912240Y-59690000D01*
X105086632Y-59573475D01*
X105293475Y-59366632D01*
X105455990Y-59123411D01*
X105567932Y-58853158D01*
X105625000Y-58566260D01*
X105625000Y-58273740D01*
X105567932Y-57986842D01*
X105455990Y-57716589D01*
X105293475Y-57473368D01*
X105086632Y-57266525D01*
X104912240Y-57150000D01*
X105086632Y-57033475D01*
X105293475Y-56826632D01*
X105455990Y-56583411D01*
X105567932Y-56313158D01*
X105625000Y-56026260D01*
X105625000Y-55733740D01*
X105567932Y-55446842D01*
X105455990Y-55176589D01*
X105293475Y-54933368D01*
X105086632Y-54726525D01*
X104912240Y-54610000D01*
X105086632Y-54493475D01*
X105293475Y-54286632D01*
X105455990Y-54043411D01*
X105567932Y-53773158D01*
X105625000Y-53486260D01*
X105625000Y-53193740D01*
X105567932Y-52906842D01*
X105455990Y-52636589D01*
X105293475Y-52393368D01*
X105086632Y-52186525D01*
X104912240Y-52070000D01*
X105086632Y-51953475D01*
X105293475Y-51746632D01*
X105455990Y-51503411D01*
X105567932Y-51233158D01*
X105625000Y-50946260D01*
X105625000Y-50653740D01*
X105567932Y-50366842D01*
X105455990Y-50096589D01*
X105293475Y-49853368D01*
X105086632Y-49646525D01*
X104912240Y-49530000D01*
X105086632Y-49413475D01*
X105293475Y-49206632D01*
X105455990Y-48963411D01*
X105567932Y-48693158D01*
X105625000Y-48406260D01*
X105625000Y-48113740D01*
X105567932Y-47826842D01*
X105455990Y-47556589D01*
X105293475Y-47313368D01*
X105086632Y-47106525D01*
X104912240Y-46990000D01*
X105086632Y-46873475D01*
X105293475Y-46666632D01*
X105455990Y-46423411D01*
X105567932Y-46153158D01*
X105625000Y-45866260D01*
X105625000Y-45573740D01*
X105567932Y-45286842D01*
X105455990Y-45016589D01*
X105293475Y-44773368D01*
X105086632Y-44566525D01*
X104912240Y-44450000D01*
X105086632Y-44333475D01*
X105293475Y-44126632D01*
X105455990Y-43883411D01*
X105567932Y-43613158D01*
X105625000Y-43326260D01*
X105625000Y-43033740D01*
X105567932Y-42746842D01*
X105455990Y-42476589D01*
X105293475Y-42233368D01*
X105161620Y-42101513D01*
X105234180Y-42079502D01*
X105344494Y-42020537D01*
X105441185Y-41941185D01*
X105520537Y-41844494D01*
X105579502Y-41734180D01*
X105615812Y-41614482D01*
X105628072Y-41490000D01*
X105628072Y-39790000D01*
X117891928Y-39790000D01*
X117891928Y-41490000D01*
X117904188Y-41614482D01*
X117940498Y-41734180D01*
X117999463Y-41844494D01*
X118078815Y-41941185D01*
X118175506Y-42020537D01*
X118285820Y-42079502D01*
X118358380Y-42101513D01*
X118226525Y-42233368D01*
X118064010Y-42476589D01*
X117952068Y-42746842D01*
X117895000Y-43033740D01*
X117895000Y-43326260D01*
X117952068Y-43613158D01*
X118064010Y-43883411D01*
X118226525Y-44126632D01*
X118433368Y-44333475D01*
X118607760Y-44450000D01*
X118433368Y-44566525D01*
X118226525Y-44773368D01*
X118064010Y-45016589D01*
X117952068Y-45286842D01*
X117895000Y-45573740D01*
X117895000Y-45866260D01*
X117952068Y-46153158D01*
X118064010Y-46423411D01*
X118226525Y-46666632D01*
X118433368Y-46873475D01*
X118607760Y-46990000D01*
X118433368Y-47106525D01*
X118226525Y-47313368D01*
X118064010Y-47556589D01*
X117952068Y-47826842D01*
X117895000Y-48113740D01*
X117895000Y-48406260D01*
X117952068Y-48693158D01*
X118064010Y-48963411D01*
X118226525Y-49206632D01*
X118433368Y-49413475D01*
X118607760Y-49530000D01*
X118433368Y-49646525D01*
X118226525Y-49853368D01*
X118064010Y-50096589D01*
X117952068Y-50366842D01*
X117895000Y-50653740D01*
X117895000Y-50946260D01*
X117952068Y-51233158D01*
X118064010Y-51503411D01*
X118226525Y-51746632D01*
X118433368Y-51953475D01*
X118607760Y-52070000D01*
X118433368Y-52186525D01*
X118226525Y-52393368D01*
X118064010Y-52636589D01*
X117952068Y-52906842D01*
X117895000Y-53193740D01*
X117895000Y-53486260D01*
X117952068Y-53773158D01*
X118064010Y-54043411D01*
X118226525Y-54286632D01*
X118433368Y-54493475D01*
X118607760Y-54610000D01*
X118433368Y-54726525D01*
X118226525Y-54933368D01*
X118064010Y-55176589D01*
X117952068Y-55446842D01*
X117895000Y-55733740D01*
X117895000Y-56026260D01*
X117952068Y-56313158D01*
X118064010Y-56583411D01*
X118226525Y-56826632D01*
X118433368Y-57033475D01*
X118607760Y-57150000D01*
X118433368Y-57266525D01*
X118226525Y-57473368D01*
X118064010Y-57716589D01*
X117952068Y-57986842D01*
X117895000Y-58273740D01*
X117895000Y-58566260D01*
X117952068Y-58853158D01*
X118064010Y-59123411D01*
X118226525Y-59366632D01*
X118433368Y-59573475D01*
X118607760Y-59690000D01*
X118433368Y-59806525D01*
X118226525Y-60013368D01*
X118064010Y-60256589D01*
X117952068Y-60526842D01*
X117895000Y-60813740D01*
X117895000Y-61106260D01*
X117952068Y-61393158D01*
X118064010Y-61663411D01*
X118226525Y-61906632D01*
X118433368Y-62113475D01*
X118607760Y-62230000D01*
X118433368Y-62346525D01*
X118226525Y-62553368D01*
X118064010Y-62796589D01*
X117952068Y-63066842D01*
X117895000Y-63353740D01*
X117895000Y-63646260D01*
X117952068Y-63933158D01*
X118064010Y-64203411D01*
X118226525Y-64446632D01*
X118433368Y-64653475D01*
X118607760Y-64770000D01*
X118433368Y-64886525D01*
X118226525Y-65093368D01*
X118064010Y-65336589D01*
X117952068Y-65606842D01*
X117895000Y-65893740D01*
X117895000Y-66186260D01*
X117952068Y-66473158D01*
X118064010Y-66743411D01*
X118226525Y-66986632D01*
X118433368Y-67193475D01*
X118607760Y-67310000D01*
X118433368Y-67426525D01*
X118226525Y-67633368D01*
X118064010Y-67876589D01*
X117952068Y-68146842D01*
X117895000Y-68433740D01*
X117895000Y-68726260D01*
X117952068Y-69013158D01*
X118064010Y-69283411D01*
X118226525Y-69526632D01*
X118433368Y-69733475D01*
X118607760Y-69850000D01*
X118433368Y-69966525D01*
X118226525Y-70173368D01*
X118064010Y-70416589D01*
X117952068Y-70686842D01*
X117895000Y-70973740D01*
X117895000Y-71266260D01*
X117952068Y-71553158D01*
X118064010Y-71823411D01*
X118226525Y-72066632D01*
X118433368Y-72273475D01*
X118607760Y-72390000D01*
X118433368Y-72506525D01*
X118226525Y-72713368D01*
X118064010Y-72956589D01*
X117952068Y-73226842D01*
X117895000Y-73513740D01*
X117895000Y-73806260D01*
X117952068Y-74093158D01*
X118064010Y-74363411D01*
X118226525Y-74606632D01*
X118433368Y-74813475D01*
X118607760Y-74930000D01*
X118433368Y-75046525D01*
X118226525Y-75253368D01*
X118064010Y-75496589D01*
X117952068Y-75766842D01*
X117895000Y-76053740D01*
X117895000Y-76346260D01*
X117952068Y-76633158D01*
X118064010Y-76903411D01*
X118226525Y-77146632D01*
X118433368Y-77353475D01*
X118607760Y-77470000D01*
X118433368Y-77586525D01*
X118226525Y-77793368D01*
X118064010Y-78036589D01*
X117952068Y-78306842D01*
X117895000Y-78593740D01*
X117895000Y-78886260D01*
X117952068Y-79173158D01*
X118064010Y-79443411D01*
X118226525Y-79686632D01*
X118433368Y-79893475D01*
X118607760Y-80010000D01*
X118433368Y-80126525D01*
X118226525Y-80333368D01*
X118064010Y-80576589D01*
X117952068Y-80846842D01*
X117895000Y-81133740D01*
X117895000Y-81426260D01*
X117952068Y-81713158D01*
X118064010Y-81983411D01*
X118226525Y-82226632D01*
X118433368Y-82433475D01*
X118607760Y-82550000D01*
X118433368Y-82666525D01*
X118226525Y-82873368D01*
X118064010Y-83116589D01*
X117952068Y-83386842D01*
X117895000Y-83673740D01*
X117895000Y-83966260D01*
X117952068Y-84253158D01*
X118064010Y-84523411D01*
X118226525Y-84766632D01*
X118433368Y-84973475D01*
X118607760Y-85090000D01*
X118433368Y-85206525D01*
X118226525Y-85413368D01*
X118064010Y-85656589D01*
X117952068Y-85926842D01*
X117895000Y-86213740D01*
X117895000Y-86506260D01*
X117952068Y-86793158D01*
X118064010Y-87063411D01*
X118226525Y-87306632D01*
X118433368Y-87513475D01*
X118607760Y-87630000D01*
X118433368Y-87746525D01*
X118226525Y-87953368D01*
X118064010Y-88196589D01*
X117952068Y-88466842D01*
X117895000Y-88753740D01*
X117895000Y-89046260D01*
X117952068Y-89333158D01*
X118064010Y-89603411D01*
X118226525Y-89846632D01*
X118433368Y-90053475D01*
X118676589Y-90215990D01*
X118946842Y-90327932D01*
X119233740Y-90385000D01*
X119526260Y-90385000D01*
X119813158Y-90327932D01*
X120083411Y-90215990D01*
X120326632Y-90053475D01*
X120533475Y-89846632D01*
X120695990Y-89603411D01*
X120807932Y-89333158D01*
X120865000Y-89046260D01*
X120865000Y-88753740D01*
X120807932Y-88466842D01*
X120695990Y-88196589D01*
X120533475Y-87953368D01*
X120326632Y-87746525D01*
X120152240Y-87630000D01*
X120326632Y-87513475D01*
X120533475Y-87306632D01*
X120695990Y-87063411D01*
X120807932Y-86793158D01*
X120865000Y-86506260D01*
X120865000Y-86213740D01*
X120807932Y-85926842D01*
X120695990Y-85656589D01*
X120533475Y-85413368D01*
X120326632Y-85206525D01*
X120152240Y-85090000D01*
X120326632Y-84973475D01*
X120533475Y-84766632D01*
X120695990Y-84523411D01*
X120807932Y-84253158D01*
X120865000Y-83966260D01*
X120865000Y-83673740D01*
X120807932Y-83386842D01*
X120695990Y-83116589D01*
X120533475Y-82873368D01*
X120326632Y-82666525D01*
X120152240Y-82550000D01*
X120326632Y-82433475D01*
X120533475Y-82226632D01*
X120695990Y-81983411D01*
X120807932Y-81713158D01*
X120865000Y-81426260D01*
X120865000Y-81133740D01*
X120807932Y-80846842D01*
X120695990Y-80576589D01*
X120533475Y-80333368D01*
X120326632Y-80126525D01*
X120152240Y-80010000D01*
X120326632Y-79893475D01*
X120533475Y-79686632D01*
X120695990Y-79443411D01*
X120807932Y-79173158D01*
X120865000Y-78886260D01*
X120865000Y-78593740D01*
X120807932Y-78306842D01*
X120695990Y-78036589D01*
X120533475Y-77793368D01*
X120326632Y-77586525D01*
X120152240Y-77470000D01*
X120326632Y-77353475D01*
X120533475Y-77146632D01*
X120695990Y-76903411D01*
X120807932Y-76633158D01*
X120865000Y-76346260D01*
X120865000Y-76053740D01*
X120807932Y-75766842D01*
X120695990Y-75496589D01*
X120533475Y-75253368D01*
X120326632Y-75046525D01*
X120152240Y-74930000D01*
X120326632Y-74813475D01*
X120533475Y-74606632D01*
X120695990Y-74363411D01*
X120807932Y-74093158D01*
X120865000Y-73806260D01*
X120865000Y-73513740D01*
X120807932Y-73226842D01*
X120695990Y-72956589D01*
X120533475Y-72713368D01*
X120326632Y-72506525D01*
X120152240Y-72390000D01*
X120326632Y-72273475D01*
X120533475Y-72066632D01*
X120695990Y-71823411D01*
X120807932Y-71553158D01*
X120865000Y-71266260D01*
X120865000Y-70973740D01*
X120807932Y-70686842D01*
X120695990Y-70416589D01*
X120533475Y-70173368D01*
X120326632Y-69966525D01*
X120152240Y-69850000D01*
X120326632Y-69733475D01*
X120533475Y-69526632D01*
X120695990Y-69283411D01*
X120807932Y-69013158D01*
X120865000Y-68726260D01*
X120865000Y-68433740D01*
X120807932Y-68146842D01*
X120695990Y-67876589D01*
X120533475Y-67633368D01*
X120326632Y-67426525D01*
X120152240Y-67310000D01*
X120326632Y-67193475D01*
X120533475Y-66986632D01*
X120695990Y-66743411D01*
X120807932Y-66473158D01*
X120865000Y-66186260D01*
X120865000Y-65893740D01*
X120807932Y-65606842D01*
X120695990Y-65336589D01*
X120533475Y-65093368D01*
X120326632Y-64886525D01*
X120152240Y-64770000D01*
X120326632Y-64653475D01*
X120533475Y-64446632D01*
X120695990Y-64203411D01*
X120807932Y-63933158D01*
X120865000Y-63646260D01*
X120865000Y-63353740D01*
X120807932Y-63066842D01*
X120695990Y-62796589D01*
X120533475Y-62553368D01*
X120326632Y-62346525D01*
X120152240Y-62230000D01*
X120326632Y-62113475D01*
X120533475Y-61906632D01*
X120695990Y-61663411D01*
X120807932Y-61393158D01*
X120865000Y-61106260D01*
X120865000Y-60813740D01*
X120807932Y-60526842D01*
X120695990Y-60256589D01*
X120533475Y-60013368D01*
X120326632Y-59806525D01*
X120152240Y-59690000D01*
X120326632Y-59573475D01*
X120533475Y-59366632D01*
X120695990Y-59123411D01*
X120807932Y-58853158D01*
X120865000Y-58566260D01*
X120865000Y-58273740D01*
X120807932Y-57986842D01*
X120695990Y-57716589D01*
X120533475Y-57473368D01*
X120326632Y-57266525D01*
X120152240Y-57150000D01*
X120326632Y-57033475D01*
X120533475Y-56826632D01*
X120695990Y-56583411D01*
X120807932Y-56313158D01*
X120865000Y-56026260D01*
X120865000Y-55733740D01*
X120807932Y-55446842D01*
X120695990Y-55176589D01*
X120533475Y-54933368D01*
X120326632Y-54726525D01*
X120152240Y-54610000D01*
X120326632Y-54493475D01*
X120533475Y-54286632D01*
X120695990Y-54043411D01*
X120807932Y-53773158D01*
X120865000Y-53486260D01*
X120865000Y-53193740D01*
X120807932Y-52906842D01*
X120695990Y-52636589D01*
X120533475Y-52393368D01*
X120326632Y-52186525D01*
X120152240Y-52070000D01*
X120326632Y-51953475D01*
X120533475Y-51746632D01*
X120695990Y-51503411D01*
X120807932Y-51233158D01*
X120865000Y-50946260D01*
X120865000Y-50653740D01*
X120807932Y-50366842D01*
X120695990Y-50096589D01*
X120533475Y-49853368D01*
X120326632Y-49646525D01*
X120152240Y-49530000D01*
X120326632Y-49413475D01*
X120533475Y-49206632D01*
X120695990Y-48963411D01*
X120807932Y-48693158D01*
X120865000Y-48406260D01*
X120865000Y-48113740D01*
X120807932Y-47826842D01*
X120695990Y-47556589D01*
X120533475Y-47313368D01*
X120326632Y-47106525D01*
X120152240Y-46990000D01*
X120326632Y-46873475D01*
X120533475Y-46666632D01*
X120695990Y-46423411D01*
X120807932Y-46153158D01*
X120865000Y-45866260D01*
X120865000Y-45573740D01*
X120807932Y-45286842D01*
X120695990Y-45016589D01*
X120533475Y-44773368D01*
X120326632Y-44566525D01*
X120152240Y-44450000D01*
X120326632Y-44333475D01*
X120533475Y-44126632D01*
X120695990Y-43883411D01*
X120807932Y-43613158D01*
X120865000Y-43326260D01*
X120865000Y-43033740D01*
X120807932Y-42746842D01*
X120695990Y-42476589D01*
X120533475Y-42233368D01*
X120401620Y-42101513D01*
X120474180Y-42079502D01*
X120584494Y-42020537D01*
X120681185Y-41941185D01*
X120760537Y-41844494D01*
X120819502Y-41734180D01*
X120855812Y-41614482D01*
X120868072Y-41490000D01*
X120868072Y-39790000D01*
X120855812Y-39665518D01*
X120819502Y-39545820D01*
X120760537Y-39435506D01*
X120681185Y-39338815D01*
X120584494Y-39259463D01*
X120474180Y-39200498D01*
X120354482Y-39164188D01*
X120230000Y-39151928D01*
X118530000Y-39151928D01*
X118405518Y-39164188D01*
X118285820Y-39200498D01*
X118175506Y-39259463D01*
X118078815Y-39338815D01*
X117999463Y-39435506D01*
X117940498Y-39545820D01*
X117904188Y-39665518D01*
X117891928Y-39790000D01*
X105628072Y-39790000D01*
X105615812Y-39665518D01*
X105579502Y-39545820D01*
X105520537Y-39435506D01*
X105441185Y-39338815D01*
X105344494Y-39259463D01*
X105234180Y-39200498D01*
X105114482Y-39164188D01*
X104990000Y-39151928D01*
X103290000Y-39151928D01*
X103165518Y-39164188D01*
X103045820Y-39200498D01*
X102935506Y-39259463D01*
X102838815Y-39338815D01*
X102759463Y-39435506D01*
X102700498Y-39545820D01*
X102664188Y-39665518D01*
X102651928Y-39790000D01*
X93635242Y-39790000D01*
X93675000Y-39590128D01*
X93675000Y-39149872D01*
X93589110Y-38718075D01*
X93420631Y-38311331D01*
X93176038Y-37945271D01*
X92864729Y-37633962D01*
X92498669Y-37389369D01*
X92091925Y-37220890D01*
X91660128Y-37135000D01*
X91219872Y-37135000D01*
X90788075Y-37220890D01*
X90381331Y-37389369D01*
X90015271Y-37633962D01*
X89703962Y-37945271D01*
X89459369Y-38311331D01*
X89290890Y-38718075D01*
X89205000Y-39149872D01*
X89027000Y-39149872D01*
X89027000Y-36957000D01*
X121793000Y-36957000D01*
X121793000Y-100203000D01*
%TA.AperFunction,Conductor*%
D17*
G36*
X121793000Y-100203000D02*
G01*
X89027000Y-100203000D01*
X89027000Y-96940000D01*
X96301928Y-96940000D01*
X96301928Y-98640000D01*
X96314188Y-98764482D01*
X96350498Y-98884180D01*
X96409463Y-98994494D01*
X96488815Y-99091185D01*
X96585506Y-99170537D01*
X96695820Y-99229502D01*
X96815518Y-99265812D01*
X96940000Y-99278072D01*
X98640000Y-99278072D01*
X98764482Y-99265812D01*
X98884180Y-99229502D01*
X98994494Y-99170537D01*
X99091185Y-99091185D01*
X99170537Y-98994494D01*
X99229502Y-98884180D01*
X99265812Y-98764482D01*
X99278072Y-98640000D01*
X99278072Y-97569872D01*
X117145000Y-97569872D01*
X117145000Y-98010128D01*
X117230890Y-98441925D01*
X117399369Y-98848669D01*
X117643962Y-99214729D01*
X117955271Y-99526038D01*
X118321331Y-99770631D01*
X118728075Y-99939110D01*
X119159872Y-100025000D01*
X119600128Y-100025000D01*
X120031925Y-99939110D01*
X120438669Y-99770631D01*
X120804729Y-99526038D01*
X121116038Y-99214729D01*
X121360631Y-98848669D01*
X121529110Y-98441925D01*
X121615000Y-98010128D01*
X121615000Y-97569872D01*
X121529110Y-97138075D01*
X121360631Y-96731331D01*
X121116038Y-96365271D01*
X120804729Y-96053962D01*
X120438669Y-95809369D01*
X120031925Y-95640890D01*
X119600128Y-95555000D01*
X119159872Y-95555000D01*
X118728075Y-95640890D01*
X118321331Y-95809369D01*
X117955271Y-96053962D01*
X117643962Y-96365271D01*
X117399369Y-96731331D01*
X117230890Y-97138075D01*
X117145000Y-97569872D01*
X99278072Y-97569872D01*
X99278072Y-96940000D01*
X99265812Y-96815518D01*
X99229502Y-96695820D01*
X99170537Y-96585506D01*
X99091185Y-96488815D01*
X98994494Y-96409463D01*
X98884180Y-96350498D01*
X98811620Y-96328487D01*
X98943475Y-96196632D01*
X99105990Y-95953411D01*
X99217932Y-95683158D01*
X99275000Y-95396260D01*
X99275000Y-95103740D01*
X99217932Y-94816842D01*
X99105990Y-94546589D01*
X98943475Y-94303368D01*
X98736632Y-94096525D01*
X98554466Y-93974805D01*
X98671355Y-93905178D01*
X98887588Y-93710269D01*
X99061641Y-93476920D01*
X99186825Y-93214099D01*
X99231476Y-93066890D01*
X99110155Y-92837000D01*
X97917000Y-92837000D01*
X97917000Y-92857000D01*
X97663000Y-92857000D01*
X97663000Y-92837000D01*
X96469845Y-92837000D01*
X96348524Y-93066890D01*
X96393175Y-93214099D01*
X96518359Y-93476920D01*
X96692412Y-93710269D01*
X96908645Y-93905178D01*
X97025534Y-93974805D01*
X96843368Y-94096525D01*
X96636525Y-94303368D01*
X96474010Y-94546589D01*
X96362068Y-94816842D01*
X96305000Y-95103740D01*
X96305000Y-95396260D01*
X96362068Y-95683158D01*
X96474010Y-95953411D01*
X96636525Y-96196632D01*
X96768380Y-96328487D01*
X96695820Y-96350498D01*
X96585506Y-96409463D01*
X96488815Y-96488815D01*
X96409463Y-96585506D01*
X96350498Y-96695820D01*
X96314188Y-96815518D01*
X96301928Y-96940000D01*
X89027000Y-96940000D01*
X89027000Y-92353110D01*
X96348524Y-92353110D01*
X96469845Y-92583000D01*
X97663000Y-92583000D01*
X97663000Y-91389186D01*
X97917000Y-91389186D01*
X97917000Y-92583000D01*
X99110155Y-92583000D01*
X99231476Y-92353110D01*
X99186825Y-92205901D01*
X99061641Y-91943080D01*
X98887588Y-91709731D01*
X98671355Y-91514822D01*
X98421252Y-91365843D01*
X98146891Y-91268519D01*
X97917000Y-91389186D01*
X97663000Y-91389186D01*
X97433109Y-91268519D01*
X97158748Y-91365843D01*
X96908645Y-91514822D01*
X96692412Y-91709731D01*
X96518359Y-91943080D01*
X96393175Y-92205901D01*
X96348524Y-92353110D01*
X89027000Y-92353110D01*
X89027000Y-80359040D01*
X90048091Y-80359040D01*
X90142930Y-80623881D01*
X90287615Y-80865131D01*
X90476586Y-81073519D01*
X90702580Y-81241037D01*
X90956913Y-81361246D01*
X91090961Y-81401904D01*
X91313000Y-81279915D01*
X91313000Y-80137000D01*
X91567000Y-80137000D01*
X91567000Y-81279915D01*
X91789039Y-81401904D01*
X91923087Y-81361246D01*
X92177420Y-81241037D01*
X92403414Y-81073519D01*
X92592385Y-80865131D01*
X92737070Y-80623881D01*
X92831909Y-80359040D01*
X92710624Y-80137000D01*
X91567000Y-80137000D01*
X91313000Y-80137000D01*
X90169376Y-80137000D01*
X90048091Y-80359040D01*
X89027000Y-80359040D01*
X89027000Y-79660960D01*
X90048091Y-79660960D01*
X90169376Y-79883000D01*
X91313000Y-79883000D01*
X91313000Y-78740085D01*
X91567000Y-78740085D01*
X91567000Y-79883000D01*
X92710624Y-79883000D01*
X92831909Y-79660960D01*
X92737070Y-79396119D01*
X92592385Y-79154869D01*
X92403414Y-78946481D01*
X92177420Y-78778963D01*
X91923087Y-78658754D01*
X91789039Y-78618096D01*
X91567000Y-78740085D01*
X91313000Y-78740085D01*
X91090961Y-78618096D01*
X90956913Y-78658754D01*
X90702580Y-78778963D01*
X90476586Y-78946481D01*
X90287615Y-79154869D01*
X90142930Y-79396119D01*
X90048091Y-79660960D01*
X89027000Y-79660960D01*
X89027000Y-78593740D01*
X96305000Y-78593740D01*
X96305000Y-78886260D01*
X96362068Y-79173158D01*
X96474010Y-79443411D01*
X96636525Y-79686632D01*
X96843368Y-79893475D01*
X97017760Y-80010000D01*
X96843368Y-80126525D01*
X96636525Y-80333368D01*
X96474010Y-80576589D01*
X96362068Y-80846842D01*
X96305000Y-81133740D01*
X96305000Y-81426260D01*
X96362068Y-81713158D01*
X96474010Y-81983411D01*
X96636525Y-82226632D01*
X96843368Y-82433475D01*
X97086589Y-82595990D01*
X97356842Y-82707932D01*
X97643740Y-82765000D01*
X97936260Y-82765000D01*
X98223158Y-82707932D01*
X98493411Y-82595990D01*
X98736632Y-82433475D01*
X98943475Y-82226632D01*
X99105990Y-81983411D01*
X99217932Y-81713158D01*
X99275000Y-81426260D01*
X99275000Y-81133740D01*
X99217932Y-80846842D01*
X99105990Y-80576589D01*
X98943475Y-80333368D01*
X98736632Y-80126525D01*
X98562240Y-80010000D01*
X98736632Y-79893475D01*
X98943475Y-79686632D01*
X99105990Y-79443411D01*
X99217932Y-79173158D01*
X99275000Y-78886260D01*
X99275000Y-78593740D01*
X99217932Y-78306842D01*
X99105990Y-78036589D01*
X98943475Y-77793368D01*
X98736632Y-77586525D01*
X98554466Y-77464805D01*
X98671355Y-77395178D01*
X98887588Y-77200269D01*
X99061641Y-76966920D01*
X99186825Y-76704099D01*
X99231476Y-76556890D01*
X99110155Y-76327000D01*
X97917000Y-76327000D01*
X97917000Y-76347000D01*
X97663000Y-76347000D01*
X97663000Y-76327000D01*
X96469845Y-76327000D01*
X96348524Y-76556890D01*
X96393175Y-76704099D01*
X96518359Y-76966920D01*
X96692412Y-77200269D01*
X96908645Y-77395178D01*
X97025534Y-77464805D01*
X96843368Y-77586525D01*
X96636525Y-77793368D01*
X96474010Y-78036589D01*
X96362068Y-78306842D01*
X96305000Y-78593740D01*
X89027000Y-78593740D01*
X89027000Y-72248665D01*
X90005000Y-72248665D01*
X90005000Y-72531335D01*
X90060147Y-72808574D01*
X90168320Y-73069727D01*
X90325363Y-73304759D01*
X90525241Y-73504637D01*
X90760273Y-73661680D01*
X91021426Y-73769853D01*
X91298665Y-73825000D01*
X91581335Y-73825000D01*
X91858574Y-73769853D01*
X92119727Y-73661680D01*
X92354759Y-73504637D01*
X92554637Y-73304759D01*
X92711680Y-73069727D01*
X92819262Y-72810000D01*
X96301928Y-72810000D01*
X96301928Y-74510000D01*
X96314188Y-74634482D01*
X96350498Y-74754180D01*
X96409463Y-74864494D01*
X96488815Y-74961185D01*
X96585506Y-75040537D01*
X96695820Y-75099502D01*
X96776466Y-75123966D01*
X96692412Y-75199731D01*
X96518359Y-75433080D01*
X96393175Y-75695901D01*
X96348524Y-75843110D01*
X96469845Y-76073000D01*
X97663000Y-76073000D01*
X97663000Y-76053000D01*
X97917000Y-76053000D01*
X97917000Y-76073000D01*
X99110155Y-76073000D01*
X99231476Y-75843110D01*
X99186825Y-75695901D01*
X99061641Y-75433080D01*
X98887588Y-75199731D01*
X98803534Y-75123966D01*
X98884180Y-75099502D01*
X98994494Y-75040537D01*
X99004209Y-75032564D01*
X99320000Y-75348355D01*
X99320001Y-87580382D01*
X99315114Y-87630000D01*
X99334615Y-87827994D01*
X99392368Y-88018379D01*
X99392369Y-88018380D01*
X99486154Y-88193840D01*
X99612368Y-88347633D01*
X99650901Y-88379256D01*
X100850739Y-89579094D01*
X100882367Y-89617633D01*
X101036160Y-89743847D01*
X101211620Y-89837632D01*
X101402006Y-89895385D01*
X101550392Y-89910000D01*
X101550394Y-89910000D01*
X101599999Y-89914886D01*
X101649604Y-89910000D01*
X103049893Y-89910000D01*
X103193368Y-90053475D01*
X103436589Y-90215990D01*
X103706842Y-90327932D01*
X103993740Y-90385000D01*
X104286260Y-90385000D01*
X104573158Y-90327932D01*
X104843411Y-90215990D01*
X105086632Y-90053475D01*
X105293475Y-89846632D01*
X105455990Y-89603411D01*
X105567932Y-89333158D01*
X105625000Y-89046260D01*
X105625000Y-88753740D01*
X105567932Y-88466842D01*
X105455990Y-88196589D01*
X105293475Y-87953368D01*
X105086632Y-87746525D01*
X104904466Y-87624805D01*
X105021355Y-87555178D01*
X105237588Y-87360269D01*
X105411641Y-87126920D01*
X105536825Y-86864099D01*
X105581476Y-86716890D01*
X105460155Y-86487000D01*
X104267000Y-86487000D01*
X104267000Y-86507000D01*
X104013000Y-86507000D01*
X104013000Y-86487000D01*
X102819845Y-86487000D01*
X102698524Y-86716890D01*
X102743175Y-86864099D01*
X102868359Y-87126920D01*
X103042412Y-87360269D01*
X103258645Y-87555178D01*
X103375534Y-87624805D01*
X103193368Y-87746525D01*
X103049893Y-87890000D01*
X102018355Y-87890000D01*
X101340000Y-87211645D01*
X101340000Y-74979604D01*
X101344886Y-74929999D01*
X101333409Y-74813475D01*
X101325385Y-74732006D01*
X101267632Y-74541620D01*
X101173847Y-74366160D01*
X101047633Y-74212367D01*
X101009094Y-74180739D01*
X99809261Y-72980906D01*
X99777633Y-72942367D01*
X99623840Y-72816153D01*
X99448380Y-72722368D01*
X99259621Y-72665108D01*
X99229502Y-72565820D01*
X99170537Y-72455506D01*
X99091185Y-72358815D01*
X98994494Y-72279463D01*
X98884180Y-72220498D01*
X98764482Y-72184188D01*
X98640000Y-72171928D01*
X96940000Y-72171928D01*
X96815518Y-72184188D01*
X96695820Y-72220498D01*
X96585506Y-72279463D01*
X96488815Y-72358815D01*
X96409463Y-72455506D01*
X96350498Y-72565820D01*
X96314188Y-72685518D01*
X96301928Y-72810000D01*
X92819262Y-72810000D01*
X92819853Y-72808574D01*
X92875000Y-72531335D01*
X92875000Y-72248665D01*
X92819853Y-71971426D01*
X92711680Y-71710273D01*
X92554637Y-71475241D01*
X92354759Y-71275363D01*
X92119727Y-71118320D01*
X91858574Y-71010147D01*
X91581335Y-70955000D01*
X91298665Y-70955000D01*
X91021426Y-71010147D01*
X90760273Y-71118320D01*
X90525241Y-71275363D01*
X90325363Y-71475241D01*
X90168320Y-71710273D01*
X90060147Y-71971426D01*
X90005000Y-72248665D01*
X89027000Y-72248665D01*
X89027000Y-65190000D01*
X89951928Y-65190000D01*
X89951928Y-66890000D01*
X89964188Y-67014482D01*
X90000498Y-67134180D01*
X90059463Y-67244494D01*
X90138815Y-67341185D01*
X90235506Y-67420537D01*
X90345820Y-67479502D01*
X90465518Y-67515812D01*
X90590000Y-67528072D01*
X92290000Y-67528072D01*
X92414482Y-67515812D01*
X92534180Y-67479502D01*
X92644494Y-67420537D01*
X92741185Y-67341185D01*
X92820537Y-67244494D01*
X92879502Y-67134180D01*
X92915812Y-67014482D01*
X92928072Y-66890000D01*
X92928072Y-65190000D01*
X96301928Y-65190000D01*
X96301928Y-66890000D01*
X96314188Y-67014482D01*
X96350498Y-67134180D01*
X96409463Y-67244494D01*
X96488815Y-67341185D01*
X96585506Y-67420537D01*
X96695820Y-67479502D01*
X96815518Y-67515812D01*
X96940000Y-67528072D01*
X98640000Y-67528072D01*
X98764482Y-67515812D01*
X98884180Y-67479502D01*
X98994494Y-67420537D01*
X99091185Y-67341185D01*
X99170537Y-67244494D01*
X99229502Y-67134180D01*
X99265812Y-67014482D01*
X99278072Y-66890000D01*
X99278072Y-65190000D01*
X99265812Y-65065518D01*
X99229502Y-64945820D01*
X99170537Y-64835506D01*
X99091185Y-64738815D01*
X98994494Y-64659463D01*
X98884180Y-64600498D01*
X98764482Y-64564188D01*
X98640000Y-64551928D01*
X96940000Y-64551928D01*
X96815518Y-64564188D01*
X96695820Y-64600498D01*
X96585506Y-64659463D01*
X96488815Y-64738815D01*
X96409463Y-64835506D01*
X96350498Y-64945820D01*
X96314188Y-65065518D01*
X96301928Y-65190000D01*
X92928072Y-65190000D01*
X92915812Y-65065518D01*
X92879502Y-64945820D01*
X92820537Y-64835506D01*
X92741185Y-64738815D01*
X92644494Y-64659463D01*
X92534180Y-64600498D01*
X92414482Y-64564188D01*
X92290000Y-64551928D01*
X90590000Y-64551928D01*
X90465518Y-64564188D01*
X90345820Y-64600498D01*
X90235506Y-64659463D01*
X90138815Y-64738815D01*
X90059463Y-64835506D01*
X90000498Y-64945820D01*
X89964188Y-65065518D01*
X89951928Y-65190000D01*
X89027000Y-65190000D01*
X89027000Y-52490000D01*
X96301928Y-52490000D01*
X96301928Y-54190000D01*
X96314188Y-54314482D01*
X96350498Y-54434180D01*
X96409463Y-54544494D01*
X96488815Y-54641185D01*
X96585506Y-54720537D01*
X96695820Y-54779502D01*
X96815518Y-54815812D01*
X96940000Y-54828072D01*
X98640000Y-54828072D01*
X98764482Y-54815812D01*
X98884180Y-54779502D01*
X98994494Y-54720537D01*
X99091185Y-54641185D01*
X99170537Y-54544494D01*
X99229502Y-54434180D01*
X99265812Y-54314482D01*
X99278072Y-54190000D01*
X99278072Y-52490000D01*
X99265812Y-52365518D01*
X99229502Y-52245820D01*
X99170537Y-52135506D01*
X99091185Y-52038815D01*
X98994494Y-51959463D01*
X98884180Y-51900498D01*
X98764482Y-51864188D01*
X98640000Y-51851928D01*
X96940000Y-51851928D01*
X96815518Y-51864188D01*
X96695820Y-51900498D01*
X96585506Y-51959463D01*
X96488815Y-52038815D01*
X96409463Y-52135506D01*
X96350498Y-52245820D01*
X96314188Y-52365518D01*
X96301928Y-52490000D01*
X89027000Y-52490000D01*
X89027000Y-46570000D01*
X96301928Y-46570000D01*
X96314188Y-46694482D01*
X96350498Y-46814180D01*
X96409463Y-46924494D01*
X96488815Y-47021185D01*
X96585506Y-47100537D01*
X96695820Y-47159502D01*
X96815518Y-47195812D01*
X96940000Y-47208072D01*
X97504250Y-47205000D01*
X97663000Y-47046250D01*
X97663000Y-45847000D01*
X97917000Y-45847000D01*
X97917000Y-47046250D01*
X98075750Y-47205000D01*
X98640000Y-47208072D01*
X98764482Y-47195812D01*
X98884180Y-47159502D01*
X98994494Y-47100537D01*
X99091185Y-47021185D01*
X99170537Y-46924494D01*
X99229502Y-46814180D01*
X99265812Y-46694482D01*
X99278072Y-46570000D01*
X99275000Y-46005750D01*
X99116250Y-45847000D01*
X97917000Y-45847000D01*
X97663000Y-45847000D01*
X96463750Y-45847000D01*
X96305000Y-46005750D01*
X96301928Y-46570000D01*
X89027000Y-46570000D01*
X89027000Y-44870000D01*
X96301928Y-44870000D01*
X96305000Y-45434250D01*
X96463750Y-45593000D01*
X97663000Y-45593000D01*
X97663000Y-44393750D01*
X97917000Y-44393750D01*
X97917000Y-45593000D01*
X99116250Y-45593000D01*
X99275000Y-45434250D01*
X99278072Y-44870000D01*
X99265812Y-44745518D01*
X99229502Y-44625820D01*
X99170537Y-44515506D01*
X99091185Y-44418815D01*
X98994494Y-44339463D01*
X98884180Y-44280498D01*
X98764482Y-44244188D01*
X98640000Y-44231928D01*
X98075750Y-44235000D01*
X97917000Y-44393750D01*
X97663000Y-44393750D01*
X97504250Y-44235000D01*
X96940000Y-44231928D01*
X96815518Y-44244188D01*
X96695820Y-44280498D01*
X96585506Y-44339463D01*
X96488815Y-44418815D01*
X96409463Y-44515506D01*
X96350498Y-44625820D01*
X96314188Y-44745518D01*
X96301928Y-44870000D01*
X89027000Y-44870000D01*
X89027000Y-39149872D01*
X89205000Y-39149872D01*
X89205000Y-39590128D01*
X89290890Y-40021925D01*
X89459369Y-40428669D01*
X89703962Y-40794729D01*
X90015271Y-41106038D01*
X90381331Y-41350631D01*
X90788075Y-41519110D01*
X91219872Y-41605000D01*
X91660128Y-41605000D01*
X92091925Y-41519110D01*
X92498669Y-41350631D01*
X92864729Y-41106038D01*
X93176038Y-40794729D01*
X93420631Y-40428669D01*
X93589110Y-40021925D01*
X93635242Y-39790000D01*
X102651928Y-39790000D01*
X102651928Y-41490000D01*
X102664188Y-41614482D01*
X102700498Y-41734180D01*
X102759463Y-41844494D01*
X102838815Y-41941185D01*
X102935506Y-42020537D01*
X103045820Y-42079502D01*
X103118380Y-42101513D01*
X102986525Y-42233368D01*
X102824010Y-42476589D01*
X102712068Y-42746842D01*
X102655000Y-43033740D01*
X102655000Y-43326260D01*
X102712068Y-43613158D01*
X102824010Y-43883411D01*
X102986525Y-44126632D01*
X103193368Y-44333475D01*
X103367760Y-44450000D01*
X103193368Y-44566525D01*
X102986525Y-44773368D01*
X102824010Y-45016589D01*
X102712068Y-45286842D01*
X102655000Y-45573740D01*
X102655000Y-45866260D01*
X102712068Y-46153158D01*
X102824010Y-46423411D01*
X102986525Y-46666632D01*
X103193368Y-46873475D01*
X103367760Y-46990000D01*
X103193368Y-47106525D01*
X102986525Y-47313368D01*
X102824010Y-47556589D01*
X102712068Y-47826842D01*
X102655000Y-48113740D01*
X102655000Y-48406260D01*
X102712068Y-48693158D01*
X102824010Y-48963411D01*
X102986525Y-49206632D01*
X103193368Y-49413475D01*
X103367760Y-49530000D01*
X103193368Y-49646525D01*
X102986525Y-49853368D01*
X102824010Y-50096589D01*
X102712068Y-50366842D01*
X102655000Y-50653740D01*
X102655000Y-50946260D01*
X102712068Y-51233158D01*
X102824010Y-51503411D01*
X102986525Y-51746632D01*
X103193368Y-51953475D01*
X103367760Y-52070000D01*
X103193368Y-52186525D01*
X102986525Y-52393368D01*
X102824010Y-52636589D01*
X102712068Y-52906842D01*
X102655000Y-53193740D01*
X102655000Y-53486260D01*
X102712068Y-53773158D01*
X102824010Y-54043411D01*
X102986525Y-54286632D01*
X103193368Y-54493475D01*
X103367760Y-54610000D01*
X103193368Y-54726525D01*
X102986525Y-54933368D01*
X102824010Y-55176589D01*
X102712068Y-55446842D01*
X102655000Y-55733740D01*
X102655000Y-56026260D01*
X102712068Y-56313158D01*
X102824010Y-56583411D01*
X102986525Y-56826632D01*
X103193368Y-57033475D01*
X103367760Y-57150000D01*
X103193368Y-57266525D01*
X102986525Y-57473368D01*
X102824010Y-57716589D01*
X102712068Y-57986842D01*
X102655000Y-58273740D01*
X102655000Y-58566260D01*
X102712068Y-58853158D01*
X102824010Y-59123411D01*
X102986525Y-59366632D01*
X103193368Y-59573475D01*
X103367760Y-59690000D01*
X103193368Y-59806525D01*
X102986525Y-60013368D01*
X102824010Y-60256589D01*
X102712068Y-60526842D01*
X102655000Y-60813740D01*
X102655000Y-61106260D01*
X102712068Y-61393158D01*
X102824010Y-61663411D01*
X102986525Y-61906632D01*
X103193368Y-62113475D01*
X103367760Y-62230000D01*
X103193368Y-62346525D01*
X102986525Y-62553368D01*
X102824010Y-62796589D01*
X102712068Y-63066842D01*
X102655000Y-63353740D01*
X102655000Y-63646260D01*
X102712068Y-63933158D01*
X102824010Y-64203411D01*
X102986525Y-64446632D01*
X103193368Y-64653475D01*
X103367760Y-64770000D01*
X103193368Y-64886525D01*
X102986525Y-65093368D01*
X102824010Y-65336589D01*
X102712068Y-65606842D01*
X102655000Y-65893740D01*
X102655000Y-66186260D01*
X102712068Y-66473158D01*
X102824010Y-66743411D01*
X102986525Y-66986632D01*
X103193368Y-67193475D01*
X103367760Y-67310000D01*
X103193368Y-67426525D01*
X102986525Y-67633368D01*
X102824010Y-67876589D01*
X102712068Y-68146842D01*
X102655000Y-68433740D01*
X102655000Y-68726260D01*
X102712068Y-69013158D01*
X102824010Y-69283411D01*
X102986525Y-69526632D01*
X103193368Y-69733475D01*
X103367760Y-69850000D01*
X103193368Y-69966525D01*
X102986525Y-70173368D01*
X102824010Y-70416589D01*
X102712068Y-70686842D01*
X102655000Y-70973740D01*
X102655000Y-71266260D01*
X102712068Y-71553158D01*
X102824010Y-71823411D01*
X102986525Y-72066632D01*
X103193368Y-72273475D01*
X103367760Y-72390000D01*
X103193368Y-72506525D01*
X102986525Y-72713368D01*
X102824010Y-72956589D01*
X102712068Y-73226842D01*
X102655000Y-73513740D01*
X102655000Y-73806260D01*
X102712068Y-74093158D01*
X102824010Y-74363411D01*
X102986525Y-74606632D01*
X103193368Y-74813475D01*
X103367760Y-74930000D01*
X103193368Y-75046525D01*
X102986525Y-75253368D01*
X102824010Y-75496589D01*
X102712068Y-75766842D01*
X102655000Y-76053740D01*
X102655000Y-76346260D01*
X102712068Y-76633158D01*
X102824010Y-76903411D01*
X102986525Y-77146632D01*
X103193368Y-77353475D01*
X103367760Y-77470000D01*
X103193368Y-77586525D01*
X102986525Y-77793368D01*
X102824010Y-78036589D01*
X102712068Y-78306842D01*
X102655000Y-78593740D01*
X102655000Y-78886260D01*
X102712068Y-79173158D01*
X102824010Y-79443411D01*
X102986525Y-79686632D01*
X103193368Y-79893475D01*
X103367760Y-80010000D01*
X103193368Y-80126525D01*
X102986525Y-80333368D01*
X102824010Y-80576589D01*
X102712068Y-80846842D01*
X102655000Y-81133740D01*
X102655000Y-81426260D01*
X102712068Y-81713158D01*
X102824010Y-81983411D01*
X102986525Y-82226632D01*
X103193368Y-82433475D01*
X103367760Y-82550000D01*
X103193368Y-82666525D01*
X102986525Y-82873368D01*
X102824010Y-83116589D01*
X102712068Y-83386842D01*
X102655000Y-83673740D01*
X102655000Y-83966260D01*
X102712068Y-84253158D01*
X102824010Y-84523411D01*
X102986525Y-84766632D01*
X103193368Y-84973475D01*
X103375534Y-85095195D01*
X103258645Y-85164822D01*
X103042412Y-85359731D01*
X102868359Y-85593080D01*
X102743175Y-85855901D01*
X102698524Y-86003110D01*
X102819845Y-86233000D01*
X104013000Y-86233000D01*
X104013000Y-86213000D01*
X104267000Y-86213000D01*
X104267000Y-86233000D01*
X105460155Y-86233000D01*
X105581476Y-86003110D01*
X105536825Y-85855901D01*
X105411641Y-85593080D01*
X105237588Y-85359731D01*
X105021355Y-85164822D01*
X104904466Y-85095195D01*
X105086632Y-84973475D01*
X105293475Y-84766632D01*
X105455990Y-84523411D01*
X105567932Y-84253158D01*
X105625000Y-83966260D01*
X105625000Y-83673740D01*
X105567932Y-83386842D01*
X105455990Y-83116589D01*
X105293475Y-82873368D01*
X105086632Y-82666525D01*
X104912240Y-82550000D01*
X105086632Y-82433475D01*
X105293475Y-82226632D01*
X105455990Y-81983411D01*
X105567932Y-81713158D01*
X105625000Y-81426260D01*
X105625000Y-81133740D01*
X105567932Y-80846842D01*
X105455990Y-80576589D01*
X105293475Y-80333368D01*
X105086632Y-80126525D01*
X104912240Y-80010000D01*
X105086632Y-79893475D01*
X105293475Y-79686632D01*
X105455990Y-79443411D01*
X105567932Y-79173158D01*
X105625000Y-78886260D01*
X105625000Y-78593740D01*
X105567932Y-78306842D01*
X105455990Y-78036589D01*
X105293475Y-77793368D01*
X105086632Y-77586525D01*
X104912240Y-77470000D01*
X105086632Y-77353475D01*
X105293475Y-77146632D01*
X105455990Y-76903411D01*
X105567932Y-76633158D01*
X105625000Y-76346260D01*
X105625000Y-76053740D01*
X105567932Y-75766842D01*
X105455990Y-75496589D01*
X105293475Y-75253368D01*
X105086632Y-75046525D01*
X104912240Y-74930000D01*
X105086632Y-74813475D01*
X105293475Y-74606632D01*
X105455990Y-74363411D01*
X105567932Y-74093158D01*
X105625000Y-73806260D01*
X105625000Y-73513740D01*
X105567932Y-73226842D01*
X105455990Y-72956589D01*
X105293475Y-72713368D01*
X105086632Y-72506525D01*
X104912240Y-72390000D01*
X105086632Y-72273475D01*
X105293475Y-72066632D01*
X105455990Y-71823411D01*
X105567932Y-71553158D01*
X105625000Y-71266260D01*
X105625000Y-70973740D01*
X105567932Y-70686842D01*
X105455990Y-70416589D01*
X105293475Y-70173368D01*
X105086632Y-69966525D01*
X104912240Y-69850000D01*
X105086632Y-69733475D01*
X105293475Y-69526632D01*
X105455990Y-69283411D01*
X105567932Y-69013158D01*
X105625000Y-68726260D01*
X105625000Y-68433740D01*
X105567932Y-68146842D01*
X105455990Y-67876589D01*
X105293475Y-67633368D01*
X105086632Y-67426525D01*
X104912240Y-67310000D01*
X105086632Y-67193475D01*
X105293475Y-66986632D01*
X105455990Y-66743411D01*
X105567932Y-66473158D01*
X105625000Y-66186260D01*
X105625000Y-65893740D01*
X105567932Y-65606842D01*
X105455990Y-65336589D01*
X105293475Y-65093368D01*
X105086632Y-64886525D01*
X104912240Y-64770000D01*
X105086632Y-64653475D01*
X105293475Y-64446632D01*
X105455990Y-64203411D01*
X105567932Y-63933158D01*
X105625000Y-63646260D01*
X105625000Y-63353740D01*
X105567932Y-63066842D01*
X105455990Y-62796589D01*
X105293475Y-62553368D01*
X105086632Y-62346525D01*
X104912240Y-62230000D01*
X105086632Y-62113475D01*
X105293475Y-61906632D01*
X105455990Y-61663411D01*
X105567932Y-61393158D01*
X105625000Y-61106260D01*
X105625000Y-60813740D01*
X105567932Y-60526842D01*
X105455990Y-60256589D01*
X105293475Y-60013368D01*
X105086632Y-59806525D01*
X104912240Y-59690000D01*
X105086632Y-59573475D01*
X105293475Y-59366632D01*
X105455990Y-59123411D01*
X105567932Y-58853158D01*
X105625000Y-58566260D01*
X105625000Y-58273740D01*
X105567932Y-57986842D01*
X105455990Y-57716589D01*
X105293475Y-57473368D01*
X105086632Y-57266525D01*
X104912240Y-57150000D01*
X105086632Y-57033475D01*
X105293475Y-56826632D01*
X105455990Y-56583411D01*
X105567932Y-56313158D01*
X105625000Y-56026260D01*
X105625000Y-55733740D01*
X105567932Y-55446842D01*
X105455990Y-55176589D01*
X105293475Y-54933368D01*
X105086632Y-54726525D01*
X104912240Y-54610000D01*
X105086632Y-54493475D01*
X105293475Y-54286632D01*
X105455990Y-54043411D01*
X105567932Y-53773158D01*
X105625000Y-53486260D01*
X105625000Y-53193740D01*
X105567932Y-52906842D01*
X105455990Y-52636589D01*
X105293475Y-52393368D01*
X105086632Y-52186525D01*
X104912240Y-52070000D01*
X105086632Y-51953475D01*
X105293475Y-51746632D01*
X105455990Y-51503411D01*
X105567932Y-51233158D01*
X105625000Y-50946260D01*
X105625000Y-50653740D01*
X105567932Y-50366842D01*
X105455990Y-50096589D01*
X105293475Y-49853368D01*
X105086632Y-49646525D01*
X104912240Y-49530000D01*
X105086632Y-49413475D01*
X105293475Y-49206632D01*
X105455990Y-48963411D01*
X105567932Y-48693158D01*
X105625000Y-48406260D01*
X105625000Y-48113740D01*
X105567932Y-47826842D01*
X105455990Y-47556589D01*
X105293475Y-47313368D01*
X105086632Y-47106525D01*
X104912240Y-46990000D01*
X105086632Y-46873475D01*
X105293475Y-46666632D01*
X105455990Y-46423411D01*
X105567932Y-46153158D01*
X105625000Y-45866260D01*
X105625000Y-45573740D01*
X105567932Y-45286842D01*
X105455990Y-45016589D01*
X105293475Y-44773368D01*
X105086632Y-44566525D01*
X104912240Y-44450000D01*
X105086632Y-44333475D01*
X105293475Y-44126632D01*
X105455990Y-43883411D01*
X105567932Y-43613158D01*
X105625000Y-43326260D01*
X105625000Y-43033740D01*
X105567932Y-42746842D01*
X105455990Y-42476589D01*
X105293475Y-42233368D01*
X105161620Y-42101513D01*
X105234180Y-42079502D01*
X105344494Y-42020537D01*
X105441185Y-41941185D01*
X105520537Y-41844494D01*
X105579502Y-41734180D01*
X105615812Y-41614482D01*
X105628072Y-41490000D01*
X105628072Y-39790000D01*
X117891928Y-39790000D01*
X117891928Y-41490000D01*
X117904188Y-41614482D01*
X117940498Y-41734180D01*
X117999463Y-41844494D01*
X118078815Y-41941185D01*
X118175506Y-42020537D01*
X118285820Y-42079502D01*
X118358380Y-42101513D01*
X118226525Y-42233368D01*
X118064010Y-42476589D01*
X117952068Y-42746842D01*
X117895000Y-43033740D01*
X117895000Y-43326260D01*
X117952068Y-43613158D01*
X118064010Y-43883411D01*
X118226525Y-44126632D01*
X118433368Y-44333475D01*
X118607760Y-44450000D01*
X118433368Y-44566525D01*
X118226525Y-44773368D01*
X118064010Y-45016589D01*
X117952068Y-45286842D01*
X117895000Y-45573740D01*
X117895000Y-45866260D01*
X117952068Y-46153158D01*
X118064010Y-46423411D01*
X118226525Y-46666632D01*
X118433368Y-46873475D01*
X118607760Y-46990000D01*
X118433368Y-47106525D01*
X118226525Y-47313368D01*
X118064010Y-47556589D01*
X117952068Y-47826842D01*
X117895000Y-48113740D01*
X117895000Y-48406260D01*
X117952068Y-48693158D01*
X118064010Y-48963411D01*
X118226525Y-49206632D01*
X118433368Y-49413475D01*
X118607760Y-49530000D01*
X118433368Y-49646525D01*
X118226525Y-49853368D01*
X118064010Y-50096589D01*
X117952068Y-50366842D01*
X117895000Y-50653740D01*
X117895000Y-50946260D01*
X117952068Y-51233158D01*
X118064010Y-51503411D01*
X118226525Y-51746632D01*
X118433368Y-51953475D01*
X118607760Y-52070000D01*
X118433368Y-52186525D01*
X118226525Y-52393368D01*
X118064010Y-52636589D01*
X117952068Y-52906842D01*
X117895000Y-53193740D01*
X117895000Y-53486260D01*
X117952068Y-53773158D01*
X118064010Y-54043411D01*
X118226525Y-54286632D01*
X118433368Y-54493475D01*
X118607760Y-54610000D01*
X118433368Y-54726525D01*
X118226525Y-54933368D01*
X118064010Y-55176589D01*
X117952068Y-55446842D01*
X117895000Y-55733740D01*
X117895000Y-56026260D01*
X117952068Y-56313158D01*
X118064010Y-56583411D01*
X118226525Y-56826632D01*
X118433368Y-57033475D01*
X118607760Y-57150000D01*
X118433368Y-57266525D01*
X118226525Y-57473368D01*
X118064010Y-57716589D01*
X117952068Y-57986842D01*
X117895000Y-58273740D01*
X117895000Y-58566260D01*
X117952068Y-58853158D01*
X118064010Y-59123411D01*
X118226525Y-59366632D01*
X118433368Y-59573475D01*
X118607760Y-59690000D01*
X118433368Y-59806525D01*
X118226525Y-60013368D01*
X118064010Y-60256589D01*
X117952068Y-60526842D01*
X117895000Y-60813740D01*
X117895000Y-61106260D01*
X117952068Y-61393158D01*
X118064010Y-61663411D01*
X118226525Y-61906632D01*
X118433368Y-62113475D01*
X118607760Y-62230000D01*
X118433368Y-62346525D01*
X118226525Y-62553368D01*
X118064010Y-62796589D01*
X117952068Y-63066842D01*
X117895000Y-63353740D01*
X117895000Y-63646260D01*
X117952068Y-63933158D01*
X118064010Y-64203411D01*
X118226525Y-64446632D01*
X118433368Y-64653475D01*
X118607760Y-64770000D01*
X118433368Y-64886525D01*
X118226525Y-65093368D01*
X118064010Y-65336589D01*
X117952068Y-65606842D01*
X117895000Y-65893740D01*
X117895000Y-66186260D01*
X117952068Y-66473158D01*
X118064010Y-66743411D01*
X118226525Y-66986632D01*
X118433368Y-67193475D01*
X118607760Y-67310000D01*
X118433368Y-67426525D01*
X118226525Y-67633368D01*
X118064010Y-67876589D01*
X117952068Y-68146842D01*
X117895000Y-68433740D01*
X117895000Y-68726260D01*
X117952068Y-69013158D01*
X118064010Y-69283411D01*
X118226525Y-69526632D01*
X118433368Y-69733475D01*
X118607760Y-69850000D01*
X118433368Y-69966525D01*
X118226525Y-70173368D01*
X118064010Y-70416589D01*
X117952068Y-70686842D01*
X117895000Y-70973740D01*
X117895000Y-71266260D01*
X117952068Y-71553158D01*
X118064010Y-71823411D01*
X118226525Y-72066632D01*
X118433368Y-72273475D01*
X118607760Y-72390000D01*
X118433368Y-72506525D01*
X118226525Y-72713368D01*
X118064010Y-72956589D01*
X117952068Y-73226842D01*
X117895000Y-73513740D01*
X117895000Y-73806260D01*
X117952068Y-74093158D01*
X118064010Y-74363411D01*
X118226525Y-74606632D01*
X118433368Y-74813475D01*
X118607760Y-74930000D01*
X118433368Y-75046525D01*
X118226525Y-75253368D01*
X118064010Y-75496589D01*
X117952068Y-75766842D01*
X117895000Y-76053740D01*
X117895000Y-76346260D01*
X117952068Y-76633158D01*
X118064010Y-76903411D01*
X118226525Y-77146632D01*
X118433368Y-77353475D01*
X118607760Y-77470000D01*
X118433368Y-77586525D01*
X118226525Y-77793368D01*
X118064010Y-78036589D01*
X117952068Y-78306842D01*
X117895000Y-78593740D01*
X117895000Y-78886260D01*
X117952068Y-79173158D01*
X118064010Y-79443411D01*
X118226525Y-79686632D01*
X118433368Y-79893475D01*
X118607760Y-80010000D01*
X118433368Y-80126525D01*
X118226525Y-80333368D01*
X118064010Y-80576589D01*
X117952068Y-80846842D01*
X117895000Y-81133740D01*
X117895000Y-81426260D01*
X117952068Y-81713158D01*
X118064010Y-81983411D01*
X118226525Y-82226632D01*
X118433368Y-82433475D01*
X118607760Y-82550000D01*
X118433368Y-82666525D01*
X118226525Y-82873368D01*
X118064010Y-83116589D01*
X117952068Y-83386842D01*
X117895000Y-83673740D01*
X117895000Y-83966260D01*
X117952068Y-84253158D01*
X118064010Y-84523411D01*
X118226525Y-84766632D01*
X118433368Y-84973475D01*
X118607760Y-85090000D01*
X118433368Y-85206525D01*
X118226525Y-85413368D01*
X118064010Y-85656589D01*
X117952068Y-85926842D01*
X117895000Y-86213740D01*
X117895000Y-86506260D01*
X117952068Y-86793158D01*
X118064010Y-87063411D01*
X118226525Y-87306632D01*
X118433368Y-87513475D01*
X118607760Y-87630000D01*
X118433368Y-87746525D01*
X118226525Y-87953368D01*
X118064010Y-88196589D01*
X117952068Y-88466842D01*
X117895000Y-88753740D01*
X117895000Y-89046260D01*
X117952068Y-89333158D01*
X118064010Y-89603411D01*
X118226525Y-89846632D01*
X118433368Y-90053475D01*
X118676589Y-90215990D01*
X118946842Y-90327932D01*
X119233740Y-90385000D01*
X119526260Y-90385000D01*
X119813158Y-90327932D01*
X120083411Y-90215990D01*
X120326632Y-90053475D01*
X120533475Y-89846632D01*
X120695990Y-89603411D01*
X120807932Y-89333158D01*
X120865000Y-89046260D01*
X120865000Y-88753740D01*
X120807932Y-88466842D01*
X120695990Y-88196589D01*
X120533475Y-87953368D01*
X120326632Y-87746525D01*
X120152240Y-87630000D01*
X120326632Y-87513475D01*
X120533475Y-87306632D01*
X120695990Y-87063411D01*
X120807932Y-86793158D01*
X120865000Y-86506260D01*
X120865000Y-86213740D01*
X120807932Y-85926842D01*
X120695990Y-85656589D01*
X120533475Y-85413368D01*
X120326632Y-85206525D01*
X120152240Y-85090000D01*
X120326632Y-84973475D01*
X120533475Y-84766632D01*
X120695990Y-84523411D01*
X120807932Y-84253158D01*
X120865000Y-83966260D01*
X120865000Y-83673740D01*
X120807932Y-83386842D01*
X120695990Y-83116589D01*
X120533475Y-82873368D01*
X120326632Y-82666525D01*
X120152240Y-82550000D01*
X120326632Y-82433475D01*
X120533475Y-82226632D01*
X120695990Y-81983411D01*
X120807932Y-81713158D01*
X120865000Y-81426260D01*
X120865000Y-81133740D01*
X120807932Y-80846842D01*
X120695990Y-80576589D01*
X120533475Y-80333368D01*
X120326632Y-80126525D01*
X120152240Y-80010000D01*
X120326632Y-79893475D01*
X120533475Y-79686632D01*
X120695990Y-79443411D01*
X120807932Y-79173158D01*
X120865000Y-78886260D01*
X120865000Y-78593740D01*
X120807932Y-78306842D01*
X120695990Y-78036589D01*
X120533475Y-77793368D01*
X120326632Y-77586525D01*
X120152240Y-77470000D01*
X120326632Y-77353475D01*
X120533475Y-77146632D01*
X120695990Y-76903411D01*
X120807932Y-76633158D01*
X120865000Y-76346260D01*
X120865000Y-76053740D01*
X120807932Y-75766842D01*
X120695990Y-75496589D01*
X120533475Y-75253368D01*
X120326632Y-75046525D01*
X120152240Y-74930000D01*
X120326632Y-74813475D01*
X120533475Y-74606632D01*
X120695990Y-74363411D01*
X120807932Y-74093158D01*
X120865000Y-73806260D01*
X120865000Y-73513740D01*
X120807932Y-73226842D01*
X120695990Y-72956589D01*
X120533475Y-72713368D01*
X120326632Y-72506525D01*
X120152240Y-72390000D01*
X120326632Y-72273475D01*
X120533475Y-72066632D01*
X120695990Y-71823411D01*
X120807932Y-71553158D01*
X120865000Y-71266260D01*
X120865000Y-70973740D01*
X120807932Y-70686842D01*
X120695990Y-70416589D01*
X120533475Y-70173368D01*
X120326632Y-69966525D01*
X120152240Y-69850000D01*
X120326632Y-69733475D01*
X120533475Y-69526632D01*
X120695990Y-69283411D01*
X120807932Y-69013158D01*
X120865000Y-68726260D01*
X120865000Y-68433740D01*
X120807932Y-68146842D01*
X120695990Y-67876589D01*
X120533475Y-67633368D01*
X120326632Y-67426525D01*
X120152240Y-67310000D01*
X120326632Y-67193475D01*
X120533475Y-66986632D01*
X120695990Y-66743411D01*
X120807932Y-66473158D01*
X120865000Y-66186260D01*
X120865000Y-65893740D01*
X120807932Y-65606842D01*
X120695990Y-65336589D01*
X120533475Y-65093368D01*
X120326632Y-64886525D01*
X120152240Y-64770000D01*
X120326632Y-64653475D01*
X120533475Y-64446632D01*
X120695990Y-64203411D01*
X120807932Y-63933158D01*
X120865000Y-63646260D01*
X120865000Y-63353740D01*
X120807932Y-63066842D01*
X120695990Y-62796589D01*
X120533475Y-62553368D01*
X120326632Y-62346525D01*
X120152240Y-62230000D01*
X120326632Y-62113475D01*
X120533475Y-61906632D01*
X120695990Y-61663411D01*
X120807932Y-61393158D01*
X120865000Y-61106260D01*
X120865000Y-60813740D01*
X120807932Y-60526842D01*
X120695990Y-60256589D01*
X120533475Y-60013368D01*
X120326632Y-59806525D01*
X120152240Y-59690000D01*
X120326632Y-59573475D01*
X120533475Y-59366632D01*
X120695990Y-59123411D01*
X120807932Y-58853158D01*
X120865000Y-58566260D01*
X120865000Y-58273740D01*
X120807932Y-57986842D01*
X120695990Y-57716589D01*
X120533475Y-57473368D01*
X120326632Y-57266525D01*
X120152240Y-57150000D01*
X120326632Y-57033475D01*
X120533475Y-56826632D01*
X120695990Y-56583411D01*
X120807932Y-56313158D01*
X120865000Y-56026260D01*
X120865000Y-55733740D01*
X120807932Y-55446842D01*
X120695990Y-55176589D01*
X120533475Y-54933368D01*
X120326632Y-54726525D01*
X120152240Y-54610000D01*
X120326632Y-54493475D01*
X120533475Y-54286632D01*
X120695990Y-54043411D01*
X120807932Y-53773158D01*
X120865000Y-53486260D01*
X120865000Y-53193740D01*
X120807932Y-52906842D01*
X120695990Y-52636589D01*
X120533475Y-52393368D01*
X120326632Y-52186525D01*
X120152240Y-52070000D01*
X120326632Y-51953475D01*
X120533475Y-51746632D01*
X120695990Y-51503411D01*
X120807932Y-51233158D01*
X120865000Y-50946260D01*
X120865000Y-50653740D01*
X120807932Y-50366842D01*
X120695990Y-50096589D01*
X120533475Y-49853368D01*
X120326632Y-49646525D01*
X120152240Y-49530000D01*
X120326632Y-49413475D01*
X120533475Y-49206632D01*
X120695990Y-48963411D01*
X120807932Y-48693158D01*
X120865000Y-48406260D01*
X120865000Y-48113740D01*
X120807932Y-47826842D01*
X120695990Y-47556589D01*
X120533475Y-47313368D01*
X120326632Y-47106525D01*
X120152240Y-46990000D01*
X120326632Y-46873475D01*
X120533475Y-46666632D01*
X120695990Y-46423411D01*
X120807932Y-46153158D01*
X120865000Y-45866260D01*
X120865000Y-45573740D01*
X120807932Y-45286842D01*
X120695990Y-45016589D01*
X120533475Y-44773368D01*
X120326632Y-44566525D01*
X120152240Y-44450000D01*
X120326632Y-44333475D01*
X120533475Y-44126632D01*
X120695990Y-43883411D01*
X120807932Y-43613158D01*
X120865000Y-43326260D01*
X120865000Y-43033740D01*
X120807932Y-42746842D01*
X120695990Y-42476589D01*
X120533475Y-42233368D01*
X120401620Y-42101513D01*
X120474180Y-42079502D01*
X120584494Y-42020537D01*
X120681185Y-41941185D01*
X120760537Y-41844494D01*
X120819502Y-41734180D01*
X120855812Y-41614482D01*
X120868072Y-41490000D01*
X120868072Y-39790000D01*
X120855812Y-39665518D01*
X120819502Y-39545820D01*
X120760537Y-39435506D01*
X120681185Y-39338815D01*
X120584494Y-39259463D01*
X120474180Y-39200498D01*
X120354482Y-39164188D01*
X120230000Y-39151928D01*
X118530000Y-39151928D01*
X118405518Y-39164188D01*
X118285820Y-39200498D01*
X118175506Y-39259463D01*
X118078815Y-39338815D01*
X117999463Y-39435506D01*
X117940498Y-39545820D01*
X117904188Y-39665518D01*
X117891928Y-39790000D01*
X105628072Y-39790000D01*
X105615812Y-39665518D01*
X105579502Y-39545820D01*
X105520537Y-39435506D01*
X105441185Y-39338815D01*
X105344494Y-39259463D01*
X105234180Y-39200498D01*
X105114482Y-39164188D01*
X104990000Y-39151928D01*
X103290000Y-39151928D01*
X103165518Y-39164188D01*
X103045820Y-39200498D01*
X102935506Y-39259463D01*
X102838815Y-39338815D01*
X102759463Y-39435506D01*
X102700498Y-39545820D01*
X102664188Y-39665518D01*
X102651928Y-39790000D01*
X93635242Y-39790000D01*
X93675000Y-39590128D01*
X93675000Y-39149872D01*
X93589110Y-38718075D01*
X93420631Y-38311331D01*
X93176038Y-37945271D01*
X92864729Y-37633962D01*
X92498669Y-37389369D01*
X92091925Y-37220890D01*
X91660128Y-37135000D01*
X91219872Y-37135000D01*
X90788075Y-37220890D01*
X90381331Y-37389369D01*
X90015271Y-37633962D01*
X89703962Y-37945271D01*
X89459369Y-38311331D01*
X89290890Y-38718075D01*
X89205000Y-39149872D01*
X89027000Y-39149872D01*
X89027000Y-36957000D01*
X121793000Y-36957000D01*
X121793000Y-100203000D01*
G37*
%TD.AperFunction*%
%TD*%
D16*
%TO.N,GND_1*%
X82423000Y-107823000D02*
X52197000Y-107823000D01*
X52197000Y-104560000D01*
X54391928Y-104560000D01*
X54391928Y-106260000D01*
X54404188Y-106384482D01*
X54440498Y-106504180D01*
X54499463Y-106614494D01*
X54578815Y-106711185D01*
X54675506Y-106790537D01*
X54785820Y-106849502D01*
X54905518Y-106885812D01*
X55030000Y-106898072D01*
X56730000Y-106898072D01*
X56854482Y-106885812D01*
X56974180Y-106849502D01*
X57084494Y-106790537D01*
X57181185Y-106711185D01*
X57260537Y-106614494D01*
X57319502Y-106504180D01*
X57355812Y-106384482D01*
X57368072Y-106260000D01*
X57368072Y-105189872D01*
X77775000Y-105189872D01*
X77775000Y-105630128D01*
X77860890Y-106061925D01*
X78029369Y-106468669D01*
X78273962Y-106834729D01*
X78585271Y-107146038D01*
X78951331Y-107390631D01*
X79358075Y-107559110D01*
X79789872Y-107645000D01*
X80230128Y-107645000D01*
X80661925Y-107559110D01*
X81068669Y-107390631D01*
X81434729Y-107146038D01*
X81746038Y-106834729D01*
X81990631Y-106468669D01*
X82159110Y-106061925D01*
X82245000Y-105630128D01*
X82245000Y-105189872D01*
X82159110Y-104758075D01*
X81990631Y-104351331D01*
X81746038Y-103985271D01*
X81434729Y-103673962D01*
X81068669Y-103429369D01*
X80661925Y-103260890D01*
X80230128Y-103175000D01*
X79789872Y-103175000D01*
X79358075Y-103260890D01*
X78951331Y-103429369D01*
X78585271Y-103673962D01*
X78273962Y-103985271D01*
X78029369Y-104351331D01*
X77860890Y-104758075D01*
X77775000Y-105189872D01*
X57368072Y-105189872D01*
X57368072Y-104560000D01*
X57355812Y-104435518D01*
X57319502Y-104315820D01*
X57260537Y-104205506D01*
X57181185Y-104108815D01*
X57084494Y-104029463D01*
X56974180Y-103970498D01*
X56901620Y-103948487D01*
X57033475Y-103816632D01*
X57195990Y-103573411D01*
X57307932Y-103303158D01*
X57365000Y-103016260D01*
X57365000Y-102723740D01*
X57307932Y-102436842D01*
X57195990Y-102166589D01*
X57033475Y-101923368D01*
X56826632Y-101716525D01*
X56652240Y-101600000D01*
X56826632Y-101483475D01*
X57033475Y-101276632D01*
X57195990Y-101033411D01*
X57307932Y-100763158D01*
X57365000Y-100476260D01*
X57365000Y-100183740D01*
X57307932Y-99896842D01*
X57195990Y-99626589D01*
X57033475Y-99383368D01*
X56826632Y-99176525D01*
X56652240Y-99060000D01*
X56826632Y-98943475D01*
X57033475Y-98736632D01*
X57195990Y-98493411D01*
X57307932Y-98223158D01*
X57365000Y-97936260D01*
X57365000Y-97643740D01*
X57307932Y-97356842D01*
X57195990Y-97086589D01*
X57033475Y-96843368D01*
X56826632Y-96636525D01*
X56644466Y-96514805D01*
X56761355Y-96445178D01*
X56977588Y-96250269D01*
X57151641Y-96016920D01*
X57276825Y-95754099D01*
X57321476Y-95606890D01*
X57200155Y-95377000D01*
X56007000Y-95377000D01*
X56007000Y-95397000D01*
X55753000Y-95397000D01*
X55753000Y-95377000D01*
X54559845Y-95377000D01*
X54438524Y-95606890D01*
X54483175Y-95754099D01*
X54608359Y-96016920D01*
X54782412Y-96250269D01*
X54998645Y-96445178D01*
X55115534Y-96514805D01*
X54933368Y-96636525D01*
X54726525Y-96843368D01*
X54564010Y-97086589D01*
X54452068Y-97356842D01*
X54395000Y-97643740D01*
X54395000Y-97936260D01*
X54452068Y-98223158D01*
X54564010Y-98493411D01*
X54726525Y-98736632D01*
X54933368Y-98943475D01*
X55107760Y-99060000D01*
X54933368Y-99176525D01*
X54726525Y-99383368D01*
X54564010Y-99626589D01*
X54452068Y-99896842D01*
X54395000Y-100183740D01*
X54395000Y-100476260D01*
X54452068Y-100763158D01*
X54564010Y-101033411D01*
X54726525Y-101276632D01*
X54933368Y-101483475D01*
X55107760Y-101600000D01*
X54933368Y-101716525D01*
X54726525Y-101923368D01*
X54564010Y-102166589D01*
X54452068Y-102436842D01*
X54395000Y-102723740D01*
X54395000Y-103016260D01*
X54452068Y-103303158D01*
X54564010Y-103573411D01*
X54726525Y-103816632D01*
X54858380Y-103948487D01*
X54785820Y-103970498D01*
X54675506Y-104029463D01*
X54578815Y-104108815D01*
X54499463Y-104205506D01*
X54440498Y-104315820D01*
X54404188Y-104435518D01*
X54391928Y-104560000D01*
X52197000Y-104560000D01*
X52197000Y-92563740D01*
X54395000Y-92563740D01*
X54395000Y-92856260D01*
X54452068Y-93143158D01*
X54564010Y-93413411D01*
X54726525Y-93656632D01*
X54933368Y-93863475D01*
X55115534Y-93985195D01*
X54998645Y-94054822D01*
X54782412Y-94249731D01*
X54608359Y-94483080D01*
X54483175Y-94745901D01*
X54438524Y-94893110D01*
X54559845Y-95123000D01*
X55753000Y-95123000D01*
X55753000Y-95103000D01*
X56007000Y-95103000D01*
X56007000Y-95123000D01*
X57200155Y-95123000D01*
X57321476Y-94893110D01*
X57276825Y-94745901D01*
X57151641Y-94483080D01*
X56977588Y-94249731D01*
X56761355Y-94054822D01*
X56644466Y-93985195D01*
X56826632Y-93863475D01*
X56970107Y-93720000D01*
X60910392Y-93720000D01*
X60960000Y-93724886D01*
X61157994Y-93705385D01*
X61348380Y-93647632D01*
X61523840Y-93553847D01*
X61677633Y-93427633D01*
X61709261Y-93389094D01*
X64179100Y-90919256D01*
X64217633Y-90887633D01*
X64343847Y-90733840D01*
X64437632Y-90558380D01*
X64495385Y-90367994D01*
X64510000Y-90219608D01*
X64510000Y-90219606D01*
X64514886Y-90170001D01*
X64510000Y-90120396D01*
X64510000Y-88720107D01*
X64590107Y-88640000D01*
X68161645Y-88640000D01*
X71380001Y-91858357D01*
X71380000Y-101779893D01*
X71236525Y-101923368D01*
X71120000Y-102097760D01*
X71003475Y-101923368D01*
X70796632Y-101716525D01*
X70553411Y-101554010D01*
X70283158Y-101442068D01*
X69996260Y-101385000D01*
X69703740Y-101385000D01*
X69416842Y-101442068D01*
X69146589Y-101554010D01*
X68903368Y-101716525D01*
X68696525Y-101923368D01*
X68580000Y-102097760D01*
X68463475Y-101923368D01*
X68256632Y-101716525D01*
X68013411Y-101554010D01*
X67743158Y-101442068D01*
X67456260Y-101385000D01*
X67163740Y-101385000D01*
X66876842Y-101442068D01*
X66606589Y-101554010D01*
X66363368Y-101716525D01*
X66156525Y-101923368D01*
X65994010Y-102166589D01*
X65882068Y-102436842D01*
X65825000Y-102723740D01*
X65825000Y-103016260D01*
X65882068Y-103303158D01*
X65994010Y-103573411D01*
X66156525Y-103816632D01*
X66363368Y-104023475D01*
X66606589Y-104185990D01*
X66876842Y-104297932D01*
X67163740Y-104355000D01*
X67456260Y-104355000D01*
X67743158Y-104297932D01*
X68013411Y-104185990D01*
X68256632Y-104023475D01*
X68463475Y-103816632D01*
X68580000Y-103642240D01*
X68696525Y-103816632D01*
X68903368Y-104023475D01*
X69146589Y-104185990D01*
X69416842Y-104297932D01*
X69703740Y-104355000D01*
X69996260Y-104355000D01*
X70283158Y-104297932D01*
X70553411Y-104185990D01*
X70796632Y-104023475D01*
X71003475Y-103816632D01*
X71120000Y-103642240D01*
X71236525Y-103816632D01*
X71443368Y-104023475D01*
X71686589Y-104185990D01*
X71956842Y-104297932D01*
X72243740Y-104355000D01*
X72536260Y-104355000D01*
X72823158Y-104297932D01*
X73093411Y-104185990D01*
X73336632Y-104023475D01*
X73468487Y-103891620D01*
X73490498Y-103964180D01*
X73549463Y-104074494D01*
X73628815Y-104171185D01*
X73725506Y-104250537D01*
X73835820Y-104309502D01*
X73955518Y-104345812D01*
X74080000Y-104358072D01*
X74644250Y-104355000D01*
X74803000Y-104196250D01*
X74803000Y-102997000D01*
X75057000Y-102997000D01*
X75057000Y-104196250D01*
X75215750Y-104355000D01*
X75780000Y-104358072D01*
X75904482Y-104345812D01*
X76024180Y-104309502D01*
X76134494Y-104250537D01*
X76231185Y-104171185D01*
X76310537Y-104074494D01*
X76369502Y-103964180D01*
X76405812Y-103844482D01*
X76418072Y-103720000D01*
X76415000Y-103155750D01*
X76256250Y-102997000D01*
X75057000Y-102997000D01*
X74803000Y-102997000D01*
X74783000Y-102997000D01*
X74783000Y-102743000D01*
X74803000Y-102743000D01*
X74803000Y-101543750D01*
X75057000Y-101543750D01*
X75057000Y-102743000D01*
X76256250Y-102743000D01*
X76415000Y-102584250D01*
X76418072Y-102020000D01*
X76405812Y-101895518D01*
X76369502Y-101775820D01*
X76310537Y-101665506D01*
X76231185Y-101568815D01*
X76134494Y-101489463D01*
X76024180Y-101430498D01*
X75904482Y-101394188D01*
X75780000Y-101381928D01*
X75215750Y-101385000D01*
X75057000Y-101543750D01*
X74803000Y-101543750D01*
X74644250Y-101385000D01*
X74080000Y-101381928D01*
X73955518Y-101394188D01*
X73835820Y-101430498D01*
X73725506Y-101489463D01*
X73628815Y-101568815D01*
X73549463Y-101665506D01*
X73490498Y-101775820D01*
X73468487Y-101848380D01*
X73400000Y-101779893D01*
X73400000Y-91489608D01*
X73404886Y-91440000D01*
X73385385Y-91242005D01*
X73327632Y-91051620D01*
X73233846Y-90876159D01*
X73139256Y-90760900D01*
X73107633Y-90722367D01*
X73069100Y-90690744D01*
X69329261Y-86950906D01*
X69297633Y-86912367D01*
X69143840Y-86786153D01*
X68968380Y-86692368D01*
X68777994Y-86634615D01*
X68629608Y-86620000D01*
X68580000Y-86615114D01*
X68530392Y-86620000D01*
X64590107Y-86620000D01*
X64446632Y-86476525D01*
X64264466Y-86354805D01*
X64381355Y-86285178D01*
X64597588Y-86090269D01*
X64771641Y-85856920D01*
X64896825Y-85594099D01*
X64941476Y-85446890D01*
X64820155Y-85217000D01*
X63627000Y-85217000D01*
X63627000Y-85237000D01*
X63373000Y-85237000D01*
X63373000Y-85217000D01*
X62179845Y-85217000D01*
X62058524Y-85446890D01*
X62103175Y-85594099D01*
X62228359Y-85856920D01*
X62402412Y-86090269D01*
X62618645Y-86285178D01*
X62735534Y-86354805D01*
X62553368Y-86476525D01*
X62409893Y-86620000D01*
X61378355Y-86620000D01*
X60700000Y-85941645D01*
X60700000Y-73709604D01*
X60704886Y-73659999D01*
X60693409Y-73543475D01*
X60685385Y-73462006D01*
X60627632Y-73271620D01*
X60533847Y-73096160D01*
X60407633Y-72942367D01*
X60369094Y-72910739D01*
X59169261Y-71710906D01*
X59137633Y-71672367D01*
X58983840Y-71546153D01*
X58808380Y-71452368D01*
X58619621Y-71395108D01*
X58589502Y-71295820D01*
X58530537Y-71185506D01*
X58451185Y-71088815D01*
X58354494Y-71009463D01*
X58244180Y-70950498D01*
X58124482Y-70914188D01*
X58000000Y-70901928D01*
X56300000Y-70901928D01*
X56175518Y-70914188D01*
X56055820Y-70950498D01*
X55945506Y-71009463D01*
X55848815Y-71088815D01*
X55769463Y-71185506D01*
X55710498Y-71295820D01*
X55674188Y-71415518D01*
X55661928Y-71540000D01*
X55661928Y-73240000D01*
X55674188Y-73364482D01*
X55710498Y-73484180D01*
X55769463Y-73594494D01*
X55848815Y-73691185D01*
X55945506Y-73770537D01*
X56055820Y-73829502D01*
X56136466Y-73853966D01*
X56052412Y-73929731D01*
X55878359Y-74163080D01*
X55753175Y-74425901D01*
X55708524Y-74573110D01*
X55829845Y-74803000D01*
X57023000Y-74803000D01*
X57023000Y-74783000D01*
X57277000Y-74783000D01*
X57277000Y-74803000D01*
X58470155Y-74803000D01*
X58591476Y-74573110D01*
X58546825Y-74425901D01*
X58421641Y-74163080D01*
X58247588Y-73929731D01*
X58163534Y-73853966D01*
X58244180Y-73829502D01*
X58354494Y-73770537D01*
X58364209Y-73762564D01*
X58680000Y-74078355D01*
X58680001Y-86310382D01*
X58675114Y-86360000D01*
X58694615Y-86557994D01*
X58752368Y-86748379D01*
X58823119Y-86880744D01*
X58846154Y-86923840D01*
X58972368Y-87077633D01*
X59010901Y-87109256D01*
X60210739Y-88309094D01*
X60242367Y-88347633D01*
X60396160Y-88473847D01*
X60571620Y-88567632D01*
X60762006Y-88625385D01*
X60910392Y-88640000D01*
X60910394Y-88640000D01*
X60959999Y-88644886D01*
X61009604Y-88640000D01*
X62409893Y-88640000D01*
X62490001Y-88720108D01*
X62490000Y-89751644D01*
X60541645Y-91700000D01*
X56970107Y-91700000D01*
X56826632Y-91556525D01*
X56583411Y-91394010D01*
X56313158Y-91282068D01*
X56026260Y-91225000D01*
X55733740Y-91225000D01*
X55446842Y-91282068D01*
X55176589Y-91394010D01*
X54933368Y-91556525D01*
X54726525Y-91763368D01*
X54564010Y-92006589D01*
X54452068Y-92276842D01*
X54395000Y-92563740D01*
X52197000Y-92563740D01*
X52197000Y-77323740D01*
X55665000Y-77323740D01*
X55665000Y-77616260D01*
X55722068Y-77903158D01*
X55834010Y-78173411D01*
X55996525Y-78416632D01*
X56203368Y-78623475D01*
X56377760Y-78740000D01*
X56203368Y-78856525D01*
X55996525Y-79063368D01*
X55834010Y-79306589D01*
X55722068Y-79576842D01*
X55665000Y-79863740D01*
X55665000Y-80156260D01*
X55722068Y-80443158D01*
X55834010Y-80713411D01*
X55996525Y-80956632D01*
X56203368Y-81163475D01*
X56446589Y-81325990D01*
X56716842Y-81437932D01*
X57003740Y-81495000D01*
X57296260Y-81495000D01*
X57583158Y-81437932D01*
X57853411Y-81325990D01*
X58096632Y-81163475D01*
X58303475Y-80956632D01*
X58465990Y-80713411D01*
X58577932Y-80443158D01*
X58635000Y-80156260D01*
X58635000Y-79863740D01*
X58577932Y-79576842D01*
X58465990Y-79306589D01*
X58303475Y-79063368D01*
X58096632Y-78856525D01*
X57922240Y-78740000D01*
X58096632Y-78623475D01*
X58303475Y-78416632D01*
X58465990Y-78173411D01*
X58577932Y-77903158D01*
X58635000Y-77616260D01*
X58635000Y-77323740D01*
X58577932Y-77036842D01*
X58465990Y-76766589D01*
X58303475Y-76523368D01*
X58096632Y-76316525D01*
X57914466Y-76194805D01*
X58031355Y-76125178D01*
X58247588Y-75930269D01*
X58421641Y-75696920D01*
X58546825Y-75434099D01*
X58591476Y-75286890D01*
X58470155Y-75057000D01*
X57277000Y-75057000D01*
X57277000Y-75077000D01*
X57023000Y-75077000D01*
X57023000Y-75057000D01*
X55829845Y-75057000D01*
X55708524Y-75286890D01*
X55753175Y-75434099D01*
X55878359Y-75696920D01*
X56052412Y-75930269D01*
X56268645Y-76125178D01*
X56385534Y-76194805D01*
X56203368Y-76316525D01*
X55996525Y-76523368D01*
X55834010Y-76766589D01*
X55722068Y-77036842D01*
X55665000Y-77323740D01*
X52197000Y-77323740D01*
X52197000Y-51220000D01*
X55661928Y-51220000D01*
X55661928Y-52920000D01*
X55674188Y-53044482D01*
X55710498Y-53164180D01*
X55769463Y-53274494D01*
X55848815Y-53371185D01*
X55945506Y-53450537D01*
X56055820Y-53509502D01*
X56175518Y-53545812D01*
X56300000Y-53558072D01*
X58000000Y-53558072D01*
X58124482Y-53545812D01*
X58244180Y-53509502D01*
X58354494Y-53450537D01*
X58451185Y-53371185D01*
X58530537Y-53274494D01*
X58589502Y-53164180D01*
X58625812Y-53044482D01*
X58638072Y-52920000D01*
X58638072Y-51220000D01*
X58625812Y-51095518D01*
X58589502Y-50975820D01*
X58530537Y-50865506D01*
X58451185Y-50768815D01*
X58354494Y-50689463D01*
X58244180Y-50630498D01*
X58124482Y-50594188D01*
X58000000Y-50581928D01*
X56300000Y-50581928D01*
X56175518Y-50594188D01*
X56055820Y-50630498D01*
X55945506Y-50689463D01*
X55848815Y-50768815D01*
X55769463Y-50865506D01*
X55710498Y-50975820D01*
X55674188Y-51095518D01*
X55661928Y-51220000D01*
X52197000Y-51220000D01*
X52197000Y-45300000D01*
X55661928Y-45300000D01*
X55674188Y-45424482D01*
X55710498Y-45544180D01*
X55769463Y-45654494D01*
X55848815Y-45751185D01*
X55945506Y-45830537D01*
X56055820Y-45889502D01*
X56175518Y-45925812D01*
X56300000Y-45938072D01*
X56864250Y-45935000D01*
X57023000Y-45776250D01*
X57023000Y-44577000D01*
X57277000Y-44577000D01*
X57277000Y-45776250D01*
X57435750Y-45935000D01*
X58000000Y-45938072D01*
X58124482Y-45925812D01*
X58244180Y-45889502D01*
X58354494Y-45830537D01*
X58451185Y-45751185D01*
X58530537Y-45654494D01*
X58589502Y-45544180D01*
X58625812Y-45424482D01*
X58638072Y-45300000D01*
X58635000Y-44735750D01*
X58476250Y-44577000D01*
X57277000Y-44577000D01*
X57023000Y-44577000D01*
X55823750Y-44577000D01*
X55665000Y-44735750D01*
X55661928Y-45300000D01*
X52197000Y-45300000D01*
X52197000Y-43600000D01*
X55661928Y-43600000D01*
X55665000Y-44164250D01*
X55823750Y-44323000D01*
X57023000Y-44323000D01*
X57023000Y-43123750D01*
X57277000Y-43123750D01*
X57277000Y-44323000D01*
X58476250Y-44323000D01*
X58635000Y-44164250D01*
X58638072Y-43600000D01*
X58625812Y-43475518D01*
X58589502Y-43355820D01*
X58530537Y-43245506D01*
X58451185Y-43148815D01*
X58354494Y-43069463D01*
X58244180Y-43010498D01*
X58124482Y-42974188D01*
X58000000Y-42961928D01*
X57435750Y-42965000D01*
X57277000Y-43123750D01*
X57023000Y-43123750D01*
X56864250Y-42965000D01*
X56300000Y-42961928D01*
X56175518Y-42974188D01*
X56055820Y-43010498D01*
X55945506Y-43069463D01*
X55848815Y-43148815D01*
X55769463Y-43245506D01*
X55710498Y-43355820D01*
X55674188Y-43475518D01*
X55661928Y-43600000D01*
X52197000Y-43600000D01*
X52197000Y-40024283D01*
X52281331Y-40080631D01*
X52688075Y-40249110D01*
X53119872Y-40335000D01*
X53560128Y-40335000D01*
X53991925Y-40249110D01*
X54398669Y-40080631D01*
X54764729Y-39836038D01*
X55076038Y-39524729D01*
X55320631Y-39158669D01*
X55489110Y-38751925D01*
X55535242Y-38520000D01*
X62011928Y-38520000D01*
X62011928Y-40220000D01*
X62024188Y-40344482D01*
X62060498Y-40464180D01*
X62119463Y-40574494D01*
X62198815Y-40671185D01*
X62295506Y-40750537D01*
X62405820Y-40809502D01*
X62478380Y-40831513D01*
X62346525Y-40963368D01*
X62184010Y-41206589D01*
X62072068Y-41476842D01*
X62015000Y-41763740D01*
X62015000Y-42056260D01*
X62072068Y-42343158D01*
X62184010Y-42613411D01*
X62346525Y-42856632D01*
X62553368Y-43063475D01*
X62727760Y-43180000D01*
X62553368Y-43296525D01*
X62346525Y-43503368D01*
X62184010Y-43746589D01*
X62072068Y-44016842D01*
X62015000Y-44303740D01*
X62015000Y-44596260D01*
X62072068Y-44883158D01*
X62184010Y-45153411D01*
X62346525Y-45396632D01*
X62553368Y-45603475D01*
X62727760Y-45720000D01*
X62553368Y-45836525D01*
X62346525Y-46043368D01*
X62184010Y-46286589D01*
X62072068Y-46556842D01*
X62015000Y-46843740D01*
X62015000Y-47136260D01*
X62072068Y-47423158D01*
X62184010Y-47693411D01*
X62346525Y-47936632D01*
X62553368Y-48143475D01*
X62727760Y-48260000D01*
X62553368Y-48376525D01*
X62346525Y-48583368D01*
X62184010Y-48826589D01*
X62072068Y-49096842D01*
X62015000Y-49383740D01*
X62015000Y-49676260D01*
X62072068Y-49963158D01*
X62184010Y-50233411D01*
X62346525Y-50476632D01*
X62553368Y-50683475D01*
X62727760Y-50800000D01*
X62553368Y-50916525D01*
X62346525Y-51123368D01*
X62184010Y-51366589D01*
X62072068Y-51636842D01*
X62015000Y-51923740D01*
X62015000Y-52216260D01*
X62072068Y-52503158D01*
X62184010Y-52773411D01*
X62346525Y-53016632D01*
X62553368Y-53223475D01*
X62727760Y-53340000D01*
X62553368Y-53456525D01*
X62346525Y-53663368D01*
X62184010Y-53906589D01*
X62072068Y-54176842D01*
X62015000Y-54463740D01*
X62015000Y-54756260D01*
X62072068Y-55043158D01*
X62184010Y-55313411D01*
X62346525Y-55556632D01*
X62553368Y-55763475D01*
X62727760Y-55880000D01*
X62553368Y-55996525D01*
X62346525Y-56203368D01*
X62184010Y-56446589D01*
X62072068Y-56716842D01*
X62015000Y-57003740D01*
X62015000Y-57296260D01*
X62072068Y-57583158D01*
X62184010Y-57853411D01*
X62346525Y-58096632D01*
X62553368Y-58303475D01*
X62727760Y-58420000D01*
X62553368Y-58536525D01*
X62346525Y-58743368D01*
X62184010Y-58986589D01*
X62072068Y-59256842D01*
X62015000Y-59543740D01*
X62015000Y-59836260D01*
X62072068Y-60123158D01*
X62184010Y-60393411D01*
X62346525Y-60636632D01*
X62553368Y-60843475D01*
X62727760Y-60960000D01*
X62553368Y-61076525D01*
X62346525Y-61283368D01*
X62184010Y-61526589D01*
X62072068Y-61796842D01*
X62015000Y-62083740D01*
X62015000Y-62376260D01*
X62072068Y-62663158D01*
X62184010Y-62933411D01*
X62346525Y-63176632D01*
X62553368Y-63383475D01*
X62727760Y-63500000D01*
X62553368Y-63616525D01*
X62346525Y-63823368D01*
X62184010Y-64066589D01*
X62072068Y-64336842D01*
X62015000Y-64623740D01*
X62015000Y-64916260D01*
X62072068Y-65203158D01*
X62184010Y-65473411D01*
X62346525Y-65716632D01*
X62553368Y-65923475D01*
X62727760Y-66040000D01*
X62553368Y-66156525D01*
X62346525Y-66363368D01*
X62184010Y-66606589D01*
X62072068Y-66876842D01*
X62015000Y-67163740D01*
X62015000Y-67456260D01*
X62072068Y-67743158D01*
X62184010Y-68013411D01*
X62346525Y-68256632D01*
X62553368Y-68463475D01*
X62727760Y-68580000D01*
X62553368Y-68696525D01*
X62346525Y-68903368D01*
X62184010Y-69146589D01*
X62072068Y-69416842D01*
X62015000Y-69703740D01*
X62015000Y-69996260D01*
X62072068Y-70283158D01*
X62184010Y-70553411D01*
X62346525Y-70796632D01*
X62553368Y-71003475D01*
X62727760Y-71120000D01*
X62553368Y-71236525D01*
X62346525Y-71443368D01*
X62184010Y-71686589D01*
X62072068Y-71956842D01*
X62015000Y-72243740D01*
X62015000Y-72536260D01*
X62072068Y-72823158D01*
X62184010Y-73093411D01*
X62346525Y-73336632D01*
X62553368Y-73543475D01*
X62727760Y-73660000D01*
X62553368Y-73776525D01*
X62346525Y-73983368D01*
X62184010Y-74226589D01*
X62072068Y-74496842D01*
X62015000Y-74783740D01*
X62015000Y-75076260D01*
X62072068Y-75363158D01*
X62184010Y-75633411D01*
X62346525Y-75876632D01*
X62553368Y-76083475D01*
X62727760Y-76200000D01*
X62553368Y-76316525D01*
X62346525Y-76523368D01*
X62184010Y-76766589D01*
X62072068Y-77036842D01*
X62015000Y-77323740D01*
X62015000Y-77616260D01*
X62072068Y-77903158D01*
X62184010Y-78173411D01*
X62346525Y-78416632D01*
X62553368Y-78623475D01*
X62727760Y-78740000D01*
X62553368Y-78856525D01*
X62346525Y-79063368D01*
X62184010Y-79306589D01*
X62072068Y-79576842D01*
X62015000Y-79863740D01*
X62015000Y-80156260D01*
X62072068Y-80443158D01*
X62184010Y-80713411D01*
X62346525Y-80956632D01*
X62553368Y-81163475D01*
X62727760Y-81280000D01*
X62553368Y-81396525D01*
X62346525Y-81603368D01*
X62184010Y-81846589D01*
X62072068Y-82116842D01*
X62015000Y-82403740D01*
X62015000Y-82696260D01*
X62072068Y-82983158D01*
X62184010Y-83253411D01*
X62346525Y-83496632D01*
X62553368Y-83703475D01*
X62735534Y-83825195D01*
X62618645Y-83894822D01*
X62402412Y-84089731D01*
X62228359Y-84323080D01*
X62103175Y-84585901D01*
X62058524Y-84733110D01*
X62179845Y-84963000D01*
X63373000Y-84963000D01*
X63373000Y-84943000D01*
X63627000Y-84943000D01*
X63627000Y-84963000D01*
X64820155Y-84963000D01*
X64941476Y-84733110D01*
X64896825Y-84585901D01*
X64771641Y-84323080D01*
X64597588Y-84089731D01*
X64381355Y-83894822D01*
X64264466Y-83825195D01*
X64446632Y-83703475D01*
X64653475Y-83496632D01*
X64815990Y-83253411D01*
X64927932Y-82983158D01*
X64985000Y-82696260D01*
X64985000Y-82403740D01*
X64927932Y-82116842D01*
X64815990Y-81846589D01*
X64653475Y-81603368D01*
X64446632Y-81396525D01*
X64272240Y-81280000D01*
X64446632Y-81163475D01*
X64653475Y-80956632D01*
X64815990Y-80713411D01*
X64927932Y-80443158D01*
X64985000Y-80156260D01*
X64985000Y-79863740D01*
X64927932Y-79576842D01*
X64815990Y-79306589D01*
X64653475Y-79063368D01*
X64446632Y-78856525D01*
X64272240Y-78740000D01*
X64446632Y-78623475D01*
X64653475Y-78416632D01*
X64815990Y-78173411D01*
X64927932Y-77903158D01*
X64985000Y-77616260D01*
X64985000Y-77323740D01*
X64927932Y-77036842D01*
X64815990Y-76766589D01*
X64653475Y-76523368D01*
X64446632Y-76316525D01*
X64272240Y-76200000D01*
X64446632Y-76083475D01*
X64653475Y-75876632D01*
X64815990Y-75633411D01*
X64927932Y-75363158D01*
X64985000Y-75076260D01*
X64985000Y-74783740D01*
X64927932Y-74496842D01*
X64815990Y-74226589D01*
X64653475Y-73983368D01*
X64446632Y-73776525D01*
X64272240Y-73660000D01*
X64446632Y-73543475D01*
X64653475Y-73336632D01*
X64815990Y-73093411D01*
X64927932Y-72823158D01*
X64985000Y-72536260D01*
X64985000Y-72243740D01*
X64927932Y-71956842D01*
X64815990Y-71686589D01*
X64653475Y-71443368D01*
X64446632Y-71236525D01*
X64272240Y-71120000D01*
X64446632Y-71003475D01*
X64653475Y-70796632D01*
X64815990Y-70553411D01*
X64927932Y-70283158D01*
X64985000Y-69996260D01*
X64985000Y-69703740D01*
X64927932Y-69416842D01*
X64815990Y-69146589D01*
X64653475Y-68903368D01*
X64446632Y-68696525D01*
X64272240Y-68580000D01*
X64446632Y-68463475D01*
X64653475Y-68256632D01*
X64815990Y-68013411D01*
X64927932Y-67743158D01*
X64985000Y-67456260D01*
X64985000Y-67163740D01*
X64927932Y-66876842D01*
X64815990Y-66606589D01*
X64653475Y-66363368D01*
X64446632Y-66156525D01*
X64272240Y-66040000D01*
X64446632Y-65923475D01*
X64653475Y-65716632D01*
X64815990Y-65473411D01*
X64927932Y-65203158D01*
X64985000Y-64916260D01*
X64985000Y-64623740D01*
X64927932Y-64336842D01*
X64815990Y-64066589D01*
X64653475Y-63823368D01*
X64446632Y-63616525D01*
X64272240Y-63500000D01*
X64446632Y-63383475D01*
X64653475Y-63176632D01*
X64815990Y-62933411D01*
X64927932Y-62663158D01*
X64985000Y-62376260D01*
X64985000Y-62083740D01*
X64927932Y-61796842D01*
X64815990Y-61526589D01*
X64653475Y-61283368D01*
X64446632Y-61076525D01*
X64272240Y-60960000D01*
X64446632Y-60843475D01*
X64653475Y-60636632D01*
X64815990Y-60393411D01*
X64927932Y-60123158D01*
X64985000Y-59836260D01*
X64985000Y-59543740D01*
X64927932Y-59256842D01*
X64815990Y-58986589D01*
X64653475Y-58743368D01*
X64446632Y-58536525D01*
X64272240Y-58420000D01*
X64446632Y-58303475D01*
X64653475Y-58096632D01*
X64815990Y-57853411D01*
X64927932Y-57583158D01*
X64985000Y-57296260D01*
X64985000Y-57003740D01*
X64927932Y-56716842D01*
X64815990Y-56446589D01*
X64653475Y-56203368D01*
X64446632Y-55996525D01*
X64272240Y-55880000D01*
X64446632Y-55763475D01*
X64653475Y-55556632D01*
X64815990Y-55313411D01*
X64927932Y-55043158D01*
X64985000Y-54756260D01*
X64985000Y-54463740D01*
X64927932Y-54176842D01*
X64815990Y-53906589D01*
X64653475Y-53663368D01*
X64446632Y-53456525D01*
X64272240Y-53340000D01*
X64446632Y-53223475D01*
X64653475Y-53016632D01*
X64815990Y-52773411D01*
X64927932Y-52503158D01*
X64985000Y-52216260D01*
X64985000Y-51923740D01*
X64927932Y-51636842D01*
X64815990Y-51366589D01*
X64653475Y-51123368D01*
X64446632Y-50916525D01*
X64272240Y-50800000D01*
X64446632Y-50683475D01*
X64653475Y-50476632D01*
X64815990Y-50233411D01*
X64927932Y-49963158D01*
X64985000Y-49676260D01*
X64985000Y-49383740D01*
X64927932Y-49096842D01*
X64815990Y-48826589D01*
X64653475Y-48583368D01*
X64446632Y-48376525D01*
X64272240Y-48260000D01*
X64446632Y-48143475D01*
X64653475Y-47936632D01*
X64815990Y-47693411D01*
X64927932Y-47423158D01*
X64985000Y-47136260D01*
X64985000Y-46843740D01*
X64927932Y-46556842D01*
X64815990Y-46286589D01*
X64653475Y-46043368D01*
X64446632Y-45836525D01*
X64272240Y-45720000D01*
X64446632Y-45603475D01*
X64653475Y-45396632D01*
X64815990Y-45153411D01*
X64927932Y-44883158D01*
X64985000Y-44596260D01*
X64985000Y-44303740D01*
X64927932Y-44016842D01*
X64815990Y-43746589D01*
X64653475Y-43503368D01*
X64446632Y-43296525D01*
X64272240Y-43180000D01*
X64446632Y-43063475D01*
X64653475Y-42856632D01*
X64815990Y-42613411D01*
X64927932Y-42343158D01*
X64985000Y-42056260D01*
X64985000Y-41763740D01*
X64927932Y-41476842D01*
X64815990Y-41206589D01*
X64653475Y-40963368D01*
X64521620Y-40831513D01*
X64594180Y-40809502D01*
X64704494Y-40750537D01*
X64801185Y-40671185D01*
X64880537Y-40574494D01*
X64939502Y-40464180D01*
X64975812Y-40344482D01*
X64988072Y-40220000D01*
X64988072Y-38520000D01*
X77251928Y-38520000D01*
X77251928Y-40220000D01*
X77264188Y-40344482D01*
X77300498Y-40464180D01*
X77359463Y-40574494D01*
X77438815Y-40671185D01*
X77535506Y-40750537D01*
X77645820Y-40809502D01*
X77718380Y-40831513D01*
X77586525Y-40963368D01*
X77424010Y-41206589D01*
X77312068Y-41476842D01*
X77255000Y-41763740D01*
X77255000Y-42056260D01*
X77312068Y-42343158D01*
X77424010Y-42613411D01*
X77586525Y-42856632D01*
X77793368Y-43063475D01*
X77967760Y-43180000D01*
X77793368Y-43296525D01*
X77586525Y-43503368D01*
X77424010Y-43746589D01*
X77312068Y-44016842D01*
X77255000Y-44303740D01*
X77255000Y-44596260D01*
X77312068Y-44883158D01*
X77424010Y-45153411D01*
X77586525Y-45396632D01*
X77793368Y-45603475D01*
X77967760Y-45720000D01*
X77793368Y-45836525D01*
X77586525Y-46043368D01*
X77424010Y-46286589D01*
X77312068Y-46556842D01*
X77255000Y-46843740D01*
X77255000Y-47136260D01*
X77312068Y-47423158D01*
X77424010Y-47693411D01*
X77586525Y-47936632D01*
X77793368Y-48143475D01*
X77967760Y-48260000D01*
X77793368Y-48376525D01*
X77586525Y-48583368D01*
X77424010Y-48826589D01*
X77312068Y-49096842D01*
X77255000Y-49383740D01*
X77255000Y-49676260D01*
X77312068Y-49963158D01*
X77424010Y-50233411D01*
X77586525Y-50476632D01*
X77793368Y-50683475D01*
X77967760Y-50800000D01*
X77793368Y-50916525D01*
X77586525Y-51123368D01*
X77424010Y-51366589D01*
X77312068Y-51636842D01*
X77255000Y-51923740D01*
X77255000Y-52216260D01*
X77312068Y-52503158D01*
X77424010Y-52773411D01*
X77586525Y-53016632D01*
X77793368Y-53223475D01*
X77967760Y-53340000D01*
X77793368Y-53456525D01*
X77586525Y-53663368D01*
X77424010Y-53906589D01*
X77312068Y-54176842D01*
X77255000Y-54463740D01*
X77255000Y-54756260D01*
X77312068Y-55043158D01*
X77424010Y-55313411D01*
X77586525Y-55556632D01*
X77793368Y-55763475D01*
X77967760Y-55880000D01*
X77793368Y-55996525D01*
X77586525Y-56203368D01*
X77424010Y-56446589D01*
X77312068Y-56716842D01*
X77255000Y-57003740D01*
X77255000Y-57296260D01*
X77312068Y-57583158D01*
X77424010Y-57853411D01*
X77586525Y-58096632D01*
X77793368Y-58303475D01*
X77967760Y-58420000D01*
X77793368Y-58536525D01*
X77586525Y-58743368D01*
X77424010Y-58986589D01*
X77312068Y-59256842D01*
X77255000Y-59543740D01*
X77255000Y-59836260D01*
X77312068Y-60123158D01*
X77424010Y-60393411D01*
X77586525Y-60636632D01*
X77793368Y-60843475D01*
X77967760Y-60960000D01*
X77793368Y-61076525D01*
X77586525Y-61283368D01*
X77424010Y-61526589D01*
X77312068Y-61796842D01*
X77255000Y-62083740D01*
X77255000Y-62376260D01*
X77312068Y-62663158D01*
X77424010Y-62933411D01*
X77586525Y-63176632D01*
X77793368Y-63383475D01*
X77967760Y-63500000D01*
X77793368Y-63616525D01*
X77586525Y-63823368D01*
X77424010Y-64066589D01*
X77312068Y-64336842D01*
X77255000Y-64623740D01*
X77255000Y-64916260D01*
X77312068Y-65203158D01*
X77424010Y-65473411D01*
X77586525Y-65716632D01*
X77793368Y-65923475D01*
X77967760Y-66040000D01*
X77793368Y-66156525D01*
X77586525Y-66363368D01*
X77424010Y-66606589D01*
X77312068Y-66876842D01*
X77255000Y-67163740D01*
X77255000Y-67456260D01*
X77312068Y-67743158D01*
X77424010Y-68013411D01*
X77586525Y-68256632D01*
X77793368Y-68463475D01*
X77967760Y-68580000D01*
X77793368Y-68696525D01*
X77586525Y-68903368D01*
X77424010Y-69146589D01*
X77312068Y-69416842D01*
X77255000Y-69703740D01*
X77255000Y-69996260D01*
X77312068Y-70283158D01*
X77424010Y-70553411D01*
X77586525Y-70796632D01*
X77793368Y-71003475D01*
X77967760Y-71120000D01*
X77793368Y-71236525D01*
X77586525Y-71443368D01*
X77424010Y-71686589D01*
X77312068Y-71956842D01*
X77255000Y-72243740D01*
X77255000Y-72536260D01*
X77312068Y-72823158D01*
X77424010Y-73093411D01*
X77586525Y-73336632D01*
X77793368Y-73543475D01*
X77967760Y-73660000D01*
X77793368Y-73776525D01*
X77586525Y-73983368D01*
X77424010Y-74226589D01*
X77312068Y-74496842D01*
X77255000Y-74783740D01*
X77255000Y-75076260D01*
X77312068Y-75363158D01*
X77424010Y-75633411D01*
X77586525Y-75876632D01*
X77793368Y-76083475D01*
X77967760Y-76200000D01*
X77793368Y-76316525D01*
X77586525Y-76523368D01*
X77424010Y-76766589D01*
X77312068Y-77036842D01*
X77255000Y-77323740D01*
X77255000Y-77616260D01*
X77312068Y-77903158D01*
X77424010Y-78173411D01*
X77586525Y-78416632D01*
X77793368Y-78623475D01*
X77967760Y-78740000D01*
X77793368Y-78856525D01*
X77586525Y-79063368D01*
X77424010Y-79306589D01*
X77312068Y-79576842D01*
X77255000Y-79863740D01*
X77255000Y-80156260D01*
X77312068Y-80443158D01*
X77424010Y-80713411D01*
X77586525Y-80956632D01*
X77793368Y-81163475D01*
X77967760Y-81280000D01*
X77793368Y-81396525D01*
X77586525Y-81603368D01*
X77424010Y-81846589D01*
X77312068Y-82116842D01*
X77255000Y-82403740D01*
X77255000Y-82696260D01*
X77312068Y-82983158D01*
X77424010Y-83253411D01*
X77586525Y-83496632D01*
X77793368Y-83703475D01*
X77967760Y-83820000D01*
X77793368Y-83936525D01*
X77586525Y-84143368D01*
X77424010Y-84386589D01*
X77312068Y-84656842D01*
X77255000Y-84943740D01*
X77255000Y-85236260D01*
X77312068Y-85523158D01*
X77424010Y-85793411D01*
X77586525Y-86036632D01*
X77793368Y-86243475D01*
X77967760Y-86360000D01*
X77793368Y-86476525D01*
X77586525Y-86683368D01*
X77424010Y-86926589D01*
X77312068Y-87196842D01*
X77255000Y-87483740D01*
X77255000Y-87776260D01*
X77312068Y-88063158D01*
X77424010Y-88333411D01*
X77586525Y-88576632D01*
X77793368Y-88783475D01*
X78036589Y-88945990D01*
X78306842Y-89057932D01*
X78593740Y-89115000D01*
X78886260Y-89115000D01*
X79173158Y-89057932D01*
X79443411Y-88945990D01*
X79686632Y-88783475D01*
X79893475Y-88576632D01*
X80055990Y-88333411D01*
X80167932Y-88063158D01*
X80225000Y-87776260D01*
X80225000Y-87483740D01*
X80167932Y-87196842D01*
X80055990Y-86926589D01*
X79893475Y-86683368D01*
X79686632Y-86476525D01*
X79512240Y-86360000D01*
X79686632Y-86243475D01*
X79893475Y-86036632D01*
X80055990Y-85793411D01*
X80167932Y-85523158D01*
X80225000Y-85236260D01*
X80225000Y-84943740D01*
X80167932Y-84656842D01*
X80055990Y-84386589D01*
X79893475Y-84143368D01*
X79686632Y-83936525D01*
X79512240Y-83820000D01*
X79686632Y-83703475D01*
X79893475Y-83496632D01*
X80055990Y-83253411D01*
X80167932Y-82983158D01*
X80225000Y-82696260D01*
X80225000Y-82403740D01*
X80167932Y-82116842D01*
X80055990Y-81846589D01*
X79893475Y-81603368D01*
X79686632Y-81396525D01*
X79512240Y-81280000D01*
X79686632Y-81163475D01*
X79893475Y-80956632D01*
X80055990Y-80713411D01*
X80167932Y-80443158D01*
X80225000Y-80156260D01*
X80225000Y-79863740D01*
X80167932Y-79576842D01*
X80055990Y-79306589D01*
X79893475Y-79063368D01*
X79686632Y-78856525D01*
X79512240Y-78740000D01*
X79686632Y-78623475D01*
X79893475Y-78416632D01*
X80055990Y-78173411D01*
X80167932Y-77903158D01*
X80225000Y-77616260D01*
X80225000Y-77323740D01*
X80167932Y-77036842D01*
X80055990Y-76766589D01*
X79893475Y-76523368D01*
X79686632Y-76316525D01*
X79512240Y-76200000D01*
X79686632Y-76083475D01*
X79893475Y-75876632D01*
X80055990Y-75633411D01*
X80167932Y-75363158D01*
X80225000Y-75076260D01*
X80225000Y-74783740D01*
X80167932Y-74496842D01*
X80055990Y-74226589D01*
X79893475Y-73983368D01*
X79686632Y-73776525D01*
X79512240Y-73660000D01*
X79686632Y-73543475D01*
X79893475Y-73336632D01*
X80055990Y-73093411D01*
X80167932Y-72823158D01*
X80225000Y-72536260D01*
X80225000Y-72243740D01*
X80167932Y-71956842D01*
X80055990Y-71686589D01*
X79893475Y-71443368D01*
X79686632Y-71236525D01*
X79512240Y-71120000D01*
X79686632Y-71003475D01*
X79893475Y-70796632D01*
X80055990Y-70553411D01*
X80167932Y-70283158D01*
X80225000Y-69996260D01*
X80225000Y-69703740D01*
X80167932Y-69416842D01*
X80055990Y-69146589D01*
X79893475Y-68903368D01*
X79686632Y-68696525D01*
X79512240Y-68580000D01*
X79686632Y-68463475D01*
X79893475Y-68256632D01*
X80055990Y-68013411D01*
X80167932Y-67743158D01*
X80225000Y-67456260D01*
X80225000Y-67163740D01*
X80167932Y-66876842D01*
X80055990Y-66606589D01*
X79893475Y-66363368D01*
X79686632Y-66156525D01*
X79512240Y-66040000D01*
X79686632Y-65923475D01*
X79893475Y-65716632D01*
X80055990Y-65473411D01*
X80167932Y-65203158D01*
X80225000Y-64916260D01*
X80225000Y-64623740D01*
X80167932Y-64336842D01*
X80055990Y-64066589D01*
X79893475Y-63823368D01*
X79686632Y-63616525D01*
X79512240Y-63500000D01*
X79686632Y-63383475D01*
X79893475Y-63176632D01*
X80055990Y-62933411D01*
X80167932Y-62663158D01*
X80225000Y-62376260D01*
X80225000Y-62083740D01*
X80167932Y-61796842D01*
X80055990Y-61526589D01*
X79893475Y-61283368D01*
X79686632Y-61076525D01*
X79512240Y-60960000D01*
X79686632Y-60843475D01*
X79893475Y-60636632D01*
X80055990Y-60393411D01*
X80167932Y-60123158D01*
X80225000Y-59836260D01*
X80225000Y-59543740D01*
X80167932Y-59256842D01*
X80055990Y-58986589D01*
X79893475Y-58743368D01*
X79686632Y-58536525D01*
X79512240Y-58420000D01*
X79686632Y-58303475D01*
X79893475Y-58096632D01*
X80055990Y-57853411D01*
X80167932Y-57583158D01*
X80225000Y-57296260D01*
X80225000Y-57003740D01*
X80167932Y-56716842D01*
X80055990Y-56446589D01*
X79893475Y-56203368D01*
X79686632Y-55996525D01*
X79512240Y-55880000D01*
X79686632Y-55763475D01*
X79893475Y-55556632D01*
X80055990Y-55313411D01*
X80167932Y-55043158D01*
X80225000Y-54756260D01*
X80225000Y-54463740D01*
X80167932Y-54176842D01*
X80055990Y-53906589D01*
X79893475Y-53663368D01*
X79686632Y-53456525D01*
X79512240Y-53340000D01*
X79686632Y-53223475D01*
X79893475Y-53016632D01*
X80055990Y-52773411D01*
X80167932Y-52503158D01*
X80225000Y-52216260D01*
X80225000Y-51923740D01*
X80167932Y-51636842D01*
X80055990Y-51366589D01*
X79893475Y-51123368D01*
X79686632Y-50916525D01*
X79512240Y-50800000D01*
X79686632Y-50683475D01*
X79893475Y-50476632D01*
X80055990Y-50233411D01*
X80167932Y-49963158D01*
X80225000Y-49676260D01*
X80225000Y-49383740D01*
X80167932Y-49096842D01*
X80055990Y-48826589D01*
X79893475Y-48583368D01*
X79686632Y-48376525D01*
X79512240Y-48260000D01*
X79686632Y-48143475D01*
X79893475Y-47936632D01*
X80055990Y-47693411D01*
X80167932Y-47423158D01*
X80225000Y-47136260D01*
X80225000Y-46843740D01*
X80167932Y-46556842D01*
X80055990Y-46286589D01*
X79893475Y-46043368D01*
X79686632Y-45836525D01*
X79512240Y-45720000D01*
X79686632Y-45603475D01*
X79893475Y-45396632D01*
X80055990Y-45153411D01*
X80167932Y-44883158D01*
X80225000Y-44596260D01*
X80225000Y-44303740D01*
X80167932Y-44016842D01*
X80055990Y-43746589D01*
X79893475Y-43503368D01*
X79686632Y-43296525D01*
X79512240Y-43180000D01*
X79686632Y-43063475D01*
X79893475Y-42856632D01*
X80055990Y-42613411D01*
X80167932Y-42343158D01*
X80225000Y-42056260D01*
X80225000Y-41763740D01*
X80167932Y-41476842D01*
X80055990Y-41206589D01*
X79893475Y-40963368D01*
X79761620Y-40831513D01*
X79834180Y-40809502D01*
X79944494Y-40750537D01*
X80041185Y-40671185D01*
X80120537Y-40574494D01*
X80179502Y-40464180D01*
X80215812Y-40344482D01*
X80228072Y-40220000D01*
X80228072Y-38520000D01*
X80215812Y-38395518D01*
X80179502Y-38275820D01*
X80120537Y-38165506D01*
X80041185Y-38068815D01*
X79944494Y-37989463D01*
X79834180Y-37930498D01*
X79714482Y-37894188D01*
X79590000Y-37881928D01*
X77890000Y-37881928D01*
X77765518Y-37894188D01*
X77645820Y-37930498D01*
X77535506Y-37989463D01*
X77438815Y-38068815D01*
X77359463Y-38165506D01*
X77300498Y-38275820D01*
X77264188Y-38395518D01*
X77251928Y-38520000D01*
X64988072Y-38520000D01*
X64975812Y-38395518D01*
X64939502Y-38275820D01*
X64880537Y-38165506D01*
X64801185Y-38068815D01*
X64704494Y-37989463D01*
X64594180Y-37930498D01*
X64474482Y-37894188D01*
X64350000Y-37881928D01*
X62650000Y-37881928D01*
X62525518Y-37894188D01*
X62405820Y-37930498D01*
X62295506Y-37989463D01*
X62198815Y-38068815D01*
X62119463Y-38165506D01*
X62060498Y-38275820D01*
X62024188Y-38395518D01*
X62011928Y-38520000D01*
X55535242Y-38520000D01*
X55575000Y-38320128D01*
X55575000Y-37879872D01*
X55489110Y-37448075D01*
X55320631Y-37041331D01*
X55264283Y-36957000D01*
X82423000Y-36957000D01*
X82423000Y-107823000D01*
%TA.AperFunction,Conductor*%
D17*
G36*
X82423000Y-107823000D02*
G01*
X52197000Y-107823000D01*
X52197000Y-104560000D01*
X54391928Y-104560000D01*
X54391928Y-106260000D01*
X54404188Y-106384482D01*
X54440498Y-106504180D01*
X54499463Y-106614494D01*
X54578815Y-106711185D01*
X54675506Y-106790537D01*
X54785820Y-106849502D01*
X54905518Y-106885812D01*
X55030000Y-106898072D01*
X56730000Y-106898072D01*
X56854482Y-106885812D01*
X56974180Y-106849502D01*
X57084494Y-106790537D01*
X57181185Y-106711185D01*
X57260537Y-106614494D01*
X57319502Y-106504180D01*
X57355812Y-106384482D01*
X57368072Y-106260000D01*
X57368072Y-105189872D01*
X77775000Y-105189872D01*
X77775000Y-105630128D01*
X77860890Y-106061925D01*
X78029369Y-106468669D01*
X78273962Y-106834729D01*
X78585271Y-107146038D01*
X78951331Y-107390631D01*
X79358075Y-107559110D01*
X79789872Y-107645000D01*
X80230128Y-107645000D01*
X80661925Y-107559110D01*
X81068669Y-107390631D01*
X81434729Y-107146038D01*
X81746038Y-106834729D01*
X81990631Y-106468669D01*
X82159110Y-106061925D01*
X82245000Y-105630128D01*
X82245000Y-105189872D01*
X82159110Y-104758075D01*
X81990631Y-104351331D01*
X81746038Y-103985271D01*
X81434729Y-103673962D01*
X81068669Y-103429369D01*
X80661925Y-103260890D01*
X80230128Y-103175000D01*
X79789872Y-103175000D01*
X79358075Y-103260890D01*
X78951331Y-103429369D01*
X78585271Y-103673962D01*
X78273962Y-103985271D01*
X78029369Y-104351331D01*
X77860890Y-104758075D01*
X77775000Y-105189872D01*
X57368072Y-105189872D01*
X57368072Y-104560000D01*
X57355812Y-104435518D01*
X57319502Y-104315820D01*
X57260537Y-104205506D01*
X57181185Y-104108815D01*
X57084494Y-104029463D01*
X56974180Y-103970498D01*
X56901620Y-103948487D01*
X57033475Y-103816632D01*
X57195990Y-103573411D01*
X57307932Y-103303158D01*
X57365000Y-103016260D01*
X57365000Y-102723740D01*
X57307932Y-102436842D01*
X57195990Y-102166589D01*
X57033475Y-101923368D01*
X56826632Y-101716525D01*
X56652240Y-101600000D01*
X56826632Y-101483475D01*
X57033475Y-101276632D01*
X57195990Y-101033411D01*
X57307932Y-100763158D01*
X57365000Y-100476260D01*
X57365000Y-100183740D01*
X57307932Y-99896842D01*
X57195990Y-99626589D01*
X57033475Y-99383368D01*
X56826632Y-99176525D01*
X56652240Y-99060000D01*
X56826632Y-98943475D01*
X57033475Y-98736632D01*
X57195990Y-98493411D01*
X57307932Y-98223158D01*
X57365000Y-97936260D01*
X57365000Y-97643740D01*
X57307932Y-97356842D01*
X57195990Y-97086589D01*
X57033475Y-96843368D01*
X56826632Y-96636525D01*
X56644466Y-96514805D01*
X56761355Y-96445178D01*
X56977588Y-96250269D01*
X57151641Y-96016920D01*
X57276825Y-95754099D01*
X57321476Y-95606890D01*
X57200155Y-95377000D01*
X56007000Y-95377000D01*
X56007000Y-95397000D01*
X55753000Y-95397000D01*
X55753000Y-95377000D01*
X54559845Y-95377000D01*
X54438524Y-95606890D01*
X54483175Y-95754099D01*
X54608359Y-96016920D01*
X54782412Y-96250269D01*
X54998645Y-96445178D01*
X55115534Y-96514805D01*
X54933368Y-96636525D01*
X54726525Y-96843368D01*
X54564010Y-97086589D01*
X54452068Y-97356842D01*
X54395000Y-97643740D01*
X54395000Y-97936260D01*
X54452068Y-98223158D01*
X54564010Y-98493411D01*
X54726525Y-98736632D01*
X54933368Y-98943475D01*
X55107760Y-99060000D01*
X54933368Y-99176525D01*
X54726525Y-99383368D01*
X54564010Y-99626589D01*
X54452068Y-99896842D01*
X54395000Y-100183740D01*
X54395000Y-100476260D01*
X54452068Y-100763158D01*
X54564010Y-101033411D01*
X54726525Y-101276632D01*
X54933368Y-101483475D01*
X55107760Y-101600000D01*
X54933368Y-101716525D01*
X54726525Y-101923368D01*
X54564010Y-102166589D01*
X54452068Y-102436842D01*
X54395000Y-102723740D01*
X54395000Y-103016260D01*
X54452068Y-103303158D01*
X54564010Y-103573411D01*
X54726525Y-103816632D01*
X54858380Y-103948487D01*
X54785820Y-103970498D01*
X54675506Y-104029463D01*
X54578815Y-104108815D01*
X54499463Y-104205506D01*
X54440498Y-104315820D01*
X54404188Y-104435518D01*
X54391928Y-104560000D01*
X52197000Y-104560000D01*
X52197000Y-92563740D01*
X54395000Y-92563740D01*
X54395000Y-92856260D01*
X54452068Y-93143158D01*
X54564010Y-93413411D01*
X54726525Y-93656632D01*
X54933368Y-93863475D01*
X55115534Y-93985195D01*
X54998645Y-94054822D01*
X54782412Y-94249731D01*
X54608359Y-94483080D01*
X54483175Y-94745901D01*
X54438524Y-94893110D01*
X54559845Y-95123000D01*
X55753000Y-95123000D01*
X55753000Y-95103000D01*
X56007000Y-95103000D01*
X56007000Y-95123000D01*
X57200155Y-95123000D01*
X57321476Y-94893110D01*
X57276825Y-94745901D01*
X57151641Y-94483080D01*
X56977588Y-94249731D01*
X56761355Y-94054822D01*
X56644466Y-93985195D01*
X56826632Y-93863475D01*
X56970107Y-93720000D01*
X60910392Y-93720000D01*
X60960000Y-93724886D01*
X61157994Y-93705385D01*
X61348380Y-93647632D01*
X61523840Y-93553847D01*
X61677633Y-93427633D01*
X61709261Y-93389094D01*
X64179100Y-90919256D01*
X64217633Y-90887633D01*
X64343847Y-90733840D01*
X64437632Y-90558380D01*
X64495385Y-90367994D01*
X64510000Y-90219608D01*
X64510000Y-90219606D01*
X64514886Y-90170001D01*
X64510000Y-90120396D01*
X64510000Y-88720107D01*
X64590107Y-88640000D01*
X68161645Y-88640000D01*
X71380001Y-91858357D01*
X71380000Y-101779893D01*
X71236525Y-101923368D01*
X71120000Y-102097760D01*
X71003475Y-101923368D01*
X70796632Y-101716525D01*
X70553411Y-101554010D01*
X70283158Y-101442068D01*
X69996260Y-101385000D01*
X69703740Y-101385000D01*
X69416842Y-101442068D01*
X69146589Y-101554010D01*
X68903368Y-101716525D01*
X68696525Y-101923368D01*
X68580000Y-102097760D01*
X68463475Y-101923368D01*
X68256632Y-101716525D01*
X68013411Y-101554010D01*
X67743158Y-101442068D01*
X67456260Y-101385000D01*
X67163740Y-101385000D01*
X66876842Y-101442068D01*
X66606589Y-101554010D01*
X66363368Y-101716525D01*
X66156525Y-101923368D01*
X65994010Y-102166589D01*
X65882068Y-102436842D01*
X65825000Y-102723740D01*
X65825000Y-103016260D01*
X65882068Y-103303158D01*
X65994010Y-103573411D01*
X66156525Y-103816632D01*
X66363368Y-104023475D01*
X66606589Y-104185990D01*
X66876842Y-104297932D01*
X67163740Y-104355000D01*
X67456260Y-104355000D01*
X67743158Y-104297932D01*
X68013411Y-104185990D01*
X68256632Y-104023475D01*
X68463475Y-103816632D01*
X68580000Y-103642240D01*
X68696525Y-103816632D01*
X68903368Y-104023475D01*
X69146589Y-104185990D01*
X69416842Y-104297932D01*
X69703740Y-104355000D01*
X69996260Y-104355000D01*
X70283158Y-104297932D01*
X70553411Y-104185990D01*
X70796632Y-104023475D01*
X71003475Y-103816632D01*
X71120000Y-103642240D01*
X71236525Y-103816632D01*
X71443368Y-104023475D01*
X71686589Y-104185990D01*
X71956842Y-104297932D01*
X72243740Y-104355000D01*
X72536260Y-104355000D01*
X72823158Y-104297932D01*
X73093411Y-104185990D01*
X73336632Y-104023475D01*
X73468487Y-103891620D01*
X73490498Y-103964180D01*
X73549463Y-104074494D01*
X73628815Y-104171185D01*
X73725506Y-104250537D01*
X73835820Y-104309502D01*
X73955518Y-104345812D01*
X74080000Y-104358072D01*
X74644250Y-104355000D01*
X74803000Y-104196250D01*
X74803000Y-102997000D01*
X75057000Y-102997000D01*
X75057000Y-104196250D01*
X75215750Y-104355000D01*
X75780000Y-104358072D01*
X75904482Y-104345812D01*
X76024180Y-104309502D01*
X76134494Y-104250537D01*
X76231185Y-104171185D01*
X76310537Y-104074494D01*
X76369502Y-103964180D01*
X76405812Y-103844482D01*
X76418072Y-103720000D01*
X76415000Y-103155750D01*
X76256250Y-102997000D01*
X75057000Y-102997000D01*
X74803000Y-102997000D01*
X74783000Y-102997000D01*
X74783000Y-102743000D01*
X74803000Y-102743000D01*
X74803000Y-101543750D01*
X75057000Y-101543750D01*
X75057000Y-102743000D01*
X76256250Y-102743000D01*
X76415000Y-102584250D01*
X76418072Y-102020000D01*
X76405812Y-101895518D01*
X76369502Y-101775820D01*
X76310537Y-101665506D01*
X76231185Y-101568815D01*
X76134494Y-101489463D01*
X76024180Y-101430498D01*
X75904482Y-101394188D01*
X75780000Y-101381928D01*
X75215750Y-101385000D01*
X75057000Y-101543750D01*
X74803000Y-101543750D01*
X74644250Y-101385000D01*
X74080000Y-101381928D01*
X73955518Y-101394188D01*
X73835820Y-101430498D01*
X73725506Y-101489463D01*
X73628815Y-101568815D01*
X73549463Y-101665506D01*
X73490498Y-101775820D01*
X73468487Y-101848380D01*
X73400000Y-101779893D01*
X73400000Y-91489608D01*
X73404886Y-91440000D01*
X73385385Y-91242005D01*
X73327632Y-91051620D01*
X73233846Y-90876159D01*
X73139256Y-90760900D01*
X73107633Y-90722367D01*
X73069100Y-90690744D01*
X69329261Y-86950906D01*
X69297633Y-86912367D01*
X69143840Y-86786153D01*
X68968380Y-86692368D01*
X68777994Y-86634615D01*
X68629608Y-86620000D01*
X68580000Y-86615114D01*
X68530392Y-86620000D01*
X64590107Y-86620000D01*
X64446632Y-86476525D01*
X64264466Y-86354805D01*
X64381355Y-86285178D01*
X64597588Y-86090269D01*
X64771641Y-85856920D01*
X64896825Y-85594099D01*
X64941476Y-85446890D01*
X64820155Y-85217000D01*
X63627000Y-85217000D01*
X63627000Y-85237000D01*
X63373000Y-85237000D01*
X63373000Y-85217000D01*
X62179845Y-85217000D01*
X62058524Y-85446890D01*
X62103175Y-85594099D01*
X62228359Y-85856920D01*
X62402412Y-86090269D01*
X62618645Y-86285178D01*
X62735534Y-86354805D01*
X62553368Y-86476525D01*
X62409893Y-86620000D01*
X61378355Y-86620000D01*
X60700000Y-85941645D01*
X60700000Y-73709604D01*
X60704886Y-73659999D01*
X60693409Y-73543475D01*
X60685385Y-73462006D01*
X60627632Y-73271620D01*
X60533847Y-73096160D01*
X60407633Y-72942367D01*
X60369094Y-72910739D01*
X59169261Y-71710906D01*
X59137633Y-71672367D01*
X58983840Y-71546153D01*
X58808380Y-71452368D01*
X58619621Y-71395108D01*
X58589502Y-71295820D01*
X58530537Y-71185506D01*
X58451185Y-71088815D01*
X58354494Y-71009463D01*
X58244180Y-70950498D01*
X58124482Y-70914188D01*
X58000000Y-70901928D01*
X56300000Y-70901928D01*
X56175518Y-70914188D01*
X56055820Y-70950498D01*
X55945506Y-71009463D01*
X55848815Y-71088815D01*
X55769463Y-71185506D01*
X55710498Y-71295820D01*
X55674188Y-71415518D01*
X55661928Y-71540000D01*
X55661928Y-73240000D01*
X55674188Y-73364482D01*
X55710498Y-73484180D01*
X55769463Y-73594494D01*
X55848815Y-73691185D01*
X55945506Y-73770537D01*
X56055820Y-73829502D01*
X56136466Y-73853966D01*
X56052412Y-73929731D01*
X55878359Y-74163080D01*
X55753175Y-74425901D01*
X55708524Y-74573110D01*
X55829845Y-74803000D01*
X57023000Y-74803000D01*
X57023000Y-74783000D01*
X57277000Y-74783000D01*
X57277000Y-74803000D01*
X58470155Y-74803000D01*
X58591476Y-74573110D01*
X58546825Y-74425901D01*
X58421641Y-74163080D01*
X58247588Y-73929731D01*
X58163534Y-73853966D01*
X58244180Y-73829502D01*
X58354494Y-73770537D01*
X58364209Y-73762564D01*
X58680000Y-74078355D01*
X58680001Y-86310382D01*
X58675114Y-86360000D01*
X58694615Y-86557994D01*
X58752368Y-86748379D01*
X58823119Y-86880744D01*
X58846154Y-86923840D01*
X58972368Y-87077633D01*
X59010901Y-87109256D01*
X60210739Y-88309094D01*
X60242367Y-88347633D01*
X60396160Y-88473847D01*
X60571620Y-88567632D01*
X60762006Y-88625385D01*
X60910392Y-88640000D01*
X60910394Y-88640000D01*
X60959999Y-88644886D01*
X61009604Y-88640000D01*
X62409893Y-88640000D01*
X62490001Y-88720108D01*
X62490000Y-89751644D01*
X60541645Y-91700000D01*
X56970107Y-91700000D01*
X56826632Y-91556525D01*
X56583411Y-91394010D01*
X56313158Y-91282068D01*
X56026260Y-91225000D01*
X55733740Y-91225000D01*
X55446842Y-91282068D01*
X55176589Y-91394010D01*
X54933368Y-91556525D01*
X54726525Y-91763368D01*
X54564010Y-92006589D01*
X54452068Y-92276842D01*
X54395000Y-92563740D01*
X52197000Y-92563740D01*
X52197000Y-77323740D01*
X55665000Y-77323740D01*
X55665000Y-77616260D01*
X55722068Y-77903158D01*
X55834010Y-78173411D01*
X55996525Y-78416632D01*
X56203368Y-78623475D01*
X56377760Y-78740000D01*
X56203368Y-78856525D01*
X55996525Y-79063368D01*
X55834010Y-79306589D01*
X55722068Y-79576842D01*
X55665000Y-79863740D01*
X55665000Y-80156260D01*
X55722068Y-80443158D01*
X55834010Y-80713411D01*
X55996525Y-80956632D01*
X56203368Y-81163475D01*
X56446589Y-81325990D01*
X56716842Y-81437932D01*
X57003740Y-81495000D01*
X57296260Y-81495000D01*
X57583158Y-81437932D01*
X57853411Y-81325990D01*
X58096632Y-81163475D01*
X58303475Y-80956632D01*
X58465990Y-80713411D01*
X58577932Y-80443158D01*
X58635000Y-80156260D01*
X58635000Y-79863740D01*
X58577932Y-79576842D01*
X58465990Y-79306589D01*
X58303475Y-79063368D01*
X58096632Y-78856525D01*
X57922240Y-78740000D01*
X58096632Y-78623475D01*
X58303475Y-78416632D01*
X58465990Y-78173411D01*
X58577932Y-77903158D01*
X58635000Y-77616260D01*
X58635000Y-77323740D01*
X58577932Y-77036842D01*
X58465990Y-76766589D01*
X58303475Y-76523368D01*
X58096632Y-76316525D01*
X57914466Y-76194805D01*
X58031355Y-76125178D01*
X58247588Y-75930269D01*
X58421641Y-75696920D01*
X58546825Y-75434099D01*
X58591476Y-75286890D01*
X58470155Y-75057000D01*
X57277000Y-75057000D01*
X57277000Y-75077000D01*
X57023000Y-75077000D01*
X57023000Y-75057000D01*
X55829845Y-75057000D01*
X55708524Y-75286890D01*
X55753175Y-75434099D01*
X55878359Y-75696920D01*
X56052412Y-75930269D01*
X56268645Y-76125178D01*
X56385534Y-76194805D01*
X56203368Y-76316525D01*
X55996525Y-76523368D01*
X55834010Y-76766589D01*
X55722068Y-77036842D01*
X55665000Y-77323740D01*
X52197000Y-77323740D01*
X52197000Y-51220000D01*
X55661928Y-51220000D01*
X55661928Y-52920000D01*
X55674188Y-53044482D01*
X55710498Y-53164180D01*
X55769463Y-53274494D01*
X55848815Y-53371185D01*
X55945506Y-53450537D01*
X56055820Y-53509502D01*
X56175518Y-53545812D01*
X56300000Y-53558072D01*
X58000000Y-53558072D01*
X58124482Y-53545812D01*
X58244180Y-53509502D01*
X58354494Y-53450537D01*
X58451185Y-53371185D01*
X58530537Y-53274494D01*
X58589502Y-53164180D01*
X58625812Y-53044482D01*
X58638072Y-52920000D01*
X58638072Y-51220000D01*
X58625812Y-51095518D01*
X58589502Y-50975820D01*
X58530537Y-50865506D01*
X58451185Y-50768815D01*
X58354494Y-50689463D01*
X58244180Y-50630498D01*
X58124482Y-50594188D01*
X58000000Y-50581928D01*
X56300000Y-50581928D01*
X56175518Y-50594188D01*
X56055820Y-50630498D01*
X55945506Y-50689463D01*
X55848815Y-50768815D01*
X55769463Y-50865506D01*
X55710498Y-50975820D01*
X55674188Y-51095518D01*
X55661928Y-51220000D01*
X52197000Y-51220000D01*
X52197000Y-45300000D01*
X55661928Y-45300000D01*
X55674188Y-45424482D01*
X55710498Y-45544180D01*
X55769463Y-45654494D01*
X55848815Y-45751185D01*
X55945506Y-45830537D01*
X56055820Y-45889502D01*
X56175518Y-45925812D01*
X56300000Y-45938072D01*
X56864250Y-45935000D01*
X57023000Y-45776250D01*
X57023000Y-44577000D01*
X57277000Y-44577000D01*
X57277000Y-45776250D01*
X57435750Y-45935000D01*
X58000000Y-45938072D01*
X58124482Y-45925812D01*
X58244180Y-45889502D01*
X58354494Y-45830537D01*
X58451185Y-45751185D01*
X58530537Y-45654494D01*
X58589502Y-45544180D01*
X58625812Y-45424482D01*
X58638072Y-45300000D01*
X58635000Y-44735750D01*
X58476250Y-44577000D01*
X57277000Y-44577000D01*
X57023000Y-44577000D01*
X55823750Y-44577000D01*
X55665000Y-44735750D01*
X55661928Y-45300000D01*
X52197000Y-45300000D01*
X52197000Y-43600000D01*
X55661928Y-43600000D01*
X55665000Y-44164250D01*
X55823750Y-44323000D01*
X57023000Y-44323000D01*
X57023000Y-43123750D01*
X57277000Y-43123750D01*
X57277000Y-44323000D01*
X58476250Y-44323000D01*
X58635000Y-44164250D01*
X58638072Y-43600000D01*
X58625812Y-43475518D01*
X58589502Y-43355820D01*
X58530537Y-43245506D01*
X58451185Y-43148815D01*
X58354494Y-43069463D01*
X58244180Y-43010498D01*
X58124482Y-42974188D01*
X58000000Y-42961928D01*
X57435750Y-42965000D01*
X57277000Y-43123750D01*
X57023000Y-43123750D01*
X56864250Y-42965000D01*
X56300000Y-42961928D01*
X56175518Y-42974188D01*
X56055820Y-43010498D01*
X55945506Y-43069463D01*
X55848815Y-43148815D01*
X55769463Y-43245506D01*
X55710498Y-43355820D01*
X55674188Y-43475518D01*
X55661928Y-43600000D01*
X52197000Y-43600000D01*
X52197000Y-40024283D01*
X52281331Y-40080631D01*
X52688075Y-40249110D01*
X53119872Y-40335000D01*
X53560128Y-40335000D01*
X53991925Y-40249110D01*
X54398669Y-40080631D01*
X54764729Y-39836038D01*
X55076038Y-39524729D01*
X55320631Y-39158669D01*
X55489110Y-38751925D01*
X55535242Y-38520000D01*
X62011928Y-38520000D01*
X62011928Y-40220000D01*
X62024188Y-40344482D01*
X62060498Y-40464180D01*
X62119463Y-40574494D01*
X62198815Y-40671185D01*
X62295506Y-40750537D01*
X62405820Y-40809502D01*
X62478380Y-40831513D01*
X62346525Y-40963368D01*
X62184010Y-41206589D01*
X62072068Y-41476842D01*
X62015000Y-41763740D01*
X62015000Y-42056260D01*
X62072068Y-42343158D01*
X62184010Y-42613411D01*
X62346525Y-42856632D01*
X62553368Y-43063475D01*
X62727760Y-43180000D01*
X62553368Y-43296525D01*
X62346525Y-43503368D01*
X62184010Y-43746589D01*
X62072068Y-44016842D01*
X62015000Y-44303740D01*
X62015000Y-44596260D01*
X62072068Y-44883158D01*
X62184010Y-45153411D01*
X62346525Y-45396632D01*
X62553368Y-45603475D01*
X62727760Y-45720000D01*
X62553368Y-45836525D01*
X62346525Y-46043368D01*
X62184010Y-46286589D01*
X62072068Y-46556842D01*
X62015000Y-46843740D01*
X62015000Y-47136260D01*
X62072068Y-47423158D01*
X62184010Y-47693411D01*
X62346525Y-47936632D01*
X62553368Y-48143475D01*
X62727760Y-48260000D01*
X62553368Y-48376525D01*
X62346525Y-48583368D01*
X62184010Y-48826589D01*
X62072068Y-49096842D01*
X62015000Y-49383740D01*
X62015000Y-49676260D01*
X62072068Y-49963158D01*
X62184010Y-50233411D01*
X62346525Y-50476632D01*
X62553368Y-50683475D01*
X62727760Y-50800000D01*
X62553368Y-50916525D01*
X62346525Y-51123368D01*
X62184010Y-51366589D01*
X62072068Y-51636842D01*
X62015000Y-51923740D01*
X62015000Y-52216260D01*
X62072068Y-52503158D01*
X62184010Y-52773411D01*
X62346525Y-53016632D01*
X62553368Y-53223475D01*
X62727760Y-53340000D01*
X62553368Y-53456525D01*
X62346525Y-53663368D01*
X62184010Y-53906589D01*
X62072068Y-54176842D01*
X62015000Y-54463740D01*
X62015000Y-54756260D01*
X62072068Y-55043158D01*
X62184010Y-55313411D01*
X62346525Y-55556632D01*
X62553368Y-55763475D01*
X62727760Y-55880000D01*
X62553368Y-55996525D01*
X62346525Y-56203368D01*
X62184010Y-56446589D01*
X62072068Y-56716842D01*
X62015000Y-57003740D01*
X62015000Y-57296260D01*
X62072068Y-57583158D01*
X62184010Y-57853411D01*
X62346525Y-58096632D01*
X62553368Y-58303475D01*
X62727760Y-58420000D01*
X62553368Y-58536525D01*
X62346525Y-58743368D01*
X62184010Y-58986589D01*
X62072068Y-59256842D01*
X62015000Y-59543740D01*
X62015000Y-59836260D01*
X62072068Y-60123158D01*
X62184010Y-60393411D01*
X62346525Y-60636632D01*
X62553368Y-60843475D01*
X62727760Y-60960000D01*
X62553368Y-61076525D01*
X62346525Y-61283368D01*
X62184010Y-61526589D01*
X62072068Y-61796842D01*
X62015000Y-62083740D01*
X62015000Y-62376260D01*
X62072068Y-62663158D01*
X62184010Y-62933411D01*
X62346525Y-63176632D01*
X62553368Y-63383475D01*
X62727760Y-63500000D01*
X62553368Y-63616525D01*
X62346525Y-63823368D01*
X62184010Y-64066589D01*
X62072068Y-64336842D01*
X62015000Y-64623740D01*
X62015000Y-64916260D01*
X62072068Y-65203158D01*
X62184010Y-65473411D01*
X62346525Y-65716632D01*
X62553368Y-65923475D01*
X62727760Y-66040000D01*
X62553368Y-66156525D01*
X62346525Y-66363368D01*
X62184010Y-66606589D01*
X62072068Y-66876842D01*
X62015000Y-67163740D01*
X62015000Y-67456260D01*
X62072068Y-67743158D01*
X62184010Y-68013411D01*
X62346525Y-68256632D01*
X62553368Y-68463475D01*
X62727760Y-68580000D01*
X62553368Y-68696525D01*
X62346525Y-68903368D01*
X62184010Y-69146589D01*
X62072068Y-69416842D01*
X62015000Y-69703740D01*
X62015000Y-69996260D01*
X62072068Y-70283158D01*
X62184010Y-70553411D01*
X62346525Y-70796632D01*
X62553368Y-71003475D01*
X62727760Y-71120000D01*
X62553368Y-71236525D01*
X62346525Y-71443368D01*
X62184010Y-71686589D01*
X62072068Y-71956842D01*
X62015000Y-72243740D01*
X62015000Y-72536260D01*
X62072068Y-72823158D01*
X62184010Y-73093411D01*
X62346525Y-73336632D01*
X62553368Y-73543475D01*
X62727760Y-73660000D01*
X62553368Y-73776525D01*
X62346525Y-73983368D01*
X62184010Y-74226589D01*
X62072068Y-74496842D01*
X62015000Y-74783740D01*
X62015000Y-75076260D01*
X62072068Y-75363158D01*
X62184010Y-75633411D01*
X62346525Y-75876632D01*
X62553368Y-76083475D01*
X62727760Y-76200000D01*
X62553368Y-76316525D01*
X62346525Y-76523368D01*
X62184010Y-76766589D01*
X62072068Y-77036842D01*
X62015000Y-77323740D01*
X62015000Y-77616260D01*
X62072068Y-77903158D01*
X62184010Y-78173411D01*
X62346525Y-78416632D01*
X62553368Y-78623475D01*
X62727760Y-78740000D01*
X62553368Y-78856525D01*
X62346525Y-79063368D01*
X62184010Y-79306589D01*
X62072068Y-79576842D01*
X62015000Y-79863740D01*
X62015000Y-80156260D01*
X62072068Y-80443158D01*
X62184010Y-80713411D01*
X62346525Y-80956632D01*
X62553368Y-81163475D01*
X62727760Y-81280000D01*
X62553368Y-81396525D01*
X62346525Y-81603368D01*
X62184010Y-81846589D01*
X62072068Y-82116842D01*
X62015000Y-82403740D01*
X62015000Y-82696260D01*
X62072068Y-82983158D01*
X62184010Y-83253411D01*
X62346525Y-83496632D01*
X62553368Y-83703475D01*
X62735534Y-83825195D01*
X62618645Y-83894822D01*
X62402412Y-84089731D01*
X62228359Y-84323080D01*
X62103175Y-84585901D01*
X62058524Y-84733110D01*
X62179845Y-84963000D01*
X63373000Y-84963000D01*
X63373000Y-84943000D01*
X63627000Y-84943000D01*
X63627000Y-84963000D01*
X64820155Y-84963000D01*
X64941476Y-84733110D01*
X64896825Y-84585901D01*
X64771641Y-84323080D01*
X64597588Y-84089731D01*
X64381355Y-83894822D01*
X64264466Y-83825195D01*
X64446632Y-83703475D01*
X64653475Y-83496632D01*
X64815990Y-83253411D01*
X64927932Y-82983158D01*
X64985000Y-82696260D01*
X64985000Y-82403740D01*
X64927932Y-82116842D01*
X64815990Y-81846589D01*
X64653475Y-81603368D01*
X64446632Y-81396525D01*
X64272240Y-81280000D01*
X64446632Y-81163475D01*
X64653475Y-80956632D01*
X64815990Y-80713411D01*
X64927932Y-80443158D01*
X64985000Y-80156260D01*
X64985000Y-79863740D01*
X64927932Y-79576842D01*
X64815990Y-79306589D01*
X64653475Y-79063368D01*
X64446632Y-78856525D01*
X64272240Y-78740000D01*
X64446632Y-78623475D01*
X64653475Y-78416632D01*
X64815990Y-78173411D01*
X64927932Y-77903158D01*
X64985000Y-77616260D01*
X64985000Y-77323740D01*
X64927932Y-77036842D01*
X64815990Y-76766589D01*
X64653475Y-76523368D01*
X64446632Y-76316525D01*
X64272240Y-76200000D01*
X64446632Y-76083475D01*
X64653475Y-75876632D01*
X64815990Y-75633411D01*
X64927932Y-75363158D01*
X64985000Y-75076260D01*
X64985000Y-74783740D01*
X64927932Y-74496842D01*
X64815990Y-74226589D01*
X64653475Y-73983368D01*
X64446632Y-73776525D01*
X64272240Y-73660000D01*
X64446632Y-73543475D01*
X64653475Y-73336632D01*
X64815990Y-73093411D01*
X64927932Y-72823158D01*
X64985000Y-72536260D01*
X64985000Y-72243740D01*
X64927932Y-71956842D01*
X64815990Y-71686589D01*
X64653475Y-71443368D01*
X64446632Y-71236525D01*
X64272240Y-71120000D01*
X64446632Y-71003475D01*
X64653475Y-70796632D01*
X64815990Y-70553411D01*
X64927932Y-70283158D01*
X64985000Y-69996260D01*
X64985000Y-69703740D01*
X64927932Y-69416842D01*
X64815990Y-69146589D01*
X64653475Y-68903368D01*
X64446632Y-68696525D01*
X64272240Y-68580000D01*
X64446632Y-68463475D01*
X64653475Y-68256632D01*
X64815990Y-68013411D01*
X64927932Y-67743158D01*
X64985000Y-67456260D01*
X64985000Y-67163740D01*
X64927932Y-66876842D01*
X64815990Y-66606589D01*
X64653475Y-66363368D01*
X64446632Y-66156525D01*
X64272240Y-66040000D01*
X64446632Y-65923475D01*
X64653475Y-65716632D01*
X64815990Y-65473411D01*
X64927932Y-65203158D01*
X64985000Y-64916260D01*
X64985000Y-64623740D01*
X64927932Y-64336842D01*
X64815990Y-64066589D01*
X64653475Y-63823368D01*
X64446632Y-63616525D01*
X64272240Y-63500000D01*
X64446632Y-63383475D01*
X64653475Y-63176632D01*
X64815990Y-62933411D01*
X64927932Y-62663158D01*
X64985000Y-62376260D01*
X64985000Y-62083740D01*
X64927932Y-61796842D01*
X64815990Y-61526589D01*
X64653475Y-61283368D01*
X64446632Y-61076525D01*
X64272240Y-60960000D01*
X64446632Y-60843475D01*
X64653475Y-60636632D01*
X64815990Y-60393411D01*
X64927932Y-60123158D01*
X64985000Y-59836260D01*
X64985000Y-59543740D01*
X64927932Y-59256842D01*
X64815990Y-58986589D01*
X64653475Y-58743368D01*
X64446632Y-58536525D01*
X64272240Y-58420000D01*
X64446632Y-58303475D01*
X64653475Y-58096632D01*
X64815990Y-57853411D01*
X64927932Y-57583158D01*
X64985000Y-57296260D01*
X64985000Y-57003740D01*
X64927932Y-56716842D01*
X64815990Y-56446589D01*
X64653475Y-56203368D01*
X64446632Y-55996525D01*
X64272240Y-55880000D01*
X64446632Y-55763475D01*
X64653475Y-55556632D01*
X64815990Y-55313411D01*
X64927932Y-55043158D01*
X64985000Y-54756260D01*
X64985000Y-54463740D01*
X64927932Y-54176842D01*
X64815990Y-53906589D01*
X64653475Y-53663368D01*
X64446632Y-53456525D01*
X64272240Y-53340000D01*
X64446632Y-53223475D01*
X64653475Y-53016632D01*
X64815990Y-52773411D01*
X64927932Y-52503158D01*
X64985000Y-52216260D01*
X64985000Y-51923740D01*
X64927932Y-51636842D01*
X64815990Y-51366589D01*
X64653475Y-51123368D01*
X64446632Y-50916525D01*
X64272240Y-50800000D01*
X64446632Y-50683475D01*
X64653475Y-50476632D01*
X64815990Y-50233411D01*
X64927932Y-49963158D01*
X64985000Y-49676260D01*
X64985000Y-49383740D01*
X64927932Y-49096842D01*
X64815990Y-48826589D01*
X64653475Y-48583368D01*
X64446632Y-48376525D01*
X64272240Y-48260000D01*
X64446632Y-48143475D01*
X64653475Y-47936632D01*
X64815990Y-47693411D01*
X64927932Y-47423158D01*
X64985000Y-47136260D01*
X64985000Y-46843740D01*
X64927932Y-46556842D01*
X64815990Y-46286589D01*
X64653475Y-46043368D01*
X64446632Y-45836525D01*
X64272240Y-45720000D01*
X64446632Y-45603475D01*
X64653475Y-45396632D01*
X64815990Y-45153411D01*
X64927932Y-44883158D01*
X64985000Y-44596260D01*
X64985000Y-44303740D01*
X64927932Y-44016842D01*
X64815990Y-43746589D01*
X64653475Y-43503368D01*
X64446632Y-43296525D01*
X64272240Y-43180000D01*
X64446632Y-43063475D01*
X64653475Y-42856632D01*
X64815990Y-42613411D01*
X64927932Y-42343158D01*
X64985000Y-42056260D01*
X64985000Y-41763740D01*
X64927932Y-41476842D01*
X64815990Y-41206589D01*
X64653475Y-40963368D01*
X64521620Y-40831513D01*
X64594180Y-40809502D01*
X64704494Y-40750537D01*
X64801185Y-40671185D01*
X64880537Y-40574494D01*
X64939502Y-40464180D01*
X64975812Y-40344482D01*
X64988072Y-40220000D01*
X64988072Y-38520000D01*
X77251928Y-38520000D01*
X77251928Y-40220000D01*
X77264188Y-40344482D01*
X77300498Y-40464180D01*
X77359463Y-40574494D01*
X77438815Y-40671185D01*
X77535506Y-40750537D01*
X77645820Y-40809502D01*
X77718380Y-40831513D01*
X77586525Y-40963368D01*
X77424010Y-41206589D01*
X77312068Y-41476842D01*
X77255000Y-41763740D01*
X77255000Y-42056260D01*
X77312068Y-42343158D01*
X77424010Y-42613411D01*
X77586525Y-42856632D01*
X77793368Y-43063475D01*
X77967760Y-43180000D01*
X77793368Y-43296525D01*
X77586525Y-43503368D01*
X77424010Y-43746589D01*
X77312068Y-44016842D01*
X77255000Y-44303740D01*
X77255000Y-44596260D01*
X77312068Y-44883158D01*
X77424010Y-45153411D01*
X77586525Y-45396632D01*
X77793368Y-45603475D01*
X77967760Y-45720000D01*
X77793368Y-45836525D01*
X77586525Y-46043368D01*
X77424010Y-46286589D01*
X77312068Y-46556842D01*
X77255000Y-46843740D01*
X77255000Y-47136260D01*
X77312068Y-47423158D01*
X77424010Y-47693411D01*
X77586525Y-47936632D01*
X77793368Y-48143475D01*
X77967760Y-48260000D01*
X77793368Y-48376525D01*
X77586525Y-48583368D01*
X77424010Y-48826589D01*
X77312068Y-49096842D01*
X77255000Y-49383740D01*
X77255000Y-49676260D01*
X77312068Y-49963158D01*
X77424010Y-50233411D01*
X77586525Y-50476632D01*
X77793368Y-50683475D01*
X77967760Y-50800000D01*
X77793368Y-50916525D01*
X77586525Y-51123368D01*
X77424010Y-51366589D01*
X77312068Y-51636842D01*
X77255000Y-51923740D01*
X77255000Y-52216260D01*
X77312068Y-52503158D01*
X77424010Y-52773411D01*
X77586525Y-53016632D01*
X77793368Y-53223475D01*
X77967760Y-53340000D01*
X77793368Y-53456525D01*
X77586525Y-53663368D01*
X77424010Y-53906589D01*
X77312068Y-54176842D01*
X77255000Y-54463740D01*
X77255000Y-54756260D01*
X77312068Y-55043158D01*
X77424010Y-55313411D01*
X77586525Y-55556632D01*
X77793368Y-55763475D01*
X77967760Y-55880000D01*
X77793368Y-55996525D01*
X77586525Y-56203368D01*
X77424010Y-56446589D01*
X77312068Y-56716842D01*
X77255000Y-57003740D01*
X77255000Y-57296260D01*
X77312068Y-57583158D01*
X77424010Y-57853411D01*
X77586525Y-58096632D01*
X77793368Y-58303475D01*
X77967760Y-58420000D01*
X77793368Y-58536525D01*
X77586525Y-58743368D01*
X77424010Y-58986589D01*
X77312068Y-59256842D01*
X77255000Y-59543740D01*
X77255000Y-59836260D01*
X77312068Y-60123158D01*
X77424010Y-60393411D01*
X77586525Y-60636632D01*
X77793368Y-60843475D01*
X77967760Y-60960000D01*
X77793368Y-61076525D01*
X77586525Y-61283368D01*
X77424010Y-61526589D01*
X77312068Y-61796842D01*
X77255000Y-62083740D01*
X77255000Y-62376260D01*
X77312068Y-62663158D01*
X77424010Y-62933411D01*
X77586525Y-63176632D01*
X77793368Y-63383475D01*
X77967760Y-63500000D01*
X77793368Y-63616525D01*
X77586525Y-63823368D01*
X77424010Y-64066589D01*
X77312068Y-64336842D01*
X77255000Y-64623740D01*
X77255000Y-64916260D01*
X77312068Y-65203158D01*
X77424010Y-65473411D01*
X77586525Y-65716632D01*
X77793368Y-65923475D01*
X77967760Y-66040000D01*
X77793368Y-66156525D01*
X77586525Y-66363368D01*
X77424010Y-66606589D01*
X77312068Y-66876842D01*
X77255000Y-67163740D01*
X77255000Y-67456260D01*
X77312068Y-67743158D01*
X77424010Y-68013411D01*
X77586525Y-68256632D01*
X77793368Y-68463475D01*
X77967760Y-68580000D01*
X77793368Y-68696525D01*
X77586525Y-68903368D01*
X77424010Y-69146589D01*
X77312068Y-69416842D01*
X77255000Y-69703740D01*
X77255000Y-69996260D01*
X77312068Y-70283158D01*
X77424010Y-70553411D01*
X77586525Y-70796632D01*
X77793368Y-71003475D01*
X77967760Y-71120000D01*
X77793368Y-71236525D01*
X77586525Y-71443368D01*
X77424010Y-71686589D01*
X77312068Y-71956842D01*
X77255000Y-72243740D01*
X77255000Y-72536260D01*
X77312068Y-72823158D01*
X77424010Y-73093411D01*
X77586525Y-73336632D01*
X77793368Y-73543475D01*
X77967760Y-73660000D01*
X77793368Y-73776525D01*
X77586525Y-73983368D01*
X77424010Y-74226589D01*
X77312068Y-74496842D01*
X77255000Y-74783740D01*
X77255000Y-75076260D01*
X77312068Y-75363158D01*
X77424010Y-75633411D01*
X77586525Y-75876632D01*
X77793368Y-76083475D01*
X77967760Y-76200000D01*
X77793368Y-76316525D01*
X77586525Y-76523368D01*
X77424010Y-76766589D01*
X77312068Y-77036842D01*
X77255000Y-77323740D01*
X77255000Y-77616260D01*
X77312068Y-77903158D01*
X77424010Y-78173411D01*
X77586525Y-78416632D01*
X77793368Y-78623475D01*
X77967760Y-78740000D01*
X77793368Y-78856525D01*
X77586525Y-79063368D01*
X77424010Y-79306589D01*
X77312068Y-79576842D01*
X77255000Y-79863740D01*
X77255000Y-80156260D01*
X77312068Y-80443158D01*
X77424010Y-80713411D01*
X77586525Y-80956632D01*
X77793368Y-81163475D01*
X77967760Y-81280000D01*
X77793368Y-81396525D01*
X77586525Y-81603368D01*
X77424010Y-81846589D01*
X77312068Y-82116842D01*
X77255000Y-82403740D01*
X77255000Y-82696260D01*
X77312068Y-82983158D01*
X77424010Y-83253411D01*
X77586525Y-83496632D01*
X77793368Y-83703475D01*
X77967760Y-83820000D01*
X77793368Y-83936525D01*
X77586525Y-84143368D01*
X77424010Y-84386589D01*
X77312068Y-84656842D01*
X77255000Y-84943740D01*
X77255000Y-85236260D01*
X77312068Y-85523158D01*
X77424010Y-85793411D01*
X77586525Y-86036632D01*
X77793368Y-86243475D01*
X77967760Y-86360000D01*
X77793368Y-86476525D01*
X77586525Y-86683368D01*
X77424010Y-86926589D01*
X77312068Y-87196842D01*
X77255000Y-87483740D01*
X77255000Y-87776260D01*
X77312068Y-88063158D01*
X77424010Y-88333411D01*
X77586525Y-88576632D01*
X77793368Y-88783475D01*
X78036589Y-88945990D01*
X78306842Y-89057932D01*
X78593740Y-89115000D01*
X78886260Y-89115000D01*
X79173158Y-89057932D01*
X79443411Y-88945990D01*
X79686632Y-88783475D01*
X79893475Y-88576632D01*
X80055990Y-88333411D01*
X80167932Y-88063158D01*
X80225000Y-87776260D01*
X80225000Y-87483740D01*
X80167932Y-87196842D01*
X80055990Y-86926589D01*
X79893475Y-86683368D01*
X79686632Y-86476525D01*
X79512240Y-86360000D01*
X79686632Y-86243475D01*
X79893475Y-86036632D01*
X80055990Y-85793411D01*
X80167932Y-85523158D01*
X80225000Y-85236260D01*
X80225000Y-84943740D01*
X80167932Y-84656842D01*
X80055990Y-84386589D01*
X79893475Y-84143368D01*
X79686632Y-83936525D01*
X79512240Y-83820000D01*
X79686632Y-83703475D01*
X79893475Y-83496632D01*
X80055990Y-83253411D01*
X80167932Y-82983158D01*
X80225000Y-82696260D01*
X80225000Y-82403740D01*
X80167932Y-82116842D01*
X80055990Y-81846589D01*
X79893475Y-81603368D01*
X79686632Y-81396525D01*
X79512240Y-81280000D01*
X79686632Y-81163475D01*
X79893475Y-80956632D01*
X80055990Y-80713411D01*
X80167932Y-80443158D01*
X80225000Y-80156260D01*
X80225000Y-79863740D01*
X80167932Y-79576842D01*
X80055990Y-79306589D01*
X79893475Y-79063368D01*
X79686632Y-78856525D01*
X79512240Y-78740000D01*
X79686632Y-78623475D01*
X79893475Y-78416632D01*
X80055990Y-78173411D01*
X80167932Y-77903158D01*
X80225000Y-77616260D01*
X80225000Y-77323740D01*
X80167932Y-77036842D01*
X80055990Y-76766589D01*
X79893475Y-76523368D01*
X79686632Y-76316525D01*
X79512240Y-76200000D01*
X79686632Y-76083475D01*
X79893475Y-75876632D01*
X80055990Y-75633411D01*
X80167932Y-75363158D01*
X80225000Y-75076260D01*
X80225000Y-74783740D01*
X80167932Y-74496842D01*
X80055990Y-74226589D01*
X79893475Y-73983368D01*
X79686632Y-73776525D01*
X79512240Y-73660000D01*
X79686632Y-73543475D01*
X79893475Y-73336632D01*
X80055990Y-73093411D01*
X80167932Y-72823158D01*
X80225000Y-72536260D01*
X80225000Y-72243740D01*
X80167932Y-71956842D01*
X80055990Y-71686589D01*
X79893475Y-71443368D01*
X79686632Y-71236525D01*
X79512240Y-71120000D01*
X79686632Y-71003475D01*
X79893475Y-70796632D01*
X80055990Y-70553411D01*
X80167932Y-70283158D01*
X80225000Y-69996260D01*
X80225000Y-69703740D01*
X80167932Y-69416842D01*
X80055990Y-69146589D01*
X79893475Y-68903368D01*
X79686632Y-68696525D01*
X79512240Y-68580000D01*
X79686632Y-68463475D01*
X79893475Y-68256632D01*
X80055990Y-68013411D01*
X80167932Y-67743158D01*
X80225000Y-67456260D01*
X80225000Y-67163740D01*
X80167932Y-66876842D01*
X80055990Y-66606589D01*
X79893475Y-66363368D01*
X79686632Y-66156525D01*
X79512240Y-66040000D01*
X79686632Y-65923475D01*
X79893475Y-65716632D01*
X80055990Y-65473411D01*
X80167932Y-65203158D01*
X80225000Y-64916260D01*
X80225000Y-64623740D01*
X80167932Y-64336842D01*
X80055990Y-64066589D01*
X79893475Y-63823368D01*
X79686632Y-63616525D01*
X79512240Y-63500000D01*
X79686632Y-63383475D01*
X79893475Y-63176632D01*
X80055990Y-62933411D01*
X80167932Y-62663158D01*
X80225000Y-62376260D01*
X80225000Y-62083740D01*
X80167932Y-61796842D01*
X80055990Y-61526589D01*
X79893475Y-61283368D01*
X79686632Y-61076525D01*
X79512240Y-60960000D01*
X79686632Y-60843475D01*
X79893475Y-60636632D01*
X80055990Y-60393411D01*
X80167932Y-60123158D01*
X80225000Y-59836260D01*
X80225000Y-59543740D01*
X80167932Y-59256842D01*
X80055990Y-58986589D01*
X79893475Y-58743368D01*
X79686632Y-58536525D01*
X79512240Y-58420000D01*
X79686632Y-58303475D01*
X79893475Y-58096632D01*
X80055990Y-57853411D01*
X80167932Y-57583158D01*
X80225000Y-57296260D01*
X80225000Y-57003740D01*
X80167932Y-56716842D01*
X80055990Y-56446589D01*
X79893475Y-56203368D01*
X79686632Y-55996525D01*
X79512240Y-55880000D01*
X79686632Y-55763475D01*
X79893475Y-55556632D01*
X80055990Y-55313411D01*
X80167932Y-55043158D01*
X80225000Y-54756260D01*
X80225000Y-54463740D01*
X80167932Y-54176842D01*
X80055990Y-53906589D01*
X79893475Y-53663368D01*
X79686632Y-53456525D01*
X79512240Y-53340000D01*
X79686632Y-53223475D01*
X79893475Y-53016632D01*
X80055990Y-52773411D01*
X80167932Y-52503158D01*
X80225000Y-52216260D01*
X80225000Y-51923740D01*
X80167932Y-51636842D01*
X80055990Y-51366589D01*
X79893475Y-51123368D01*
X79686632Y-50916525D01*
X79512240Y-50800000D01*
X79686632Y-50683475D01*
X79893475Y-50476632D01*
X80055990Y-50233411D01*
X80167932Y-49963158D01*
X80225000Y-49676260D01*
X80225000Y-49383740D01*
X80167932Y-49096842D01*
X80055990Y-48826589D01*
X79893475Y-48583368D01*
X79686632Y-48376525D01*
X79512240Y-48260000D01*
X79686632Y-48143475D01*
X79893475Y-47936632D01*
X80055990Y-47693411D01*
X80167932Y-47423158D01*
X80225000Y-47136260D01*
X80225000Y-46843740D01*
X80167932Y-46556842D01*
X80055990Y-46286589D01*
X79893475Y-46043368D01*
X79686632Y-45836525D01*
X79512240Y-45720000D01*
X79686632Y-45603475D01*
X79893475Y-45396632D01*
X80055990Y-45153411D01*
X80167932Y-44883158D01*
X80225000Y-44596260D01*
X80225000Y-44303740D01*
X80167932Y-44016842D01*
X80055990Y-43746589D01*
X79893475Y-43503368D01*
X79686632Y-43296525D01*
X79512240Y-43180000D01*
X79686632Y-43063475D01*
X79893475Y-42856632D01*
X80055990Y-42613411D01*
X80167932Y-42343158D01*
X80225000Y-42056260D01*
X80225000Y-41763740D01*
X80167932Y-41476842D01*
X80055990Y-41206589D01*
X79893475Y-40963368D01*
X79761620Y-40831513D01*
X79834180Y-40809502D01*
X79944494Y-40750537D01*
X80041185Y-40671185D01*
X80120537Y-40574494D01*
X80179502Y-40464180D01*
X80215812Y-40344482D01*
X80228072Y-40220000D01*
X80228072Y-38520000D01*
X80215812Y-38395518D01*
X80179502Y-38275820D01*
X80120537Y-38165506D01*
X80041185Y-38068815D01*
X79944494Y-37989463D01*
X79834180Y-37930498D01*
X79714482Y-37894188D01*
X79590000Y-37881928D01*
X77890000Y-37881928D01*
X77765518Y-37894188D01*
X77645820Y-37930498D01*
X77535506Y-37989463D01*
X77438815Y-38068815D01*
X77359463Y-38165506D01*
X77300498Y-38275820D01*
X77264188Y-38395518D01*
X77251928Y-38520000D01*
X64988072Y-38520000D01*
X64975812Y-38395518D01*
X64939502Y-38275820D01*
X64880537Y-38165506D01*
X64801185Y-38068815D01*
X64704494Y-37989463D01*
X64594180Y-37930498D01*
X64474482Y-37894188D01*
X64350000Y-37881928D01*
X62650000Y-37881928D01*
X62525518Y-37894188D01*
X62405820Y-37930498D01*
X62295506Y-37989463D01*
X62198815Y-38068815D01*
X62119463Y-38165506D01*
X62060498Y-38275820D01*
X62024188Y-38395518D01*
X62011928Y-38520000D01*
X55535242Y-38520000D01*
X55575000Y-38320128D01*
X55575000Y-37879872D01*
X55489110Y-37448075D01*
X55320631Y-37041331D01*
X55264283Y-36957000D01*
X82423000Y-36957000D01*
X82423000Y-107823000D01*
G37*
%TD.AperFunction*%
%TD*%
M02*
