M48
; DRILL file {KiCad 5.1.10-88a1d61d58~90~ubuntu20.04.1} date Tue Nov 30 21:16:35 2021
; FORMAT={-:-/ absolute / inch / decimal}
; #@! TF.CreationDate,2021-11-30T21:16:35+09:00
; #@! TF.GenerationSoftware,Kicad,Pcbnew,5.1.10-88a1d61d58~90~ubuntu20.04.1
FMAT,2
INCH
T1C0.0315
T2C0.0394
T3C0.1181
%
G90
G05
T1
X3.6Y-2.85
X3.6Y-3.15
T2
X2.2Y-3.65
X2.2Y-3.75
X2.2Y-3.85
X2.2Y-3.95
X2.2Y-4.05
X2.2Y-4.15
X2.25Y-1.75
X2.25Y-2.05
X2.25Y-2.85
X2.25Y-2.95
X2.25Y-3.05
X2.25Y-3.15
X2.5Y-1.55
X2.5Y-1.65
X2.5Y-1.75
X2.5Y-1.85
X2.5Y-1.95
X2.5Y-2.05
X2.5Y-2.15
X2.5Y-2.25
X2.5Y-2.35
X2.5Y-2.45
X2.5Y-2.55
X2.5Y-2.65
X2.5Y-2.75
X2.5Y-2.85
X2.5Y-2.95
X2.5Y-3.05
X2.5Y-3.15
X2.5Y-3.25
X2.5Y-3.35
X2.5Y-3.45
X2.65Y-4.05
X2.75Y-4.05
X2.85Y-4.05
X2.95Y-4.05
X3.1Y-1.55
X3.1Y-1.65
X3.1Y-1.75
X3.1Y-1.85
X3.1Y-1.95
X3.1Y-2.05
X3.1Y-2.15
X3.1Y-2.25
X3.1Y-2.35
X3.1Y-2.45
X3.1Y-2.55
X3.1Y-2.65
X3.1Y-2.75
X3.1Y-2.85
X3.1Y-2.95
X3.1Y-3.05
X3.1Y-3.15
X3.1Y-3.25
X3.1Y-3.35
X3.1Y-3.45
X3.6Y-2.6
X3.85Y-1.8
X3.85Y-2.1
X3.85Y-2.6
X3.85Y-2.9
X3.85Y-3.0
X3.85Y-3.1
X3.85Y-3.2
X3.85Y-3.65
X3.85Y-3.75
X3.85Y-3.85
X4.1Y-1.6
X4.1Y-1.7
X4.1Y-1.8
X4.1Y-1.9
X4.1Y-2.0
X4.1Y-2.1
X4.1Y-2.2
X4.1Y-2.3
X4.1Y-2.4
X4.1Y-2.5
X4.1Y-2.6
X4.1Y-2.7
X4.1Y-2.8
X4.1Y-2.9
X4.1Y-3.0
X4.1Y-3.1
X4.1Y-3.2
X4.1Y-3.3
X4.1Y-3.4
X4.1Y-3.5
X4.7Y-1.6
X4.7Y-1.7
X4.7Y-1.8
X4.7Y-1.9
X4.7Y-2.0
X4.7Y-2.1
X4.7Y-2.2
X4.7Y-2.3
X4.7Y-2.4
X4.7Y-2.5
X4.7Y-2.6
X4.7Y-2.7
X4.7Y-2.8
X4.7Y-2.9
X4.7Y-3.0
X4.7Y-3.1
X4.7Y-3.2
X4.7Y-3.3
X4.7Y-3.4
X4.7Y-3.5
T3
X2.1Y-1.5
X3.15Y-4.15
X3.6Y-1.55
X4.7Y-3.85
T0
M30
