%TF.GenerationSoftware,KiCad,Pcbnew,5.1.10-88a1d61d58~90~ubuntu20.04.1*%
%TF.CreationDate,2021-11-29T14:26:11+09:00*%
%TF.ProjectId,auto-headlight-control-system,6175746f-2d68-4656-9164-6c696768742d,rev?*%
%TF.SameCoordinates,Original*%
%TF.FileFunction,Copper,L2,Bot*%
%TF.FilePolarity,Positive*%
%FSLAX46Y46*%
G04 Gerber Fmt 4.6, Leading zero omitted, Abs format (unit mm)*
G04 Created by KiCad (PCBNEW 5.1.10-88a1d61d58~90~ubuntu20.04.1) date 2021-11-29 14:26:11*
%MOMM*%
%LPD*%
G01*
G04 APERTURE LIST*
%TA.AperFunction,ComponentPad*%
%ADD10C,3.200000*%
%TD*%
%TA.AperFunction,ComponentPad*%
%ADD11O,1.700000X1.700000*%
%TD*%
%TA.AperFunction,ComponentPad*%
%ADD12R,1.700000X1.700000*%
%TD*%
%TA.AperFunction,Conductor*%
%ADD13C,0.750000*%
%TD*%
%TA.AperFunction,Conductor*%
%ADD14C,0.254000*%
%TD*%
%TA.AperFunction,Conductor*%
%ADD15C,0.100000*%
%TD*%
G04 APERTURE END LIST*
D10*
%TO.P, ,1*%
%TO.N,N/C*%
X80010000Y-105410000D03*
%TD*%
%TO.P, ,1*%
%TO.N,N/C*%
X53340000Y-38100000D03*
%TD*%
D11*
%TO.P,U2,20*%
%TO.N,Net-(U2-Pad20)*%
X78740000Y-87630000D03*
%TO.P,U2,19*%
%TO.N,Net-(U2-Pad19)*%
X78740000Y-85090000D03*
%TO.P,U2,18*%
%TO.N,Net-(U2-Pad18)*%
X78740000Y-82550000D03*
%TO.P,U2,17*%
%TO.N,Net-(U2-Pad17)*%
X78740000Y-80010000D03*
%TO.P,U2,16*%
%TO.N,Net-(U2-Pad16)*%
X78740000Y-77470000D03*
%TO.P,U2,15*%
%TO.N,Net-(U2-Pad15)*%
X78740000Y-74930000D03*
%TO.P,U2,14*%
%TO.N,Net-(U2-Pad14)*%
X78740000Y-72390000D03*
%TO.P,U2,13*%
%TO.N,Net-(U2-Pad13)*%
X78740000Y-69850000D03*
%TO.P,U2,12*%
%TO.N,Net-(U2-Pad12)*%
X78740000Y-67310000D03*
%TO.P,U2,11*%
%TO.N,Net-(U2-Pad11)*%
X78740000Y-64770000D03*
%TO.P,U2,10*%
%TO.N,Net-(U2-Pad10)*%
X78740000Y-62230000D03*
%TO.P,U2,9*%
%TO.N,Net-(U2-Pad9)*%
X78740000Y-59690000D03*
%TO.P,U2,8*%
%TO.N,Net-(U2-Pad8)*%
X78740000Y-57150000D03*
%TO.P,U2,7*%
%TO.N,Net-(U2-Pad7)*%
X78740000Y-54610000D03*
%TO.P,U2,6*%
%TO.N,Net-(U2-Pad6)*%
X78740000Y-52070000D03*
%TO.P,U2,5*%
%TO.N,Net-(U2-Pad5)*%
X78740000Y-49530000D03*
%TO.P,U2,4*%
%TO.N,Net-(U2-Pad4)*%
X78740000Y-46990000D03*
%TO.P,U2,3*%
%TO.N,Net-(U2-Pad3)*%
X78740000Y-44450000D03*
%TO.P,U2,2*%
%TO.N,Net-(U2-Pad2)*%
X78740000Y-41910000D03*
D12*
%TO.P,U2,1*%
%TO.N,Net-(U2-Pad1)*%
X78740000Y-39370000D03*
%TD*%
%TO.P,S1,1*%
%TO.N,SCL*%
X55880000Y-105410000D03*
D11*
%TO.P,S1,2*%
%TO.N,SDA*%
X55880000Y-102870000D03*
%TO.P,S1,3*%
%TO.N,Net-(S1-Pad3)*%
X55880000Y-100330000D03*
%TO.P,S1,4*%
%TO.N,Net-(S1-Pad4)*%
X55880000Y-97790000D03*
%TO.P,S1,5*%
%TO.N,GND_1*%
X55880000Y-95250000D03*
%TO.P,S1,6*%
%TO.N,3V3_1*%
X55880000Y-92710000D03*
%TD*%
D12*
%TO.P,U1,1*%
%TO.N,Net-(U1-Pad1)*%
X63500000Y-39370000D03*
D11*
%TO.P,U1,2*%
%TO.N,Net-(U1-Pad2)*%
X63500000Y-41910000D03*
%TO.P,U1,3*%
%TO.N,Net-(U1-Pad3)*%
X63500000Y-44450000D03*
%TO.P,U1,4*%
%TO.N,Net-(U1-Pad4)*%
X63500000Y-46990000D03*
%TO.P,U1,5*%
%TO.N,Net-(U1-Pad5)*%
X63500000Y-49530000D03*
%TO.P,U1,6*%
%TO.N,Serial_Tx_1*%
X63500000Y-52070000D03*
%TO.P,U1,7*%
%TO.N,Net-(U1-Pad7)*%
X63500000Y-54610000D03*
%TO.P,U1,8*%
%TO.N,Net-(U1-Pad8)*%
X63500000Y-57150000D03*
%TO.P,U1,9*%
%TO.N,Net-(U1-Pad9)*%
X63500000Y-59690000D03*
%TO.P,U1,10*%
%TO.N,Net-(U1-Pad10)*%
X63500000Y-62230000D03*
%TO.P,U1,11*%
%TO.N,Net-(U1-Pad11)*%
X63500000Y-64770000D03*
%TO.P,U1,12*%
%TO.N,Net-(U1-Pad12)*%
X63500000Y-67310000D03*
%TO.P,U1,13*%
%TO.N,Net-(U1-Pad13)*%
X63500000Y-69850000D03*
%TO.P,U1,14*%
%TO.N,SCL*%
X63500000Y-72390000D03*
%TO.P,U1,15*%
%TO.N,SDA*%
X63500000Y-74930000D03*
%TO.P,U1,16*%
%TO.N,CAN_RX_1*%
X63500000Y-77470000D03*
%TO.P,U1,17*%
%TO.N,CAN_TX_1*%
X63500000Y-80010000D03*
%TO.P,U1,18*%
%TO.N,Net-(U1-Pad18)*%
X63500000Y-82550000D03*
%TO.P,U1,19*%
%TO.N,GND_1*%
X63500000Y-85090000D03*
%TO.P,U1,20*%
%TO.N,3V3_1*%
X63500000Y-87630000D03*
%TD*%
D12*
%TO.P,S2,1*%
%TO.N,GND_1*%
X74930000Y-102870000D03*
D11*
%TO.P,S2,2*%
%TO.N,3V3_1*%
X72390000Y-102870000D03*
%TO.P,S2,3*%
%TO.N,SCL*%
X69850000Y-102870000D03*
%TO.P,S2,4*%
%TO.N,SDA*%
X67310000Y-102870000D03*
%TD*%
%TO.P,T1,4*%
%TO.N,CAN_TX_1*%
X57150000Y-80010000D03*
%TO.P,T1,3*%
%TO.N,CAN_RX_1*%
X57150000Y-77470000D03*
%TO.P,T1,2*%
%TO.N,GND_1*%
X57150000Y-74930000D03*
D12*
%TO.P,T1,1*%
%TO.N,3V3_1*%
X57150000Y-72390000D03*
%TD*%
%TO.P,J2,1*%
%TO.N,GND_1*%
X57150000Y-44450000D03*
%TD*%
%TO.P,J1,1*%
%TO.N,Serial_Tx_1*%
X57150000Y-52070000D03*
%TD*%
D13*
%TO.N,3V3_1*%
X63500000Y-87630000D02*
X68580000Y-87630000D01*
X57150000Y-72390000D02*
X58420000Y-72390000D01*
X58420000Y-72390000D02*
X59690000Y-73660000D01*
X59690000Y-73660000D02*
X59690000Y-86360000D01*
X60960000Y-87630000D02*
X63500000Y-87630000D01*
X59690000Y-86360000D02*
X60960000Y-87630000D01*
X72390000Y-102870000D02*
X72390000Y-91440000D01*
X72390000Y-91440000D02*
X68580000Y-87630000D01*
X55880000Y-92710000D02*
X60960000Y-92710000D01*
X63500000Y-90170000D02*
X63500000Y-87630000D01*
X60960000Y-92710000D02*
X63500000Y-90170000D01*
%TD*%
D14*
%TO.N,GND_1*%
X82423000Y-107823000D02*
X52197000Y-107823000D01*
X52197000Y-104560000D01*
X54391928Y-104560000D01*
X54391928Y-106260000D01*
X54404188Y-106384482D01*
X54440498Y-106504180D01*
X54499463Y-106614494D01*
X54578815Y-106711185D01*
X54675506Y-106790537D01*
X54785820Y-106849502D01*
X54905518Y-106885812D01*
X55030000Y-106898072D01*
X56730000Y-106898072D01*
X56854482Y-106885812D01*
X56974180Y-106849502D01*
X57084494Y-106790537D01*
X57181185Y-106711185D01*
X57260537Y-106614494D01*
X57319502Y-106504180D01*
X57355812Y-106384482D01*
X57368072Y-106260000D01*
X57368072Y-105189872D01*
X77775000Y-105189872D01*
X77775000Y-105630128D01*
X77860890Y-106061925D01*
X78029369Y-106468669D01*
X78273962Y-106834729D01*
X78585271Y-107146038D01*
X78951331Y-107390631D01*
X79358075Y-107559110D01*
X79789872Y-107645000D01*
X80230128Y-107645000D01*
X80661925Y-107559110D01*
X81068669Y-107390631D01*
X81434729Y-107146038D01*
X81746038Y-106834729D01*
X81990631Y-106468669D01*
X82159110Y-106061925D01*
X82245000Y-105630128D01*
X82245000Y-105189872D01*
X82159110Y-104758075D01*
X81990631Y-104351331D01*
X81746038Y-103985271D01*
X81434729Y-103673962D01*
X81068669Y-103429369D01*
X80661925Y-103260890D01*
X80230128Y-103175000D01*
X79789872Y-103175000D01*
X79358075Y-103260890D01*
X78951331Y-103429369D01*
X78585271Y-103673962D01*
X78273962Y-103985271D01*
X78029369Y-104351331D01*
X77860890Y-104758075D01*
X77775000Y-105189872D01*
X57368072Y-105189872D01*
X57368072Y-104560000D01*
X57355812Y-104435518D01*
X57319502Y-104315820D01*
X57260537Y-104205506D01*
X57181185Y-104108815D01*
X57084494Y-104029463D01*
X56974180Y-103970498D01*
X56901620Y-103948487D01*
X57033475Y-103816632D01*
X57195990Y-103573411D01*
X57307932Y-103303158D01*
X57365000Y-103016260D01*
X57365000Y-102723740D01*
X57307932Y-102436842D01*
X57195990Y-102166589D01*
X57033475Y-101923368D01*
X56826632Y-101716525D01*
X56652240Y-101600000D01*
X56826632Y-101483475D01*
X57033475Y-101276632D01*
X57195990Y-101033411D01*
X57307932Y-100763158D01*
X57365000Y-100476260D01*
X57365000Y-100183740D01*
X57307932Y-99896842D01*
X57195990Y-99626589D01*
X57033475Y-99383368D01*
X56826632Y-99176525D01*
X56652240Y-99060000D01*
X56826632Y-98943475D01*
X57033475Y-98736632D01*
X57195990Y-98493411D01*
X57307932Y-98223158D01*
X57365000Y-97936260D01*
X57365000Y-97643740D01*
X57307932Y-97356842D01*
X57195990Y-97086589D01*
X57033475Y-96843368D01*
X56826632Y-96636525D01*
X56644466Y-96514805D01*
X56761355Y-96445178D01*
X56977588Y-96250269D01*
X57151641Y-96016920D01*
X57276825Y-95754099D01*
X57321476Y-95606890D01*
X57200155Y-95377000D01*
X56007000Y-95377000D01*
X56007000Y-95397000D01*
X55753000Y-95397000D01*
X55753000Y-95377000D01*
X54559845Y-95377000D01*
X54438524Y-95606890D01*
X54483175Y-95754099D01*
X54608359Y-96016920D01*
X54782412Y-96250269D01*
X54998645Y-96445178D01*
X55115534Y-96514805D01*
X54933368Y-96636525D01*
X54726525Y-96843368D01*
X54564010Y-97086589D01*
X54452068Y-97356842D01*
X54395000Y-97643740D01*
X54395000Y-97936260D01*
X54452068Y-98223158D01*
X54564010Y-98493411D01*
X54726525Y-98736632D01*
X54933368Y-98943475D01*
X55107760Y-99060000D01*
X54933368Y-99176525D01*
X54726525Y-99383368D01*
X54564010Y-99626589D01*
X54452068Y-99896842D01*
X54395000Y-100183740D01*
X54395000Y-100476260D01*
X54452068Y-100763158D01*
X54564010Y-101033411D01*
X54726525Y-101276632D01*
X54933368Y-101483475D01*
X55107760Y-101600000D01*
X54933368Y-101716525D01*
X54726525Y-101923368D01*
X54564010Y-102166589D01*
X54452068Y-102436842D01*
X54395000Y-102723740D01*
X54395000Y-103016260D01*
X54452068Y-103303158D01*
X54564010Y-103573411D01*
X54726525Y-103816632D01*
X54858380Y-103948487D01*
X54785820Y-103970498D01*
X54675506Y-104029463D01*
X54578815Y-104108815D01*
X54499463Y-104205506D01*
X54440498Y-104315820D01*
X54404188Y-104435518D01*
X54391928Y-104560000D01*
X52197000Y-104560000D01*
X52197000Y-92563740D01*
X54395000Y-92563740D01*
X54395000Y-92856260D01*
X54452068Y-93143158D01*
X54564010Y-93413411D01*
X54726525Y-93656632D01*
X54933368Y-93863475D01*
X55115534Y-93985195D01*
X54998645Y-94054822D01*
X54782412Y-94249731D01*
X54608359Y-94483080D01*
X54483175Y-94745901D01*
X54438524Y-94893110D01*
X54559845Y-95123000D01*
X55753000Y-95123000D01*
X55753000Y-95103000D01*
X56007000Y-95103000D01*
X56007000Y-95123000D01*
X57200155Y-95123000D01*
X57321476Y-94893110D01*
X57276825Y-94745901D01*
X57151641Y-94483080D01*
X56977588Y-94249731D01*
X56761355Y-94054822D01*
X56644466Y-93985195D01*
X56826632Y-93863475D01*
X56970107Y-93720000D01*
X60910392Y-93720000D01*
X60960000Y-93724886D01*
X61157994Y-93705385D01*
X61348380Y-93647632D01*
X61523840Y-93553847D01*
X61677633Y-93427633D01*
X61709261Y-93389094D01*
X64179100Y-90919256D01*
X64217633Y-90887633D01*
X64343847Y-90733840D01*
X64437632Y-90558380D01*
X64495385Y-90367994D01*
X64510000Y-90219608D01*
X64510000Y-90219606D01*
X64514886Y-90170001D01*
X64510000Y-90120396D01*
X64510000Y-88720107D01*
X64590107Y-88640000D01*
X68161645Y-88640000D01*
X71380001Y-91858357D01*
X71380000Y-101779893D01*
X71236525Y-101923368D01*
X71120000Y-102097760D01*
X71003475Y-101923368D01*
X70796632Y-101716525D01*
X70553411Y-101554010D01*
X70283158Y-101442068D01*
X69996260Y-101385000D01*
X69703740Y-101385000D01*
X69416842Y-101442068D01*
X69146589Y-101554010D01*
X68903368Y-101716525D01*
X68696525Y-101923368D01*
X68580000Y-102097760D01*
X68463475Y-101923368D01*
X68256632Y-101716525D01*
X68013411Y-101554010D01*
X67743158Y-101442068D01*
X67456260Y-101385000D01*
X67163740Y-101385000D01*
X66876842Y-101442068D01*
X66606589Y-101554010D01*
X66363368Y-101716525D01*
X66156525Y-101923368D01*
X65994010Y-102166589D01*
X65882068Y-102436842D01*
X65825000Y-102723740D01*
X65825000Y-103016260D01*
X65882068Y-103303158D01*
X65994010Y-103573411D01*
X66156525Y-103816632D01*
X66363368Y-104023475D01*
X66606589Y-104185990D01*
X66876842Y-104297932D01*
X67163740Y-104355000D01*
X67456260Y-104355000D01*
X67743158Y-104297932D01*
X68013411Y-104185990D01*
X68256632Y-104023475D01*
X68463475Y-103816632D01*
X68580000Y-103642240D01*
X68696525Y-103816632D01*
X68903368Y-104023475D01*
X69146589Y-104185990D01*
X69416842Y-104297932D01*
X69703740Y-104355000D01*
X69996260Y-104355000D01*
X70283158Y-104297932D01*
X70553411Y-104185990D01*
X70796632Y-104023475D01*
X71003475Y-103816632D01*
X71120000Y-103642240D01*
X71236525Y-103816632D01*
X71443368Y-104023475D01*
X71686589Y-104185990D01*
X71956842Y-104297932D01*
X72243740Y-104355000D01*
X72536260Y-104355000D01*
X72823158Y-104297932D01*
X73093411Y-104185990D01*
X73336632Y-104023475D01*
X73468487Y-103891620D01*
X73490498Y-103964180D01*
X73549463Y-104074494D01*
X73628815Y-104171185D01*
X73725506Y-104250537D01*
X73835820Y-104309502D01*
X73955518Y-104345812D01*
X74080000Y-104358072D01*
X74644250Y-104355000D01*
X74803000Y-104196250D01*
X74803000Y-102997000D01*
X75057000Y-102997000D01*
X75057000Y-104196250D01*
X75215750Y-104355000D01*
X75780000Y-104358072D01*
X75904482Y-104345812D01*
X76024180Y-104309502D01*
X76134494Y-104250537D01*
X76231185Y-104171185D01*
X76310537Y-104074494D01*
X76369502Y-103964180D01*
X76405812Y-103844482D01*
X76418072Y-103720000D01*
X76415000Y-103155750D01*
X76256250Y-102997000D01*
X75057000Y-102997000D01*
X74803000Y-102997000D01*
X74783000Y-102997000D01*
X74783000Y-102743000D01*
X74803000Y-102743000D01*
X74803000Y-101543750D01*
X75057000Y-101543750D01*
X75057000Y-102743000D01*
X76256250Y-102743000D01*
X76415000Y-102584250D01*
X76418072Y-102020000D01*
X76405812Y-101895518D01*
X76369502Y-101775820D01*
X76310537Y-101665506D01*
X76231185Y-101568815D01*
X76134494Y-101489463D01*
X76024180Y-101430498D01*
X75904482Y-101394188D01*
X75780000Y-101381928D01*
X75215750Y-101385000D01*
X75057000Y-101543750D01*
X74803000Y-101543750D01*
X74644250Y-101385000D01*
X74080000Y-101381928D01*
X73955518Y-101394188D01*
X73835820Y-101430498D01*
X73725506Y-101489463D01*
X73628815Y-101568815D01*
X73549463Y-101665506D01*
X73490498Y-101775820D01*
X73468487Y-101848380D01*
X73400000Y-101779893D01*
X73400000Y-91489608D01*
X73404886Y-91440000D01*
X73385385Y-91242005D01*
X73327632Y-91051620D01*
X73233846Y-90876159D01*
X73139256Y-90760900D01*
X73107633Y-90722367D01*
X73069100Y-90690744D01*
X69329261Y-86950906D01*
X69297633Y-86912367D01*
X69143840Y-86786153D01*
X68968380Y-86692368D01*
X68777994Y-86634615D01*
X68629608Y-86620000D01*
X68580000Y-86615114D01*
X68530392Y-86620000D01*
X64590107Y-86620000D01*
X64446632Y-86476525D01*
X64264466Y-86354805D01*
X64381355Y-86285178D01*
X64597588Y-86090269D01*
X64771641Y-85856920D01*
X64896825Y-85594099D01*
X64941476Y-85446890D01*
X64820155Y-85217000D01*
X63627000Y-85217000D01*
X63627000Y-85237000D01*
X63373000Y-85237000D01*
X63373000Y-85217000D01*
X62179845Y-85217000D01*
X62058524Y-85446890D01*
X62103175Y-85594099D01*
X62228359Y-85856920D01*
X62402412Y-86090269D01*
X62618645Y-86285178D01*
X62735534Y-86354805D01*
X62553368Y-86476525D01*
X62409893Y-86620000D01*
X61378355Y-86620000D01*
X60700000Y-85941645D01*
X60700000Y-73709604D01*
X60704886Y-73659999D01*
X60693409Y-73543475D01*
X60685385Y-73462006D01*
X60627632Y-73271620D01*
X60533847Y-73096160D01*
X60407633Y-72942367D01*
X60369094Y-72910739D01*
X59169261Y-71710906D01*
X59137633Y-71672367D01*
X58983840Y-71546153D01*
X58808380Y-71452368D01*
X58619621Y-71395108D01*
X58589502Y-71295820D01*
X58530537Y-71185506D01*
X58451185Y-71088815D01*
X58354494Y-71009463D01*
X58244180Y-70950498D01*
X58124482Y-70914188D01*
X58000000Y-70901928D01*
X56300000Y-70901928D01*
X56175518Y-70914188D01*
X56055820Y-70950498D01*
X55945506Y-71009463D01*
X55848815Y-71088815D01*
X55769463Y-71185506D01*
X55710498Y-71295820D01*
X55674188Y-71415518D01*
X55661928Y-71540000D01*
X55661928Y-73240000D01*
X55674188Y-73364482D01*
X55710498Y-73484180D01*
X55769463Y-73594494D01*
X55848815Y-73691185D01*
X55945506Y-73770537D01*
X56055820Y-73829502D01*
X56136466Y-73853966D01*
X56052412Y-73929731D01*
X55878359Y-74163080D01*
X55753175Y-74425901D01*
X55708524Y-74573110D01*
X55829845Y-74803000D01*
X57023000Y-74803000D01*
X57023000Y-74783000D01*
X57277000Y-74783000D01*
X57277000Y-74803000D01*
X58470155Y-74803000D01*
X58591476Y-74573110D01*
X58546825Y-74425901D01*
X58421641Y-74163080D01*
X58247588Y-73929731D01*
X58163534Y-73853966D01*
X58244180Y-73829502D01*
X58354494Y-73770537D01*
X58364209Y-73762564D01*
X58680000Y-74078355D01*
X58680001Y-86310382D01*
X58675114Y-86360000D01*
X58694615Y-86557994D01*
X58752368Y-86748379D01*
X58823119Y-86880744D01*
X58846154Y-86923840D01*
X58972368Y-87077633D01*
X59010901Y-87109256D01*
X60210739Y-88309094D01*
X60242367Y-88347633D01*
X60396160Y-88473847D01*
X60571620Y-88567632D01*
X60762006Y-88625385D01*
X60910392Y-88640000D01*
X60910394Y-88640000D01*
X60959999Y-88644886D01*
X61009604Y-88640000D01*
X62409893Y-88640000D01*
X62490001Y-88720108D01*
X62490000Y-89751644D01*
X60541645Y-91700000D01*
X56970107Y-91700000D01*
X56826632Y-91556525D01*
X56583411Y-91394010D01*
X56313158Y-91282068D01*
X56026260Y-91225000D01*
X55733740Y-91225000D01*
X55446842Y-91282068D01*
X55176589Y-91394010D01*
X54933368Y-91556525D01*
X54726525Y-91763368D01*
X54564010Y-92006589D01*
X54452068Y-92276842D01*
X54395000Y-92563740D01*
X52197000Y-92563740D01*
X52197000Y-77323740D01*
X55665000Y-77323740D01*
X55665000Y-77616260D01*
X55722068Y-77903158D01*
X55834010Y-78173411D01*
X55996525Y-78416632D01*
X56203368Y-78623475D01*
X56377760Y-78740000D01*
X56203368Y-78856525D01*
X55996525Y-79063368D01*
X55834010Y-79306589D01*
X55722068Y-79576842D01*
X55665000Y-79863740D01*
X55665000Y-80156260D01*
X55722068Y-80443158D01*
X55834010Y-80713411D01*
X55996525Y-80956632D01*
X56203368Y-81163475D01*
X56446589Y-81325990D01*
X56716842Y-81437932D01*
X57003740Y-81495000D01*
X57296260Y-81495000D01*
X57583158Y-81437932D01*
X57853411Y-81325990D01*
X58096632Y-81163475D01*
X58303475Y-80956632D01*
X58465990Y-80713411D01*
X58577932Y-80443158D01*
X58635000Y-80156260D01*
X58635000Y-79863740D01*
X58577932Y-79576842D01*
X58465990Y-79306589D01*
X58303475Y-79063368D01*
X58096632Y-78856525D01*
X57922240Y-78740000D01*
X58096632Y-78623475D01*
X58303475Y-78416632D01*
X58465990Y-78173411D01*
X58577932Y-77903158D01*
X58635000Y-77616260D01*
X58635000Y-77323740D01*
X58577932Y-77036842D01*
X58465990Y-76766589D01*
X58303475Y-76523368D01*
X58096632Y-76316525D01*
X57914466Y-76194805D01*
X58031355Y-76125178D01*
X58247588Y-75930269D01*
X58421641Y-75696920D01*
X58546825Y-75434099D01*
X58591476Y-75286890D01*
X58470155Y-75057000D01*
X57277000Y-75057000D01*
X57277000Y-75077000D01*
X57023000Y-75077000D01*
X57023000Y-75057000D01*
X55829845Y-75057000D01*
X55708524Y-75286890D01*
X55753175Y-75434099D01*
X55878359Y-75696920D01*
X56052412Y-75930269D01*
X56268645Y-76125178D01*
X56385534Y-76194805D01*
X56203368Y-76316525D01*
X55996525Y-76523368D01*
X55834010Y-76766589D01*
X55722068Y-77036842D01*
X55665000Y-77323740D01*
X52197000Y-77323740D01*
X52197000Y-51220000D01*
X55661928Y-51220000D01*
X55661928Y-52920000D01*
X55674188Y-53044482D01*
X55710498Y-53164180D01*
X55769463Y-53274494D01*
X55848815Y-53371185D01*
X55945506Y-53450537D01*
X56055820Y-53509502D01*
X56175518Y-53545812D01*
X56300000Y-53558072D01*
X58000000Y-53558072D01*
X58124482Y-53545812D01*
X58244180Y-53509502D01*
X58354494Y-53450537D01*
X58451185Y-53371185D01*
X58530537Y-53274494D01*
X58589502Y-53164180D01*
X58625812Y-53044482D01*
X58638072Y-52920000D01*
X58638072Y-51220000D01*
X58625812Y-51095518D01*
X58589502Y-50975820D01*
X58530537Y-50865506D01*
X58451185Y-50768815D01*
X58354494Y-50689463D01*
X58244180Y-50630498D01*
X58124482Y-50594188D01*
X58000000Y-50581928D01*
X56300000Y-50581928D01*
X56175518Y-50594188D01*
X56055820Y-50630498D01*
X55945506Y-50689463D01*
X55848815Y-50768815D01*
X55769463Y-50865506D01*
X55710498Y-50975820D01*
X55674188Y-51095518D01*
X55661928Y-51220000D01*
X52197000Y-51220000D01*
X52197000Y-45300000D01*
X55661928Y-45300000D01*
X55674188Y-45424482D01*
X55710498Y-45544180D01*
X55769463Y-45654494D01*
X55848815Y-45751185D01*
X55945506Y-45830537D01*
X56055820Y-45889502D01*
X56175518Y-45925812D01*
X56300000Y-45938072D01*
X56864250Y-45935000D01*
X57023000Y-45776250D01*
X57023000Y-44577000D01*
X57277000Y-44577000D01*
X57277000Y-45776250D01*
X57435750Y-45935000D01*
X58000000Y-45938072D01*
X58124482Y-45925812D01*
X58244180Y-45889502D01*
X58354494Y-45830537D01*
X58451185Y-45751185D01*
X58530537Y-45654494D01*
X58589502Y-45544180D01*
X58625812Y-45424482D01*
X58638072Y-45300000D01*
X58635000Y-44735750D01*
X58476250Y-44577000D01*
X57277000Y-44577000D01*
X57023000Y-44577000D01*
X55823750Y-44577000D01*
X55665000Y-44735750D01*
X55661928Y-45300000D01*
X52197000Y-45300000D01*
X52197000Y-43600000D01*
X55661928Y-43600000D01*
X55665000Y-44164250D01*
X55823750Y-44323000D01*
X57023000Y-44323000D01*
X57023000Y-43123750D01*
X57277000Y-43123750D01*
X57277000Y-44323000D01*
X58476250Y-44323000D01*
X58635000Y-44164250D01*
X58638072Y-43600000D01*
X58625812Y-43475518D01*
X58589502Y-43355820D01*
X58530537Y-43245506D01*
X58451185Y-43148815D01*
X58354494Y-43069463D01*
X58244180Y-43010498D01*
X58124482Y-42974188D01*
X58000000Y-42961928D01*
X57435750Y-42965000D01*
X57277000Y-43123750D01*
X57023000Y-43123750D01*
X56864250Y-42965000D01*
X56300000Y-42961928D01*
X56175518Y-42974188D01*
X56055820Y-43010498D01*
X55945506Y-43069463D01*
X55848815Y-43148815D01*
X55769463Y-43245506D01*
X55710498Y-43355820D01*
X55674188Y-43475518D01*
X55661928Y-43600000D01*
X52197000Y-43600000D01*
X52197000Y-40024283D01*
X52281331Y-40080631D01*
X52688075Y-40249110D01*
X53119872Y-40335000D01*
X53560128Y-40335000D01*
X53991925Y-40249110D01*
X54398669Y-40080631D01*
X54764729Y-39836038D01*
X55076038Y-39524729D01*
X55320631Y-39158669D01*
X55489110Y-38751925D01*
X55535242Y-38520000D01*
X62011928Y-38520000D01*
X62011928Y-40220000D01*
X62024188Y-40344482D01*
X62060498Y-40464180D01*
X62119463Y-40574494D01*
X62198815Y-40671185D01*
X62295506Y-40750537D01*
X62405820Y-40809502D01*
X62478380Y-40831513D01*
X62346525Y-40963368D01*
X62184010Y-41206589D01*
X62072068Y-41476842D01*
X62015000Y-41763740D01*
X62015000Y-42056260D01*
X62072068Y-42343158D01*
X62184010Y-42613411D01*
X62346525Y-42856632D01*
X62553368Y-43063475D01*
X62727760Y-43180000D01*
X62553368Y-43296525D01*
X62346525Y-43503368D01*
X62184010Y-43746589D01*
X62072068Y-44016842D01*
X62015000Y-44303740D01*
X62015000Y-44596260D01*
X62072068Y-44883158D01*
X62184010Y-45153411D01*
X62346525Y-45396632D01*
X62553368Y-45603475D01*
X62727760Y-45720000D01*
X62553368Y-45836525D01*
X62346525Y-46043368D01*
X62184010Y-46286589D01*
X62072068Y-46556842D01*
X62015000Y-46843740D01*
X62015000Y-47136260D01*
X62072068Y-47423158D01*
X62184010Y-47693411D01*
X62346525Y-47936632D01*
X62553368Y-48143475D01*
X62727760Y-48260000D01*
X62553368Y-48376525D01*
X62346525Y-48583368D01*
X62184010Y-48826589D01*
X62072068Y-49096842D01*
X62015000Y-49383740D01*
X62015000Y-49676260D01*
X62072068Y-49963158D01*
X62184010Y-50233411D01*
X62346525Y-50476632D01*
X62553368Y-50683475D01*
X62727760Y-50800000D01*
X62553368Y-50916525D01*
X62346525Y-51123368D01*
X62184010Y-51366589D01*
X62072068Y-51636842D01*
X62015000Y-51923740D01*
X62015000Y-52216260D01*
X62072068Y-52503158D01*
X62184010Y-52773411D01*
X62346525Y-53016632D01*
X62553368Y-53223475D01*
X62727760Y-53340000D01*
X62553368Y-53456525D01*
X62346525Y-53663368D01*
X62184010Y-53906589D01*
X62072068Y-54176842D01*
X62015000Y-54463740D01*
X62015000Y-54756260D01*
X62072068Y-55043158D01*
X62184010Y-55313411D01*
X62346525Y-55556632D01*
X62553368Y-55763475D01*
X62727760Y-55880000D01*
X62553368Y-55996525D01*
X62346525Y-56203368D01*
X62184010Y-56446589D01*
X62072068Y-56716842D01*
X62015000Y-57003740D01*
X62015000Y-57296260D01*
X62072068Y-57583158D01*
X62184010Y-57853411D01*
X62346525Y-58096632D01*
X62553368Y-58303475D01*
X62727760Y-58420000D01*
X62553368Y-58536525D01*
X62346525Y-58743368D01*
X62184010Y-58986589D01*
X62072068Y-59256842D01*
X62015000Y-59543740D01*
X62015000Y-59836260D01*
X62072068Y-60123158D01*
X62184010Y-60393411D01*
X62346525Y-60636632D01*
X62553368Y-60843475D01*
X62727760Y-60960000D01*
X62553368Y-61076525D01*
X62346525Y-61283368D01*
X62184010Y-61526589D01*
X62072068Y-61796842D01*
X62015000Y-62083740D01*
X62015000Y-62376260D01*
X62072068Y-62663158D01*
X62184010Y-62933411D01*
X62346525Y-63176632D01*
X62553368Y-63383475D01*
X62727760Y-63500000D01*
X62553368Y-63616525D01*
X62346525Y-63823368D01*
X62184010Y-64066589D01*
X62072068Y-64336842D01*
X62015000Y-64623740D01*
X62015000Y-64916260D01*
X62072068Y-65203158D01*
X62184010Y-65473411D01*
X62346525Y-65716632D01*
X62553368Y-65923475D01*
X62727760Y-66040000D01*
X62553368Y-66156525D01*
X62346525Y-66363368D01*
X62184010Y-66606589D01*
X62072068Y-66876842D01*
X62015000Y-67163740D01*
X62015000Y-67456260D01*
X62072068Y-67743158D01*
X62184010Y-68013411D01*
X62346525Y-68256632D01*
X62553368Y-68463475D01*
X62727760Y-68580000D01*
X62553368Y-68696525D01*
X62346525Y-68903368D01*
X62184010Y-69146589D01*
X62072068Y-69416842D01*
X62015000Y-69703740D01*
X62015000Y-69996260D01*
X62072068Y-70283158D01*
X62184010Y-70553411D01*
X62346525Y-70796632D01*
X62553368Y-71003475D01*
X62727760Y-71120000D01*
X62553368Y-71236525D01*
X62346525Y-71443368D01*
X62184010Y-71686589D01*
X62072068Y-71956842D01*
X62015000Y-72243740D01*
X62015000Y-72536260D01*
X62072068Y-72823158D01*
X62184010Y-73093411D01*
X62346525Y-73336632D01*
X62553368Y-73543475D01*
X62727760Y-73660000D01*
X62553368Y-73776525D01*
X62346525Y-73983368D01*
X62184010Y-74226589D01*
X62072068Y-74496842D01*
X62015000Y-74783740D01*
X62015000Y-75076260D01*
X62072068Y-75363158D01*
X62184010Y-75633411D01*
X62346525Y-75876632D01*
X62553368Y-76083475D01*
X62727760Y-76200000D01*
X62553368Y-76316525D01*
X62346525Y-76523368D01*
X62184010Y-76766589D01*
X62072068Y-77036842D01*
X62015000Y-77323740D01*
X62015000Y-77616260D01*
X62072068Y-77903158D01*
X62184010Y-78173411D01*
X62346525Y-78416632D01*
X62553368Y-78623475D01*
X62727760Y-78740000D01*
X62553368Y-78856525D01*
X62346525Y-79063368D01*
X62184010Y-79306589D01*
X62072068Y-79576842D01*
X62015000Y-79863740D01*
X62015000Y-80156260D01*
X62072068Y-80443158D01*
X62184010Y-80713411D01*
X62346525Y-80956632D01*
X62553368Y-81163475D01*
X62727760Y-81280000D01*
X62553368Y-81396525D01*
X62346525Y-81603368D01*
X62184010Y-81846589D01*
X62072068Y-82116842D01*
X62015000Y-82403740D01*
X62015000Y-82696260D01*
X62072068Y-82983158D01*
X62184010Y-83253411D01*
X62346525Y-83496632D01*
X62553368Y-83703475D01*
X62735534Y-83825195D01*
X62618645Y-83894822D01*
X62402412Y-84089731D01*
X62228359Y-84323080D01*
X62103175Y-84585901D01*
X62058524Y-84733110D01*
X62179845Y-84963000D01*
X63373000Y-84963000D01*
X63373000Y-84943000D01*
X63627000Y-84943000D01*
X63627000Y-84963000D01*
X64820155Y-84963000D01*
X64941476Y-84733110D01*
X64896825Y-84585901D01*
X64771641Y-84323080D01*
X64597588Y-84089731D01*
X64381355Y-83894822D01*
X64264466Y-83825195D01*
X64446632Y-83703475D01*
X64653475Y-83496632D01*
X64815990Y-83253411D01*
X64927932Y-82983158D01*
X64985000Y-82696260D01*
X64985000Y-82403740D01*
X64927932Y-82116842D01*
X64815990Y-81846589D01*
X64653475Y-81603368D01*
X64446632Y-81396525D01*
X64272240Y-81280000D01*
X64446632Y-81163475D01*
X64653475Y-80956632D01*
X64815990Y-80713411D01*
X64927932Y-80443158D01*
X64985000Y-80156260D01*
X64985000Y-79863740D01*
X64927932Y-79576842D01*
X64815990Y-79306589D01*
X64653475Y-79063368D01*
X64446632Y-78856525D01*
X64272240Y-78740000D01*
X64446632Y-78623475D01*
X64653475Y-78416632D01*
X64815990Y-78173411D01*
X64927932Y-77903158D01*
X64985000Y-77616260D01*
X64985000Y-77323740D01*
X64927932Y-77036842D01*
X64815990Y-76766589D01*
X64653475Y-76523368D01*
X64446632Y-76316525D01*
X64272240Y-76200000D01*
X64446632Y-76083475D01*
X64653475Y-75876632D01*
X64815990Y-75633411D01*
X64927932Y-75363158D01*
X64985000Y-75076260D01*
X64985000Y-74783740D01*
X64927932Y-74496842D01*
X64815990Y-74226589D01*
X64653475Y-73983368D01*
X64446632Y-73776525D01*
X64272240Y-73660000D01*
X64446632Y-73543475D01*
X64653475Y-73336632D01*
X64815990Y-73093411D01*
X64927932Y-72823158D01*
X64985000Y-72536260D01*
X64985000Y-72243740D01*
X64927932Y-71956842D01*
X64815990Y-71686589D01*
X64653475Y-71443368D01*
X64446632Y-71236525D01*
X64272240Y-71120000D01*
X64446632Y-71003475D01*
X64653475Y-70796632D01*
X64815990Y-70553411D01*
X64927932Y-70283158D01*
X64985000Y-69996260D01*
X64985000Y-69703740D01*
X64927932Y-69416842D01*
X64815990Y-69146589D01*
X64653475Y-68903368D01*
X64446632Y-68696525D01*
X64272240Y-68580000D01*
X64446632Y-68463475D01*
X64653475Y-68256632D01*
X64815990Y-68013411D01*
X64927932Y-67743158D01*
X64985000Y-67456260D01*
X64985000Y-67163740D01*
X64927932Y-66876842D01*
X64815990Y-66606589D01*
X64653475Y-66363368D01*
X64446632Y-66156525D01*
X64272240Y-66040000D01*
X64446632Y-65923475D01*
X64653475Y-65716632D01*
X64815990Y-65473411D01*
X64927932Y-65203158D01*
X64985000Y-64916260D01*
X64985000Y-64623740D01*
X64927932Y-64336842D01*
X64815990Y-64066589D01*
X64653475Y-63823368D01*
X64446632Y-63616525D01*
X64272240Y-63500000D01*
X64446632Y-63383475D01*
X64653475Y-63176632D01*
X64815990Y-62933411D01*
X64927932Y-62663158D01*
X64985000Y-62376260D01*
X64985000Y-62083740D01*
X64927932Y-61796842D01*
X64815990Y-61526589D01*
X64653475Y-61283368D01*
X64446632Y-61076525D01*
X64272240Y-60960000D01*
X64446632Y-60843475D01*
X64653475Y-60636632D01*
X64815990Y-60393411D01*
X64927932Y-60123158D01*
X64985000Y-59836260D01*
X64985000Y-59543740D01*
X64927932Y-59256842D01*
X64815990Y-58986589D01*
X64653475Y-58743368D01*
X64446632Y-58536525D01*
X64272240Y-58420000D01*
X64446632Y-58303475D01*
X64653475Y-58096632D01*
X64815990Y-57853411D01*
X64927932Y-57583158D01*
X64985000Y-57296260D01*
X64985000Y-57003740D01*
X64927932Y-56716842D01*
X64815990Y-56446589D01*
X64653475Y-56203368D01*
X64446632Y-55996525D01*
X64272240Y-55880000D01*
X64446632Y-55763475D01*
X64653475Y-55556632D01*
X64815990Y-55313411D01*
X64927932Y-55043158D01*
X64985000Y-54756260D01*
X64985000Y-54463740D01*
X64927932Y-54176842D01*
X64815990Y-53906589D01*
X64653475Y-53663368D01*
X64446632Y-53456525D01*
X64272240Y-53340000D01*
X64446632Y-53223475D01*
X64653475Y-53016632D01*
X64815990Y-52773411D01*
X64927932Y-52503158D01*
X64985000Y-52216260D01*
X64985000Y-51923740D01*
X64927932Y-51636842D01*
X64815990Y-51366589D01*
X64653475Y-51123368D01*
X64446632Y-50916525D01*
X64272240Y-50800000D01*
X64446632Y-50683475D01*
X64653475Y-50476632D01*
X64815990Y-50233411D01*
X64927932Y-49963158D01*
X64985000Y-49676260D01*
X64985000Y-49383740D01*
X64927932Y-49096842D01*
X64815990Y-48826589D01*
X64653475Y-48583368D01*
X64446632Y-48376525D01*
X64272240Y-48260000D01*
X64446632Y-48143475D01*
X64653475Y-47936632D01*
X64815990Y-47693411D01*
X64927932Y-47423158D01*
X64985000Y-47136260D01*
X64985000Y-46843740D01*
X64927932Y-46556842D01*
X64815990Y-46286589D01*
X64653475Y-46043368D01*
X64446632Y-45836525D01*
X64272240Y-45720000D01*
X64446632Y-45603475D01*
X64653475Y-45396632D01*
X64815990Y-45153411D01*
X64927932Y-44883158D01*
X64985000Y-44596260D01*
X64985000Y-44303740D01*
X64927932Y-44016842D01*
X64815990Y-43746589D01*
X64653475Y-43503368D01*
X64446632Y-43296525D01*
X64272240Y-43180000D01*
X64446632Y-43063475D01*
X64653475Y-42856632D01*
X64815990Y-42613411D01*
X64927932Y-42343158D01*
X64985000Y-42056260D01*
X64985000Y-41763740D01*
X64927932Y-41476842D01*
X64815990Y-41206589D01*
X64653475Y-40963368D01*
X64521620Y-40831513D01*
X64594180Y-40809502D01*
X64704494Y-40750537D01*
X64801185Y-40671185D01*
X64880537Y-40574494D01*
X64939502Y-40464180D01*
X64975812Y-40344482D01*
X64988072Y-40220000D01*
X64988072Y-38520000D01*
X77251928Y-38520000D01*
X77251928Y-40220000D01*
X77264188Y-40344482D01*
X77300498Y-40464180D01*
X77359463Y-40574494D01*
X77438815Y-40671185D01*
X77535506Y-40750537D01*
X77645820Y-40809502D01*
X77718380Y-40831513D01*
X77586525Y-40963368D01*
X77424010Y-41206589D01*
X77312068Y-41476842D01*
X77255000Y-41763740D01*
X77255000Y-42056260D01*
X77312068Y-42343158D01*
X77424010Y-42613411D01*
X77586525Y-42856632D01*
X77793368Y-43063475D01*
X77967760Y-43180000D01*
X77793368Y-43296525D01*
X77586525Y-43503368D01*
X77424010Y-43746589D01*
X77312068Y-44016842D01*
X77255000Y-44303740D01*
X77255000Y-44596260D01*
X77312068Y-44883158D01*
X77424010Y-45153411D01*
X77586525Y-45396632D01*
X77793368Y-45603475D01*
X77967760Y-45720000D01*
X77793368Y-45836525D01*
X77586525Y-46043368D01*
X77424010Y-46286589D01*
X77312068Y-46556842D01*
X77255000Y-46843740D01*
X77255000Y-47136260D01*
X77312068Y-47423158D01*
X77424010Y-47693411D01*
X77586525Y-47936632D01*
X77793368Y-48143475D01*
X77967760Y-48260000D01*
X77793368Y-48376525D01*
X77586525Y-48583368D01*
X77424010Y-48826589D01*
X77312068Y-49096842D01*
X77255000Y-49383740D01*
X77255000Y-49676260D01*
X77312068Y-49963158D01*
X77424010Y-50233411D01*
X77586525Y-50476632D01*
X77793368Y-50683475D01*
X77967760Y-50800000D01*
X77793368Y-50916525D01*
X77586525Y-51123368D01*
X77424010Y-51366589D01*
X77312068Y-51636842D01*
X77255000Y-51923740D01*
X77255000Y-52216260D01*
X77312068Y-52503158D01*
X77424010Y-52773411D01*
X77586525Y-53016632D01*
X77793368Y-53223475D01*
X77967760Y-53340000D01*
X77793368Y-53456525D01*
X77586525Y-53663368D01*
X77424010Y-53906589D01*
X77312068Y-54176842D01*
X77255000Y-54463740D01*
X77255000Y-54756260D01*
X77312068Y-55043158D01*
X77424010Y-55313411D01*
X77586525Y-55556632D01*
X77793368Y-55763475D01*
X77967760Y-55880000D01*
X77793368Y-55996525D01*
X77586525Y-56203368D01*
X77424010Y-56446589D01*
X77312068Y-56716842D01*
X77255000Y-57003740D01*
X77255000Y-57296260D01*
X77312068Y-57583158D01*
X77424010Y-57853411D01*
X77586525Y-58096632D01*
X77793368Y-58303475D01*
X77967760Y-58420000D01*
X77793368Y-58536525D01*
X77586525Y-58743368D01*
X77424010Y-58986589D01*
X77312068Y-59256842D01*
X77255000Y-59543740D01*
X77255000Y-59836260D01*
X77312068Y-60123158D01*
X77424010Y-60393411D01*
X77586525Y-60636632D01*
X77793368Y-60843475D01*
X77967760Y-60960000D01*
X77793368Y-61076525D01*
X77586525Y-61283368D01*
X77424010Y-61526589D01*
X77312068Y-61796842D01*
X77255000Y-62083740D01*
X77255000Y-62376260D01*
X77312068Y-62663158D01*
X77424010Y-62933411D01*
X77586525Y-63176632D01*
X77793368Y-63383475D01*
X77967760Y-63500000D01*
X77793368Y-63616525D01*
X77586525Y-63823368D01*
X77424010Y-64066589D01*
X77312068Y-64336842D01*
X77255000Y-64623740D01*
X77255000Y-64916260D01*
X77312068Y-65203158D01*
X77424010Y-65473411D01*
X77586525Y-65716632D01*
X77793368Y-65923475D01*
X77967760Y-66040000D01*
X77793368Y-66156525D01*
X77586525Y-66363368D01*
X77424010Y-66606589D01*
X77312068Y-66876842D01*
X77255000Y-67163740D01*
X77255000Y-67456260D01*
X77312068Y-67743158D01*
X77424010Y-68013411D01*
X77586525Y-68256632D01*
X77793368Y-68463475D01*
X77967760Y-68580000D01*
X77793368Y-68696525D01*
X77586525Y-68903368D01*
X77424010Y-69146589D01*
X77312068Y-69416842D01*
X77255000Y-69703740D01*
X77255000Y-69996260D01*
X77312068Y-70283158D01*
X77424010Y-70553411D01*
X77586525Y-70796632D01*
X77793368Y-71003475D01*
X77967760Y-71120000D01*
X77793368Y-71236525D01*
X77586525Y-71443368D01*
X77424010Y-71686589D01*
X77312068Y-71956842D01*
X77255000Y-72243740D01*
X77255000Y-72536260D01*
X77312068Y-72823158D01*
X77424010Y-73093411D01*
X77586525Y-73336632D01*
X77793368Y-73543475D01*
X77967760Y-73660000D01*
X77793368Y-73776525D01*
X77586525Y-73983368D01*
X77424010Y-74226589D01*
X77312068Y-74496842D01*
X77255000Y-74783740D01*
X77255000Y-75076260D01*
X77312068Y-75363158D01*
X77424010Y-75633411D01*
X77586525Y-75876632D01*
X77793368Y-76083475D01*
X77967760Y-76200000D01*
X77793368Y-76316525D01*
X77586525Y-76523368D01*
X77424010Y-76766589D01*
X77312068Y-77036842D01*
X77255000Y-77323740D01*
X77255000Y-77616260D01*
X77312068Y-77903158D01*
X77424010Y-78173411D01*
X77586525Y-78416632D01*
X77793368Y-78623475D01*
X77967760Y-78740000D01*
X77793368Y-78856525D01*
X77586525Y-79063368D01*
X77424010Y-79306589D01*
X77312068Y-79576842D01*
X77255000Y-79863740D01*
X77255000Y-80156260D01*
X77312068Y-80443158D01*
X77424010Y-80713411D01*
X77586525Y-80956632D01*
X77793368Y-81163475D01*
X77967760Y-81280000D01*
X77793368Y-81396525D01*
X77586525Y-81603368D01*
X77424010Y-81846589D01*
X77312068Y-82116842D01*
X77255000Y-82403740D01*
X77255000Y-82696260D01*
X77312068Y-82983158D01*
X77424010Y-83253411D01*
X77586525Y-83496632D01*
X77793368Y-83703475D01*
X77967760Y-83820000D01*
X77793368Y-83936525D01*
X77586525Y-84143368D01*
X77424010Y-84386589D01*
X77312068Y-84656842D01*
X77255000Y-84943740D01*
X77255000Y-85236260D01*
X77312068Y-85523158D01*
X77424010Y-85793411D01*
X77586525Y-86036632D01*
X77793368Y-86243475D01*
X77967760Y-86360000D01*
X77793368Y-86476525D01*
X77586525Y-86683368D01*
X77424010Y-86926589D01*
X77312068Y-87196842D01*
X77255000Y-87483740D01*
X77255000Y-87776260D01*
X77312068Y-88063158D01*
X77424010Y-88333411D01*
X77586525Y-88576632D01*
X77793368Y-88783475D01*
X78036589Y-88945990D01*
X78306842Y-89057932D01*
X78593740Y-89115000D01*
X78886260Y-89115000D01*
X79173158Y-89057932D01*
X79443411Y-88945990D01*
X79686632Y-88783475D01*
X79893475Y-88576632D01*
X80055990Y-88333411D01*
X80167932Y-88063158D01*
X80225000Y-87776260D01*
X80225000Y-87483740D01*
X80167932Y-87196842D01*
X80055990Y-86926589D01*
X79893475Y-86683368D01*
X79686632Y-86476525D01*
X79512240Y-86360000D01*
X79686632Y-86243475D01*
X79893475Y-86036632D01*
X80055990Y-85793411D01*
X80167932Y-85523158D01*
X80225000Y-85236260D01*
X80225000Y-84943740D01*
X80167932Y-84656842D01*
X80055990Y-84386589D01*
X79893475Y-84143368D01*
X79686632Y-83936525D01*
X79512240Y-83820000D01*
X79686632Y-83703475D01*
X79893475Y-83496632D01*
X80055990Y-83253411D01*
X80167932Y-82983158D01*
X80225000Y-82696260D01*
X80225000Y-82403740D01*
X80167932Y-82116842D01*
X80055990Y-81846589D01*
X79893475Y-81603368D01*
X79686632Y-81396525D01*
X79512240Y-81280000D01*
X79686632Y-81163475D01*
X79893475Y-80956632D01*
X80055990Y-80713411D01*
X80167932Y-80443158D01*
X80225000Y-80156260D01*
X80225000Y-79863740D01*
X80167932Y-79576842D01*
X80055990Y-79306589D01*
X79893475Y-79063368D01*
X79686632Y-78856525D01*
X79512240Y-78740000D01*
X79686632Y-78623475D01*
X79893475Y-78416632D01*
X80055990Y-78173411D01*
X80167932Y-77903158D01*
X80225000Y-77616260D01*
X80225000Y-77323740D01*
X80167932Y-77036842D01*
X80055990Y-76766589D01*
X79893475Y-76523368D01*
X79686632Y-76316525D01*
X79512240Y-76200000D01*
X79686632Y-76083475D01*
X79893475Y-75876632D01*
X80055990Y-75633411D01*
X80167932Y-75363158D01*
X80225000Y-75076260D01*
X80225000Y-74783740D01*
X80167932Y-74496842D01*
X80055990Y-74226589D01*
X79893475Y-73983368D01*
X79686632Y-73776525D01*
X79512240Y-73660000D01*
X79686632Y-73543475D01*
X79893475Y-73336632D01*
X80055990Y-73093411D01*
X80167932Y-72823158D01*
X80225000Y-72536260D01*
X80225000Y-72243740D01*
X80167932Y-71956842D01*
X80055990Y-71686589D01*
X79893475Y-71443368D01*
X79686632Y-71236525D01*
X79512240Y-71120000D01*
X79686632Y-71003475D01*
X79893475Y-70796632D01*
X80055990Y-70553411D01*
X80167932Y-70283158D01*
X80225000Y-69996260D01*
X80225000Y-69703740D01*
X80167932Y-69416842D01*
X80055990Y-69146589D01*
X79893475Y-68903368D01*
X79686632Y-68696525D01*
X79512240Y-68580000D01*
X79686632Y-68463475D01*
X79893475Y-68256632D01*
X80055990Y-68013411D01*
X80167932Y-67743158D01*
X80225000Y-67456260D01*
X80225000Y-67163740D01*
X80167932Y-66876842D01*
X80055990Y-66606589D01*
X79893475Y-66363368D01*
X79686632Y-66156525D01*
X79512240Y-66040000D01*
X79686632Y-65923475D01*
X79893475Y-65716632D01*
X80055990Y-65473411D01*
X80167932Y-65203158D01*
X80225000Y-64916260D01*
X80225000Y-64623740D01*
X80167932Y-64336842D01*
X80055990Y-64066589D01*
X79893475Y-63823368D01*
X79686632Y-63616525D01*
X79512240Y-63500000D01*
X79686632Y-63383475D01*
X79893475Y-63176632D01*
X80055990Y-62933411D01*
X80167932Y-62663158D01*
X80225000Y-62376260D01*
X80225000Y-62083740D01*
X80167932Y-61796842D01*
X80055990Y-61526589D01*
X79893475Y-61283368D01*
X79686632Y-61076525D01*
X79512240Y-60960000D01*
X79686632Y-60843475D01*
X79893475Y-60636632D01*
X80055990Y-60393411D01*
X80167932Y-60123158D01*
X80225000Y-59836260D01*
X80225000Y-59543740D01*
X80167932Y-59256842D01*
X80055990Y-58986589D01*
X79893475Y-58743368D01*
X79686632Y-58536525D01*
X79512240Y-58420000D01*
X79686632Y-58303475D01*
X79893475Y-58096632D01*
X80055990Y-57853411D01*
X80167932Y-57583158D01*
X80225000Y-57296260D01*
X80225000Y-57003740D01*
X80167932Y-56716842D01*
X80055990Y-56446589D01*
X79893475Y-56203368D01*
X79686632Y-55996525D01*
X79512240Y-55880000D01*
X79686632Y-55763475D01*
X79893475Y-55556632D01*
X80055990Y-55313411D01*
X80167932Y-55043158D01*
X80225000Y-54756260D01*
X80225000Y-54463740D01*
X80167932Y-54176842D01*
X80055990Y-53906589D01*
X79893475Y-53663368D01*
X79686632Y-53456525D01*
X79512240Y-53340000D01*
X79686632Y-53223475D01*
X79893475Y-53016632D01*
X80055990Y-52773411D01*
X80167932Y-52503158D01*
X80225000Y-52216260D01*
X80225000Y-51923740D01*
X80167932Y-51636842D01*
X80055990Y-51366589D01*
X79893475Y-51123368D01*
X79686632Y-50916525D01*
X79512240Y-50800000D01*
X79686632Y-50683475D01*
X79893475Y-50476632D01*
X80055990Y-50233411D01*
X80167932Y-49963158D01*
X80225000Y-49676260D01*
X80225000Y-49383740D01*
X80167932Y-49096842D01*
X80055990Y-48826589D01*
X79893475Y-48583368D01*
X79686632Y-48376525D01*
X79512240Y-48260000D01*
X79686632Y-48143475D01*
X79893475Y-47936632D01*
X80055990Y-47693411D01*
X80167932Y-47423158D01*
X80225000Y-47136260D01*
X80225000Y-46843740D01*
X80167932Y-46556842D01*
X80055990Y-46286589D01*
X79893475Y-46043368D01*
X79686632Y-45836525D01*
X79512240Y-45720000D01*
X79686632Y-45603475D01*
X79893475Y-45396632D01*
X80055990Y-45153411D01*
X80167932Y-44883158D01*
X80225000Y-44596260D01*
X80225000Y-44303740D01*
X80167932Y-44016842D01*
X80055990Y-43746589D01*
X79893475Y-43503368D01*
X79686632Y-43296525D01*
X79512240Y-43180000D01*
X79686632Y-43063475D01*
X79893475Y-42856632D01*
X80055990Y-42613411D01*
X80167932Y-42343158D01*
X80225000Y-42056260D01*
X80225000Y-41763740D01*
X80167932Y-41476842D01*
X80055990Y-41206589D01*
X79893475Y-40963368D01*
X79761620Y-40831513D01*
X79834180Y-40809502D01*
X79944494Y-40750537D01*
X80041185Y-40671185D01*
X80120537Y-40574494D01*
X80179502Y-40464180D01*
X80215812Y-40344482D01*
X80228072Y-40220000D01*
X80228072Y-38520000D01*
X80215812Y-38395518D01*
X80179502Y-38275820D01*
X80120537Y-38165506D01*
X80041185Y-38068815D01*
X79944494Y-37989463D01*
X79834180Y-37930498D01*
X79714482Y-37894188D01*
X79590000Y-37881928D01*
X77890000Y-37881928D01*
X77765518Y-37894188D01*
X77645820Y-37930498D01*
X77535506Y-37989463D01*
X77438815Y-38068815D01*
X77359463Y-38165506D01*
X77300498Y-38275820D01*
X77264188Y-38395518D01*
X77251928Y-38520000D01*
X64988072Y-38520000D01*
X64975812Y-38395518D01*
X64939502Y-38275820D01*
X64880537Y-38165506D01*
X64801185Y-38068815D01*
X64704494Y-37989463D01*
X64594180Y-37930498D01*
X64474482Y-37894188D01*
X64350000Y-37881928D01*
X62650000Y-37881928D01*
X62525518Y-37894188D01*
X62405820Y-37930498D01*
X62295506Y-37989463D01*
X62198815Y-38068815D01*
X62119463Y-38165506D01*
X62060498Y-38275820D01*
X62024188Y-38395518D01*
X62011928Y-38520000D01*
X55535242Y-38520000D01*
X55575000Y-38320128D01*
X55575000Y-37879872D01*
X55489110Y-37448075D01*
X55320631Y-37041331D01*
X55264283Y-36957000D01*
X82423000Y-36957000D01*
X82423000Y-107823000D01*
%TA.AperFunction,Conductor*%
D15*
G36*
X82423000Y-107823000D02*
G01*
X52197000Y-107823000D01*
X52197000Y-104560000D01*
X54391928Y-104560000D01*
X54391928Y-106260000D01*
X54404188Y-106384482D01*
X54440498Y-106504180D01*
X54499463Y-106614494D01*
X54578815Y-106711185D01*
X54675506Y-106790537D01*
X54785820Y-106849502D01*
X54905518Y-106885812D01*
X55030000Y-106898072D01*
X56730000Y-106898072D01*
X56854482Y-106885812D01*
X56974180Y-106849502D01*
X57084494Y-106790537D01*
X57181185Y-106711185D01*
X57260537Y-106614494D01*
X57319502Y-106504180D01*
X57355812Y-106384482D01*
X57368072Y-106260000D01*
X57368072Y-105189872D01*
X77775000Y-105189872D01*
X77775000Y-105630128D01*
X77860890Y-106061925D01*
X78029369Y-106468669D01*
X78273962Y-106834729D01*
X78585271Y-107146038D01*
X78951331Y-107390631D01*
X79358075Y-107559110D01*
X79789872Y-107645000D01*
X80230128Y-107645000D01*
X80661925Y-107559110D01*
X81068669Y-107390631D01*
X81434729Y-107146038D01*
X81746038Y-106834729D01*
X81990631Y-106468669D01*
X82159110Y-106061925D01*
X82245000Y-105630128D01*
X82245000Y-105189872D01*
X82159110Y-104758075D01*
X81990631Y-104351331D01*
X81746038Y-103985271D01*
X81434729Y-103673962D01*
X81068669Y-103429369D01*
X80661925Y-103260890D01*
X80230128Y-103175000D01*
X79789872Y-103175000D01*
X79358075Y-103260890D01*
X78951331Y-103429369D01*
X78585271Y-103673962D01*
X78273962Y-103985271D01*
X78029369Y-104351331D01*
X77860890Y-104758075D01*
X77775000Y-105189872D01*
X57368072Y-105189872D01*
X57368072Y-104560000D01*
X57355812Y-104435518D01*
X57319502Y-104315820D01*
X57260537Y-104205506D01*
X57181185Y-104108815D01*
X57084494Y-104029463D01*
X56974180Y-103970498D01*
X56901620Y-103948487D01*
X57033475Y-103816632D01*
X57195990Y-103573411D01*
X57307932Y-103303158D01*
X57365000Y-103016260D01*
X57365000Y-102723740D01*
X57307932Y-102436842D01*
X57195990Y-102166589D01*
X57033475Y-101923368D01*
X56826632Y-101716525D01*
X56652240Y-101600000D01*
X56826632Y-101483475D01*
X57033475Y-101276632D01*
X57195990Y-101033411D01*
X57307932Y-100763158D01*
X57365000Y-100476260D01*
X57365000Y-100183740D01*
X57307932Y-99896842D01*
X57195990Y-99626589D01*
X57033475Y-99383368D01*
X56826632Y-99176525D01*
X56652240Y-99060000D01*
X56826632Y-98943475D01*
X57033475Y-98736632D01*
X57195990Y-98493411D01*
X57307932Y-98223158D01*
X57365000Y-97936260D01*
X57365000Y-97643740D01*
X57307932Y-97356842D01*
X57195990Y-97086589D01*
X57033475Y-96843368D01*
X56826632Y-96636525D01*
X56644466Y-96514805D01*
X56761355Y-96445178D01*
X56977588Y-96250269D01*
X57151641Y-96016920D01*
X57276825Y-95754099D01*
X57321476Y-95606890D01*
X57200155Y-95377000D01*
X56007000Y-95377000D01*
X56007000Y-95397000D01*
X55753000Y-95397000D01*
X55753000Y-95377000D01*
X54559845Y-95377000D01*
X54438524Y-95606890D01*
X54483175Y-95754099D01*
X54608359Y-96016920D01*
X54782412Y-96250269D01*
X54998645Y-96445178D01*
X55115534Y-96514805D01*
X54933368Y-96636525D01*
X54726525Y-96843368D01*
X54564010Y-97086589D01*
X54452068Y-97356842D01*
X54395000Y-97643740D01*
X54395000Y-97936260D01*
X54452068Y-98223158D01*
X54564010Y-98493411D01*
X54726525Y-98736632D01*
X54933368Y-98943475D01*
X55107760Y-99060000D01*
X54933368Y-99176525D01*
X54726525Y-99383368D01*
X54564010Y-99626589D01*
X54452068Y-99896842D01*
X54395000Y-100183740D01*
X54395000Y-100476260D01*
X54452068Y-100763158D01*
X54564010Y-101033411D01*
X54726525Y-101276632D01*
X54933368Y-101483475D01*
X55107760Y-101600000D01*
X54933368Y-101716525D01*
X54726525Y-101923368D01*
X54564010Y-102166589D01*
X54452068Y-102436842D01*
X54395000Y-102723740D01*
X54395000Y-103016260D01*
X54452068Y-103303158D01*
X54564010Y-103573411D01*
X54726525Y-103816632D01*
X54858380Y-103948487D01*
X54785820Y-103970498D01*
X54675506Y-104029463D01*
X54578815Y-104108815D01*
X54499463Y-104205506D01*
X54440498Y-104315820D01*
X54404188Y-104435518D01*
X54391928Y-104560000D01*
X52197000Y-104560000D01*
X52197000Y-92563740D01*
X54395000Y-92563740D01*
X54395000Y-92856260D01*
X54452068Y-93143158D01*
X54564010Y-93413411D01*
X54726525Y-93656632D01*
X54933368Y-93863475D01*
X55115534Y-93985195D01*
X54998645Y-94054822D01*
X54782412Y-94249731D01*
X54608359Y-94483080D01*
X54483175Y-94745901D01*
X54438524Y-94893110D01*
X54559845Y-95123000D01*
X55753000Y-95123000D01*
X55753000Y-95103000D01*
X56007000Y-95103000D01*
X56007000Y-95123000D01*
X57200155Y-95123000D01*
X57321476Y-94893110D01*
X57276825Y-94745901D01*
X57151641Y-94483080D01*
X56977588Y-94249731D01*
X56761355Y-94054822D01*
X56644466Y-93985195D01*
X56826632Y-93863475D01*
X56970107Y-93720000D01*
X60910392Y-93720000D01*
X60960000Y-93724886D01*
X61157994Y-93705385D01*
X61348380Y-93647632D01*
X61523840Y-93553847D01*
X61677633Y-93427633D01*
X61709261Y-93389094D01*
X64179100Y-90919256D01*
X64217633Y-90887633D01*
X64343847Y-90733840D01*
X64437632Y-90558380D01*
X64495385Y-90367994D01*
X64510000Y-90219608D01*
X64510000Y-90219606D01*
X64514886Y-90170001D01*
X64510000Y-90120396D01*
X64510000Y-88720107D01*
X64590107Y-88640000D01*
X68161645Y-88640000D01*
X71380001Y-91858357D01*
X71380000Y-101779893D01*
X71236525Y-101923368D01*
X71120000Y-102097760D01*
X71003475Y-101923368D01*
X70796632Y-101716525D01*
X70553411Y-101554010D01*
X70283158Y-101442068D01*
X69996260Y-101385000D01*
X69703740Y-101385000D01*
X69416842Y-101442068D01*
X69146589Y-101554010D01*
X68903368Y-101716525D01*
X68696525Y-101923368D01*
X68580000Y-102097760D01*
X68463475Y-101923368D01*
X68256632Y-101716525D01*
X68013411Y-101554010D01*
X67743158Y-101442068D01*
X67456260Y-101385000D01*
X67163740Y-101385000D01*
X66876842Y-101442068D01*
X66606589Y-101554010D01*
X66363368Y-101716525D01*
X66156525Y-101923368D01*
X65994010Y-102166589D01*
X65882068Y-102436842D01*
X65825000Y-102723740D01*
X65825000Y-103016260D01*
X65882068Y-103303158D01*
X65994010Y-103573411D01*
X66156525Y-103816632D01*
X66363368Y-104023475D01*
X66606589Y-104185990D01*
X66876842Y-104297932D01*
X67163740Y-104355000D01*
X67456260Y-104355000D01*
X67743158Y-104297932D01*
X68013411Y-104185990D01*
X68256632Y-104023475D01*
X68463475Y-103816632D01*
X68580000Y-103642240D01*
X68696525Y-103816632D01*
X68903368Y-104023475D01*
X69146589Y-104185990D01*
X69416842Y-104297932D01*
X69703740Y-104355000D01*
X69996260Y-104355000D01*
X70283158Y-104297932D01*
X70553411Y-104185990D01*
X70796632Y-104023475D01*
X71003475Y-103816632D01*
X71120000Y-103642240D01*
X71236525Y-103816632D01*
X71443368Y-104023475D01*
X71686589Y-104185990D01*
X71956842Y-104297932D01*
X72243740Y-104355000D01*
X72536260Y-104355000D01*
X72823158Y-104297932D01*
X73093411Y-104185990D01*
X73336632Y-104023475D01*
X73468487Y-103891620D01*
X73490498Y-103964180D01*
X73549463Y-104074494D01*
X73628815Y-104171185D01*
X73725506Y-104250537D01*
X73835820Y-104309502D01*
X73955518Y-104345812D01*
X74080000Y-104358072D01*
X74644250Y-104355000D01*
X74803000Y-104196250D01*
X74803000Y-102997000D01*
X75057000Y-102997000D01*
X75057000Y-104196250D01*
X75215750Y-104355000D01*
X75780000Y-104358072D01*
X75904482Y-104345812D01*
X76024180Y-104309502D01*
X76134494Y-104250537D01*
X76231185Y-104171185D01*
X76310537Y-104074494D01*
X76369502Y-103964180D01*
X76405812Y-103844482D01*
X76418072Y-103720000D01*
X76415000Y-103155750D01*
X76256250Y-102997000D01*
X75057000Y-102997000D01*
X74803000Y-102997000D01*
X74783000Y-102997000D01*
X74783000Y-102743000D01*
X74803000Y-102743000D01*
X74803000Y-101543750D01*
X75057000Y-101543750D01*
X75057000Y-102743000D01*
X76256250Y-102743000D01*
X76415000Y-102584250D01*
X76418072Y-102020000D01*
X76405812Y-101895518D01*
X76369502Y-101775820D01*
X76310537Y-101665506D01*
X76231185Y-101568815D01*
X76134494Y-101489463D01*
X76024180Y-101430498D01*
X75904482Y-101394188D01*
X75780000Y-101381928D01*
X75215750Y-101385000D01*
X75057000Y-101543750D01*
X74803000Y-101543750D01*
X74644250Y-101385000D01*
X74080000Y-101381928D01*
X73955518Y-101394188D01*
X73835820Y-101430498D01*
X73725506Y-101489463D01*
X73628815Y-101568815D01*
X73549463Y-101665506D01*
X73490498Y-101775820D01*
X73468487Y-101848380D01*
X73400000Y-101779893D01*
X73400000Y-91489608D01*
X73404886Y-91440000D01*
X73385385Y-91242005D01*
X73327632Y-91051620D01*
X73233846Y-90876159D01*
X73139256Y-90760900D01*
X73107633Y-90722367D01*
X73069100Y-90690744D01*
X69329261Y-86950906D01*
X69297633Y-86912367D01*
X69143840Y-86786153D01*
X68968380Y-86692368D01*
X68777994Y-86634615D01*
X68629608Y-86620000D01*
X68580000Y-86615114D01*
X68530392Y-86620000D01*
X64590107Y-86620000D01*
X64446632Y-86476525D01*
X64264466Y-86354805D01*
X64381355Y-86285178D01*
X64597588Y-86090269D01*
X64771641Y-85856920D01*
X64896825Y-85594099D01*
X64941476Y-85446890D01*
X64820155Y-85217000D01*
X63627000Y-85217000D01*
X63627000Y-85237000D01*
X63373000Y-85237000D01*
X63373000Y-85217000D01*
X62179845Y-85217000D01*
X62058524Y-85446890D01*
X62103175Y-85594099D01*
X62228359Y-85856920D01*
X62402412Y-86090269D01*
X62618645Y-86285178D01*
X62735534Y-86354805D01*
X62553368Y-86476525D01*
X62409893Y-86620000D01*
X61378355Y-86620000D01*
X60700000Y-85941645D01*
X60700000Y-73709604D01*
X60704886Y-73659999D01*
X60693409Y-73543475D01*
X60685385Y-73462006D01*
X60627632Y-73271620D01*
X60533847Y-73096160D01*
X60407633Y-72942367D01*
X60369094Y-72910739D01*
X59169261Y-71710906D01*
X59137633Y-71672367D01*
X58983840Y-71546153D01*
X58808380Y-71452368D01*
X58619621Y-71395108D01*
X58589502Y-71295820D01*
X58530537Y-71185506D01*
X58451185Y-71088815D01*
X58354494Y-71009463D01*
X58244180Y-70950498D01*
X58124482Y-70914188D01*
X58000000Y-70901928D01*
X56300000Y-70901928D01*
X56175518Y-70914188D01*
X56055820Y-70950498D01*
X55945506Y-71009463D01*
X55848815Y-71088815D01*
X55769463Y-71185506D01*
X55710498Y-71295820D01*
X55674188Y-71415518D01*
X55661928Y-71540000D01*
X55661928Y-73240000D01*
X55674188Y-73364482D01*
X55710498Y-73484180D01*
X55769463Y-73594494D01*
X55848815Y-73691185D01*
X55945506Y-73770537D01*
X56055820Y-73829502D01*
X56136466Y-73853966D01*
X56052412Y-73929731D01*
X55878359Y-74163080D01*
X55753175Y-74425901D01*
X55708524Y-74573110D01*
X55829845Y-74803000D01*
X57023000Y-74803000D01*
X57023000Y-74783000D01*
X57277000Y-74783000D01*
X57277000Y-74803000D01*
X58470155Y-74803000D01*
X58591476Y-74573110D01*
X58546825Y-74425901D01*
X58421641Y-74163080D01*
X58247588Y-73929731D01*
X58163534Y-73853966D01*
X58244180Y-73829502D01*
X58354494Y-73770537D01*
X58364209Y-73762564D01*
X58680000Y-74078355D01*
X58680001Y-86310382D01*
X58675114Y-86360000D01*
X58694615Y-86557994D01*
X58752368Y-86748379D01*
X58823119Y-86880744D01*
X58846154Y-86923840D01*
X58972368Y-87077633D01*
X59010901Y-87109256D01*
X60210739Y-88309094D01*
X60242367Y-88347633D01*
X60396160Y-88473847D01*
X60571620Y-88567632D01*
X60762006Y-88625385D01*
X60910392Y-88640000D01*
X60910394Y-88640000D01*
X60959999Y-88644886D01*
X61009604Y-88640000D01*
X62409893Y-88640000D01*
X62490001Y-88720108D01*
X62490000Y-89751644D01*
X60541645Y-91700000D01*
X56970107Y-91700000D01*
X56826632Y-91556525D01*
X56583411Y-91394010D01*
X56313158Y-91282068D01*
X56026260Y-91225000D01*
X55733740Y-91225000D01*
X55446842Y-91282068D01*
X55176589Y-91394010D01*
X54933368Y-91556525D01*
X54726525Y-91763368D01*
X54564010Y-92006589D01*
X54452068Y-92276842D01*
X54395000Y-92563740D01*
X52197000Y-92563740D01*
X52197000Y-77323740D01*
X55665000Y-77323740D01*
X55665000Y-77616260D01*
X55722068Y-77903158D01*
X55834010Y-78173411D01*
X55996525Y-78416632D01*
X56203368Y-78623475D01*
X56377760Y-78740000D01*
X56203368Y-78856525D01*
X55996525Y-79063368D01*
X55834010Y-79306589D01*
X55722068Y-79576842D01*
X55665000Y-79863740D01*
X55665000Y-80156260D01*
X55722068Y-80443158D01*
X55834010Y-80713411D01*
X55996525Y-80956632D01*
X56203368Y-81163475D01*
X56446589Y-81325990D01*
X56716842Y-81437932D01*
X57003740Y-81495000D01*
X57296260Y-81495000D01*
X57583158Y-81437932D01*
X57853411Y-81325990D01*
X58096632Y-81163475D01*
X58303475Y-80956632D01*
X58465990Y-80713411D01*
X58577932Y-80443158D01*
X58635000Y-80156260D01*
X58635000Y-79863740D01*
X58577932Y-79576842D01*
X58465990Y-79306589D01*
X58303475Y-79063368D01*
X58096632Y-78856525D01*
X57922240Y-78740000D01*
X58096632Y-78623475D01*
X58303475Y-78416632D01*
X58465990Y-78173411D01*
X58577932Y-77903158D01*
X58635000Y-77616260D01*
X58635000Y-77323740D01*
X58577932Y-77036842D01*
X58465990Y-76766589D01*
X58303475Y-76523368D01*
X58096632Y-76316525D01*
X57914466Y-76194805D01*
X58031355Y-76125178D01*
X58247588Y-75930269D01*
X58421641Y-75696920D01*
X58546825Y-75434099D01*
X58591476Y-75286890D01*
X58470155Y-75057000D01*
X57277000Y-75057000D01*
X57277000Y-75077000D01*
X57023000Y-75077000D01*
X57023000Y-75057000D01*
X55829845Y-75057000D01*
X55708524Y-75286890D01*
X55753175Y-75434099D01*
X55878359Y-75696920D01*
X56052412Y-75930269D01*
X56268645Y-76125178D01*
X56385534Y-76194805D01*
X56203368Y-76316525D01*
X55996525Y-76523368D01*
X55834010Y-76766589D01*
X55722068Y-77036842D01*
X55665000Y-77323740D01*
X52197000Y-77323740D01*
X52197000Y-51220000D01*
X55661928Y-51220000D01*
X55661928Y-52920000D01*
X55674188Y-53044482D01*
X55710498Y-53164180D01*
X55769463Y-53274494D01*
X55848815Y-53371185D01*
X55945506Y-53450537D01*
X56055820Y-53509502D01*
X56175518Y-53545812D01*
X56300000Y-53558072D01*
X58000000Y-53558072D01*
X58124482Y-53545812D01*
X58244180Y-53509502D01*
X58354494Y-53450537D01*
X58451185Y-53371185D01*
X58530537Y-53274494D01*
X58589502Y-53164180D01*
X58625812Y-53044482D01*
X58638072Y-52920000D01*
X58638072Y-51220000D01*
X58625812Y-51095518D01*
X58589502Y-50975820D01*
X58530537Y-50865506D01*
X58451185Y-50768815D01*
X58354494Y-50689463D01*
X58244180Y-50630498D01*
X58124482Y-50594188D01*
X58000000Y-50581928D01*
X56300000Y-50581928D01*
X56175518Y-50594188D01*
X56055820Y-50630498D01*
X55945506Y-50689463D01*
X55848815Y-50768815D01*
X55769463Y-50865506D01*
X55710498Y-50975820D01*
X55674188Y-51095518D01*
X55661928Y-51220000D01*
X52197000Y-51220000D01*
X52197000Y-45300000D01*
X55661928Y-45300000D01*
X55674188Y-45424482D01*
X55710498Y-45544180D01*
X55769463Y-45654494D01*
X55848815Y-45751185D01*
X55945506Y-45830537D01*
X56055820Y-45889502D01*
X56175518Y-45925812D01*
X56300000Y-45938072D01*
X56864250Y-45935000D01*
X57023000Y-45776250D01*
X57023000Y-44577000D01*
X57277000Y-44577000D01*
X57277000Y-45776250D01*
X57435750Y-45935000D01*
X58000000Y-45938072D01*
X58124482Y-45925812D01*
X58244180Y-45889502D01*
X58354494Y-45830537D01*
X58451185Y-45751185D01*
X58530537Y-45654494D01*
X58589502Y-45544180D01*
X58625812Y-45424482D01*
X58638072Y-45300000D01*
X58635000Y-44735750D01*
X58476250Y-44577000D01*
X57277000Y-44577000D01*
X57023000Y-44577000D01*
X55823750Y-44577000D01*
X55665000Y-44735750D01*
X55661928Y-45300000D01*
X52197000Y-45300000D01*
X52197000Y-43600000D01*
X55661928Y-43600000D01*
X55665000Y-44164250D01*
X55823750Y-44323000D01*
X57023000Y-44323000D01*
X57023000Y-43123750D01*
X57277000Y-43123750D01*
X57277000Y-44323000D01*
X58476250Y-44323000D01*
X58635000Y-44164250D01*
X58638072Y-43600000D01*
X58625812Y-43475518D01*
X58589502Y-43355820D01*
X58530537Y-43245506D01*
X58451185Y-43148815D01*
X58354494Y-43069463D01*
X58244180Y-43010498D01*
X58124482Y-42974188D01*
X58000000Y-42961928D01*
X57435750Y-42965000D01*
X57277000Y-43123750D01*
X57023000Y-43123750D01*
X56864250Y-42965000D01*
X56300000Y-42961928D01*
X56175518Y-42974188D01*
X56055820Y-43010498D01*
X55945506Y-43069463D01*
X55848815Y-43148815D01*
X55769463Y-43245506D01*
X55710498Y-43355820D01*
X55674188Y-43475518D01*
X55661928Y-43600000D01*
X52197000Y-43600000D01*
X52197000Y-40024283D01*
X52281331Y-40080631D01*
X52688075Y-40249110D01*
X53119872Y-40335000D01*
X53560128Y-40335000D01*
X53991925Y-40249110D01*
X54398669Y-40080631D01*
X54764729Y-39836038D01*
X55076038Y-39524729D01*
X55320631Y-39158669D01*
X55489110Y-38751925D01*
X55535242Y-38520000D01*
X62011928Y-38520000D01*
X62011928Y-40220000D01*
X62024188Y-40344482D01*
X62060498Y-40464180D01*
X62119463Y-40574494D01*
X62198815Y-40671185D01*
X62295506Y-40750537D01*
X62405820Y-40809502D01*
X62478380Y-40831513D01*
X62346525Y-40963368D01*
X62184010Y-41206589D01*
X62072068Y-41476842D01*
X62015000Y-41763740D01*
X62015000Y-42056260D01*
X62072068Y-42343158D01*
X62184010Y-42613411D01*
X62346525Y-42856632D01*
X62553368Y-43063475D01*
X62727760Y-43180000D01*
X62553368Y-43296525D01*
X62346525Y-43503368D01*
X62184010Y-43746589D01*
X62072068Y-44016842D01*
X62015000Y-44303740D01*
X62015000Y-44596260D01*
X62072068Y-44883158D01*
X62184010Y-45153411D01*
X62346525Y-45396632D01*
X62553368Y-45603475D01*
X62727760Y-45720000D01*
X62553368Y-45836525D01*
X62346525Y-46043368D01*
X62184010Y-46286589D01*
X62072068Y-46556842D01*
X62015000Y-46843740D01*
X62015000Y-47136260D01*
X62072068Y-47423158D01*
X62184010Y-47693411D01*
X62346525Y-47936632D01*
X62553368Y-48143475D01*
X62727760Y-48260000D01*
X62553368Y-48376525D01*
X62346525Y-48583368D01*
X62184010Y-48826589D01*
X62072068Y-49096842D01*
X62015000Y-49383740D01*
X62015000Y-49676260D01*
X62072068Y-49963158D01*
X62184010Y-50233411D01*
X62346525Y-50476632D01*
X62553368Y-50683475D01*
X62727760Y-50800000D01*
X62553368Y-50916525D01*
X62346525Y-51123368D01*
X62184010Y-51366589D01*
X62072068Y-51636842D01*
X62015000Y-51923740D01*
X62015000Y-52216260D01*
X62072068Y-52503158D01*
X62184010Y-52773411D01*
X62346525Y-53016632D01*
X62553368Y-53223475D01*
X62727760Y-53340000D01*
X62553368Y-53456525D01*
X62346525Y-53663368D01*
X62184010Y-53906589D01*
X62072068Y-54176842D01*
X62015000Y-54463740D01*
X62015000Y-54756260D01*
X62072068Y-55043158D01*
X62184010Y-55313411D01*
X62346525Y-55556632D01*
X62553368Y-55763475D01*
X62727760Y-55880000D01*
X62553368Y-55996525D01*
X62346525Y-56203368D01*
X62184010Y-56446589D01*
X62072068Y-56716842D01*
X62015000Y-57003740D01*
X62015000Y-57296260D01*
X62072068Y-57583158D01*
X62184010Y-57853411D01*
X62346525Y-58096632D01*
X62553368Y-58303475D01*
X62727760Y-58420000D01*
X62553368Y-58536525D01*
X62346525Y-58743368D01*
X62184010Y-58986589D01*
X62072068Y-59256842D01*
X62015000Y-59543740D01*
X62015000Y-59836260D01*
X62072068Y-60123158D01*
X62184010Y-60393411D01*
X62346525Y-60636632D01*
X62553368Y-60843475D01*
X62727760Y-60960000D01*
X62553368Y-61076525D01*
X62346525Y-61283368D01*
X62184010Y-61526589D01*
X62072068Y-61796842D01*
X62015000Y-62083740D01*
X62015000Y-62376260D01*
X62072068Y-62663158D01*
X62184010Y-62933411D01*
X62346525Y-63176632D01*
X62553368Y-63383475D01*
X62727760Y-63500000D01*
X62553368Y-63616525D01*
X62346525Y-63823368D01*
X62184010Y-64066589D01*
X62072068Y-64336842D01*
X62015000Y-64623740D01*
X62015000Y-64916260D01*
X62072068Y-65203158D01*
X62184010Y-65473411D01*
X62346525Y-65716632D01*
X62553368Y-65923475D01*
X62727760Y-66040000D01*
X62553368Y-66156525D01*
X62346525Y-66363368D01*
X62184010Y-66606589D01*
X62072068Y-66876842D01*
X62015000Y-67163740D01*
X62015000Y-67456260D01*
X62072068Y-67743158D01*
X62184010Y-68013411D01*
X62346525Y-68256632D01*
X62553368Y-68463475D01*
X62727760Y-68580000D01*
X62553368Y-68696525D01*
X62346525Y-68903368D01*
X62184010Y-69146589D01*
X62072068Y-69416842D01*
X62015000Y-69703740D01*
X62015000Y-69996260D01*
X62072068Y-70283158D01*
X62184010Y-70553411D01*
X62346525Y-70796632D01*
X62553368Y-71003475D01*
X62727760Y-71120000D01*
X62553368Y-71236525D01*
X62346525Y-71443368D01*
X62184010Y-71686589D01*
X62072068Y-71956842D01*
X62015000Y-72243740D01*
X62015000Y-72536260D01*
X62072068Y-72823158D01*
X62184010Y-73093411D01*
X62346525Y-73336632D01*
X62553368Y-73543475D01*
X62727760Y-73660000D01*
X62553368Y-73776525D01*
X62346525Y-73983368D01*
X62184010Y-74226589D01*
X62072068Y-74496842D01*
X62015000Y-74783740D01*
X62015000Y-75076260D01*
X62072068Y-75363158D01*
X62184010Y-75633411D01*
X62346525Y-75876632D01*
X62553368Y-76083475D01*
X62727760Y-76200000D01*
X62553368Y-76316525D01*
X62346525Y-76523368D01*
X62184010Y-76766589D01*
X62072068Y-77036842D01*
X62015000Y-77323740D01*
X62015000Y-77616260D01*
X62072068Y-77903158D01*
X62184010Y-78173411D01*
X62346525Y-78416632D01*
X62553368Y-78623475D01*
X62727760Y-78740000D01*
X62553368Y-78856525D01*
X62346525Y-79063368D01*
X62184010Y-79306589D01*
X62072068Y-79576842D01*
X62015000Y-79863740D01*
X62015000Y-80156260D01*
X62072068Y-80443158D01*
X62184010Y-80713411D01*
X62346525Y-80956632D01*
X62553368Y-81163475D01*
X62727760Y-81280000D01*
X62553368Y-81396525D01*
X62346525Y-81603368D01*
X62184010Y-81846589D01*
X62072068Y-82116842D01*
X62015000Y-82403740D01*
X62015000Y-82696260D01*
X62072068Y-82983158D01*
X62184010Y-83253411D01*
X62346525Y-83496632D01*
X62553368Y-83703475D01*
X62735534Y-83825195D01*
X62618645Y-83894822D01*
X62402412Y-84089731D01*
X62228359Y-84323080D01*
X62103175Y-84585901D01*
X62058524Y-84733110D01*
X62179845Y-84963000D01*
X63373000Y-84963000D01*
X63373000Y-84943000D01*
X63627000Y-84943000D01*
X63627000Y-84963000D01*
X64820155Y-84963000D01*
X64941476Y-84733110D01*
X64896825Y-84585901D01*
X64771641Y-84323080D01*
X64597588Y-84089731D01*
X64381355Y-83894822D01*
X64264466Y-83825195D01*
X64446632Y-83703475D01*
X64653475Y-83496632D01*
X64815990Y-83253411D01*
X64927932Y-82983158D01*
X64985000Y-82696260D01*
X64985000Y-82403740D01*
X64927932Y-82116842D01*
X64815990Y-81846589D01*
X64653475Y-81603368D01*
X64446632Y-81396525D01*
X64272240Y-81280000D01*
X64446632Y-81163475D01*
X64653475Y-80956632D01*
X64815990Y-80713411D01*
X64927932Y-80443158D01*
X64985000Y-80156260D01*
X64985000Y-79863740D01*
X64927932Y-79576842D01*
X64815990Y-79306589D01*
X64653475Y-79063368D01*
X64446632Y-78856525D01*
X64272240Y-78740000D01*
X64446632Y-78623475D01*
X64653475Y-78416632D01*
X64815990Y-78173411D01*
X64927932Y-77903158D01*
X64985000Y-77616260D01*
X64985000Y-77323740D01*
X64927932Y-77036842D01*
X64815990Y-76766589D01*
X64653475Y-76523368D01*
X64446632Y-76316525D01*
X64272240Y-76200000D01*
X64446632Y-76083475D01*
X64653475Y-75876632D01*
X64815990Y-75633411D01*
X64927932Y-75363158D01*
X64985000Y-75076260D01*
X64985000Y-74783740D01*
X64927932Y-74496842D01*
X64815990Y-74226589D01*
X64653475Y-73983368D01*
X64446632Y-73776525D01*
X64272240Y-73660000D01*
X64446632Y-73543475D01*
X64653475Y-73336632D01*
X64815990Y-73093411D01*
X64927932Y-72823158D01*
X64985000Y-72536260D01*
X64985000Y-72243740D01*
X64927932Y-71956842D01*
X64815990Y-71686589D01*
X64653475Y-71443368D01*
X64446632Y-71236525D01*
X64272240Y-71120000D01*
X64446632Y-71003475D01*
X64653475Y-70796632D01*
X64815990Y-70553411D01*
X64927932Y-70283158D01*
X64985000Y-69996260D01*
X64985000Y-69703740D01*
X64927932Y-69416842D01*
X64815990Y-69146589D01*
X64653475Y-68903368D01*
X64446632Y-68696525D01*
X64272240Y-68580000D01*
X64446632Y-68463475D01*
X64653475Y-68256632D01*
X64815990Y-68013411D01*
X64927932Y-67743158D01*
X64985000Y-67456260D01*
X64985000Y-67163740D01*
X64927932Y-66876842D01*
X64815990Y-66606589D01*
X64653475Y-66363368D01*
X64446632Y-66156525D01*
X64272240Y-66040000D01*
X64446632Y-65923475D01*
X64653475Y-65716632D01*
X64815990Y-65473411D01*
X64927932Y-65203158D01*
X64985000Y-64916260D01*
X64985000Y-64623740D01*
X64927932Y-64336842D01*
X64815990Y-64066589D01*
X64653475Y-63823368D01*
X64446632Y-63616525D01*
X64272240Y-63500000D01*
X64446632Y-63383475D01*
X64653475Y-63176632D01*
X64815990Y-62933411D01*
X64927932Y-62663158D01*
X64985000Y-62376260D01*
X64985000Y-62083740D01*
X64927932Y-61796842D01*
X64815990Y-61526589D01*
X64653475Y-61283368D01*
X64446632Y-61076525D01*
X64272240Y-60960000D01*
X64446632Y-60843475D01*
X64653475Y-60636632D01*
X64815990Y-60393411D01*
X64927932Y-60123158D01*
X64985000Y-59836260D01*
X64985000Y-59543740D01*
X64927932Y-59256842D01*
X64815990Y-58986589D01*
X64653475Y-58743368D01*
X64446632Y-58536525D01*
X64272240Y-58420000D01*
X64446632Y-58303475D01*
X64653475Y-58096632D01*
X64815990Y-57853411D01*
X64927932Y-57583158D01*
X64985000Y-57296260D01*
X64985000Y-57003740D01*
X64927932Y-56716842D01*
X64815990Y-56446589D01*
X64653475Y-56203368D01*
X64446632Y-55996525D01*
X64272240Y-55880000D01*
X64446632Y-55763475D01*
X64653475Y-55556632D01*
X64815990Y-55313411D01*
X64927932Y-55043158D01*
X64985000Y-54756260D01*
X64985000Y-54463740D01*
X64927932Y-54176842D01*
X64815990Y-53906589D01*
X64653475Y-53663368D01*
X64446632Y-53456525D01*
X64272240Y-53340000D01*
X64446632Y-53223475D01*
X64653475Y-53016632D01*
X64815990Y-52773411D01*
X64927932Y-52503158D01*
X64985000Y-52216260D01*
X64985000Y-51923740D01*
X64927932Y-51636842D01*
X64815990Y-51366589D01*
X64653475Y-51123368D01*
X64446632Y-50916525D01*
X64272240Y-50800000D01*
X64446632Y-50683475D01*
X64653475Y-50476632D01*
X64815990Y-50233411D01*
X64927932Y-49963158D01*
X64985000Y-49676260D01*
X64985000Y-49383740D01*
X64927932Y-49096842D01*
X64815990Y-48826589D01*
X64653475Y-48583368D01*
X64446632Y-48376525D01*
X64272240Y-48260000D01*
X64446632Y-48143475D01*
X64653475Y-47936632D01*
X64815990Y-47693411D01*
X64927932Y-47423158D01*
X64985000Y-47136260D01*
X64985000Y-46843740D01*
X64927932Y-46556842D01*
X64815990Y-46286589D01*
X64653475Y-46043368D01*
X64446632Y-45836525D01*
X64272240Y-45720000D01*
X64446632Y-45603475D01*
X64653475Y-45396632D01*
X64815990Y-45153411D01*
X64927932Y-44883158D01*
X64985000Y-44596260D01*
X64985000Y-44303740D01*
X64927932Y-44016842D01*
X64815990Y-43746589D01*
X64653475Y-43503368D01*
X64446632Y-43296525D01*
X64272240Y-43180000D01*
X64446632Y-43063475D01*
X64653475Y-42856632D01*
X64815990Y-42613411D01*
X64927932Y-42343158D01*
X64985000Y-42056260D01*
X64985000Y-41763740D01*
X64927932Y-41476842D01*
X64815990Y-41206589D01*
X64653475Y-40963368D01*
X64521620Y-40831513D01*
X64594180Y-40809502D01*
X64704494Y-40750537D01*
X64801185Y-40671185D01*
X64880537Y-40574494D01*
X64939502Y-40464180D01*
X64975812Y-40344482D01*
X64988072Y-40220000D01*
X64988072Y-38520000D01*
X77251928Y-38520000D01*
X77251928Y-40220000D01*
X77264188Y-40344482D01*
X77300498Y-40464180D01*
X77359463Y-40574494D01*
X77438815Y-40671185D01*
X77535506Y-40750537D01*
X77645820Y-40809502D01*
X77718380Y-40831513D01*
X77586525Y-40963368D01*
X77424010Y-41206589D01*
X77312068Y-41476842D01*
X77255000Y-41763740D01*
X77255000Y-42056260D01*
X77312068Y-42343158D01*
X77424010Y-42613411D01*
X77586525Y-42856632D01*
X77793368Y-43063475D01*
X77967760Y-43180000D01*
X77793368Y-43296525D01*
X77586525Y-43503368D01*
X77424010Y-43746589D01*
X77312068Y-44016842D01*
X77255000Y-44303740D01*
X77255000Y-44596260D01*
X77312068Y-44883158D01*
X77424010Y-45153411D01*
X77586525Y-45396632D01*
X77793368Y-45603475D01*
X77967760Y-45720000D01*
X77793368Y-45836525D01*
X77586525Y-46043368D01*
X77424010Y-46286589D01*
X77312068Y-46556842D01*
X77255000Y-46843740D01*
X77255000Y-47136260D01*
X77312068Y-47423158D01*
X77424010Y-47693411D01*
X77586525Y-47936632D01*
X77793368Y-48143475D01*
X77967760Y-48260000D01*
X77793368Y-48376525D01*
X77586525Y-48583368D01*
X77424010Y-48826589D01*
X77312068Y-49096842D01*
X77255000Y-49383740D01*
X77255000Y-49676260D01*
X77312068Y-49963158D01*
X77424010Y-50233411D01*
X77586525Y-50476632D01*
X77793368Y-50683475D01*
X77967760Y-50800000D01*
X77793368Y-50916525D01*
X77586525Y-51123368D01*
X77424010Y-51366589D01*
X77312068Y-51636842D01*
X77255000Y-51923740D01*
X77255000Y-52216260D01*
X77312068Y-52503158D01*
X77424010Y-52773411D01*
X77586525Y-53016632D01*
X77793368Y-53223475D01*
X77967760Y-53340000D01*
X77793368Y-53456525D01*
X77586525Y-53663368D01*
X77424010Y-53906589D01*
X77312068Y-54176842D01*
X77255000Y-54463740D01*
X77255000Y-54756260D01*
X77312068Y-55043158D01*
X77424010Y-55313411D01*
X77586525Y-55556632D01*
X77793368Y-55763475D01*
X77967760Y-55880000D01*
X77793368Y-55996525D01*
X77586525Y-56203368D01*
X77424010Y-56446589D01*
X77312068Y-56716842D01*
X77255000Y-57003740D01*
X77255000Y-57296260D01*
X77312068Y-57583158D01*
X77424010Y-57853411D01*
X77586525Y-58096632D01*
X77793368Y-58303475D01*
X77967760Y-58420000D01*
X77793368Y-58536525D01*
X77586525Y-58743368D01*
X77424010Y-58986589D01*
X77312068Y-59256842D01*
X77255000Y-59543740D01*
X77255000Y-59836260D01*
X77312068Y-60123158D01*
X77424010Y-60393411D01*
X77586525Y-60636632D01*
X77793368Y-60843475D01*
X77967760Y-60960000D01*
X77793368Y-61076525D01*
X77586525Y-61283368D01*
X77424010Y-61526589D01*
X77312068Y-61796842D01*
X77255000Y-62083740D01*
X77255000Y-62376260D01*
X77312068Y-62663158D01*
X77424010Y-62933411D01*
X77586525Y-63176632D01*
X77793368Y-63383475D01*
X77967760Y-63500000D01*
X77793368Y-63616525D01*
X77586525Y-63823368D01*
X77424010Y-64066589D01*
X77312068Y-64336842D01*
X77255000Y-64623740D01*
X77255000Y-64916260D01*
X77312068Y-65203158D01*
X77424010Y-65473411D01*
X77586525Y-65716632D01*
X77793368Y-65923475D01*
X77967760Y-66040000D01*
X77793368Y-66156525D01*
X77586525Y-66363368D01*
X77424010Y-66606589D01*
X77312068Y-66876842D01*
X77255000Y-67163740D01*
X77255000Y-67456260D01*
X77312068Y-67743158D01*
X77424010Y-68013411D01*
X77586525Y-68256632D01*
X77793368Y-68463475D01*
X77967760Y-68580000D01*
X77793368Y-68696525D01*
X77586525Y-68903368D01*
X77424010Y-69146589D01*
X77312068Y-69416842D01*
X77255000Y-69703740D01*
X77255000Y-69996260D01*
X77312068Y-70283158D01*
X77424010Y-70553411D01*
X77586525Y-70796632D01*
X77793368Y-71003475D01*
X77967760Y-71120000D01*
X77793368Y-71236525D01*
X77586525Y-71443368D01*
X77424010Y-71686589D01*
X77312068Y-71956842D01*
X77255000Y-72243740D01*
X77255000Y-72536260D01*
X77312068Y-72823158D01*
X77424010Y-73093411D01*
X77586525Y-73336632D01*
X77793368Y-73543475D01*
X77967760Y-73660000D01*
X77793368Y-73776525D01*
X77586525Y-73983368D01*
X77424010Y-74226589D01*
X77312068Y-74496842D01*
X77255000Y-74783740D01*
X77255000Y-75076260D01*
X77312068Y-75363158D01*
X77424010Y-75633411D01*
X77586525Y-75876632D01*
X77793368Y-76083475D01*
X77967760Y-76200000D01*
X77793368Y-76316525D01*
X77586525Y-76523368D01*
X77424010Y-76766589D01*
X77312068Y-77036842D01*
X77255000Y-77323740D01*
X77255000Y-77616260D01*
X77312068Y-77903158D01*
X77424010Y-78173411D01*
X77586525Y-78416632D01*
X77793368Y-78623475D01*
X77967760Y-78740000D01*
X77793368Y-78856525D01*
X77586525Y-79063368D01*
X77424010Y-79306589D01*
X77312068Y-79576842D01*
X77255000Y-79863740D01*
X77255000Y-80156260D01*
X77312068Y-80443158D01*
X77424010Y-80713411D01*
X77586525Y-80956632D01*
X77793368Y-81163475D01*
X77967760Y-81280000D01*
X77793368Y-81396525D01*
X77586525Y-81603368D01*
X77424010Y-81846589D01*
X77312068Y-82116842D01*
X77255000Y-82403740D01*
X77255000Y-82696260D01*
X77312068Y-82983158D01*
X77424010Y-83253411D01*
X77586525Y-83496632D01*
X77793368Y-83703475D01*
X77967760Y-83820000D01*
X77793368Y-83936525D01*
X77586525Y-84143368D01*
X77424010Y-84386589D01*
X77312068Y-84656842D01*
X77255000Y-84943740D01*
X77255000Y-85236260D01*
X77312068Y-85523158D01*
X77424010Y-85793411D01*
X77586525Y-86036632D01*
X77793368Y-86243475D01*
X77967760Y-86360000D01*
X77793368Y-86476525D01*
X77586525Y-86683368D01*
X77424010Y-86926589D01*
X77312068Y-87196842D01*
X77255000Y-87483740D01*
X77255000Y-87776260D01*
X77312068Y-88063158D01*
X77424010Y-88333411D01*
X77586525Y-88576632D01*
X77793368Y-88783475D01*
X78036589Y-88945990D01*
X78306842Y-89057932D01*
X78593740Y-89115000D01*
X78886260Y-89115000D01*
X79173158Y-89057932D01*
X79443411Y-88945990D01*
X79686632Y-88783475D01*
X79893475Y-88576632D01*
X80055990Y-88333411D01*
X80167932Y-88063158D01*
X80225000Y-87776260D01*
X80225000Y-87483740D01*
X80167932Y-87196842D01*
X80055990Y-86926589D01*
X79893475Y-86683368D01*
X79686632Y-86476525D01*
X79512240Y-86360000D01*
X79686632Y-86243475D01*
X79893475Y-86036632D01*
X80055990Y-85793411D01*
X80167932Y-85523158D01*
X80225000Y-85236260D01*
X80225000Y-84943740D01*
X80167932Y-84656842D01*
X80055990Y-84386589D01*
X79893475Y-84143368D01*
X79686632Y-83936525D01*
X79512240Y-83820000D01*
X79686632Y-83703475D01*
X79893475Y-83496632D01*
X80055990Y-83253411D01*
X80167932Y-82983158D01*
X80225000Y-82696260D01*
X80225000Y-82403740D01*
X80167932Y-82116842D01*
X80055990Y-81846589D01*
X79893475Y-81603368D01*
X79686632Y-81396525D01*
X79512240Y-81280000D01*
X79686632Y-81163475D01*
X79893475Y-80956632D01*
X80055990Y-80713411D01*
X80167932Y-80443158D01*
X80225000Y-80156260D01*
X80225000Y-79863740D01*
X80167932Y-79576842D01*
X80055990Y-79306589D01*
X79893475Y-79063368D01*
X79686632Y-78856525D01*
X79512240Y-78740000D01*
X79686632Y-78623475D01*
X79893475Y-78416632D01*
X80055990Y-78173411D01*
X80167932Y-77903158D01*
X80225000Y-77616260D01*
X80225000Y-77323740D01*
X80167932Y-77036842D01*
X80055990Y-76766589D01*
X79893475Y-76523368D01*
X79686632Y-76316525D01*
X79512240Y-76200000D01*
X79686632Y-76083475D01*
X79893475Y-75876632D01*
X80055990Y-75633411D01*
X80167932Y-75363158D01*
X80225000Y-75076260D01*
X80225000Y-74783740D01*
X80167932Y-74496842D01*
X80055990Y-74226589D01*
X79893475Y-73983368D01*
X79686632Y-73776525D01*
X79512240Y-73660000D01*
X79686632Y-73543475D01*
X79893475Y-73336632D01*
X80055990Y-73093411D01*
X80167932Y-72823158D01*
X80225000Y-72536260D01*
X80225000Y-72243740D01*
X80167932Y-71956842D01*
X80055990Y-71686589D01*
X79893475Y-71443368D01*
X79686632Y-71236525D01*
X79512240Y-71120000D01*
X79686632Y-71003475D01*
X79893475Y-70796632D01*
X80055990Y-70553411D01*
X80167932Y-70283158D01*
X80225000Y-69996260D01*
X80225000Y-69703740D01*
X80167932Y-69416842D01*
X80055990Y-69146589D01*
X79893475Y-68903368D01*
X79686632Y-68696525D01*
X79512240Y-68580000D01*
X79686632Y-68463475D01*
X79893475Y-68256632D01*
X80055990Y-68013411D01*
X80167932Y-67743158D01*
X80225000Y-67456260D01*
X80225000Y-67163740D01*
X80167932Y-66876842D01*
X80055990Y-66606589D01*
X79893475Y-66363368D01*
X79686632Y-66156525D01*
X79512240Y-66040000D01*
X79686632Y-65923475D01*
X79893475Y-65716632D01*
X80055990Y-65473411D01*
X80167932Y-65203158D01*
X80225000Y-64916260D01*
X80225000Y-64623740D01*
X80167932Y-64336842D01*
X80055990Y-64066589D01*
X79893475Y-63823368D01*
X79686632Y-63616525D01*
X79512240Y-63500000D01*
X79686632Y-63383475D01*
X79893475Y-63176632D01*
X80055990Y-62933411D01*
X80167932Y-62663158D01*
X80225000Y-62376260D01*
X80225000Y-62083740D01*
X80167932Y-61796842D01*
X80055990Y-61526589D01*
X79893475Y-61283368D01*
X79686632Y-61076525D01*
X79512240Y-60960000D01*
X79686632Y-60843475D01*
X79893475Y-60636632D01*
X80055990Y-60393411D01*
X80167932Y-60123158D01*
X80225000Y-59836260D01*
X80225000Y-59543740D01*
X80167932Y-59256842D01*
X80055990Y-58986589D01*
X79893475Y-58743368D01*
X79686632Y-58536525D01*
X79512240Y-58420000D01*
X79686632Y-58303475D01*
X79893475Y-58096632D01*
X80055990Y-57853411D01*
X80167932Y-57583158D01*
X80225000Y-57296260D01*
X80225000Y-57003740D01*
X80167932Y-56716842D01*
X80055990Y-56446589D01*
X79893475Y-56203368D01*
X79686632Y-55996525D01*
X79512240Y-55880000D01*
X79686632Y-55763475D01*
X79893475Y-55556632D01*
X80055990Y-55313411D01*
X80167932Y-55043158D01*
X80225000Y-54756260D01*
X80225000Y-54463740D01*
X80167932Y-54176842D01*
X80055990Y-53906589D01*
X79893475Y-53663368D01*
X79686632Y-53456525D01*
X79512240Y-53340000D01*
X79686632Y-53223475D01*
X79893475Y-53016632D01*
X80055990Y-52773411D01*
X80167932Y-52503158D01*
X80225000Y-52216260D01*
X80225000Y-51923740D01*
X80167932Y-51636842D01*
X80055990Y-51366589D01*
X79893475Y-51123368D01*
X79686632Y-50916525D01*
X79512240Y-50800000D01*
X79686632Y-50683475D01*
X79893475Y-50476632D01*
X80055990Y-50233411D01*
X80167932Y-49963158D01*
X80225000Y-49676260D01*
X80225000Y-49383740D01*
X80167932Y-49096842D01*
X80055990Y-48826589D01*
X79893475Y-48583368D01*
X79686632Y-48376525D01*
X79512240Y-48260000D01*
X79686632Y-48143475D01*
X79893475Y-47936632D01*
X80055990Y-47693411D01*
X80167932Y-47423158D01*
X80225000Y-47136260D01*
X80225000Y-46843740D01*
X80167932Y-46556842D01*
X80055990Y-46286589D01*
X79893475Y-46043368D01*
X79686632Y-45836525D01*
X79512240Y-45720000D01*
X79686632Y-45603475D01*
X79893475Y-45396632D01*
X80055990Y-45153411D01*
X80167932Y-44883158D01*
X80225000Y-44596260D01*
X80225000Y-44303740D01*
X80167932Y-44016842D01*
X80055990Y-43746589D01*
X79893475Y-43503368D01*
X79686632Y-43296525D01*
X79512240Y-43180000D01*
X79686632Y-43063475D01*
X79893475Y-42856632D01*
X80055990Y-42613411D01*
X80167932Y-42343158D01*
X80225000Y-42056260D01*
X80225000Y-41763740D01*
X80167932Y-41476842D01*
X80055990Y-41206589D01*
X79893475Y-40963368D01*
X79761620Y-40831513D01*
X79834180Y-40809502D01*
X79944494Y-40750537D01*
X80041185Y-40671185D01*
X80120537Y-40574494D01*
X80179502Y-40464180D01*
X80215812Y-40344482D01*
X80228072Y-40220000D01*
X80228072Y-38520000D01*
X80215812Y-38395518D01*
X80179502Y-38275820D01*
X80120537Y-38165506D01*
X80041185Y-38068815D01*
X79944494Y-37989463D01*
X79834180Y-37930498D01*
X79714482Y-37894188D01*
X79590000Y-37881928D01*
X77890000Y-37881928D01*
X77765518Y-37894188D01*
X77645820Y-37930498D01*
X77535506Y-37989463D01*
X77438815Y-38068815D01*
X77359463Y-38165506D01*
X77300498Y-38275820D01*
X77264188Y-38395518D01*
X77251928Y-38520000D01*
X64988072Y-38520000D01*
X64975812Y-38395518D01*
X64939502Y-38275820D01*
X64880537Y-38165506D01*
X64801185Y-38068815D01*
X64704494Y-37989463D01*
X64594180Y-37930498D01*
X64474482Y-37894188D01*
X64350000Y-37881928D01*
X62650000Y-37881928D01*
X62525518Y-37894188D01*
X62405820Y-37930498D01*
X62295506Y-37989463D01*
X62198815Y-38068815D01*
X62119463Y-38165506D01*
X62060498Y-38275820D01*
X62024188Y-38395518D01*
X62011928Y-38520000D01*
X55535242Y-38520000D01*
X55575000Y-38320128D01*
X55575000Y-37879872D01*
X55489110Y-37448075D01*
X55320631Y-37041331D01*
X55264283Y-36957000D01*
X82423000Y-36957000D01*
X82423000Y-107823000D01*
G37*
%TD.AperFunction*%
%TD*%
M02*
