%TF.GenerationSoftware,KiCad,Pcbnew,5.1.10-88a1d61d58~90~ubuntu20.04.1*%
%TF.CreationDate,2021-11-29T14:26:11+09:00*%
%TF.ProjectId,auto-headlight-control-system,6175746f-2d68-4656-9164-6c696768742d,rev?*%
%TF.SameCoordinates,Original*%
%TF.FileFunction,Soldermask,Top*%
%TF.FilePolarity,Negative*%
%FSLAX46Y46*%
G04 Gerber Fmt 4.6, Leading zero omitted, Abs format (unit mm)*
G04 Created by KiCad (PCBNEW 5.1.10-88a1d61d58~90~ubuntu20.04.1) date 2021-11-29 14:26:11*
%MOMM*%
%LPD*%
G01*
G04 APERTURE LIST*
%ADD10C,3.200000*%
%ADD11O,1.700000X1.700000*%
%ADD12R,1.700000X1.700000*%
G04 APERTURE END LIST*
D10*
%TO.C, *%
X80010000Y-105410000D03*
%TD*%
%TO.C, *%
X53340000Y-38100000D03*
%TD*%
D11*
%TO.C,U2*%
X78740000Y-87630000D03*
X78740000Y-85090000D03*
X78740000Y-82550000D03*
X78740000Y-80010000D03*
X78740000Y-77470000D03*
X78740000Y-74930000D03*
X78740000Y-72390000D03*
X78740000Y-69850000D03*
X78740000Y-67310000D03*
X78740000Y-64770000D03*
X78740000Y-62230000D03*
X78740000Y-59690000D03*
X78740000Y-57150000D03*
X78740000Y-54610000D03*
X78740000Y-52070000D03*
X78740000Y-49530000D03*
X78740000Y-46990000D03*
X78740000Y-44450000D03*
X78740000Y-41910000D03*
D12*
X78740000Y-39370000D03*
%TD*%
%TO.C,S1*%
X55880000Y-105410000D03*
D11*
X55880000Y-102870000D03*
X55880000Y-100330000D03*
X55880000Y-97790000D03*
X55880000Y-95250000D03*
X55880000Y-92710000D03*
%TD*%
D12*
%TO.C,U1*%
X63500000Y-39370000D03*
D11*
X63500000Y-41910000D03*
X63500000Y-44450000D03*
X63500000Y-46990000D03*
X63500000Y-49530000D03*
X63500000Y-52070000D03*
X63500000Y-54610000D03*
X63500000Y-57150000D03*
X63500000Y-59690000D03*
X63500000Y-62230000D03*
X63500000Y-64770000D03*
X63500000Y-67310000D03*
X63500000Y-69850000D03*
X63500000Y-72390000D03*
X63500000Y-74930000D03*
X63500000Y-77470000D03*
X63500000Y-80010000D03*
X63500000Y-82550000D03*
X63500000Y-85090000D03*
X63500000Y-87630000D03*
%TD*%
D12*
%TO.C,S2*%
X74930000Y-102870000D03*
D11*
X72390000Y-102870000D03*
X69850000Y-102870000D03*
X67310000Y-102870000D03*
%TD*%
%TO.C,T1*%
X57150000Y-80010000D03*
X57150000Y-77470000D03*
X57150000Y-74930000D03*
D12*
X57150000Y-72390000D03*
%TD*%
%TO.C,J2*%
X57150000Y-44450000D03*
%TD*%
%TO.C,J1*%
X57150000Y-52070000D03*
%TD*%
M02*
